<svg width="13" height="13" viewBox="0 0 13 13" fill="none" xmlns="http://www.w3.org/2000/svg">
<path fill-rule="evenodd" clip-rule="evenodd" d="M5.57293 0.78125C5.57293 1.05739 5.34908 1.28125 5.07293 1.28125L2.97266 1.28125C2.14423 1.28125 1.47266 1.95282 1.47266 2.78125L1.47266 10.2179C1.47266 11.0463 2.14423 11.7179 2.97266 11.7179H5.07293C5.34908 11.7179 5.57293 11.9418 5.57293 12.2179C5.57293 12.494 5.34908 12.7179 5.07293 12.7179H2.97266C1.59194 12.7179 0.472656 11.5986 0.472656 10.2179V2.78125C0.472656 1.40054 1.59194 0.28125 2.97266 0.28125H5.07293C5.34908 0.28125 5.57293 0.505108 5.57293 0.78125ZM3.77737 6.50001C3.77737 6.77615 4.00123 7.00001 4.27737 7.00001L11.2431 7.00001L8.62321 9.61992C8.42795 9.81519 8.42795 10.1318 8.62321 10.327C8.81847 10.5223 9.13506 10.5223 9.33032 10.327L12.0877 7.56968C12.6721 6.9853 12.6737 6.03833 12.0913 5.45196L9.33152 2.67345C9.13692 2.47752 8.82034 2.47645 8.62441 2.67105C8.42849 2.86565 8.42742 3.18223 8.62201 3.37815L11.2262 6.00001L4.27737 6.00001C4.00122 6.00001 3.77737 6.22387 3.77737 6.50001Z" fill="black" fill-opacity="0.6"/>
</svg>
