<svg width="15" height="15" viewBox="0 0 15 15" fill="none" xmlns="http://www.w3.org/2000/svg">
<path fill-rule="evenodd" clip-rule="evenodd" d="M8.36724 1.81839L8.01621 1.06617C7.80624 0.616245 7.16602 0.617535 6.95787 1.0683L6.60987 1.82193C6.17141 2.77147 5.07856 3.22672 4.09565 2.86929L3.31553 2.58561C2.84892 2.41594 2.39712 2.86956 2.56868 3.33548L2.8555 4.11445C3.21689 5.09591 2.76604 6.19058 1.81828 6.63287L1.06606 6.9839C0.616135 7.19387 0.617425 7.83409 1.06819 8.04224L1.82182 8.39024C2.77136 8.8287 3.22661 9.92155 2.86918 10.9045L2.5855 11.6846C2.41582 12.1512 2.86945 12.603 3.33537 12.4314L4.11434 12.1446C5.0958 11.7832 6.19047 12.2341 6.63276 13.1818L6.98379 13.9341C7.19376 14.384 7.83398 14.3827 8.04213 13.9319L8.39013 13.1783C8.82859 12.2288 9.92144 11.7735 10.9044 12.1309L11.6845 12.4146C12.1511 12.5843 12.6029 12.1307 12.4313 11.6647L12.1445 10.8858C11.7831 9.90431 12.234 8.80964 13.1817 8.36735L13.9339 8.01632C14.3839 7.80635 14.3826 7.16613 13.9318 6.95798L13.1782 6.60998C12.2286 6.17152 11.7734 5.07867 12.1308 4.09576L12.4145 3.31564C12.5842 2.84903 12.1306 2.39723 11.6646 2.56879L10.8857 2.85561C9.9042 3.217 8.80953 2.76615 8.36724 1.81839ZM8.66348 0.76411C8.19645 -0.236673 6.77237 -0.233803 6.30938 0.768853L5.96138 1.52248C5.67858 2.13492 4.97371 2.42855 4.33975 2.19801L3.55963 1.91433C2.52174 1.53691 1.51679 2.54592 1.89839 3.58229L2.18521 4.36125C2.4183 4.99428 2.12751 5.70033 1.51622 5.9856L0.764 6.33663C-0.236783 6.80366 -0.233913 8.22774 0.768743 8.69073L1.52237 9.03873C2.13481 9.32153 2.42844 10.0264 2.1979 10.6604L1.91422 11.4405C1.5368 12.4784 2.54581 13.4833 3.58218 13.1017L4.36114 12.8149C4.99417 12.5818 5.70022 12.8726 5.98549 13.4839L6.33652 14.2361C6.80355 15.2369 8.22763 15.234 8.69062 14.2314L9.03862 13.4777C9.32142 12.8653 10.0263 12.5717 10.6603 12.8022L11.4404 13.0859C12.4783 13.4633 13.4832 12.4543 13.1016 11.4179L12.8148 10.639C12.5817 10.0059 12.8725 9.29989 13.4838 9.01463L14.236 8.66359C15.2368 8.19656 15.2339 6.77248 14.2313 6.30949L13.4776 5.96149C12.8652 5.67869 12.5716 4.97382 12.8021 4.33986L13.0858 3.55974C13.4632 2.52185 12.4542 1.5169 11.4178 1.8985L10.6389 2.18532C10.0058 2.41841 9.29978 2.12762 9.01452 1.51633L8.66348 0.76411Z" fill="black" fill-opacity="0.6"/>
<path d="M10.2611 7.49971C10.2611 9.02426 9.02524 10.2602 7.50068 10.2602C5.97613 10.2602 4.74023 9.02426 4.74023 7.49971C4.74023 5.97515 5.97613 4.73926 7.50068 4.73926C9.02524 4.73926 10.2611 5.97515 10.2611 7.49971Z" fill="white"/>
<path fill-rule="evenodd" clip-rule="evenodd" d="M7.50068 9.54587C8.63075 9.54587 9.54685 8.62977 9.54685 7.49971C9.54685 6.36964 8.63075 5.45354 7.50068 5.45354C6.37062 5.45354 5.45452 6.36964 5.45452 7.49971C5.45452 8.62977 6.37062 9.54587 7.50068 9.54587ZM7.50068 10.2602C9.02524 10.2602 10.2611 9.02426 10.2611 7.49971C10.2611 5.97515 9.02524 4.73926 7.50068 4.73926C5.97613 4.73926 4.74023 5.97515 4.74023 7.49971C4.74023 9.02426 5.97613 10.2602 7.50068 10.2602Z" fill="black" fill-opacity="0.6"/>
</svg>
