<svg width="15" height="15" viewBox="0 0 15 15" fill="none" xmlns="http://www.w3.org/2000/svg">
<path fill-rule="evenodd" clip-rule="evenodd" d="M7.50098 1.0459C5.78924 1.0459 4.14762 1.72588 2.93724 2.93626C1.72686 4.14664 1.04688 5.78827 1.04688 7.5C1.04688 9.21173 1.72686 10.8534 2.93724 12.0637C4.14762 13.2741 5.78924 13.9541 7.50098 13.9541C9.21271 13.9541 10.8543 13.2741 12.0647 12.0637C13.2751 10.8534 13.9551 9.21173 13.9551 7.5C13.9551 5.78827 13.2751 4.14664 12.0647 2.93626C10.8543 1.72588 9.21271 1.0459 7.50098 1.0459ZM2.23013 2.22915C3.62805 0.831239 5.52403 0.0458984 7.50098 0.0458984C9.47793 0.0458984 11.3739 0.831239 12.7718 2.22915C14.1697 3.62707 14.9551 5.52305 14.9551 7.5C14.9551 9.47695 14.1697 11.3729 12.7718 12.7708C11.3739 14.1688 9.47793 14.9541 7.50098 14.9541C5.52403 14.9541 3.62805 14.1688 2.23013 12.7708C0.832216 11.3729 0.046875 9.47695 0.046875 7.5C0.046875 5.52305 0.832216 3.62707 2.23013 2.22915Z" fill="black" fill-opacity="0.6"/>
<path d="M6.92784 8.90995C6.93693 7.69089 7.30993 7.3179 7.93765 6.9358C8.31065 6.70837 8.60177 6.34447 8.60177 5.83501C8.60177 5.21639 8.1196 4.8252 7.51917 4.8252C7.00062 4.8252 6.48206 5.13451 6.42748 5.8805H5.59961C5.6451 4.77971 6.48206 4.13379 7.51917 4.13379C8.65635 4.13379 9.40234 4.87068 9.40234 5.8714C9.40234 6.581 9.06574 7.08136 8.5017 7.42707C7.93765 7.77277 7.72841 8.11847 7.71022 8.90995V8.95544H6.92784V8.90995ZM7.34632 10.8659C7.02791 10.8659 6.75499 10.6021 6.76408 10.2746C6.75499 9.95616 7.02791 9.69233 7.34632 9.69233C7.66473 9.69233 7.92856 9.95616 7.92856 10.2746C7.92856 10.6021 7.66473 10.8659 7.34632 10.8659Z" fill="black" fill-opacity="0.6"/>
</svg>
