<svg width="15" height="15" viewBox="0 0 15 15" fill="none" xmlns="http://www.w3.org/2000/svg">
<path d="M8.07838 4.51172L7.98413 8.68388H7.01592L6.9131 4.51172H8.07838ZM6.83598 9.85143C6.8317 9.50852 7.13587 9.22684 7.50431 9.22275C7.85989 9.22684 8.16406 9.50852 8.16406 9.85143C8.16406 10.2025 7.85989 10.4883 7.50431 10.4883C7.13587 10.4883 6.8317 10.2025 6.83598 9.85143Z" fill="black" fill-opacity="0.6"/>
<path fill-rule="evenodd" clip-rule="evenodd" d="M7.50098 1.0459C5.78924 1.0459 4.14762 1.72588 2.93724 2.93626C1.72686 4.14664 1.04688 5.78827 1.04688 7.5C1.04688 9.21173 1.72686 10.8534 2.93724 12.0637C4.14762 13.2741 5.78924 13.9541 7.50098 13.9541C9.21271 13.9541 10.8543 13.2741 12.0647 12.0637C13.2751 10.8534 13.9551 9.21173 13.9551 7.5C13.9551 5.78827 13.2751 4.14664 12.0647 2.93626C10.8543 1.72588 9.21271 1.0459 7.50098 1.0459ZM2.23013 2.22915C3.62805 0.831239 5.52403 0.0458984 7.50098 0.0458984C9.47793 0.0458984 11.3739 0.831239 12.7718 2.22915C14.1697 3.62707 14.9551 5.52305 14.9551 7.5C14.9551 9.47695 14.1697 11.3729 12.7718 12.7708C11.3739 14.1688 9.47793 14.9541 7.50098 14.9541C5.52403 14.9541 3.62805 14.1688 2.23013 12.7708C0.832216 11.3729 0.046875 9.47695 0.046875 7.5C0.046875 5.52305 0.832216 3.62707 2.23013 2.22915Z" fill="black" fill-opacity="0.6"/>
</svg>
