<svg xmlns="http://www.w3.org/2000/svg" width="14" height="16" viewBox="0 0 14 16" fill="none">
  <path fill-rule="evenodd" clip-rule="evenodd" d="M5.86796 0.897587C6.0949 1.13905 6.08313 1.51877 5.84166 1.74571L2.93024 4.482H8.59423C8.59918 4.482 8.607 4.48193 8.61676 4.48185C8.64822 4.48159 8.69977 4.48115 8.73971 4.48221C11.6582 4.55947 14 6.94919 14 9.88607C14 12.8716 11.5798 15.2919 8.59423 15.2919C8.26286 15.2919 7.99423 15.0232 7.99423 14.6919C7.99423 14.3605 8.26286 14.0919 8.59423 14.0919C10.917 14.0919 12.8 12.2089 12.8 9.88607C12.8 7.60388 10.9821 5.74608 8.71563 5.682H2.92138L5.84342 8.45052C6.08397 8.67843 6.09421 9.05819 5.8663 9.29874C5.63839 9.53929 5.25863 9.54953 5.01808 9.32162L0.541504 5.08024L5.01984 0.871288C5.26131 0.644348 5.64102 0.656123 5.86796 0.897587Z" fill="#8C8C8C"/>
</svg>