<!-- <svg xmlns="http://www.w3.org/2000/svg" width="22" height="22" viewBox="0 0 22 22" fill="none">
  <path fill-rule="evenodd" clip-rule="evenodd" d="M6.90243 2.16807C8.3356 1.24419 9.92414 0.970286 11.0241 1.00249C12.124 0.970286 13.7125 1.24419 15.1457 2.16807C16.6701 3.15075 17.9865 4.85025 18.3538 7.59214L18.3592 7.63281V7.67387V14.8406L19.8947 17.4351L20.4358 18.3494H19.3906H14.5032C14.2152 19.8744 12.8535 21 11.2597 21C9.66601 21 8.30432 19.8744 8.01631 18.3494H2.65749H1.6123L2.1534 17.4351L3.68892 14.8406V7.67387V7.63281L3.69437 7.59214C4.06161 4.85025 5.37805 3.15075 6.90243 2.16807ZM9.2327 18.3494C9.49663 19.1746 10.2887 19.7952 11.2597 19.7952C12.2308 19.7952 13.0229 19.1746 13.2868 18.3494H11.1419H10.9062H9.2327ZM8.54945 17.1446H3.70268L4.78221 15.3205L4.86731 15.1767V15.0087V7.71558C5.19351 5.35733 6.30242 3.97917 7.53092 3.18723C8.65884 2.46012 9.91397 2.21208 10.8102 2.20493C10.8519 2.21193 10.8951 2.21442 10.939 2.21192C10.9669 2.21033 10.9952 2.20899 11.0241 2.20793C11.0529 2.20899 11.0813 2.21033 11.1091 2.21192C11.1531 2.21442 11.1962 2.21193 11.2379 2.20493C12.1342 2.21208 13.3893 2.46012 14.5172 3.18723C15.7457 3.97917 16.8546 5.35733 17.1808 7.71558V15.0087V15.1767L17.2659 15.3205L18.3455 17.1446H13.97H11.1419H10.9062H8.54945Z" fill="black" stroke="black" stroke-width="0.833333" stroke-linecap="round"/>
</svg> -->

<svg xmlns="http://www.w3.org/2000/svg" width="19" height="20" viewBox="0 0 19 20" fill="none">
  <path fill-rule="evenodd" clip-rule="evenodd" d="M5.50204 1.16807C6.93521 0.244191 8.52375 -0.0297142 9.62368 0.00249359C10.7236 -0.0297142 12.3122 0.244191 13.7453 1.16807C15.2697 2.15075 16.5861 3.85025 16.9534 6.59214L16.9588 6.63281V6.67387V13.8406L18.4944 16.4351L18.5031 16.4499C18.7382 16.8472 18.4519 17.3494 17.9903 17.3494H13.1028C12.8148 18.8744 11.4531 20 9.85936 20C8.26562 20 6.90393 18.8744 6.61592 17.3494H1.2571C0.795483 17.3494 0.509134 16.8472 0.744245 16.4499L0.753011 16.4351L2.28853 13.8406V6.67387V6.63281L2.29397 6.59214C2.66122 3.85025 3.97766 2.15075 5.50204 1.16807ZM7.83231 17.3494C8.09623 18.1746 8.8883 18.7952 9.85936 18.7952C10.8304 18.7952 11.6225 18.1746 11.8864 17.3494H9.74152H9.50584H7.83231ZM7.14906 16.1446H2.65306C2.49814 16.1446 2.40204 15.976 2.48094 15.8427L3.38182 14.3205L3.46692 14.1767V14.0087V6.71558C3.79312 4.35733 4.90203 2.97917 6.13053 2.18723C7.25845 1.46012 8.51358 1.21208 9.40983 1.20493C9.45155 1.21193 9.49466 1.21442 9.53863 1.21192C9.56649 1.21033 9.59485 1.20899 9.62368 1.20793C9.65251 1.20899 9.68087 1.21033 9.70873 1.21192C9.7527 1.21442 9.79581 1.21193 9.83754 1.20493C10.7338 1.21208 11.9889 1.46012 13.1168 2.18723C14.3453 2.97917 15.4542 4.35733 15.7804 6.71558V14.0087V14.1767L15.8655 14.3205L16.7664 15.8427C16.8453 15.976 16.7492 16.1446 16.5943 16.1446H12.5697H9.74152H9.50584H7.14906Z" fill="#323232"/>
</svg>