<svg xmlns="http://www.w3.org/2000/svg" width="16" height="16" viewBox="0 0 16 16" fill="none">
  <path d="M12.5713 8.70316L12.5713 11.868C12.5713 12.0545 12.4972 12.2334 12.3653 12.3653C12.2334 12.4972 12.0545 12.5713 11.868 12.5713L4.13173 12.5713C3.9452 12.5713 3.76632 12.4972 3.63442 12.3653C3.50253 12.2334 3.42843 12.0545 3.42843 11.868L3.42843 4.13173C3.42843 3.9452 3.50253 3.76632 3.63442 3.63442C3.76632 3.50253 3.9452 3.42843 4.13173 3.42843L7.29656 3.42843M10.1098 3.42843L12.5713 3.42843M12.5713 3.42843L12.5713 5.88997M12.5713 3.42843L7.99986 7.99986" stroke="#226FFF" stroke-width="1.31429" stroke-linecap="round" stroke-linejoin="round"/>
</svg>