<svg xmlns="http://www.w3.org/2000/svg" width="16" height="16" viewBox="0 0 16 16" fill="none">
  <path d="M1.66736 6.33207H14.334M1.66736 6.33207V13.6654C1.66736 13.8422 1.7376 14.0118 1.86262 14.1368C1.98764 14.2618 2.15721 14.3321 2.33403 14.3321H13.6674C13.8442 14.3321 14.0137 14.2618 14.1388 14.1368C14.2638 14.0118 14.334 13.8422 14.334 13.6654V6.33207M1.66736 6.33207V3.33207C1.66736 3.15526 1.7376 2.98569 1.86262 2.86067C1.98764 2.73564 2.15721 2.66541 2.33403 2.66541H13.6674C13.8442 2.66541 14.0137 2.73564 14.1388 2.86067C14.2638 2.98569 14.334 3.15526 14.334 3.33207V6.33207" stroke="#226FFF" stroke-linejoin="round"/>
  <path d="M5.33398 10.332L7.33398 12.332L11.334 8.33203" stroke="#226FFF" stroke-linecap="round" stroke-linejoin="round"/>
  <path d="M5.33398 1.66541V4.33207M10.6673 1.66541V4.33207" stroke="#226FFF" stroke-linecap="round"/>
</svg>