<svg xmlns="http://www.w3.org/2000/svg" width="20" height="20" viewBox="0 0 20 20" fill="none">
  <path d="M6.625 7.75C6.625 8.04837 6.50647 8.33452 6.2955 8.5455C6.08452 8.75647 5.79837 8.875 5.5 8.875C5.20163 8.875 4.91548 8.75647 4.7045 8.5455C4.49353 8.33452 4.375 8.04837 4.375 7.75C4.375 7.45163 4.49353 7.16548 4.7045 6.9545C4.91548 6.74353 5.20163 6.625 5.5 6.625C5.79837 6.625 6.08452 6.74353 6.2955 6.9545C6.50647 7.16548 6.625 7.45163 6.625 7.75ZM11.125 7.75C11.125 8.04837 11.0065 8.33452 10.7955 8.5455C10.5845 8.75647 10.2984 8.875 10 8.875C9.70163 8.875 9.41548 8.75647 9.2045 8.5455C8.99353 8.33452 8.875 8.04837 8.875 7.75C8.875 7.45163 8.99353 7.16548 9.2045 6.9545C9.41548 6.74353 9.70163 6.625 10 6.625C10.2984 6.625 10.5845 6.74353 10.7955 6.9545C11.0065 7.16548 11.125 7.45163 11.125 7.75ZM14.5 8.875C14.7984 8.875 15.0845 8.75647 15.2955 8.5455C15.5065 8.33452 15.625 8.04837 15.625 7.75C15.625 7.45163 15.5065 7.16548 15.2955 6.9545C15.0845 6.74353 14.7984 6.625 14.5 6.625C14.2016 6.625 13.9155 6.74353 13.7045 6.9545C13.4935 7.16548 13.375 7.45163 13.375 7.75C13.375 8.04837 13.4935 8.33452 13.7045 8.5455C13.9155 8.75647 14.2016 8.875 14.5 8.875ZM2.125 14.5C1.82663 14.5 1.54048 14.3815 1.3295 14.1705C1.11853 13.9595 1 13.6734 1 13.375V2.125C1 1.82663 1.11853 1.54048 1.3295 1.3295C1.54048 1.11853 1.82663 1 2.125 1H17.875C18.1734 1 18.4595 1.11853 18.6705 1.3295C18.8815 1.54048 19 1.82663 19 2.125V13.375C19 13.6734 18.8815 13.9595 18.6705 14.1705C18.4595 14.3815 18.1734 14.5 17.875 14.5H10.4657L6.29537 18.6704C6.13804 18.8277 5.93761 18.9348 5.71941 18.9782C5.50121 19.0215 5.27505 18.9993 5.06951 18.9141C4.86398 18.829 4.68829 18.6849 4.56467 18.4999C4.44105 18.3149 4.37505 18.0975 4.375 17.875V14.5H2.125ZM5.5 13.375V17.875L10 13.375H17.65C17.7743 13.375 17.875 13.2743 17.875 13.15V2.35C17.875 2.22574 17.7743 2.125 17.65 2.125H2.35C2.22574 2.125 2.125 2.22574 2.125 2.35V13.15C2.125 13.2743 2.22574 13.375 2.35 13.375H5.5Z" fill="#323232"/>
</svg>