<svg width="18" height="16" viewBox="0 0 18 16" fill="none" xmlns="http://www.w3.org/2000/svg">
<path d="M11.5866 11.3367C11.8059 11.5674 11.7975 11.9323 11.5669 12.1538C10.4257 13.2429 8.72978 13.8672 6.91778 13.8672C6.34332 13.8672 5.77661 13.7913 5.22188 13.6654L2.81153 15.3775C2.71098 15.4479 2.59356 15.4837 2.47685 15.4837C2.36013 15.4837 2.24622 15.4493 2.14778 15.3796C1.9481 15.2411 1.85598 14.9908 1.91927 14.7553L2.55489 12.392C1.50161 11.5265 0.900391 10.3706 0.900391 9.15907C0.900391 8.07696 1.37922 7.02082 2.25039 6.18352C2.48102 5.96203 2.84594 5.97118 3.06602 6.19969C3.28751 6.43032 3.28047 6.79524 3.04984 7.01673C2.39805 7.6411 2.05422 8.3829 2.05422 9.15843C2.05422 10.1231 2.58367 11.0267 3.54133 11.7002C3.56454 11.7164 3.58282 11.7381 3.60462 11.7557C3.61165 11.7613 3.61727 11.7663 3.6243 11.774C3.6693 11.8211 3.70727 11.8767 3.73399 11.9357C3.73962 11.9463 3.74313 11.9589 3.74665 11.9716C3.76985 12.0363 3.78813 12.1031 3.78813 12.1734C3.78813 12.224 3.7811 12.2795 3.76844 12.3281L3.45133 13.5037L4.75282 12.5805C4.81962 12.5334 4.89696 12.5066 4.9757 12.4905C4.97922 12.4905 4.98484 12.4905 4.98836 12.4884C5.0207 12.4827 5.05305 12.4743 5.08539 12.4743C5.09102 12.4743 5.09453 12.4778 5.09945 12.4778C5.14656 12.4778 5.19297 12.4813 5.24008 12.494C5.7857 12.6381 6.34891 12.712 6.91768 12.712C8.43718 12.712 9.84058 12.2043 10.7694 11.317C11 11.0976 11.3649 11.1046 11.5864 11.3366L11.5866 11.3367ZM16.8424 13.2C16.7454 13.2647 16.6336 13.2971 16.5218 13.2971C16.3973 13.2971 16.2736 13.2577 16.1709 13.1783L12.8085 10.6097C12.047 10.8452 11.2244 10.9753 10.3659 10.9753C6.66887 10.9753 3.66092 8.63168 3.66092 5.74823C3.66092 2.86403 6.66887 0.515625 10.3659 0.515625C14.063 0.515625 17.0709 2.86268 17.0709 5.74823C17.0709 6.75651 16.7109 7.71563 16.0303 8.54888L17.0815 12.5722C17.1426 12.8112 17.047 13.0637 16.8424 13.1987L16.8424 13.2ZM15.5388 11.2397L14.8371 8.54885C14.7851 8.35056 14.8512 8.15792 14.9791 8.01798L14.9721 8.01095C15.5894 7.34158 15.915 6.55829 15.915 5.74685C15.915 3.49895 13.4259 1.67015 10.3659 1.67015C7.30589 1.67015 4.81679 3.49895 4.81679 5.74685C4.81679 7.99475 7.30589 9.8186 10.3659 9.8186C11.1991 9.8186 11.995 9.68571 12.7312 9.42415L12.8177 9.39743L12.8212 9.40657C12.9759 9.37774 13.1398 9.40657 13.2748 9.51063L15.5389 11.2403L15.5388 11.2397Z" fill="black"/>
</svg>
