<svg xmlns="http://www.w3.org/2000/svg" width="8" height="8" viewBox="0 0 8 8" fill="none">
  <path fill-rule="evenodd" clip-rule="evenodd" d="M7.79976 6.93306C8.0433 7.17714 8.0433 7.57286 7.79976 7.81694C7.55622 8.06102 7.16136 8.06102 6.91782 7.81694L4.00001 4.8927L1.0822 7.81694C0.838656 8.06102 0.443798 8.06102 0.200256 7.81694C-0.0432849 7.57286 -0.0432849 7.17714 0.200256 6.93306L3.11807 4.00882L0.182656 1.06694C-0.0608852 0.822864 -0.0608854 0.427136 0.182656 0.183058C0.426197 -0.0610195 0.821056 -0.0610193 1.0646 0.183058L4.00001 3.12494L6.93542 0.183058C7.17896 -0.0610193 7.57382 -0.0610195 7.81736 0.183058C8.0609 0.427136 8.0609 0.822864 7.81736 1.06694L4.88195 4.00882L7.79976 6.93306Z" fill="#666666"/>
</svg>