<svg xmlns="http://www.w3.org/2000/svg" width="44" height="44" viewBox="0 0 44 44" fill="none">
  <path fill-rule="evenodd" clip-rule="evenodd" d="M9.42871 24.0186C9.42871 21.6839 15.0571 18.6309 22.0001 18.6309C28.9432 18.6309 34.5716 21.6839 34.5716 24.0186V29.4064C34.5716 31.7411 28.9432 34.7941 22.0001 34.7941C15.0571 34.7941 9.42871 31.7411 9.42871 29.4064V24.0186Z" fill="white" stroke="#666666" stroke-width="1.79592" stroke-linecap="round" stroke-linejoin="round"/>
  <path fill-rule="evenodd" clip-rule="evenodd" d="M22.0001 29.3776C28.9432 29.3776 34.5716 26.4934 34.5716 24.015C34.5716 21.5367 28.9432 18.6309 22.0001 18.6309C15.0571 18.6309 9.42871 21.5349 9.42871 24.015C9.42871 26.4934 15.0571 29.3776 22.0001 29.3776Z" fill="white" stroke="#666666" stroke-width="1.79592" stroke-linecap="round" stroke-linejoin="round"/>
  <path fill-rule="evenodd" clip-rule="evenodd" d="M9.42871 18.6309C9.42871 16.2962 15.0571 13.2432 22.0001 13.2432C28.9432 13.2432 34.5716 16.2962 34.5716 18.6309V24.0187C34.5716 26.3534 28.9432 29.4064 22.0001 29.4064C15.0571 29.4064 9.42871 26.3534 9.42871 24.0187V18.6309Z" fill="white" stroke="#666666" stroke-width="1.79592" stroke-linecap="round" stroke-linejoin="round"/>
  <path fill-rule="evenodd" clip-rule="evenodd" d="M22.0001 23.9899C28.9432 23.9899 34.5716 21.1057 34.5716 18.6273C34.5716 16.149 28.9432 13.2432 22.0001 13.2432C15.0571 13.2432 9.42871 16.1472 9.42871 18.6273C9.42871 21.1057 15.0571 23.9899 22.0001 23.9899Z" fill="white" stroke="#666666" stroke-width="1.79592" stroke-linecap="round" stroke-linejoin="round"/>
  <path fill-rule="evenodd" clip-rule="evenodd" d="M9.42871 13.2442C9.42871 10.9095 15.0571 7.85645 22.0001 7.85645C28.9432 7.85645 34.5716 10.9095 34.5716 13.2442V18.632C34.5716 20.9666 28.9432 24.0197 22.0001 24.0197C15.0571 24.0197 9.42871 20.9666 9.42871 18.632V13.2442Z" fill="white" stroke="#666666" stroke-width="1.79592" stroke-linecap="round" stroke-linejoin="round"/>
  <path fill-rule="evenodd" clip-rule="evenodd" d="M22.0001 18.6032C28.9432 18.6032 34.5716 15.719 34.5716 13.2406C34.5716 10.7622 28.9432 7.85645 22.0001 7.85645C15.0571 7.85645 9.42871 10.7604 9.42871 13.2406C9.42871 15.719 15.0571 18.6032 22.0001 18.6032Z" fill="white" stroke="#666666" stroke-width="1.79592" stroke-linecap="round" stroke-linejoin="round"/>
</svg>