<svg xmlns="http://www.w3.org/2000/svg" width="45" height="44" viewBox="0 0 45 44" fill="none">
  <path fill-rule="evenodd" clip-rule="evenodd" d="M5.38086 22.4473C5.38086 20.1126 11.0093 17.0596 17.9523 17.0596C24.8953 17.0596 30.5237 20.1126 30.5237 22.4473V27.8351C30.5237 30.1698 24.8953 33.2228 17.9523 33.2228C11.0093 33.2228 5.38086 30.1698 5.38086 27.8351V22.4473Z" fill="white" stroke="#666666" stroke-width="1.79592" stroke-linecap="round" stroke-linejoin="round"/>
  <path fill-rule="evenodd" clip-rule="evenodd" d="M17.9523 27.8063C24.8953 27.8063 30.5237 24.9221 30.5237 22.4437C30.5237 19.9654 24.8953 17.0596 17.9523 17.0596C11.0093 17.0596 5.38086 19.9636 5.38086 22.4437C5.38086 24.9221 11.0093 27.8063 17.9523 27.8063Z" fill="white" stroke="#666666" stroke-width="1.79592" stroke-linecap="round" stroke-linejoin="round"/>
  <path fill-rule="evenodd" clip-rule="evenodd" d="M5.38086 17.0596C5.38086 14.7249 11.0093 11.6719 17.9523 11.6719C24.8953 11.6719 30.5237 14.7249 30.5237 17.0596V22.4474C30.5237 24.7821 24.8953 27.8351 17.9523 27.8351C11.0093 27.8351 5.38086 24.7821 5.38086 22.4474V17.0596Z" fill="white" stroke="#666666" stroke-width="1.79592" stroke-linecap="round" stroke-linejoin="round"/>
  <path fill-rule="evenodd" clip-rule="evenodd" d="M17.9523 22.4187C24.8953 22.4187 30.5237 19.5344 30.5237 17.056C30.5237 14.5777 24.8953 11.6719 17.9523 11.6719C11.0093 11.6719 5.38086 14.5759 5.38086 17.056C5.38086 19.5344 11.0093 22.4187 17.9523 22.4187Z" fill="white" stroke="#666666" stroke-width="1.79592" stroke-linecap="round" stroke-linejoin="round"/>
  <path fill-rule="evenodd" clip-rule="evenodd" d="M5.38086 11.6729C5.38086 9.33822 11.0093 6.28516 17.9523 6.28516C24.8953 6.28516 30.5237 9.33822 30.5237 11.6729V17.0607C30.5237 19.3954 24.8953 22.4484 17.9523 22.4484C11.0093 22.4484 5.38086 19.3954 5.38086 17.0607V11.6729Z" fill="white" stroke="#666666" stroke-width="1.79592" stroke-linecap="round" stroke-linejoin="round"/>
  <path fill-rule="evenodd" clip-rule="evenodd" d="M17.9523 17.0319C24.8953 17.0319 30.5237 14.1477 30.5237 11.6693C30.5237 9.19095 24.8953 6.28516 17.9523 6.28516C11.0093 6.28516 5.38086 9.18916 5.38086 11.6693C5.38086 14.1477 11.0093 17.0319 17.9523 17.0319Z" fill="white" stroke="#666666" stroke-width="1.79592" stroke-linecap="round" stroke-linejoin="round"/>
  <path fill-rule="evenodd" clip-rule="evenodd" d="M14.8096 28.3975C14.8096 26.0628 20.438 23.0098 27.381 23.0098C34.324 23.0098 39.9524 26.0628 39.9524 28.3975V33.7853C39.9524 36.12 34.324 39.173 27.381 39.173C20.438 39.173 14.8096 36.12 14.8096 33.7853V28.3975Z" fill="white" stroke="#666666" stroke-width="1.79592" stroke-linecap="round" stroke-linejoin="round"/>
  <path fill-rule="evenodd" clip-rule="evenodd" d="M27.381 33.7565C34.324 33.7565 39.9524 30.8723 39.9524 28.3939C39.9524 25.9156 34.324 23.0098 27.381 23.0098C20.438 23.0098 14.8096 25.9138 14.8096 28.3939C14.8096 30.8723 20.438 33.7565 27.381 33.7565Z" fill="white" stroke="#666666" stroke-width="1.79592" stroke-linecap="round" stroke-linejoin="round"/>
  <path fill-rule="evenodd" clip-rule="evenodd" d="M14.8096 23.0088C14.8096 20.6742 20.438 17.6211 27.381 17.6211C34.324 17.6211 39.9524 20.6742 39.9524 23.0088V28.3966C39.9524 30.7313 34.324 33.7844 27.381 33.7844C20.438 33.7844 14.8096 30.7313 14.8096 28.3966V23.0088Z" fill="white" stroke="#666666" stroke-width="1.79592" stroke-linecap="round" stroke-linejoin="round"/>
  <path fill-rule="evenodd" clip-rule="evenodd" d="M27.381 28.3679C34.324 28.3679 39.9524 25.4836 39.9524 23.0053C39.9524 20.5269 34.324 17.6211 27.381 17.6211C20.438 17.6211 14.8096 20.5251 14.8096 23.0053C14.8096 25.4836 20.438 28.3679 27.381 28.3679Z" fill="white" stroke="#666666" stroke-width="1.79592" stroke-linecap="round" stroke-linejoin="round"/>
</svg>