<svg xmlns="http://www.w3.org/2000/svg" width="140" height="140" viewBox="0 0 140 140" fill="none">
  <rect width="140" height="140" rx="70" fill="#EBF3D2"/>
  <path d="M96.8948 42.8722C97.2604 42.7751 97.5325 42.4702 97.5883 42.0948L98.7303 34.3637C98.7692 34.107 98.699 33.8458 98.5379 33.6413C98.3767 33.4367 98.1392 33.3074 97.8806 33.2852L90.0969 32.5864C89.7188 32.5528 89.3587 32.7461 89.1788 33.0787C88.9988 33.4114 89.0322 33.8171 89.2666 34.1146L91.0247 36.346L40.4457 76.1961C39.8971 76.6283 39.8031 77.4207 40.2353 77.9692L41.798 79.9527C42.2302 80.5013 43.0226 80.5953 43.5711 80.1631L94.1502 40.313L95.9083 42.5444C96.1427 42.842 96.5293 42.9693 96.8948 42.8722Z" fill="#A3D306"/>
  <rect x="42.4443" y="95.6572" width="11.7841" height="15.1509" rx="1.68344" fill="#AFE208"/>
  <rect x="64.3301" y="77.9795" width="11.7841" height="32.827" rx="1.68344" fill="#AFE208"/>
  <rect x="86.2139" y="53.5713" width="11.7841" height="57.2369" rx="1.68344" fill="#AFE208"/>
</svg>