<svg xmlns="http://www.w3.org/2000/svg" width="140" height="140" viewBox="0 0 140 140" fill="none">
  <rect width="140" height="140" rx="70" fill="#E5EBFF"/>
  <path d="M62.8738 104.362H76.9592C77.2174 104.362 77.4287 104.574 77.4287 104.832V106.71C77.4287 107.749 76.5894 108.588 75.5506 108.588H64.2823C63.2435 108.588 62.4043 107.749 62.4043 106.71V104.832C62.4043 104.574 62.6156 104.362 62.8738 104.362Z" fill="#95A7EB"/>
  <path d="M60.292 91.9235C54.5405 88.5959 50.667 82.3748 50.667 75.25C50.667 64.6214 59.2884 56 69.917 56C80.5456 56 89.167 64.6214 89.167 75.25C89.167 82.3748 85.2935 88.5959 79.542 91.9235V98.7256C79.542 99.7644 78.7027 100.604 77.6639 100.604H62.17C61.1312 100.604 60.292 99.7644 60.292 98.7256V91.9235Z" fill="#5276FF"/>
  <path fill-rule="evenodd" clip-rule="evenodd" d="M69.9173 49C68.3065 49 67.0007 47.6942 67.0007 46.0833L67.0007 34.4167C67.0007 32.8058 68.3065 31.5 69.9173 31.5C71.5281 31.5 72.834 32.8058 72.834 34.4167L72.834 46.0833C72.834 47.6942 71.5281 49 69.9173 49Z" fill="#95A7EB"/>
  <path fill-rule="evenodd" clip-rule="evenodd" d="M84.7302 54.604C83.5912 53.4649 83.5912 51.6182 84.7302 50.4792L92.9798 42.2296C94.1188 41.0906 95.9656 41.0906 97.1046 42.2296C98.2436 43.3686 98.2436 45.2154 97.1046 46.3544L88.855 54.604C87.716 55.743 85.8693 55.743 84.7302 54.604Z" fill="#95A7EB"/>
  <path fill-rule="evenodd" clip-rule="evenodd" d="M55.1049 54.6047C53.9659 55.7438 52.1192 55.7438 50.9802 54.6047L42.7306 46.3552C41.5915 45.2161 41.5915 43.3694 42.7306 42.2304C43.8696 41.0913 45.7163 41.0913 46.8554 42.2304L55.1049 50.4799C56.244 51.619 56.244 53.4657 55.1049 54.6047Z" fill="#95A7EB"/>
  <path fill-rule="evenodd" clip-rule="evenodd" d="M94.5 64.2484C94.5 62.6375 95.8058 61.3317 97.4167 61.3317L109.083 61.3317C110.694 61.3317 112 62.6375 112 64.2484C112 65.8592 110.694 67.165 109.083 67.165L97.4167 67.165C95.8058 67.165 94.5 65.8592 94.5 64.2484Z" fill="#95A7EB"/>
  <path fill-rule="evenodd" clip-rule="evenodd" d="M45.5 64.2484C45.5 62.6375 44.1942 61.3317 42.5833 61.3317H30.9167C29.3058 61.3317 28 62.6375 28 64.2484C28 65.8592 29.3058 67.165 30.9167 67.165H42.5833C44.1942 67.165 45.5 65.8592 45.5 64.2484Z" fill="#95A7EB"/>
</svg>