<svg xmlns="http://www.w3.org/2000/svg" width="140" height="140" viewBox="0 0 140 140" fill="none">
  <rect width="140" height="140" rx="70" fill="#F5E9FE"/>
  <path d="M43.166 43.1663C43.166 41.8777 44.2107 40.833 45.4993 40.833H51.3327C52.6213 40.833 53.666 41.8777 53.666 43.1663V47.833C53.666 49.1217 54.7107 50.1663 55.9993 50.1663H85.166C86.4547 50.1663 87.4993 49.1217 87.4993 47.833V43.1663C87.4993 41.8777 88.544 40.833 89.8327 40.833H95.666C96.9547 40.833 97.9993 41.8777 97.9993 43.1663V64.1663V102.666C97.9993 103.955 96.9547 105 95.666 105H45.4993C44.2107 105 43.166 103.955 43.166 102.666V43.1663Z" fill="#D9A9F9"/>
  <path d="M57.166 44.3337C57.166 45.6223 58.2107 46.667 59.4993 46.667H81.666C82.9547 46.667 83.9994 45.6223 83.9994 44.3337V42.0003C83.9994 40.7117 82.9547 39.667 81.666 39.667H79.3327C78.044 39.667 76.9993 38.6223 76.9993 37.3337C76.9993 36.045 75.9547 35.0003 74.666 35.0003H66.4993C65.2107 35.0003 64.166 36.045 64.166 37.3337C64.166 38.6223 63.1213 39.667 61.8327 39.667H59.4993C58.2107 39.667 57.166 40.7117 57.166 42.0003V44.3337Z" fill="#BD69F6"/>
</svg>