<svg xmlns="http://www.w3.org/2000/svg" width="140" height="140" viewBox="0 0 140 140" fill="none">
  <rect width="140" height="140" rx="70" fill="#DAF7F1"/>
  <path d="M59.5017 69.999C55.7888 69.999 52.2279 68.524 49.6025 65.8986C46.9771 63.2732 45.5022 59.7124 45.5022 55.9995C45.5022 52.2866 46.9771 48.7258 49.6025 46.1004C52.2279 43.4749 55.7888 42 59.5017 42C63.2146 42 66.7754 43.4749 69.4008 46.1004C72.0262 48.7258 73.5012 52.2866 73.5012 55.9995C73.5012 59.7124 72.0262 63.2732 69.4008 65.8986C66.7754 68.524 63.2146 69.999 59.5017 69.999ZM38.3974 98.2534C36.357 98.2534 34.7296 96.4405 35.0376 94.4281C35.9478 88.5946 38.9139 83.2788 43.4003 79.4406C47.8867 75.6025 53.5975 73.4951 59.5017 73.4988C65.4052 73.4959 71.1152 75.6037 75.6009 79.4418C80.0865 83.2798 83.0521 88.5951 83.9623 94.4281C84.2773 96.4405 82.6463 98.2534 80.6094 98.2534H38.3974Z" fill="#44D8BB"/>
  <path d="M101.976 59.5011H83.4899C81.8379 59.5011 80.501 57.9507 80.501 56.0398V55.9663C80.501 54.0553 81.8379 52.5049 83.4899 52.5049H101.976C103.642 52.5049 105 54.0798 105 56.0048C105 57.9297 103.642 59.5046 101.976 59.5046V59.5011ZM101.976 73.5006H83.4899C81.8379 73.5006 80.501 71.9502 80.501 70.0392V69.9622C80.501 68.0513 81.8379 66.5009 83.4899 66.5009H101.976C103.642 66.5009 105 68.0758 105 70.0007C105 71.9257 103.642 73.5006 101.976 73.5006ZM102.053 87.5001H90.4091C88.7992 87.5001 87.5007 85.9497 87.5007 84.0387V83.9617C87.5007 82.0508 88.8027 80.5004 90.4091 80.5004H102.053C103.674 80.5004 105 82.0753 105 84.0002C105 85.9252 103.674 87.5001 102.053 87.5001Z" fill="#88D4C5"/>
</svg>