<svg xmlns="http://www.w3.org/2000/svg" width="140" height="140" viewBox="0 0 140 140" fill="none">
  <rect width="140" height="140" rx="70" fill="#FFE2CF"/>
  <path d="M70.0065 96.6689C67.5571 96.6689 65.2081 95.6959 63.4761 93.964C61.7441 92.232 60.7711 89.8829 60.7711 87.4336C60.7711 84.9842 61.7441 82.6352 63.4761 80.9032C65.2081 79.1712 67.5571 78.1982 70.0065 78.1982C72.4558 78.1982 74.8049 79.1712 76.5369 80.9032C78.2688 82.6352 79.2418 84.9842 79.2418 87.4336C79.2418 89.8829 78.2688 92.232 76.5369 93.964C74.8049 95.6959 72.4558 96.6689 70.0065 96.6689ZM89.6118 89.9931C89.7173 89.1487 89.7965 88.3043 89.7965 87.4336C89.7965 86.5628 89.7173 85.6921 89.6118 84.7949L95.1794 80.4939C95.6807 80.0981 95.8127 79.3856 95.496 78.8051L90.2187 69.6753C89.902 69.0948 89.1896 68.8573 88.6091 69.0948L82.0388 71.7335C80.6667 70.7044 79.2418 69.8073 77.5795 69.1476L76.6032 62.1551C76.5496 61.8443 76.3877 61.5625 76.1462 61.3597C75.9047 61.1568 75.5992 61.046 75.2838 61.0469H64.7291C64.0695 61.0469 63.5153 61.5218 63.4098 62.1551L62.4335 69.1476C60.7711 69.8073 59.3463 70.7044 57.9741 71.7335L51.4039 69.0948C50.8233 68.8573 50.1109 69.0948 49.7943 69.6753L44.5169 78.8051C44.1739 79.3856 44.3322 80.0981 44.8336 80.4939L50.4012 84.7949C50.2956 85.6921 50.2165 86.5628 50.2165 87.4336C50.2165 88.3043 50.2956 89.1487 50.4012 89.9931L44.8336 94.3733C44.3322 94.7691 44.1739 95.4815 44.5169 96.062L49.7943 105.192C50.1109 105.772 50.8233 105.983 51.4039 105.772L57.9741 103.107C59.3463 104.163 60.7711 105.06 62.4335 105.72L63.4098 112.712C63.5153 113.345 64.0695 113.82 64.7291 113.82H75.2838C75.9435 113.82 76.4976 113.345 76.6032 112.712L77.5795 105.72C79.2418 105.034 80.6667 104.163 82.0388 103.107L88.6091 105.772C89.1896 105.983 89.902 105.772 90.2187 105.192L95.496 96.062C95.8127 95.4815 95.6807 94.7691 95.1794 94.3733L89.6118 89.9931Z" fill="#FFAC74"/>
  <path d="M62.2195 54.0511C62.3719 53.6982 62.2998 53.2891 62.0351 53.0084L56.5809 47.2334C56.4004 47.0409 56.1478 46.9326 55.8831 46.9326C55.6184 46.9326 55.3657 47.0409 55.1853 47.2334L49.7311 53.0084C49.4664 53.2891 49.3942 53.6982 49.5466 54.0511C49.699 54.404 50.0439 54.6326 50.4289 54.6326H53.3164V66.1826C53.3164 66.8925 53.8899 67.466 54.5998 67.466H57.1664C57.8763 67.466 58.4498 66.8925 58.4498 66.1826V54.6326H61.3373C61.7223 54.6326 62.0672 54.404 62.2195 54.0511Z" fill="#FF6E0E"/>
  <path d="M76.3358 43.7835C76.4882 43.4306 76.416 43.0215 76.1513 42.7408L70.6971 36.9658C70.5166 36.7733 70.264 36.665 69.9993 36.665C69.7346 36.665 69.482 36.7733 69.3015 36.9658L63.8473 42.7408C63.5826 43.0215 63.5104 43.4306 63.6628 43.7835C63.8152 44.1364 64.1601 44.365 64.5451 44.365H67.4326V55.915C67.4326 56.6249 68.0061 57.1984 68.716 57.1984H71.2826C71.9925 57.1984 72.566 56.6249 72.566 55.915V44.365H75.4535C75.8385 44.365 76.1834 44.1364 76.3358 43.7835Z" fill="#FF6E0E"/>
  <path d="M90.452 33.516C90.6044 33.163 90.5322 32.754 90.2675 32.4732L84.8133 26.6982C84.6329 26.5057 84.3802 26.3975 84.1155 26.3975C83.8508 26.3975 83.5982 26.5057 83.4177 26.6982L77.9635 32.4732C77.6988 32.754 77.6267 33.163 77.7791 33.516C77.9315 33.8689 78.2763 34.0975 78.6613 34.0975H81.5488V66.1808C81.5488 66.8906 82.1223 67.4641 82.8322 67.4641H85.3988C86.1087 67.4641 86.6822 66.8906 86.6822 66.1808V34.0975H89.5697C89.9547 34.0975 90.2996 33.8689 90.452 33.516Z" fill="#FF6E0E"/>
</svg>