<svg xmlns="http://www.w3.org/2000/svg" width="78" height="39" viewBox="0 0 78 39" fill="none">
<rect x="0.5" width="77" height="39" rx="10" fill="#34C759" fill-opacity="0.1"/>
<path d="M13.16 15.7V18.54H17.74V21.18H13.16V24.26H18.34V27H9.74V12.96H18.34V15.7H13.16ZM33.1403 12.96L28.1603 27H23.8803L18.9003 12.96H22.5403L26.0203 23.56L29.5203 12.96H33.1403ZM37.3897 15.7V18.54H41.9697V21.18H37.3897V24.26H42.5697V27H33.9697V12.96H42.5697V15.7H37.3897ZM56.75 27H53.33L47.61 18.34V27H44.19V12.96H47.61L53.33 21.66V12.96H56.75V27ZM68.7291 12.96V15.7H65.0091V27H61.5891V15.7H57.8691V12.96H68.7291Z" fill="#34C759"/>
</svg>