<svg xmlns="http://www.w3.org/2000/svg" width="21" height="20" viewBox="0 0 21 20" fill="none">
  <circle cx="10.0957" cy="10" r="10" fill="#FF3B30"/>
  <path d="M10.0991 3.35059C11.1653 3.35059 11.9957 4.27564 11.8811 5.3356L11.2481 11.1897C11.2104 11.5385 11.0769 11.87 10.8625 12.1477C10.4819 12.6404 9.73724 12.639 9.35665 12.1463C9.1431 11.8699 9.00922 11.5395 8.97049 11.1923L8.31782 5.34165C8.19935 4.27966 9.03054 3.35059 10.0991 3.35059ZM10.1196 16.6491C9.29741 16.6491 8.62815 15.9748 8.62815 15.1526C8.62815 14.3495 9.29741 13.6841 10.1196 13.6841C10.9036 13.6841 11.592 14.3495 11.592 15.1526C11.592 15.9748 10.9036 16.6491 10.1196 16.6491Z" fill="white"/>
</svg>