<svg xmlns="http://www.w3.org/2000/svg" width="16" height="15" viewBox="0 0 16 15" fill="none">
  <path d="M8.5774 4.51172L8.48315 8.68388H7.51494L7.41212 4.51172H8.5774ZM7.33501 9.85143C7.33072 9.50852 7.63489 9.22684 8.00333 9.22275C8.35891 9.22684 8.66309 9.50852 8.66309 9.85143C8.66309 10.2025 8.35891 10.4883 8.00333 10.4883C7.63489 10.4883 7.33072 10.2025 7.33501 9.85143Z" fill="#666666"/>
  <path fill-rule="evenodd" clip-rule="evenodd" d="M8 1.0459C6.28827 1.0459 4.64664 1.72588 3.43626 2.93626C2.22588 4.14664 1.5459 5.78827 1.5459 7.5C1.5459 9.21173 2.22588 10.8534 3.43626 12.0637C4.64664 13.2741 6.28827 13.9541 8 13.9541C9.71173 13.9541 11.3534 13.2741 12.5637 12.0637C13.7741 10.8534 14.4541 9.21173 14.4541 7.5C14.4541 5.78827 13.7741 4.14664 12.5637 2.93626C11.3534 1.72588 9.71173 1.0459 8 1.0459ZM2.72915 2.22915C4.12707 0.831239 6.02305 0.0458984 8 0.0458984C9.97695 0.0458984 11.8729 0.831239 13.2708 2.22915C14.6688 3.62707 15.4541 5.52305 15.4541 7.5C15.4541 9.47695 14.6688 11.3729 13.2708 12.7708C11.8729 14.1688 9.97695 14.9541 8 14.9541C6.02305 14.9541 4.12707 14.1688 2.72915 12.7708C1.33124 11.3729 0.545898 9.47695 0.545898 7.5C0.545898 5.52305 1.33124 3.62707 2.72915 2.22915Z" fill="#666666"/>
</svg>