<svg xmlns="http://www.w3.org/2000/svg" width="11" height="12" viewBox="0 0 11 12" fill="none">
  <path fill-rule="evenodd" clip-rule="evenodd" d="M0.55 0.0546875C0.246243 0.0546875 0 0.300931 0 0.604688V11.3951C0 11.6989 0.246243 11.9451 0.55 11.9451H9.63656C9.94031 11.9451 10.1866 11.6989 10.1866 11.3951V4.15246C10.1866 4.00828 10.1299 3.86987 10.0289 3.76702L6.54357 0.219247C6.44016 0.113983 6.29879 0.0546875 6.15123 0.0546875H0.55ZM1.1 10.8451V1.15469H5.60123V4.15246C5.60123 4.45622 5.84747 4.70246 6.15123 4.70246H9.08656V10.8451H1.1ZM2.62225 5.35965C2.31849 5.35965 2.07225 5.60589 2.07225 5.90965C2.07225 6.21341 2.31849 6.45965 2.62225 6.45965H6.78473C7.08849 6.45965 7.33473 6.21341 7.33473 5.90965C7.33473 5.60589 7.08849 5.35965 6.78473 5.35965H2.62225ZM2.62225 7.72595C2.31849 7.72595 2.07225 7.97219 2.07225 8.27595C2.07225 8.5797 2.31849 8.82595 2.62225 8.82595H4.61452C4.91828 8.82595 5.16453 8.5797 5.16453 8.27595C5.16453 7.97219 4.91828 7.72595 4.61452 7.72595H2.62225Z" fill="#8C8C8C"/>
</svg>