<svg width="20" height="14" viewBox="0 0 20 14" fill="none" xmlns="http://www.w3.org/2000/svg">
<path fill-rule="evenodd" clip-rule="evenodd" d="M3.5127 0.30957C1.85584 0.30957 0.512695 1.65272 0.512695 3.30957V10.79C0.512695 12.4469 1.85584 13.79 3.5127 13.79H16.4875C18.1444 13.79 19.4875 12.4469 19.4875 10.79V3.30957C19.4875 1.65272 18.1444 0.30957 16.4875 0.30957H3.5127ZM1.5127 3.30957C1.5127 2.205 2.40813 1.30957 3.5127 1.30957H16.4875C17.5921 1.30957 18.4875 2.205 18.4875 3.30957V4.74707H1.5127V3.30957ZM1.5127 5.74707V10.79C1.5127 11.8946 2.40813 12.79 3.5127 12.79H16.4875C17.5921 12.79 18.4875 11.8946 18.4875 10.79V5.74707H1.5127Z" fill="white"/>
</svg>
