<svg width="26" height="36" viewBox="0 0 26 36" fill="none" xmlns="http://www.w3.org/2000/svg">
<path d="M25.9863 1.8231C25.9863 1.03412 25.3467 0.394531 24.5578 0.394531H12.9993H8.07689C7.71631 0.394531 7.36906 0.530893 7.10482 0.776255L3.4755 4.14634L0.47555 6.89629C0.180367 7.16688 0.0123005 7.54893 0.0123005 7.94937V9.19684V17.9991V34.1752C0.0123005 34.9642 0.651894 35.6038 1.44087 35.6038H24.5578C25.3467 35.6038 25.9863 34.9642 25.9863 34.1752V1.8231Z" fill="#EBEBEB"/>
<path d="M7.5163 7.32031H0.0126953L3.4759 4.14571L7.5163 0.393906V7.32031Z" fill="#DDDDDD"/>
<line x1="0.714286" y1="-0.714286" x2="15.4473" y2="-0.714286" transform="matrix(-1 0 0 1 20.793 16.2812)" stroke="white" stroke-width="1.42857" stroke-linecap="round"/>
<line x1="0.714286" y1="-0.714286" x2="15.4473" y2="-0.714286" transform="matrix(-1 0 0 1 20.793 21.043)" stroke="white" stroke-width="1.42857" stroke-linecap="round"/>
<line x1="0.714286" y1="-0.714286" x2="15.4473" y2="-0.714286" transform="matrix(-1 0 0 1 20.793 25.8047)" stroke="white" stroke-width="1.42857" stroke-linecap="round"/>
</svg>
