<svg xmlns="http://www.w3.org/2000/svg" width="20" height="21" viewBox="0 0 20 21" fill="none">
  <g clip-path="url(#clip0_5617_2548)">
    <path fill-rule="evenodd" clip-rule="evenodd" d="M3.06299 4.00488C3.06299 3.72874 3.28685 3.50488 3.56299 3.50488H14.5013C14.7774 3.50488 15.0013 3.72874 15.0013 4.00488V7.30904C15.0013 7.58519 14.7774 7.80904 14.5013 7.80904C14.2251 7.80904 14.0013 7.58519 14.0013 7.30904V4.50488H4.06299V16.4943H7.09511C7.37125 16.4943 7.59511 16.7181 7.59511 16.9943C7.59511 17.2704 7.37125 17.4943 7.09511 17.4943H3.56299C3.28685 17.4943 3.06299 17.2704 3.06299 16.9943V4.00488ZM6.01991 7.30904C6.01991 7.0329 6.24376 6.80904 6.51991 6.80904H11.5307C11.8068 6.80904 12.0307 7.0329 12.0307 7.30904C12.0307 7.58519 11.8068 7.80904 11.5307 7.80904H6.51991C6.24376 7.80904 6.01991 7.58519 6.01991 7.30904ZM6.01991 10.1576C6.01991 9.88142 6.24376 9.65756 6.51991 9.65756H8.91818C9.19432 9.65756 9.41818 9.88142 9.41818 10.1576C9.41818 10.4337 9.19432 10.6576 8.91818 10.6576H6.51991C6.24376 10.6576 6.01991 10.4337 6.01991 10.1576Z" fill="#323232"/>
    <circle cx="13.3544" cy="13.5687" r="3.78571" transform="rotate(-30 13.3544 13.5687)" stroke="#323232"/>
    <path d="M15.1428 17.3564L16.4904 19.4289" stroke="#323232" stroke-linecap="round"/>
  </g>
  <defs>
    <clipPath id="clip0_5617_2548">
      <rect width="20" height="20" fill="white" transform="translate(0 0.5)"/>
    </clipPath>
  </defs>
</svg>