<svg width="20" height="22" viewBox="0 0 20 22" fill="none" xmlns="http://www.w3.org/2000/svg">
<path d="M0.878971 4.6761H10.9302C11.1817 5.60086 11.8285 6.36766 12.6975 6.7717C13.5667 7.1756 14.5697 7.1756 15.4389 6.7717C16.3081 6.36772 16.9547 5.60092 17.2063 4.6761H19.1191C19.4303 4.6761 19.7179 4.51001 19.8735 4.24048C20.0292 3.97094 20.0292 3.63884 19.8735 3.3693C19.7179 3.09976 19.4303 2.93368 19.1191 2.93368H17.1991C16.9475 2.00884 16.3009 1.24212 15.4317 0.838081C14.5626 0.434181 13.5596 0.434181 12.6903 0.838081C11.8212 1.24206 11.1746 2.00878 10.923 2.93368H0.878991C0.567751 2.93368 0.280171 3.09978 0.124531 3.3693C-0.0310935 3.63884 -0.0310935 3.97094 0.124531 4.24048C0.280155 4.51002 0.567731 4.6761 0.878991 4.6761H0.878971ZM14.079 2.2785C14.4835 2.281 14.8705 2.44405 15.1549 2.73178C15.4393 3.01944 15.5979 3.40826 15.5958 3.8128C15.5937 4.2174 15.431 4.60452 15.1436 4.8892C14.8562 5.17396 14.4675 5.33288 14.063 5.33124C13.6584 5.32952 13.2711 5.16734 12.9861 4.88022C12.7011 4.59312 12.5417 4.2046 12.543 3.80006C12.5449 3.3946 12.7078 3.00646 12.9959 2.72116C13.2839 2.43576 13.6735 2.27656 14.079 2.2785Z" fill="black"/>
<path d="M19.1189 10.1285H9.06533C8.81493 9.20302 8.16869 8.43544 7.29947 8.03088C6.43025 7.62642 5.42681 7.62642 4.55767 8.03088C3.68845 8.43534 3.04221 9.20292 2.79181 10.1285H0.878991C0.567751 10.1285 0.280171 10.2945 0.12453 10.564C-0.0310935 10.8336 -0.0310935 11.1657 0.12453 11.4353C0.280154 11.7048 0.567731 11.8708 0.878991 11.8708H2.79899C3.04939 12.7963 3.69563 13.5638 4.56485 13.9684C5.43407 14.3729 6.43751 14.3729 7.30665 13.9684C8.17587 13.5639 8.82211 12.7964 9.07251 11.8708H19.1189C19.4302 11.8708 19.7177 11.7048 19.8734 11.4353C20.029 11.1657 20.029 10.8336 19.8734 10.564C19.7177 10.2945 19.4302 10.1285 19.1189 10.1285ZM5.91893 12.5261C5.51463 12.5235 5.12791 12.3607 4.84353 12.0733C4.55915 11.786 4.40041 11.3976 4.40213 10.9933C4.40385 10.589 4.5658 10.2019 4.85259 9.91702C5.13931 9.63202 5.52743 9.47248 5.93173 9.47334C6.33595 9.47413 6.72337 9.6353 7.00899 9.92146C7.29453 10.2076 7.45493 10.5954 7.45493 10.9997C7.45431 11.406 7.29196 11.7953 7.00375 12.0817C6.71555 12.3681 6.32523 12.5279 5.91891 12.5261H5.91893Z" fill="black"/>
<path d="M19.1191 17.3243H17.1991C16.9475 16.3995 16.3009 15.6327 15.4317 15.2287C14.5626 14.8248 13.5596 14.8248 12.6903 15.2287C11.8212 15.6327 11.1746 16.3995 10.923 17.3243H0.878991C0.567751 17.3243 0.280171 17.4904 0.124531 17.7599C-0.0310935 18.0295 -0.0310935 18.3616 0.124531 18.6311C0.280155 18.9006 0.567731 19.0667 0.878991 19.0667H10.9302C11.1818 19.9916 11.8285 20.7583 12.6975 21.1623C13.5667 21.5662 14.5697 21.5662 15.4389 21.1623C16.3081 20.7583 16.9547 19.9916 17.2063 19.0667H19.1191C19.4303 19.0667 19.7179 18.9006 19.8736 18.6311C20.0292 18.3616 20.0292 18.0295 19.8736 17.7599C19.7179 17.4904 19.4303 17.3243 19.1191 17.3243ZM14.0791 19.7243C13.6735 19.7269 13.2837 19.568 12.9956 19.2827C12.7074 18.9973 12.5445 18.6091 12.5431 18.2035C12.5416 17.7981 12.7015 17.4086 12.9876 17.1212C13.2737 16.8338 13.6624 16.672 14.0678 16.6716C14.4734 16.6711 14.8624 16.8321 15.1491 17.1189C15.4357 17.4057 15.5965 17.7948 15.5959 18.2003C15.5934 18.6023 15.4329 18.9871 15.1492 19.2718C14.8653 19.5565 14.481 19.7181 14.0791 19.7219V19.7243Z" fill="black"/>
</svg>
