<svg width="17" height="16" viewBox="0 0 17 16" fill="none" xmlns="http://www.w3.org/2000/svg">
<g clip-path="url(#clip0_5389_7595)">
<path d="M4.56696 7.07031H2.79402C2.47145 7.07031 2.20996 7.3318 2.20996 7.65437V15.0347C2.20996 15.3573 2.47145 15.6188 2.79402 15.6188H11.2894C11.6119 15.6188 11.8734 15.3573 11.8734 15.0347V9.36406C11.8734 9.04149 11.6119 8.78 11.2894 8.78H5.73507C5.41251 8.78 5.15101 8.51851 5.15101 8.19595V7.65437C5.15101 7.3318 4.88952 7.07031 4.56696 7.07031Z" stroke="#226FFF" stroke-width="0.743343"/>
<path fill-rule="evenodd" clip-rule="evenodd" d="M4.92312 4.59407C4.72094 4.78278 4.72094 5.09329 4.92312 5.282L7.18885 7.39675C7.38517 7.57999 7.69949 7.57999 7.89581 7.39675L10.1615 5.282C10.3637 5.09329 10.3637 4.78278 10.1615 4.59407C9.96522 4.41083 9.6509 4.41083 9.45458 4.59407L8.04745 5.90743L8.04745 0.489849C8.04745 0.214465 7.81145 0.00845384 7.54233 0.00845385C7.27321 0.00845387 7.03721 0.214465 7.03721 0.489849L7.03721 5.90743L5.63008 4.59407C5.43376 4.41083 5.11944 4.41083 4.92312 4.59407Z" fill="#226FFF"/>
<path fill-rule="evenodd" clip-rule="evenodd" d="M2.58762 12.7277L1.83887 13.2031V15.0614C1.83887 15.8048 2.07661 16.0087 2.58221 16.0087H12.1998C12.4035 16.0087 12.5944 15.9094 12.7113 15.7426L15.1048 12.328C15.395 11.914 15.0988 11.3447 14.5932 11.3447H12.1288V12.1398H14.2657L12.1288 15.1883V15.2136H12.1111L12.1111 15.2136H2.79217L2.79219 15.2136H2.58762V12.7277Z" fill="#226FFF"/>
</g>
<defs>
<clipPath id="clip0_5389_7595">
<rect width="16" height="16" fill="white" transform="translate(0.165039)"/>
</clipPath>
</defs>
</svg>
