<svg width="23" height="23" viewBox="0 0 23 23" fill="none" xmlns="http://www.w3.org/2000/svg">
<path fill-rule="evenodd" clip-rule="evenodd" d="M12.3607 2.68645L11.8421 1.57522C11.532 0.910561 10.5862 0.912467 10.2787 1.57837L9.76458 2.69169C9.11685 4.09441 7.50242 4.76694 6.05039 4.23893L4.89794 3.81985C4.20863 3.56919 3.5412 4.23932 3.79464 4.92761L4.21836 6.07836C4.75222 7.52825 4.08619 9.14538 2.68609 9.79876L1.57486 10.3173C0.910199 10.6275 0.912104 11.5733 1.57801 11.8808L2.69132 12.3949C4.09405 13.0426 4.76658 14.657 4.23857 16.1091L3.81949 17.2615C3.56883 17.9508 4.23895 18.6182 4.92725 18.3648L6.078 17.9411C7.52789 17.4072 9.14502 18.0733 9.79839 19.4734L10.317 20.5846C10.6271 21.2492 11.5729 21.2473 11.8804 20.5814L12.3945 19.4681C13.0422 18.0654 14.6567 17.3929 16.1087 17.9209L17.2611 18.34C17.9505 18.5906 18.6179 17.9205 18.3644 17.2322L17.9407 16.0815C17.4069 14.6316 18.0729 13.0144 19.473 12.3611L20.5842 11.8425C21.2489 11.5323 21.247 10.5865 20.5811 10.279L19.4678 9.76494C18.065 9.11721 17.3925 7.50278 17.9205 6.05075L18.3396 4.8983C18.5903 4.20899 17.9201 3.54157 17.2318 3.795L16.0811 4.21872C14.6312 4.75258 13.0141 4.08656 12.3607 2.68645ZM12.7983 1.129C12.1084 -0.349431 10.0046 -0.345192 9.32068 1.13601L8.80659 2.24932C8.38881 3.15405 7.34753 3.58783 6.411 3.24726L5.25855 2.82819C3.72529 2.27064 2.24071 3.76121 2.80444 5.29221L3.22815 6.44296C3.57249 7.37811 3.14291 8.42114 2.23987 8.84256L1.12864 9.36112C-0.349793 10.0511 -0.345554 12.1548 1.13564 12.8388L2.24896 13.3529C3.15369 13.7706 3.58746 14.8119 3.2469 15.7485L2.82783 16.9009C2.27027 18.4342 3.76085 19.9187 5.29185 19.355L6.4426 18.9313C7.37775 18.587 8.42078 19.0165 8.84219 19.9196L9.36076 21.0308C10.0507 22.5092 12.1544 22.505 12.8384 21.0238L13.3525 19.9105C13.7703 19.0058 14.8116 18.572 15.7481 18.9125L16.9005 19.3316C18.4338 19.8892 19.9184 18.3986 19.3547 16.8676L18.9309 15.7168C18.5866 14.7817 19.0162 13.7387 19.9192 13.3173L21.0305 12.7987C22.5089 12.1088 22.5046 10.005 21.0234 9.32104L19.9101 8.80695C19.0054 8.38917 18.5716 7.34789 18.9122 6.41136L19.3313 5.25891C19.8888 3.72565 18.3982 2.24107 16.8672 2.8048L15.7165 3.22852C14.7813 3.57285 13.7383 3.14327 13.3169 2.24023L12.7983 1.129Z" fill="#323232"/>
<path fill-rule="evenodd" clip-rule="evenodd" d="M11.0789 14.1017C12.7483 14.1017 14.1017 12.7483 14.1017 11.0789C14.1017 9.4095 12.7483 8.05617 11.0789 8.05617C9.4095 8.05617 8.05617 9.4095 8.05617 11.0789C8.05617 12.7483 9.4095 14.1017 11.0789 14.1017ZM11.0789 15.1568C13.3311 15.1568 15.1568 13.3311 15.1568 11.0789C15.1568 8.82673 13.3311 7.00098 11.0789 7.00098C8.82673 7.00098 7.00098 8.82673 7.00098 11.0789C7.00098 13.3311 8.82673 15.1568 11.0789 15.1568Z" fill="#323232"/>
</svg>
