<svg xmlns="http://www.w3.org/2000/svg" width="32" height="32" viewBox="0 0 32 32" fill="none">
  <path d="M27.3125 3.75H19.4375C19.3344 3.75 19.25 3.83438 19.25 3.9375V5.6875C19.25 5.79063 19.3344 5.875 19.4375 5.875H24.45L18.2219 12.1031C16.6594 10.9 14.7531 10.25 12.75 10.25C10.3469 10.25 8.08437 11.1875 6.3875 12.8875C4.69062 14.5875 3.75 16.8469 3.75 19.25C3.75 21.6531 4.6875 23.9156 6.3875 25.6125C8.08437 27.3125 10.3469 28.25 12.75 28.25C15.1531 28.25 17.4156 27.3125 19.1125 25.6125C20.8125 23.9156 21.75 21.6531 21.75 19.25C21.75 17.2469 21.1 15.3469 19.9 13.7844L26.125 7.55937V12.5625C26.125 12.6656 26.2094 12.75 26.3125 12.75H28.0625C28.1656 12.75 28.25 12.6656 28.25 12.5625V4.6875C28.25 4.17188 27.8281 3.75 27.3125 3.75ZM12.75 25.875C9.09688 25.875 6.125 22.9031 6.125 19.25C6.125 15.5969 9.09688 12.625 12.75 12.625C16.4031 12.625 19.375 15.5969 19.375 19.25C19.375 22.9031 16.4031 25.875 12.75 25.875Z" fill="#226FFF"/>
</svg>