<svg xmlns="http://www.w3.org/2000/svg" width="33" height="32" viewBox="0 0 33 32" fill="none">
  <path d="M22.775 17.15C24.45 15.475 25.375 13.2437 25.375 10.875C25.375 8.50313 24.4531 6.275 22.775 4.6C21.1 2.925 18.8687 2 16.5 2C14.1312 2 11.9 2.92187 10.225 4.6C8.55 6.27812 7.625 8.50313 7.625 10.875C7.625 12.8687 8.27812 14.7625 9.48125 16.3094C9.70937 16.6031 9.95625 16.8812 10.2219 17.15C10.4875 17.4156 10.7687 17.6625 11.0594 17.8906C12.2969 18.8531 13.7562 19.4656 15.3125 19.6719V23H11.75C11.6125 23 11.5 23.1125 11.5 23.25V25.125C11.5 25.2625 11.6125 25.375 11.75 25.375H15.3125V29.75C15.3125 29.8875 15.425 30 15.5625 30H17.4375C17.575 30 17.6875 29.8875 17.6875 29.75V25.375H21.25C21.3875 25.375 21.5 25.2625 21.5 25.125V23.25C21.5 23.1125 21.3875 23 21.25 23H17.6875V19.6719C19.6094 19.4156 21.3812 18.5437 22.775 17.15ZM16.5 17.375C14.7625 17.375 13.1344 16.7 11.9031 15.4719C10.675 14.2438 10 12.6125 10 10.875C10 9.1375 10.675 7.50937 11.9031 6.27812C13.1312 5.04687 14.7625 4.375 16.5 4.375C18.2375 4.375 19.8656 5.05 21.0969 6.27812C22.325 7.50625 23 9.1375 23 10.875C23 12.6125 22.325 14.2406 21.0969 15.4719C19.8656 16.7 18.2375 17.375 16.5 17.375Z" fill="#CCCCCC"/>
</svg>