<svg xmlns="http://www.w3.org/2000/svg" width="16" height="16" viewBox="0 0 16 16" fill="none">
  <path fill-rule="evenodd" clip-rule="evenodd" d="M3.33398 5.9987C3.33398 4.76102 3.82565 3.57404 4.70082 2.69887C5.57599 1.8237 6.76297 1.33203 8.00065 1.33203C9.23833 1.33203 10.4253 1.8237 11.3005 2.69887C12.1757 3.57404 12.6673 4.76102 12.6673 5.9987V6.6887C13.798 6.8507 14.6673 7.82336 14.6673 8.9987V9.16536C14.6672 9.45444 14.6093 9.74058 14.4969 10.0069C14.3846 10.2733 14.22 10.5144 14.013 10.7162C13.806 10.918 13.5607 11.0763 13.2916 11.1819C13.0225 11.2874 12.735 11.338 12.446 11.3307C11.9527 12.744 10.698 13.6967 9.34398 13.938C9.03065 14.0527 8.65998 13.9987 8.33398 13.9987C8.06877 13.9987 7.81441 13.8933 7.62688 13.7058C7.43934 13.5183 7.33398 13.2639 7.33398 12.9987C7.33398 12.7335 7.43934 12.4791 7.62688 12.2916C7.81441 12.1041 8.06877 11.9987 8.33398 11.9987H9.00065C9.15719 11.9987 9.31156 12.0354 9.45132 12.1059C9.59108 12.1764 9.71233 12.2788 9.80532 12.4047C10.6693 11.9934 11.334 11.1247 11.334 9.9987V5.9987C11.334 5.11464 10.9828 4.2668 10.3577 3.64168C9.73255 3.01655 8.88471 2.66536 8.00065 2.66536C7.1166 2.66536 6.26875 3.01655 5.64363 3.64168C5.01851 4.2668 4.66732 5.11464 4.66732 5.9987V10.1654C4.66732 10.4748 4.5444 10.7715 4.32561 10.9903C4.10682 11.2091 3.81007 11.332 3.50065 11.332C2.92602 11.332 2.37492 11.1038 1.96859 10.6974C1.56226 10.2911 1.33398 9.74 1.33398 9.16536V8.9987C1.33384 8.43751 1.53596 7.89507 1.90329 7.4708C2.27062 7.04653 2.77855 6.76887 3.33398 6.6887V5.9987ZM3.33398 8.05536C3.13893 8.12433 2.97007 8.25209 2.85067 8.42104C2.73127 8.58999 2.66721 8.79181 2.66732 8.9987V9.16536C2.66732 9.5687 2.95398 9.90536 3.33398 9.98203V8.05536ZM12.6673 8.05536V9.98203C13.0473 9.9047 13.334 9.5687 13.334 9.16536V8.9987C13.3341 8.79181 13.27 8.58999 13.1506 8.42104C13.0312 8.25209 12.8624 8.12433 12.6673 8.05536Z" fill="#226FFF"/>
</svg>