<svg width="16" height="16" viewBox="0 0 16 16" fill="none" xmlns="http://www.w3.org/2000/svg">
<path fill-rule="evenodd" clip-rule="evenodd" d="M2.97198 3.12578C4.23045 1.86732 5.9373 1.16032 7.71704 1.16032C9.49678 1.16032 11.2036 1.86732 12.4621 3.12578C13.7206 4.38425 14.4276 6.0911 14.4276 7.87084C14.4276 9.65058 13.7206 11.3574 12.4621 12.6159C11.2036 13.8744 9.49678 14.5814 7.71704 14.5814C5.9373 14.5814 4.23045 13.8744 2.97198 12.6159C1.71351 11.3574 1.00651 9.65058 1.00651 7.87084C1.00651 6.0911 1.71351 4.38425 2.97198 3.12578ZM7.71704 0.370842C5.72792 0.370842 3.82026 1.16102 2.41374 2.56754C1.00722 3.97406 0.217041 5.88172 0.217041 7.87084C0.217041 9.85997 1.00722 11.7676 2.41374 13.1741C3.82026 14.5807 5.72792 15.3708 7.71704 15.3708C9.70617 15.3708 11.6138 14.5807 13.0203 13.1741C14.4269 11.7676 15.217 9.85997 15.217 7.87084C15.217 5.88172 14.4269 3.97406 13.0203 2.56754C11.6138 1.16102 9.70617 0.370842 7.71704 0.370842ZM11.1626 6.09366C11.2987 5.92337 11.271 5.67497 11.1007 5.53886C10.9304 5.40274 10.682 5.43045 10.5459 5.60074L7.37815 9.56385C7.23198 9.74671 6.95969 9.76292 6.79287 9.59868L4.856 7.69182C4.70064 7.53887 4.45072 7.54082 4.29777 7.69618C4.14483 7.85153 4.14678 8.10146 4.30213 8.2544L6.239 10.1613C6.73947 10.654 7.55633 10.6054 7.99483 10.0568L11.1626 6.09366Z" fill="white"/>
</svg>
