<svg width="13" height="12" viewBox="0 0 13 12" fill="none" xmlns="http://www.w3.org/2000/svg">
<path d="M2.19094 6.96094L2.23121 6.94597C2.76699 6.74685 3.16638 6.29098 3.29349 5.73346L3.42369 5.16233L3.5539 5.73346C3.68101 6.29098 4.0804 6.74685 4.61618 6.94597L4.65644 6.96094L4.61618 6.9759C4.0804 7.17502 3.681 7.6309 3.5539 8.18841L3.42369 8.75955L3.29349 8.18841C3.16638 7.6309 2.76699 7.17502 2.23121 6.9759L2.19094 6.96094Z" fill="#0453F4"/>
<path d="M8.06991 2.68555L8.09501 2.67622C8.42896 2.55211 8.6779 2.26796 8.75712 1.92047L8.83828 1.56449L8.91943 1.92047C8.99866 2.26797 9.24759 2.55211 9.58154 2.67622L9.60664 2.68555L9.58154 2.69487C9.24759 2.81898 8.99866 3.10313 8.91943 3.45062L8.83828 3.8066L8.75712 3.45062C8.6779 3.10313 8.42896 2.81898 8.09501 2.69487L8.06991 2.68555Z" fill="#0453F4"/>
<path d="M1.30094 3.9209L1.32789 3.91088C1.68645 3.77763 1.95373 3.47254 2.03879 3.09944L2.12593 2.71722L2.21307 3.09944C2.29813 3.47254 2.56541 3.77763 2.92397 3.91088L2.95092 3.9209L2.92397 3.93091C2.56541 4.06417 2.29813 4.36925 2.21307 4.74236L2.12593 5.12457L2.03879 4.74236C1.95373 4.36925 1.68645 4.06417 1.32789 3.93091L1.30094 3.9209Z" fill="#0453F4"/>
<path fill-rule="evenodd" clip-rule="evenodd" d="M2.76082 0.773822C2.94062 0.593935 3.23213 0.593935 3.41193 0.773822L5.96567 3.32884L4.84978 4.44528L2.29603 1.89027C2.11624 1.71038 2.11624 1.41872 2.29603 1.23884L2.76082 0.773822ZM10.795 10.9484C10.7786 10.9342 10.7627 10.9193 10.7471 10.9037L2.06364 2.21598C1.70405 1.85621 1.70405 1.2729 2.06364 0.913124L2.43527 0.541315C2.79486 0.181541 3.37788 0.181541 3.73748 0.541314L6.24465 3.04973L6.24627 3.04811L12.5996 9.40454C12.9592 9.76431 12.9592 10.3476 12.5996 10.7074L12.2279 11.0792C11.8683 11.439 11.2853 11.439 10.9257 11.0792L10.795 10.9484Z" fill="#0453F4"/>
</svg>
