<svg width="12" height="16" viewBox="0 0 14 19" fill="none" xmlns="http://www.w3.org/2000/svg">
<path d="M13.8353 8.57073C13.8052 8.43639 13.7429 8.31139 13.6537 8.20655C13.5645 8.10171 13.4511 8.02018 13.3233 7.96901L9.70869 6.52331L10.4566 1.53648C10.4841 1.35741 10.4534 1.17425 10.3692 1.01387C10.2849 0.853497 10.1515 0.724341 9.98842 0.64535C9.82538 0.566359 9.64132 0.541691 9.46324 0.574964C9.28516 0.608238 9.12242 0.697701 8.99891 0.830232L1.08891 9.30523C0.994883 9.40592 0.926823 9.52802 0.890622 9.66094C0.854421 9.79387 0.851171 9.93362 0.881152 10.0681C0.911134 10.2025 0.973443 10.3277 1.06268 10.4326C1.15193 10.5376 1.26541 10.6192 1.3933 10.6704L5.00789 12.1161L4.25997 17.1051C4.23252 17.2841 4.26317 17.4673 4.34743 17.6277C4.43169 17.788 4.56512 17.9172 4.72816 17.9962C4.89119 18.0752 5.07525 18.0998 5.25334 18.0666C5.43142 18.0333 5.59415 17.9438 5.71767 17.8113L13.6277 9.33631C13.7221 9.23532 13.7904 9.11275 13.8266 8.97931C13.8628 8.84587 13.8658 8.7056 13.8353 8.57073ZM6.34129 14.6565L6.78411 11.7065C6.81241 11.5177 6.77612 11.3248 6.68114 11.1592C6.58615 10.9936 6.43803 10.8649 6.26078 10.794L3.17305 9.55877L8.37529 3.98505L7.93247 6.93506C7.90417 7.12387 7.94046 7.3167 8.03544 7.48231C8.13042 7.64792 8.27854 7.77661 8.4558 7.84753L11.5435 9.08276L6.34129 14.6565Z" fill="#CCCCCC"/>
</svg>
