<svg width="83" height="83" viewBox="0 0 83 83" fill="none" xmlns="http://www.w3.org/2000/svg">
<path d="M44.3975 45.2295C44.3601 47.2098 43.3309 48.239 41.5034 48.239C39.5979 48.239 38.5297 47.1724 38.4923 45.2295L37.9964 25.0703C37.959 23.1274 39.4061 21.7178 41.4644 21.7178C43.4837 21.7178 45.0088 23.1648 44.9698 25.1093L44.3975 45.2295Z" fill="#0453F4"/>
<path d="M45.6169 56.661C45.6169 58.8706 43.674 60.6233 41.5034 60.6233C39.2922 60.6233 37.3867 58.8332 37.3867 56.661C37.3867 54.4499 39.2548 52.6972 41.5034 52.6972C43.713 52.6972 45.6169 54.4125 45.6169 56.661Z" fill="#0453F4"/>
<circle cx="41.5" cy="41.1699" r="41.1699" fill="#0453F4" fill-opacity="0.1"/>
</svg>
