<svg width="20" height="20" viewBox="0 0 20 20" fill="none" xmlns="http://www.w3.org/2000/svg">
<path d="M7.45233 4.3776H14.2704V3.41451C14.2704 2.92786 14.0711 2.48559 13.7497 2.16417C13.4282 1.84275 12.9859 1.64344 12.4999 1.64344H3.41452C2.92788 1.64344 2.4856 1.84275 2.16419 2.16417C1.84277 2.48559 1.64345 2.92794 1.64345 3.41451V12.4999C1.64345 12.9859 1.84277 13.4288 2.16419 13.7496C2.4856 14.0711 2.92796 14.2704 3.41452 14.2704H4.37761V7.45231C4.37761 6.60594 4.72359 5.83743 5.28023 5.28027C5.83688 4.72302 6.60604 4.37765 7.45228 4.37765L7.45233 4.3776ZM15.5746 4.3776H16.5376C17.384 4.3776 18.1525 4.72357 18.7097 5.28022C19.2663 5.83686 19.6123 6.60602 19.6123 7.45226V16.5376C19.6123 17.384 19.2663 18.1525 18.7097 18.7097C18.1524 19.2669 17.3839 19.6123 16.5376 19.6123H7.45226C6.60589 19.6123 5.83738 19.2663 5.28022 18.7097C4.72306 18.153 4.3776 17.3839 4.3776 16.5376V15.5746H3.41451C2.56814 15.5746 1.79962 15.2286 1.24246 14.6719C0.685818 14.1153 0.339844 13.3461 0.339844 12.4999V3.41451C0.339844 2.56814 0.685818 1.79962 1.24246 1.24246C1.79971 0.685818 2.56827 0.339844 3.41451 0.339844H12.4999C13.3463 0.339844 14.1148 0.685818 14.6719 1.24246C15.2292 1.79971 15.5746 2.56827 15.5746 3.41451V4.3776ZM16.5376 5.68184H7.45226C6.96628 5.68184 6.52334 5.88115 6.2025 6.20257C5.88109 6.52399 5.68177 6.96634 5.68177 7.45291V16.5383C5.68177 17.0243 5.88109 17.4672 6.2025 17.7886C6.52392 18.11 6.96628 18.3094 7.45226 18.3094H16.5376C17.0243 18.3094 17.4666 18.11 17.788 17.7886C18.1094 17.4672 18.3087 17.0249 18.3087 16.5383V7.45291C18.3087 6.96693 18.1094 6.52399 17.788 6.20257C17.4666 5.88115 17.0242 5.68184 16.5376 5.68184Z" fill="#A0A0A0"/>
</svg>
