<svg width="18" height="14" viewBox="0 0 18 14" fill="none" xmlns="http://www.w3.org/2000/svg">
<path d="M0.549805 1.09469C0.549805 0.520312 1.01543 0.0546875 1.5898 0.0546875H16.6698C17.2442 0.0546875 17.7098 0.520312 17.7098 1.09469V8.04969H0.549805V1.09469Z" fill="#226FFF"/>
<path d="M0.549805 8.375H17.7098V9.935C17.7098 10.5094 17.2442 10.975 16.6698 10.975H1.58981C1.01543 10.975 0.549805 10.5094 0.549805 9.935V8.375Z" fill="#226FFF"/>
<circle cx="9.13012" cy="9.67406" r="0.26" fill="#226FFF"/>
<path d="M9.91016 3.17578L7.83016 5.25578" stroke="white" stroke-width="0.52" stroke-linecap="round"/>
<path d="M11.2236 4.73438L10.2456 5.71245" stroke="white" stroke-width="0.52" stroke-linecap="round"/>
<path d="M7.30949 10.4531H10.9495V11.6047C10.9495 12.036 11.1038 12.4531 11.3845 12.7806C11.6098 13.0434 11.9057 13.236 12.2372 13.3354L13.0295 13.5731H5.22949L6.02175 13.3354C6.35326 13.236 6.64923 13.0434 6.87448 12.7806C7.15519 12.4531 7.30949 12.036 7.30949 11.6047V10.4531Z" fill="#226FFF"/>
<path fill-rule="evenodd" clip-rule="evenodd" d="M4.83984 13.3667C4.83984 13.1944 5.01445 13.0547 5.22984 13.0547H13.0298C13.2452 13.0547 13.4198 13.1944 13.4198 13.3667C13.4198 13.539 13.2452 13.6787 13.0298 13.6787H5.22984C5.01445 13.6787 4.83984 13.539 4.83984 13.3667Z" fill="#226FFF"/>
</svg>
