<svg width="34" height="32" viewBox="0 0 34 32" fill="none" xmlns="http://www.w3.org/2000/svg">
<circle cx="19.8019" cy="3.23357" r="2.06152" stroke="#0453F4" stroke-width="1.56091"/>
<mask id="path-2-inside-1_1482_453" fill="white">
<path d="M25.3005 10.8555C25.3005 12.5169 22.8405 12.5169 19.806 12.5169C16.7715 12.5169 14.3115 12.5169 14.3115 10.8555C14.3115 8.63393 16.7715 6.83301 19.806 6.83301C22.8405 6.83301 25.3005 8.63393 25.3005 10.8555Z"/>
</mask>
<path d="M23.7396 10.8555C23.7396 10.8663 23.7387 10.8213 23.7709 10.7512C23.8037 10.6801 23.846 10.6366 23.8645 10.621C23.8738 10.6132 23.7646 10.6993 23.372 10.7813C22.5727 10.9483 21.3896 10.956 19.806 10.956V14.0779C21.257 14.0779 22.8211 14.0856 24.0103 13.8372C24.6121 13.7115 25.3075 13.4861 25.8729 13.011C26.5119 12.4741 26.8614 11.7213 26.8614 10.8555H23.7396ZM19.806 10.956C18.2224 10.956 17.0393 10.9483 16.24 10.7813C15.8474 10.6993 15.7382 10.6132 15.7475 10.621C15.766 10.6366 15.8083 10.6801 15.8411 10.7512C15.8733 10.8213 15.8724 10.8663 15.8724 10.8555L12.7506 10.8555C12.7506 11.7213 13.1001 12.4741 13.7391 13.011C14.3045 13.4861 14.9999 13.7115 15.6017 13.8372C16.791 14.0856 18.355 14.0779 19.806 14.0779V10.956ZM15.8724 10.8555C15.8724 10.3626 16.1421 9.78366 16.8429 9.27063C17.5426 8.75837 18.5851 8.39392 19.806 8.39392V5.2721C17.9923 5.2721 16.2877 5.80811 14.9988 6.7517C13.7109 7.69452 12.7506 9.12683 12.7506 10.8555L15.8724 10.8555ZM19.806 8.39392C21.0269 8.39392 22.0694 8.75837 22.7691 9.27063C23.4699 9.78366 23.7396 10.3626 23.7396 10.8555H26.8614C26.8614 9.12683 25.9011 7.69452 24.6132 6.7517C23.3243 5.80811 21.6197 5.2721 19.806 5.2721V8.39392Z" fill="#0453F4" mask="url(#path-2-inside-1_1482_453)"/>
<path d="M22.2333 15.0305L17.022 14.7214L17.7083 14.2764H22.2333C23.4829 14.2764 24.4959 15.2893 24.4959 16.5389C24.4959 17.7885 23.4829 18.8014 22.2333 18.8014H17.3312C17.1229 18.8014 16.9541 18.6326 16.9541 18.4243V18.4243C16.9541 18.2161 17.1229 18.0473 17.3312 18.0473H17.7083H22.2333C23.0664 18.0473 23.7417 17.3719 23.7417 16.5389C23.7417 15.7059 23.0664 15.0305 22.2333 15.0305Z" fill="#0453F4"/>
<path fill-rule="evenodd" clip-rule="evenodd" d="M32.1271 10.5023C30.8968 9.76414 29.3184 9.98277 28.335 11.0276L24.4696 15.1346C24.3012 14.8729 24.0894 14.6576 23.8526 14.4872C23.3041 14.0922 22.6685 13.9679 22.2335 13.9679H17.5151C14.5498 12.4574 12.1242 12.5571 10.2868 13.4278C8.59199 14.231 7.49529 15.6441 6.94957 16.8031C6.28788 16.3777 5.39692 16.4544 4.81797 17.0334L0.0488281 21.8025L9.63755 31.3913L14.4067 26.6221C14.9864 26.0424 15.0626 25.1499 14.6353 24.4879C14.8569 24.2707 15.5629 23.7722 16.9543 23.7722H24.8745C25.8245 23.7722 26.7171 23.3248 27.2865 22.5655L32.9983 14.9498C34.084 13.5023 33.6787 11.4333 32.1271 10.5023ZM13.596 23.3944C14.1707 22.8386 15.2926 22.2639 16.9543 22.2639H24.8745C25.3488 22.2639 25.7947 22.0407 26.0798 21.6605L31.7916 14.0448C32.3407 13.3128 32.1357 12.2665 31.3511 11.7957C30.7289 11.4224 29.9307 11.533 29.4334 12.0614L24.8582 16.9225C24.7772 17.7558 24.3759 18.3512 23.8526 18.7279C23.3041 19.1229 22.6685 19.2472 22.2335 19.2472H17.3314C16.9149 19.2472 16.5772 18.9095 16.5772 18.493C16.5772 18.0765 16.9149 17.7388 17.3314 17.7388H22.2335C22.4271 17.7388 22.7342 17.6745 22.9713 17.5039C23.1699 17.3609 23.3648 17.1159 23.3648 16.6076C23.3648 16.0992 23.1699 15.8543 22.9713 15.7113C22.7342 15.5406 22.4271 15.4763 22.2335 15.4763H17.145L16.9801 15.3895C14.2899 13.9736 12.3102 14.1381 10.9328 14.7909C9.51322 15.4636 8.60954 16.7137 8.22446 17.6489L8.16703 17.7884L8.07849 17.8769L13.596 23.3944ZM5.88454 18.1C5.96292 18.0216 6.09002 18.0216 6.1684 18.1L13.3401 25.2717C13.4185 25.3501 13.4185 25.4772 13.3401 25.5555L9.63755 29.2581L2.18196 21.8025L5.88454 18.1Z" fill="#0453F4"/>
</svg>
