<svg width="19" height="16" viewBox="0 0 19 16" fill="none" xmlns="http://www.w3.org/2000/svg">
<path d="M9.97384 11.5471C10.7258 12.0808 11.2885 12.4308 11.2885 12.4308C11.2885 12.4308 13.464 11.0554 15.0507 9.56399C16.7432 7.97389 17.7362 6.31414 17.7362 4.35843C17.7362 2.40272 16.2055 0.824219 14.3163 0.824219C12.9984 0.824219 11.8604 1.59606 11.2885 2.7219C10.7166 1.59606 9.57858 0.824219 8.26067 0.824219C6.3715 0.824219 4.84082 2.40852 4.84082 4.35843C4.84082 5.32288 5.12743 6.24758 5.60032 7.11357" stroke="#226FFF" stroke-width="0.520006" stroke-linecap="round" stroke-linejoin="round"/>
<path d="M14.2729 1.05859C12.9655 1.05859 11.8366 1.82427 11.2693 2.94113C10.7019 1.82427 9.57299 1.05859 8.2656 1.05859C6.39151 1.05859 4.87305 2.63025 4.87305 4.5646C4.87305 6.49894 6.03524 8.27209 7.53707 9.72861C9.0389 11.1851 11.2693 12.5726 11.2693 12.5726C11.2693 12.5726 13.4274 11.2082 15.0015 9.72861C16.6805 8.1512 17.6655 6.5047 17.6655 4.5646C17.6655 2.62449 16.147 1.05859 14.2729 1.05859Z" fill="#226FFF" stroke="#226FFF" stroke-width="0.85976" stroke-linecap="round" stroke-linejoin="round"/>
<path d="M7.58707 6.90625C6.65705 6.90625 5.85398 7.46817 5.45039 8.28782C5.04681 7.46817 4.24373 6.90625 3.31371 6.90625C1.98056 6.90625 0.900391 8.05967 0.900391 9.47927C0.900391 10.8989 1.72713 12.2002 2.79547 13.2691C3.86381 14.338 5.45039 15.3562 5.45039 15.3562C5.45039 15.3562 6.98556 14.3549 8.10532 13.2691C9.29969 12.1115 10.0004 10.9031 10.0004 9.47927C10.0004 8.05545 8.92022 6.90625 7.58707 6.90625Z" fill="white"/>
<path d="M7.30152 7.59375C6.51078 7.59375 5.82797 8.05685 5.48482 8.73236C5.14168 8.05685 4.45887 7.59375 3.66812 7.59375C2.53462 7.59375 1.61621 8.54433 1.61621 9.71428C1.61621 10.8842 2.31914 11.9567 3.22749 12.8376C4.13584 13.7186 5.48482 14.5577 5.48482 14.5577C5.48482 14.5577 6.79009 13.7325 7.74216 12.8376C8.75767 11.8836 9.35343 10.8877 9.35343 9.71428C9.35343 8.54085 8.43502 7.59375 7.30152 7.59375Z" fill="#226FFF"/>
</svg>
