<svg width="14" height="14" viewBox="0 0 14 14" fill="none" xmlns="http://www.w3.org/2000/svg">
<path d="M2.04139 0.950195C1.76294 0.950195 1.48365 1.05676 1.27053 1.27074C0.843417 1.69785 0.843417 2.38621 1.27053 2.81332L5.45731 7.0001L1.27053 11.1878C0.843417 11.6149 0.843417 12.3024 1.27053 12.7295C1.69764 13.1566 2.386 13.1566 2.81311 12.7295L6.9999 8.54274L11.1867 12.7295C11.6138 13.1566 12.3022 13.1566 12.7293 12.7295C13.1564 12.3024 13.1564 11.6149 12.7293 11.1878L8.54248 7.0001L12.7293 2.81332C13.1564 2.38621 13.1564 1.69785 12.7293 1.27074C12.3022 0.843624 11.6138 0.843624 11.1867 1.27074L6.9999 5.45752L2.81311 1.27074C2.59913 1.05675 2.3207 0.950195 2.04225 0.950195H2.04139Z" fill="#0453F4"/>
</svg>
