<svg width="16" height="11" viewBox="0 0 16 11" fill="none" xmlns="http://www.w3.org/2000/svg">
<path d="M15.6567 5.10155C15.5161 4.9103 12.1635 0.37085 7.8885 0.37085C3.6135 0.37085 0.261003 4.91015 0.120303 5.10155C0.0499324 5.19788 0.0119629 5.31413 0.0119629 5.43342C0.0119629 5.55272 0.0499309 5.66897 0.120303 5.7653C0.260928 5.95655 3.6135 10.496 7.8885 10.496C12.1635 10.496 15.516 5.9567 15.6567 5.7653C15.7271 5.66897 15.765 5.55272 15.765 5.43342C15.765 5.31413 15.7271 5.19788 15.6567 5.10155ZM7.8885 9.37085C4.806 9.37085 2.1228 6.4346 1.2903 5.43335C2.1228 4.4321 4.806 1.49585 7.8885 1.49585C10.971 1.49585 13.6542 4.4321 14.4867 5.43335C13.6542 6.4346 10.971 9.37085 7.8885 9.37085ZM7.8885 2.62085C7.1426 2.62085 6.42723 2.91716 5.8998 3.44462C5.37234 3.97208 5.07603 4.68744 5.07603 5.43332C5.07603 6.17919 5.37234 6.89459 5.8998 7.42202C6.42726 7.94948 7.14263 8.24579 7.8885 8.24579C8.63438 8.24579 9.34977 7.94948 9.8772 7.42202C10.4047 6.89456 10.701 6.17919 10.701 5.43332C10.701 4.93961 10.571 4.45463 10.3242 4.02707C10.0773 3.59951 9.72228 3.24449 9.29472 2.99763C8.86716 2.75078 8.38218 2.62082 7.88847 2.62082L7.8885 2.62085ZM7.8885 7.12085C7.44096 7.12085 7.01171 6.94307 6.69524 6.62662C6.37877 6.31015 6.201 5.88089 6.201 5.43335C6.201 4.98581 6.37878 4.55655 6.69524 4.24008C7.01171 3.92361 7.44096 3.74585 7.8885 3.74585C8.33604 3.74585 8.7653 3.92363 9.08177 4.24008C9.39824 4.55655 9.576 4.98581 9.576 5.43335C9.576 5.88089 9.39822 6.31015 9.08177 6.62662C8.7653 6.94309 8.33604 7.12085 7.8885 7.12085Z" fill="white"/>
</svg>
