<svg width="22" height="23" viewBox="0 0 22 23" fill="none" xmlns="http://www.w3.org/2000/svg">
<rect y="0.914062" width="22" height="22" rx="3.14286" fill="#226FFF"/>
<path d="M5.77734 13.4297V16.1466C5.77734 16.7152 6.23826 17.1761 6.80683 17.1761H15.1979C15.7664 17.1761 16.2273 16.7152 16.2273 16.1466V13.4297" stroke="white" stroke-width="1.31923" stroke-linecap="round"/>
<path d="M11.6645 6.69531C11.6645 6.33102 11.3692 6.0357 11.0049 6.0357C10.6406 6.0357 10.3453 6.33102 10.3453 6.69531L11.6645 6.69531ZM10.3453 6.69531L10.3453 14.1391L11.6645 14.1391L11.6645 6.69531L10.3453 6.69531Z" fill="white"/>
<path d="M7.83008 10.9961L10.651 13.7979C10.8522 13.9977 11.1772 13.9972 11.3777 13.7966L14.1784 10.9961" stroke="white" stroke-width="1.31923" stroke-linecap="round"/>
</svg>
