<svg width="12" height="12" viewBox="0 0 12 12" fill="none" xmlns="http://www.w3.org/2000/svg">
<path d="M1.26809 7.15723L1.30836 7.14226C1.84414 6.94314 2.24353 6.48726 2.37064 5.92975L2.50084 5.35862L2.63105 5.92975C2.75815 6.48727 3.15754 6.94314 3.69333 7.14226L3.73359 7.15723L3.69333 7.17219C3.15754 7.37131 2.75815 7.82719 2.63105 8.3847L2.50084 8.95583L2.37064 8.3847C2.24353 7.82719 1.84414 7.37131 1.30836 7.17219L1.26809 7.15723Z" fill="#8C8C8C"/>
<path d="M7.14706 2.88184L7.17216 2.87251C7.50611 2.7484 7.75505 2.46425 7.83427 2.11676L7.91543 1.76078L7.99658 2.11676C8.0758 2.46425 8.32474 2.7484 8.65869 2.87251L8.68379 2.88184L8.65869 2.89116C8.32474 3.01527 8.0758 3.29942 7.99658 3.64691L7.91543 4.00289L7.83427 3.64691C7.75505 3.29942 7.50611 3.01527 7.17216 2.89116L7.14706 2.88184Z" fill="#8C8C8C"/>
<path d="M0.202241 4.60742L0.216655 4.60206C0.408448 4.53079 0.551417 4.3676 0.596916 4.16802L0.643526 3.96358L0.690136 4.16802C0.735635 4.3676 0.878605 4.53079 1.0704 4.60206L1.08481 4.60742L1.0704 4.61278C0.878605 4.68406 0.735635 4.84725 0.690136 5.04682L0.643526 5.25127L0.596916 5.04682C0.551417 4.84725 0.408448 4.68406 0.216655 4.61278L0.202241 4.60742Z" fill="#8C8C8C"/>
<path fill-rule="evenodd" clip-rule="evenodd" d="M1.83797 0.970111C2.01777 0.790224 2.30928 0.790224 2.48907 0.970111L5.04282 3.52512L3.92693 4.64157L1.37318 2.08655C1.19339 1.90667 1.19339 1.61501 1.37318 1.43513L1.83797 0.970111ZM9.87214 11.1447C9.85578 11.1305 9.83981 11.1156 9.82426 11.1L1.14079 2.41227C0.781195 2.0525 0.781195 1.46919 1.14079 1.10941L1.51242 0.737604C1.87201 0.37783 2.45503 0.37783 2.81463 0.737603L5.3218 3.24601L5.32341 3.2444L11.6767 9.60083C12.0363 9.9606 12.0363 10.5439 11.6767 10.9037L11.3051 11.2755C10.9455 11.6353 10.3625 11.6353 10.0029 11.2755L9.87214 11.1447Z" fill="#8C8C8C"/>
</svg>
