<svg width="20" height="20" viewBox="0 0 20 20" fill="none" xmlns="http://www.w3.org/2000/svg">
<g clip-path="url(#clip0_3388_2541)">
<rect x="6.49023" y="0.253906" width="7.48817" height="7.48811" rx="3.74406" fill="#226FFF"/>
<path d="M11.5023 2.67234C11.5023 3.36315 10.9423 3.92317 10.2514 3.92317C9.56063 3.92317 9.00061 3.36315 9.00061 2.67234C9.00061 1.98152 9.56063 1.4215 10.2514 1.4215C10.9423 1.4215 11.5023 1.98152 11.5023 2.67234Z" fill="white" stroke="white" stroke-width="0.468009"/>
<mask id="path-4-inside-1_3388_2541" fill="white">
<path d="M13.5935 6.6524C13.5935 7.52046 11.8402 9.60928 10.2547 9.60928C8.66929 9.60928 6.91602 7.52046 6.91602 6.6524C6.91602 5.49171 8.66929 4.55078 10.2547 4.55078C11.8402 4.55078 13.5935 5.49171 13.5935 6.6524Z"/>
</mask>
<path d="M13.5935 6.6524C13.5935 7.52046 11.8402 9.60928 10.2547 9.60928C8.66929 9.60928 6.91602 7.52046 6.91602 6.6524C6.91602 5.49171 8.66929 4.55078 10.2547 4.55078C11.8402 4.55078 13.5935 5.49171 13.5935 6.6524Z" fill="white"/>
<path d="M13.1254 6.6524C13.1254 6.74063 13.0692 6.94434 12.8925 7.24132C12.7258 7.52161 12.4825 7.83329 12.1892 8.12392C11.5836 8.72404 10.8623 9.14127 10.2547 9.14127V10.0773C11.2326 10.0773 12.1807 9.45011 12.8481 8.7888C13.1913 8.44872 13.4854 8.07543 13.6969 7.71992C13.8985 7.38111 14.0615 6.9982 14.0615 6.6524H13.1254ZM10.2547 9.14127C9.64718 9.14127 8.92587 8.72404 8.32025 8.12392C8.02695 7.83329 7.78371 7.52161 7.61694 7.24132C7.44024 6.94434 7.38402 6.74063 7.38402 6.6524H6.44801C6.44801 6.9982 6.61095 7.38111 6.81253 7.71992C7.02405 8.07543 7.31821 8.44872 7.66141 8.7888C8.32879 9.45011 9.27684 10.0773 10.2547 10.0773V9.14127ZM7.38402 6.6524C7.38402 6.31845 7.64764 5.91658 8.23089 5.56808C8.79408 5.23157 9.54568 5.01879 10.2547 5.01879V4.08277C9.37834 4.08277 8.46058 4.34046 7.75078 4.76458C7.06102 5.17671 6.44801 5.82565 6.44801 6.6524H7.38402ZM10.2547 5.01879C10.9638 5.01879 11.7154 5.23157 12.2786 5.56808C12.8618 5.91658 13.1254 6.31845 13.1254 6.6524H14.0615C14.0615 5.82565 13.4484 5.17671 12.7587 4.76458C12.0489 4.34046 11.1311 4.08277 10.2547 4.08277V5.01879Z" fill="white" mask="url(#path-4-inside-1_3388_2541)"/>
</g>
<rect x="6.72424" y="0.487911" width="7.02016" height="7.02011" rx="3.51005" stroke="#226FFF" stroke-width="0.468009"/>
<g clip-path="url(#clip1_3388_2541)">
<rect x="11.8721" y="11.4883" width="7.48817" height="7.48811" rx="3.74406" fill="#226FFF"/>
<path fill-rule="evenodd" clip-rule="evenodd" d="M15.457 12.6811C15.457 12.5401 15.5713 12.4258 15.7123 12.4258C15.8533 12.4258 15.9676 12.5401 15.9676 12.6811V12.9622C16.7009 13.0734 17.1762 13.5509 17.1866 14.188H16.4387C16.4028 13.817 16.0857 13.6016 15.619 13.6016C15.1284 13.6016 14.8292 13.841 14.8292 14.164C14.8292 14.529 15.2122 14.6786 15.5712 14.7624L15.978 14.87C16.6242 15.0196 17.2464 15.3607 17.2464 16.1145C17.2464 16.7818 16.785 17.2645 15.9676 17.3722V17.7854C15.9676 17.9264 15.8533 18.0406 15.7123 18.0406C15.5713 18.0406 15.457 17.9264 15.457 17.7854V17.3912C14.5335 17.3451 13.9599 16.8672 13.9258 16.0547H14.6916C14.7275 16.5094 15.1104 16.7308 15.6011 16.7308C16.1156 16.7308 16.4686 16.4795 16.4686 16.1086C16.4686 15.7675 16.1515 15.6239 15.6848 15.5043L15.1942 15.3786C14.4822 15.1931 14.0395 14.8341 14.0395 14.2119C14.0395 13.4957 14.6359 13.0045 15.457 12.9438V12.6811Z" fill="white"/>
</g>
<rect x="12.1061" y="11.7223" width="7.02016" height="7.02011" rx="3.51005" stroke="#226FFF" stroke-width="0.468009"/>
<path fill-rule="evenodd" clip-rule="evenodd" d="M9.8594 10.6662C9.9509 10.5782 10.0026 10.4568 10.0026 10.3298L10.0026 8.56536C10.0026 8.4365 10.1071 8.33203 10.2359 8.33203C10.3648 8.33203 10.4693 8.4365 10.4693 8.56536L10.4693 10.3298C10.4693 10.4568 10.521 10.5782 10.6125 10.6662L12.2148 12.207C12.2896 12.2789 12.3059 12.3924 12.2545 12.4824C12.1814 12.6104 12.0074 12.6354 11.9012 12.5333L10.5593 11.2435C10.3787 11.0699 10.0932 11.0699 9.91255 11.2435L8.57068 12.5333C8.46444 12.6354 8.2905 12.6104 8.21739 12.4824C8.16594 12.3924 8.18227 12.2789 8.25702 12.207L9.8594 10.6662Z" fill="#226FFF"/>
<g clip-path="url(#clip2_3388_2541)">
<path d="M6.75145 18.3907C6.74946 18.7763 6.29747 18.9832 6.00428 18.7329L5.64975 18.4302C5.25261 18.0911 4.66189 18.1128 4.29073 18.4801L3.95938 18.8081C3.68537 19.0793 3.2194 18.906 3.18911 18.5217L3.15248 18.0569C3.11144 17.5363 2.67839 17.134 2.15618 17.1313L1.68999 17.1289C1.30447 17.1269 1.09748 16.6749 1.34783 16.3817L1.65056 16.0272C1.98966 15.6301 1.96795 15.0394 1.6006 14.6682L1.27266 14.3369C1.00146 14.0628 1.1747 13.5969 1.55904 13.5666L2.02379 13.53C2.54439 13.4889 2.94674 13.0559 2.94943 12.5337L2.95184 12.0675C2.95383 11.682 3.40582 11.475 3.69901 11.7253L4.05354 12.028C4.45068 12.3672 5.0414 12.3454 5.41256 11.9781L5.74391 11.6502C6.01792 11.379 6.48389 11.5522 6.51418 11.9365L6.55081 12.4013C6.59185 12.9219 7.0249 13.3242 7.54711 13.3269L8.0133 13.3293C8.39882 13.3313 8.60581 13.7833 8.35546 14.0765L8.05273 14.431C7.71363 14.8281 7.73534 15.4189 8.10269 15.79L8.43063 16.1214C8.70183 16.3954 8.52859 16.8613 8.14425 16.8916L7.6795 16.9283C7.1589 16.9693 6.75655 17.4023 6.75386 17.9246L6.75145 18.3907Z" fill="#226FFF" stroke="#226FFF" stroke-width="0.551582"/>
<path d="M6.1295 15.2456C6.1295 15.9495 5.55889 16.5201 4.85499 16.5201C4.1511 16.5201 3.58048 15.9495 3.58048 15.2456C3.58048 14.5417 4.1511 13.9711 4.85499 13.9711C5.55889 13.9711 6.1295 14.5417 6.1295 15.2456Z" fill="white" stroke="white" stroke-width="0.551582"/>
</g>
<defs>
<clipPath id="clip0_3388_2541">
<rect x="6.49023" y="0.253906" width="7.48817" height="7.48811" rx="3.74406" fill="white"/>
</clipPath>
<clipPath id="clip1_3388_2541">
<rect x="11.8721" y="11.4883" width="7.48817" height="7.48811" rx="3.74406" fill="white"/>
</clipPath>
<clipPath id="clip2_3388_2541">
<rect width="8.42419" height="8.42413" fill="white" transform="translate(0.640625 11.0156)"/>
</clipPath>
</defs>
</svg>
