<svg width="16" height="17" viewBox="0 0 16 17" fill="none" xmlns="http://www.w3.org/2000/svg">
<path d="M1.05981 8.17211C1.05981 8.05454 1.15512 7.95922 1.2727 7.95922H9.7838H11.6767C11.7427 7.95922 11.8083 7.96875 11.8716 7.98751L13.1751 8.37399C13.2538 8.39732 13.3078 8.46963 13.3078 8.55171V15.7385C13.3078 16.1172 13.0008 16.4243 12.622 16.4243H1.74559C1.36684 16.4243 1.05981 16.1172 1.05981 15.7385V8.17211Z" fill="#226FFF" stroke="#226FFF" stroke-width="0.520003"/>
<rect x="6.26293" y="7.95922" width="1.84444" height="8.46506" fill="white" stroke="#226FFF" stroke-width="0.520003"/>
<path d="M1.58253 3.0707C1.68056 2.70486 2.0566 2.48775 2.42244 2.58578L14.2986 5.76805C14.6644 5.86607 14.8815 6.24212 14.7835 6.60796L14.2939 8.43511C14.2635 8.54868 14.1468 8.61608 14.0332 8.58565L1.2435 5.15859C1.12993 5.12816 1.06253 5.01142 1.09296 4.89785L1.58253 3.0707Z" fill="#226FFF" stroke="#226FFF" stroke-width="0.520003"/>
<rect x="0.18385" y="0.318437" width="1.84444" height="2.79028" transform="matrix(0.965924 0.258824 -0.258814 0.965927 7.60431 3.64295)" fill="white" stroke="#226FFF" stroke-width="0.520003"/>
<path d="M7.49835 1.63059C7.58463 1.71687 7.70539 1.92464 7.84233 2.23176C7.97391 2.52686 8.10573 2.87879 8.22366 3.21983C8.33155 3.53183 8.42667 3.83137 8.49811 4.0645C8.26498 3.99307 7.96545 3.89794 7.65345 3.79005C7.31242 3.67212 6.9605 3.5403 6.6654 3.40871C6.35828 3.27177 6.15052 3.15101 6.06424 3.06473C5.66822 2.6687 5.66822 2.02662 6.06424 1.63059C6.46026 1.23456 7.10234 1.23456 7.49835 1.63059Z" stroke="#226FFF" stroke-width="0.520003"/>
<path d="M10.7601 2.50235C10.6423 2.53394 10.4338 2.65349 10.1617 2.85099C9.90016 3.04076 9.61005 3.27963 9.3374 3.51602C9.08797 3.73227 8.85582 3.94412 8.67739 4.1103C8.915 4.165 9.22197 4.23239 9.54611 4.29496C9.90042 4.36334 10.2711 4.42515 10.5924 4.45874C10.9269 4.4937 11.1672 4.49301 11.2851 4.46143C11.826 4.31647 12.1471 3.76041 12.0021 3.21943C11.8572 2.67844 11.3011 2.3574 10.7601 2.50235Z" stroke="#226FFF" stroke-width="0.520003"/>
</svg>
