<svg width="20" height="20" viewBox="0 0 20 20" fill="none" xmlns="http://www.w3.org/2000/svg">
<path d="M14.0454 2.25874C14.8345 1.46974 16.1136 1.46974 16.9026 2.25874L17.7419 3.09806C18.5309 3.88706 18.5309 5.16623 17.7419 5.95523L11.0272 12.6699C10.8998 12.7974 10.7343 12.8801 10.5558 12.9056L7.61816 13.3253C7.35853 13.3624 7.09655 13.275 6.91106 13.0896C6.72558 12.9041 6.63828 12.6422 6.67538 12.3825L7.09505 9.44479C7.12057 9.26628 7.20325 9.10084 7.33073 8.97338L14.0454 2.25874Z" fill="#A0A0A0"/>
<path d="M3.33366 5.83301C3.33366 5.37279 3.70678 4.99967 4.16699 4.99967H9.16699C9.62721 4.99967 10.0003 4.62656 10.0003 4.16634C10.0003 3.70612 9.62721 3.33301 9.16699 3.33301H4.16699C2.78626 3.33301 1.66699 4.45227 1.66699 5.83301V15.833C1.66699 17.2137 2.78626 18.333 4.16699 18.333H14.167C15.5477 18.333 16.667 17.2137 16.667 15.833V10.833C16.667 10.3728 16.2939 9.99967 15.8337 9.99967C15.3734 9.99967 15.0003 10.3728 15.0003 10.833V15.833C15.0003 16.2932 14.6272 16.6663 14.167 16.6663H4.16699C3.70678 16.6663 3.33366 16.2932 3.33366 15.833V5.83301Z" fill="#A0A0A0"/>
</svg>
