<svg width="20" height="20" viewBox="0 0 20 20" fill="none" xmlns="http://www.w3.org/2000/svg">
<g clip-path="url(#clip0_1495_7215)">
<path fill-rule="evenodd" clip-rule="evenodd" d="M0.0117188 3.36222C0.0117188 2.57429 0.650452 1.93555 1.43837 1.93555H4.02288C4.8108 1.93555 5.44954 2.57429 5.44954 3.36222V4.31333C5.44954 4.57598 5.66245 4.78889 5.92509 4.78889H14.2782C15.0662 4.78889 15.7049 5.42763 15.7049 6.21556V15.7267C15.7049 16.5146 15.0662 17.1534 14.2782 17.1534H1.43837C0.650452 17.1534 0.0117188 16.5146 0.0117188 15.7267V3.36222ZM1.43837 2.88666C1.17573 2.88666 0.96282 3.09958 0.96282 3.36222V15.7267C0.96282 15.9893 1.17573 16.2023 1.43837 16.2023H14.2782C14.5409 16.2023 14.7538 15.9893 14.7538 15.7267V6.21556C14.7538 5.95292 14.5409 5.74 14.2782 5.74H5.92509C5.13717 5.74 4.49843 5.10126 4.49843 4.31333V3.36222C4.49843 3.09958 4.28552 2.88666 4.02288 2.88666H1.43837Z" fill="#A0A0A0"/>
<path fill-rule="evenodd" clip-rule="evenodd" d="M5.7855 11.6994C5.59624 11.8858 5.59624 12.1926 5.7855 12.379L7.90641 14.4683C8.09018 14.6493 8.38441 14.6493 8.56818 14.4683L10.6891 12.379C10.8783 12.1926 10.8783 11.8858 10.6891 11.6994C10.5053 11.5184 10.2111 11.5184 10.0273 11.6994L8.71013 12.9969L8.71013 8.55372C8.71013 8.28165 8.48921 8.07812 8.23729 8.07812C7.98538 8.07813 7.76446 8.28165 7.76446 8.55372L7.76446 12.9969L6.44727 11.6994C6.2635 11.5184 5.96927 11.5184 5.7855 11.6994Z" fill="#A0A0A0"/>
<path fill-rule="evenodd" clip-rule="evenodd" d="M0.989855 15.8864C0.778343 16.4766 1.20696 17.1539 1.88835 17.1539H15.2227C15.5256 17.1539 15.8105 17.0095 15.9896 16.7652L19.8257 11.5341C20.2864 10.9058 19.8378 10.0205 19.0588 10.0205H14.7535V10.9716L18.6834 10.9716C18.8392 10.9716 18.9289 11.1487 18.8368 11.2743L15.2227 16.2028H14.2786L14.278 16.2028H1.88835H1.4381C1.2313 16.2028 1.05534 16.0708 0.989855 15.8864Z" fill="#A0A0A0"/>
</g>
<defs>
<clipPath id="clip0_1495_7215">
<rect width="20" height="20" fill="white"/>
</clipPath>
</defs>
</svg>
