<svg width="16" height="16" viewBox="0 0 16 16" fill="none" xmlns="http://www.w3.org/2000/svg">
<path fill-rule="evenodd" clip-rule="evenodd" d="M8.38818 15.4333C12.5303 15.4333 15.8882 12.0755 15.8882 7.93335C15.8882 3.79121 12.5303 0.43335 8.38818 0.43335C4.24605 0.43335 0.888184 3.79121 0.888184 7.93335C0.888184 12.0755 4.24605 15.4333 8.38818 15.4333ZM11.5646 4.97468C11.7369 5.14697 11.7369 5.4263 11.5646 5.59859L9.12063 8.0426L11.2804 10.2023C11.4526 10.3746 11.4526 10.654 11.2804 10.8262C11.1081 10.9985 10.8287 10.9985 10.6564 10.8262L8.49671 8.66652L6.33723 10.826C6.16494 10.9983 5.8856 10.9983 5.71331 10.826C5.54102 10.6537 5.54102 10.3744 5.71331 10.2021L7.87279 8.0426L5.42902 5.59884C5.25673 5.42655 5.25673 5.14721 5.42902 4.97492C5.60131 4.80263 5.88065 4.80263 6.05294 4.97492L8.49671 7.41869L10.9407 4.97468C11.113 4.80239 11.3923 4.80239 11.5646 4.97468Z" fill="white"/>
</svg>
