<svg width="13" height="18" viewBox="0 0 13 18" fill="none" xmlns="http://www.w3.org/2000/svg">
<mask id="path-1-inside-1_3388_2630" fill="white">
<path fill-rule="evenodd" clip-rule="evenodd" d="M9.85415 0.652344H0.702148V17.8123H0.846167C1.07834 17.4197 1.56695 17.2383 2.13215 17.2383C2.59996 17.2383 3.0153 17.4629 3.2762 17.8102C3.53709 17.4629 3.95243 17.2383 4.42023 17.2383C4.88804 17.2383 5.30339 17.4629 5.56428 17.8102C5.82518 17.4629 6.24051 17.2383 6.70832 17.2383C7.17584 17.2383 7.59095 17.4626 7.85188 17.8096C8.1128 17.4626 8.52791 17.2383 8.99543 17.2383C9.46324 17.2383 9.87858 17.4629 10.1395 17.8102C10.4004 17.4629 10.8157 17.2383 11.2835 17.2383C11.8487 17.2383 12.3373 17.4197 12.5695 17.8123H12.7141V3.71663L9.85415 0.652344Z"/>
</mask>
<path fill-rule="evenodd" clip-rule="evenodd" d="M9.85415 0.652344H0.702148V17.8123H0.846167C1.07834 17.4197 1.56695 17.2383 2.13215 17.2383C2.59996 17.2383 3.0153 17.4629 3.2762 17.8102C3.53709 17.4629 3.95243 17.2383 4.42023 17.2383C4.88804 17.2383 5.30339 17.4629 5.56428 17.8102C5.82518 17.4629 6.24051 17.2383 6.70832 17.2383C7.17584 17.2383 7.59095 17.4626 7.85188 17.8096C8.1128 17.4626 8.52791 17.2383 8.99543 17.2383C9.46324 17.2383 9.87858 17.4629 10.1395 17.8102C10.4004 17.4629 10.8157 17.2383 11.2835 17.2383C11.8487 17.2383 12.3373 17.4197 12.5695 17.8123H12.7141V3.71663L9.85415 0.652344Z" fill="#226FFF"/>
<path d="M0.702148 0.652344V0.132344H0.182148V0.652344H0.702148ZM9.85415 0.652344L10.2343 0.297538L10.0801 0.132344H9.85415V0.652344ZM0.702148 17.8123H0.182148V18.3323H0.702148V17.8123ZM0.846167 17.8123V18.3323H1.14279L1.29377 18.077L0.846167 17.8123ZM3.2762 17.8102L2.86044 18.1225L3.27619 18.676L3.69195 18.1225L3.2762 17.8102ZM5.56428 17.8102L5.14853 18.1225L5.56428 18.676L5.98003 18.1225L5.56428 17.8102ZM7.85188 17.8096L7.4363 18.1221L7.85188 18.6747L8.26746 18.1221L7.85188 17.8096ZM10.1395 17.8102L9.72372 18.1225L10.1395 18.676L10.5552 18.1225L10.1395 17.8102ZM12.5695 17.8123L12.1219 18.077L12.2729 18.3323H12.5695V17.8123ZM12.7141 17.8123V18.3323H13.2341V17.8123H12.7141ZM12.7141 3.71663H13.2341V3.51166L13.0943 3.36182L12.7141 3.71663ZM0.702148 1.17234H9.85415V0.132344H0.702148V1.17234ZM1.22215 17.8123V0.652344H0.182148V17.8123H1.22215ZM0.846167 17.2923H0.702148V18.3323H0.846167V17.2923ZM2.13215 16.7183C1.48481 16.7183 0.766523 16.9254 0.398565 17.5477L1.29377 18.077C1.39016 17.914 1.6491 17.7583 2.13215 17.7583V16.7183ZM3.69195 17.4979C3.33706 17.0255 2.77041 16.7183 2.13215 16.7183V17.7583C2.42951 17.7583 2.69354 17.9004 2.86044 18.1225L3.69195 17.4979ZM4.42023 16.7183C3.78198 16.7183 3.21532 17.0255 2.86044 17.4979L3.69195 18.1225C3.85886 17.9004 4.12288 17.7583 4.42023 17.7583V16.7183ZM5.98003 17.4979C5.62515 17.0255 5.05849 16.7183 4.42023 16.7183V17.7583C4.7176 17.7583 4.98162 17.9004 5.14853 18.1225L5.98003 17.4979ZM6.70832 16.7183C6.07006 16.7183 5.50341 17.0255 5.14853 17.4979L5.98003 18.1225C6.14694 17.9004 6.41096 17.7583 6.70832 17.7583V16.7183ZM8.26746 17.497C7.91253 17.0251 7.34618 16.7183 6.70832 16.7183V17.7583C7.0055 17.7583 7.26938 17.9002 7.4363 18.1221L8.26746 17.497ZM8.99543 16.7183C8.35757 16.7183 7.79123 17.0251 7.4363 17.497L8.26746 18.1221C8.43438 17.9002 8.69826 17.7583 8.99543 17.7583V16.7183ZM10.5552 17.4979C10.2003 17.0255 9.63369 16.7183 8.99543 16.7183V17.7583C9.29279 17.7583 9.55682 17.9004 9.72372 18.1225L10.5552 17.4979ZM10.5552 18.1225C10.7221 17.9004 10.9862 17.7583 11.2835 17.7583V16.7183C10.6453 16.7183 10.0786 17.0255 9.72372 17.4979L10.5552 18.1225ZM11.2835 17.7583C11.7666 17.7583 12.0255 17.914 12.1219 18.077L13.0171 17.5477C12.6491 16.9254 11.9309 16.7183 11.2835 16.7183V17.7583ZM12.7141 17.2923H12.5695V18.3323H12.7141V17.2923ZM12.1941 3.71663V17.8123H13.2341V3.71663H12.1941ZM9.474 1.00715L12.334 4.07143L13.0943 3.36182L10.2343 0.297538L9.474 1.00715Z" fill="#226FFF" mask="url(#path-1-inside-1_3388_2630)"/>
<path fill-rule="evenodd" clip-rule="evenodd" d="M6.59575 10.5988C6.59575 10.4773 6.69419 10.3789 6.81562 10.3789C6.93705 10.3789 7.03549 10.4773 7.03549 10.5988V10.8376C7.66729 10.9333 8.07682 11.3446 8.08581 11.8934H7.44167C7.41075 11.5739 7.13763 11.3884 6.73569 11.3884C6.31313 11.3884 6.05547 11.5945 6.05547 11.8728C6.05547 12.1872 6.38527 12.316 6.69446 12.3882L7.04488 12.4809C7.60142 12.6097 8.13734 12.9035 8.13734 13.5528C8.13734 14.1276 7.73978 14.5435 7.03544 14.6361V14.9917C7.03544 15.1131 6.937 15.2115 6.81557 15.2115C6.69414 15.2115 6.5957 15.1131 6.5957 14.9917V14.6524C5.80054 14.6125 5.3067 14.2009 5.27734 13.5013H5.93695C5.96787 13.8929 6.29767 14.0836 6.72023 14.0836C7.1634 14.0836 7.46743 13.8671 7.46743 13.5476C7.46743 13.2539 7.19432 13.1302 6.79237 13.0272L6.36981 12.9189C5.75659 12.7592 5.37525 12.45 5.37525 11.9141C5.37525 11.2973 5.88878 10.8743 6.59575 10.8219V10.5988Z" fill="white"/>
<path d="M11.0939 2.26006L12.4539 3.81591V4.11891H9.40331V0.912375H9.74617L11.0939 2.26006Z" fill="white" stroke="#226FFF" stroke-width="0.52"/>
<line x1="2.41699" y1="3.82984" x2="6.42099" y2="3.82984" stroke="white" stroke-width="0.52"/>
<line x1="2.41699" y1="5.54078" x2="10.997" y2="5.54078" stroke="white" stroke-width="0.52"/>
<line x1="2.41699" y1="7.25953" x2="10.997" y2="7.25953" stroke="white" stroke-width="0.52"/>
<line x1="2.41699" y1="8.97047" x2="10.997" y2="8.97047" stroke="white" stroke-width="0.52"/>
</svg>
