<svg width="68" height="56" viewBox="0 0 68 56" fill="none" xmlns="http://www.w3.org/2000/svg">
<path d="M31.4218 4.3336C32.5848 2.37877 35.4153 2.37877 36.5783 4.3336L64.6191 51.4661C65.8089 53.4659 64.3678 56 62.0409 56H5.95919C3.6323 56 2.19124 53.4659 3.38096 51.4661L31.4218 4.3336Z" fill="#0453F4" fill-opacity="0.1"/>
<path d="M36.1337 37.2232C36.1072 38.627 35.3777 39.3565 34.0822 39.3565C32.7315 39.3565 31.9743 38.6005 31.9478 37.2232L31.5963 22.9331C31.5697 21.5559 32.5955 20.5566 34.0546 20.5566C35.486 20.5566 36.5671 21.5824 36.5394 22.9608L36.1337 37.2232Z" fill="#0453F4"/>
<path d="M36.9981 45.3266C36.9981 46.8928 35.6208 48.1352 34.0822 48.1352C32.5148 48.1352 31.1641 46.8663 31.1641 45.3266C31.1641 43.7591 32.4883 42.5167 34.0822 42.5167C35.6485 42.5167 36.9981 43.7326 36.9981 45.3266Z" fill="#0453F4"/>
</svg>
