<svg width="29" height="28" viewBox="0 0 29 28" fill="none" xmlns="http://www.w3.org/2000/svg">
<path d="M21.4133 8.75C20.8883 8.225 20.1008 7.875 19.3133 7.875C18.5258 7.875 17.7383 8.225 17.2133 8.75L15.9883 7.525C16.8633 6.65 18.0883 6.125 19.3133 6.125C20.5383 6.125 21.8508 6.65 22.6383 7.525L21.4133 8.75Z" fill="#0453F4"/>
<path d="M21.5 5.25C21.9832 5.25 22.375 4.85825 22.375 4.375C22.375 3.89175 21.9832 3.5 21.5 3.5C21.0168 3.5 20.625 3.89175 20.625 4.375C20.625 4.85825 21.0168 5.25 21.5 5.25Z" fill="#0453F4"/>
<path d="M17.125 5.25C17.6082 5.25 18 4.85825 18 4.375C18 3.89175 17.6082 3.5 17.125 3.5C16.6418 3.5 16.25 3.89175 16.25 4.375C16.25 4.85825 16.6418 5.25 17.125 5.25Z" fill="#0453F4"/>
<path d="M13.625 0H25C25.9625 0 26.75 0.7875 26.75 1.75V10.5C26.75 11.4625 25.9625 12.25 25 12.25H21.9375L20.45 14.875L18.875 14L20.8875 10.5H25V1.75H13.625V10.5H18V12.25H13.625C12.6625 12.25 11.875 11.4625 11.875 10.5V1.75C11.875 0.7875 12.6625 0 13.625 0ZM18 16.625V21.875C18 22.4 17.65 22.75 17.125 22.75H12.75V24.5H17.125C18.6125 24.5 19.75 23.3625 19.75 21.875V16.625H18ZM13.975 17.85C13.275 18.725 12.1375 19.25 11 19.25C9.8625 19.25 8.725 18.725 8.025 17.85L6.625 18.9C7.675 20.125 9.25 21 11 21C12.75 21 14.325 20.2125 15.375 18.9L13.975 17.85Z" fill="#0453F4"/>
<path d="M14.0625 16.625C14.7874 16.625 15.375 16.0374 15.375 15.3125C15.375 14.5876 14.7874 14 14.0625 14C13.3376 14 12.75 14.5876 12.75 15.3125C12.75 16.0374 13.3376 16.625 14.0625 16.625Z" fill="#0453F4"/>
<path d="M7.9375 16.625C8.66237 16.625 9.25 16.0374 9.25 15.3125C9.25 14.5876 8.66237 14 7.9375 14C7.21263 14 6.625 14.5876 6.625 15.3125C6.625 16.0374 7.21263 16.625 7.9375 16.625Z" fill="#0453F4"/>
<path d="M9.3375 22.75H4.875C4.35 22.75 4 22.4 4 21.875V12.25C4 11.725 4.35 11.375 4.875 11.375H9.25V9.625H4.875C3.3875 9.625 2.25 10.7625 2.25 12.25V21.875C2.25 23.3625 3.3875 24.5 4.875 24.5H8.375L10.3875 28L11.875 27.125L9.3375 22.75Z" fill="#0453F4"/>
</svg>
