<svg width="16" height="16" viewBox="0 0 16 16" fill="none" xmlns="http://www.w3.org/2000/svg">
<g clip-path="url(#clip0_1670_16349)">
<path d="M1.65328 11.1462L1.50684 11.2926V11.4997V13.9997V14.4997H2.00684H4.50684H4.71394L4.86039 14.3533L12.2337 6.97993L12.5873 6.62638L12.2337 6.27283L9.73372 3.77283L9.38017 3.41927L9.02662 3.77283L1.65328 11.1462ZM12.6071 1.83949L12.2535 2.19305L12.6071 1.83949C12.1518 1.38423 11.4152 1.38423 10.9599 1.83949L11.3135 2.19305L10.9599 1.83949L9.73995 3.05949L9.3864 3.41305L9.73995 3.7666L12.2399 6.2666L12.5935 6.62015L12.9471 6.2666L14.1671 5.0466C14.6223 4.59134 14.6223 3.85476 14.1671 3.39949L12.6071 1.83949Z" stroke="black" stroke-opacity="0.6"/>
</g>
<defs>
<clipPath id="clip0_1670_16349">
<rect width="16" height="16" fill="white" transform="translate(0.00683594)"/>
</clipPath>
</defs>
</svg>
