<svg width="35" height="31" viewBox="0 0 35 31" fill="none" xmlns="http://www.w3.org/2000/svg">
<path d="M28.2589 2.28415C28.2589 2.07295 28.0877 1.90173 27.8765 1.90173H2.61325C2.40205 1.90173 2.23083 2.07294 2.23083 2.28415V18.8024C2.23083 19.0136 2.40205 19.1848 2.61325 19.1848H5.87457V24.1104L10.97 19.1848H14.7181V20.7457H11.6011L5.13715 26.9943C4.8288 27.2923 4.31366 27.0738 4.31366 26.645V20.7457H2.61325C1.53998 20.7457 0.669922 19.8757 0.669922 18.8024V2.28415C0.669922 1.21088 1.53998 0.34082 2.61325 0.34082H27.8765C28.9498 0.34082 29.8198 1.21088 29.8198 2.28415V12.4379H28.2589V2.28415Z" fill="#0453F4"/>
<path d="M31.165 26.2234V25.443H31.9454H32.7349C33.1088 25.443 33.4119 25.1398 33.4119 24.7659V15.4018C33.4119 15.0279 33.1088 14.7248 32.7349 14.7248H17.6741C17.3002 14.7248 16.9971 15.0279 16.9971 15.4018V24.7659C16.9971 25.1398 17.3002 25.443 17.6741 25.443H25.2045H27.4515H27.7615L27.987 25.6557L31.165 28.6535V26.2234Z" stroke="#0453F4" stroke-width="1.56091"/>
<circle cx="7.22873" cy="10.7863" r="1.70041" fill="#0453F4"/>
<circle cx="15.4875" cy="10.7863" r="1.70041" fill="#0453F4"/>
<circle cx="23.7473" cy="10.7863" r="1.70041" fill="#0453F4"/>
</svg>
