<svg width="13" height="14" viewBox="0 0 13 14" fill="none" xmlns="http://www.w3.org/2000/svg">
<path fill-rule="evenodd" clip-rule="evenodd" d="M2.3592 9.86009C2.515 10.0257 2.51142 10.2906 2.35121 10.4516L1.40119 11.4067H9.63048C9.79415 11.4067 9.94169 11.5086 10.0043 11.665C10.067 11.8213 10.0323 12.0012 9.91661 12.1209L8.21712 13.8779C8.05909 14.0412 7.80289 14.0412 7.64486 13.8779C7.48684 13.7145 7.48684 13.4496 7.64486 13.2862L8.65359 12.2434H0.404655C0.239963 12.2434 0.0917018 12.1402 0.0297416 11.9824C-0.0322185 11.8247 0.00448558 11.6438 0.122557 11.5251L1.78701 9.85182C1.94723 9.69075 2.20341 9.69445 2.3592 9.86009Z" fill="#A0A0A0"/>
<path fill-rule="evenodd" clip-rule="evenodd" d="M2.55111 9.65809L3.14326 6.42598L5.7318 9.56638L2.55111 9.65809ZM3.2764 9.01912L3.62624 7.01193L5.23646 8.96543L3.2764 9.01912Z" fill="#A0A0A0"/>
<path fill-rule="evenodd" clip-rule="evenodd" d="M11.7839 3.20008L10.1822 1.257L3.94947 6.74799L5.55109 8.69107L11.7839 3.20008ZM10.8387 0.678668C10.5298 0.30385 9.98539 0.258928 9.62284 0.578331L3.39006 6.06932C3.02751 6.38872 2.98406 6.9515 3.29301 7.32632L4.89463 9.2694C5.20358 9.64421 5.74794 9.68914 6.11049 9.36973L12.3433 3.87874C12.7058 3.55934 12.7493 2.99656 12.4403 2.62174L10.8387 0.678668Z" fill="#A0A0A0"/>
</svg>
