<svg width="16" height="16" viewBox="0 0 16 16" fill="none" xmlns="http://www.w3.org/2000/svg">
<path fill-rule="evenodd" clip-rule="evenodd" d="M0.25 3.1568C0.25 1.68949 1.43949 0.5 2.9068 0.5L12.5932 0.5C14.0605 0.5 15.25 1.68949 15.25 3.1568L15.25 12.8432C15.25 14.3105 14.0605 15.5 12.5932 15.5L2.9068 15.5C1.43949 15.5 0.25 14.3105 0.25 12.8432L0.25 3.1568ZM2.9068 1.56272C2.02641 1.56272 1.31272 2.27641 1.31272 3.1568L1.31272 12.8432C1.31272 13.7236 2.02641 14.4373 2.9068 14.4373L12.5932 14.4373C13.4736 14.4373 14.1873 13.7236 14.1873 12.8432L14.1873 3.1568C14.1873 2.27641 13.4736 1.56272 12.5932 1.56272L2.9068 1.56272Z" fill="#A0A0A0"/>
<path fill-rule="evenodd" clip-rule="evenodd" d="M14.5925 5.39743L0.781359 5.39743L0.781359 4.33471L14.5925 4.33471L14.5925 5.39743Z" fill="#A0A0A0"/>
<path fill-rule="evenodd" clip-rule="evenodd" d="M7.74974 7.25615C8.0432 7.25615 8.2811 7.49405 8.2811 7.78751L8.2811 11.775L7.21838 11.775L7.21838 7.78751C7.21838 7.49405 7.45628 7.25615 7.74974 7.25615Z" fill="#A0A0A0"/>
<path fill-rule="evenodd" clip-rule="evenodd" d="M5.54113 9.89151C5.32812 10.0934 5.31906 10.4297 5.52091 10.6427L6.58901 11.7699C7.21627 12.4318 8.27 12.4336 8.8995 11.7738L9.97735 10.644C10.1799 10.4317 10.172 10.0953 9.95968 9.89275C9.74734 9.69018 9.411 9.6981 9.20843 9.91043L8.13058 11.0402C7.92074 11.2602 7.5695 11.2596 7.36041 11.0389L6.29232 9.91173C6.09047 9.69872 5.75415 9.68966 5.54113 9.89151Z" fill="#A0A0A0"/>
</svg>
