<svg xmlns="http://www.w3.org/2000/svg" width="16" height="17" viewBox="0 0 16 17" fill="none">
<path d="M6.63699 1.55963C7.1084 0.538739 8.55837 0.535817 9.03389 1.5548L9.39131 2.32069C9.68176 2.9431 10.4006 3.23917 11.0452 3.00185L11.8383 2.70981C12.8935 2.32127 13.9209 3.34449 13.5366 4.40126L13.2478 5.19556C13.013 5.84105 13.312 6.55873 13.9356 6.84668L14.7029 7.201C15.7238 7.67241 15.7267 9.12238 14.7077 9.5979L13.9418 9.95532C13.3194 10.2458 13.0234 10.9647 13.2607 11.6092L13.5527 12.4023C13.9413 13.4575 12.918 14.4849 11.8613 14.1006L11.067 13.8118C10.4215 13.577 9.70379 13.876 9.41585 14.4996L9.06152 15.2669C8.59011 16.2878 7.14014 16.2907 6.66462 15.2717L6.3072 14.5058C6.01675 13.8834 5.29787 13.5874 4.65333 13.8247L3.8602 14.1167C2.80498 14.5053 1.77763 13.482 2.16192 12.4253L2.45076 11.631C2.68548 10.9855 2.38651 10.2678 1.76294 9.97986L0.995611 9.62553C-0.0252757 9.15412 -0.0281974 7.70415 0.990781 7.22863L1.75668 6.87122C2.37908 6.58076 2.67516 5.86188 2.43783 5.21734L2.1458 4.42421C1.75726 3.369 2.78048 2.34165 3.83725 2.72593L4.63155 3.01477C5.27703 3.2495 5.99472 2.95053 6.28266 2.32696L6.63699 1.55963Z" fill="#0453F4"/>
<circle cx="7.84872" cy="8.41318" r="2.81064" fill="white"/>
</svg>