<svg width="18" height="16" viewBox="0 0 18 16" fill="none" xmlns="http://www.w3.org/2000/svg">
<path fill-rule="evenodd" clip-rule="evenodd" d="M0.515625 2.99172C0.515625 1.82747 1.45436 0.883667 2.61235 0.883667H12.2895C13.4475 0.883667 14.3863 1.82747 14.3863 2.99172V6.02578C14.3863 6.29445 14.1696 6.51225 13.9024 6.51225C13.6352 6.51225 13.4185 6.29445 13.4185 6.02578V2.99172C13.4185 2.36482 12.9131 1.85661 12.2895 1.85661H2.61235C1.98882 1.85661 1.48334 2.36482 1.48334 2.99172V11.0057C1.48334 11.6326 1.98882 12.1408 2.61235 12.1408H9.38638C9.65361 12.1408 9.87024 12.3586 9.87024 12.6273C9.87024 12.896 9.65361 13.1138 9.38638 13.1138H2.61235C1.45436 13.1138 0.515625 12.17 0.515625 11.0057V2.99172Z" fill="#A0A0A0"/>
<path fill-rule="evenodd" clip-rule="evenodd" d="M2.98217 4.41893C2.98217 4.15026 3.1988 3.93246 3.46603 3.93246H11.3612C11.6284 3.93246 11.8451 4.15026 11.8451 4.41893C11.8451 4.6876 11.6284 4.9054 11.3612 4.9054H3.46603C3.1988 4.9054 2.98217 4.6876 2.98217 4.41893Z" fill="#A0A0A0"/>
<path fill-rule="evenodd" clip-rule="evenodd" d="M2.98217 6.47185C2.98217 6.20318 3.1988 5.98538 3.46603 5.98538H7.45094C7.71817 5.98538 7.9348 6.20318 7.9348 6.47185C7.9348 6.74052 7.71817 6.95832 7.45094 6.95832H3.46603C3.1988 6.95832 2.98217 6.74052 2.98217 6.47185Z" fill="#A0A0A0"/>
<path fill-rule="evenodd" clip-rule="evenodd" d="M13.8406 11.4335C14.0296 11.2435 14.3359 11.2435 14.5249 11.4335L17.3427 14.2665C17.5316 14.4564 17.5316 14.7644 17.3427 14.9544C17.1537 15.1444 16.8473 15.1444 16.6584 14.9544L13.8406 12.1215C13.6517 11.9315 13.6517 11.6235 13.8406 11.4335Z" fill="#A0A0A0"/>
<path fill-rule="evenodd" clip-rule="evenodd" d="M12.296 7.77479C11.1165 7.77479 10.1604 8.73611 10.1604 9.92195C10.1604 11.1078 11.1165 12.0691 12.296 12.0691C13.4755 12.0691 14.4316 11.1078 14.4316 9.92195C14.4316 8.73611 13.4755 7.77479 12.296 7.77479ZM9.19265 9.92195C9.19265 8.19877 10.5821 6.80185 12.296 6.80185C14.0099 6.80185 15.3993 8.19877 15.3993 9.92195C15.3993 11.6451 14.0099 13.0421 12.296 13.0421C10.5821 13.0421 9.19265 11.6451 9.19265 9.92195Z" fill="#A0A0A0"/>
</svg>
