<svg width="13" height="18" viewBox="0 0 13 18" fill="none" xmlns="http://www.w3.org/2000/svg">
<path d="M10.0108 9.49002C11.1654 8.75313 12.1339 7.55074 12.1339 5.74246C12.1339 4.16544 11.5306 2.95708 10.5748 2.14126C9.63529 1.33952 8.40132 0.955084 7.1776 0.907295L10.0108 9.49002ZM10.0108 9.49002C9.22909 9.98881 8.34628 10.2883 7.56844 10.4462L10.0108 9.49002ZM9.53759 3.35645L9.53755 3.35642C8.93014 2.83792 8.06673 2.54043 7.11487 2.5033L7.11483 2.50329C5.11126 2.42489 3.36606 3.45285 3.04138 4.90251L9.53759 3.35645ZM9.53759 3.35645C10.1211 3.85441 10.5364 4.61066 10.5364 5.74246C10.5364 6.87566 9.96711 7.62252 9.15142 8.14324L9.53759 3.35645ZM1.56639 5.03636L1.29831 5.20642C1.16226 4.99197 1.11698 4.73226 1.17242 4.48442L1.17244 4.48435C1.47983 3.11168 2.36714 2.11544 3.48935 1.47243L1.56639 5.03636ZM1.56639 5.03636L1.29831 5.20642C1.43435 5.42088 1.65002 5.5725 1.89786 5.62794C2.14569 5.68339 2.40541 5.6381 2.61986 5.50206C2.83429 5.36602 2.98591 5.15039 3.04137 4.90258L1.56639 5.03636ZM10.7809 1.89976C9.77537 1.04171 8.4678 0.639982 7.19009 0.590067L9.15128 8.14333C8.30166 8.68501 7.24085 8.93275 6.52018 8.98301L6.52004 8.98302C6.27833 8.99998 6.05204 9.10795 5.88679 9.28517C5.72154 9.46238 5.62962 9.69566 5.62957 9.93796V9.93803V11.7822C5.62957 12.0361 5.73045 12.2796 5.91001 12.4592C6.08958 12.6388 6.33312 12.7397 6.58707 12.7397C6.84101 12.7397 7.08456 12.6388 7.26412 12.4592C7.44369 12.2796 7.54457 12.0361 7.54457 11.7822V10.8644V10.8643C7.54456 10.8391 7.55326 10.8147 7.56917 10.7952C7.58509 10.7757 7.60726 10.7623 7.63193 10.7573C8.43763 10.5937 9.35925 10.2824 10.1815 9.75765L10.1816 9.75763C11.4032 8.97798 12.4514 7.68518 12.4514 5.74246C12.4514 4.07705 11.8108 2.7788 10.781 1.89979L10.7809 1.89976ZM7.18998 0.590063C5.96601 0.54189 4.61274 0.828509 3.48939 1.4724L7.18998 0.590063ZM5.67079 14.4927C5.3712 14.7923 5.20289 15.1986 5.20289 15.6223C5.20289 16.046 5.3712 16.4523 5.67079 16.7519C5.97038 17.0515 6.37672 17.2198 6.80041 17.2198C7.2241 17.2198 7.63043 17.0515 7.93003 16.7519C8.22962 16.4523 8.39793 16.046 8.39793 15.6223C8.39793 15.1986 8.22962 14.7923 7.93003 14.4927C7.63043 14.1931 7.2241 14.0248 6.80041 14.0248C6.37672 14.0248 5.97038 14.1931 5.67079 14.4927Z" fill="#226FFF" stroke="#226FFF" stroke-width="0.634949" stroke-linecap="round" stroke-linejoin="round"/>
</svg>
