<svg width="35" height="32" viewBox="0 0 35 32" fill="none" xmlns="http://www.w3.org/2000/svg">
<path fill-rule="evenodd" clip-rule="evenodd" d="M3.51074 9.7929C3.51074 9.45423 3.78529 9.17969 4.12396 9.17969H21.294C21.6326 9.17969 21.9072 9.45423 21.9072 9.7929C21.9072 10.1316 21.6326 10.4061 21.294 10.4061H4.12396C3.78529 10.4061 3.51074 10.1316 3.51074 9.7929Z" fill="#0453F4"/>
<path fill-rule="evenodd" clip-rule="evenodd" d="M3.51074 13.8808C3.51074 13.5421 3.78529 13.2676 4.12396 13.2676H6.98562C7.32429 13.2676 7.59884 13.5421 7.59884 13.8808C7.59884 14.2195 7.32429 14.494 6.98562 14.494H4.12396C3.78529 14.494 3.51074 14.2195 3.51074 13.8808Z" fill="#0453F4"/>
<path fill-rule="evenodd" clip-rule="evenodd" d="M8.8252 13.8808C8.8252 13.5421 9.09974 13.2676 9.43841 13.2676H21.2939C21.6326 13.2676 21.9071 13.5421 21.9071 13.8808C21.9071 14.2195 21.6326 14.494 21.2939 14.494H9.43841C9.09974 14.494 8.8252 14.2195 8.8252 13.8808Z" fill="#0453F4"/>
<path fill-rule="evenodd" clip-rule="evenodd" d="M12.5039 17.9687C12.5039 17.63 12.7785 17.3555 13.1171 17.3555H19.4537C19.7923 17.3555 20.0669 17.63 20.0669 17.9687C20.0669 18.3074 19.7923 18.5819 19.4537 18.5819H13.1171C12.7785 18.5819 12.5039 18.3074 12.5039 17.9687Z" fill="#0453F4"/>
<path fill-rule="evenodd" clip-rule="evenodd" d="M3.51074 17.9687C3.51074 17.63 3.78529 17.3555 4.12396 17.3555L10.2561 17.3555C10.5948 17.3555 10.8693 17.63 10.8693 17.9687C10.8693 18.3074 10.5948 18.5819 10.2561 18.5819L4.12396 18.5819C3.78529 18.5819 3.51074 18.3074 3.51074 17.9687Z" fill="#0453F4"/>
<path fill-rule="evenodd" clip-rule="evenodd" d="M3.51074 22.0576C3.51074 21.7189 3.78529 21.4443 4.12396 21.4443H12.3001C12.6388 21.4443 12.9134 21.7189 12.9134 22.0576C12.9134 22.3962 12.6388 22.6708 12.3001 22.6708H4.12396C3.78529 22.6708 3.51074 22.3962 3.51074 22.0576Z" fill="#0453F4"/>
<path fill-rule="evenodd" clip-rule="evenodd" d="M3.51074 26.1454C3.51074 25.8068 3.78529 25.5322 4.12396 25.5322H16.7971C17.1357 25.5322 17.4103 25.8068 17.4103 26.1454C17.4103 26.4841 17.1357 26.7587 16.7971 26.7587H4.12396C3.78529 26.7587 3.51074 26.4841 3.51074 26.1454Z" fill="#0453F4"/>
<path fill-rule="evenodd" clip-rule="evenodd" d="M17.2698 25.983L18.0871 21.0072L22.3123 25.9654L17.2698 25.983ZM18.8034 24.5847L19.1405 22.2434L21.1357 24.5847L18.8034 24.5847Z" fill="#0453F4"/>
<rect x="29.7169" y="12.1198" width="4.95344" height="13.8366" transform="rotate(49.5638 29.7169 12.1198)" stroke="#0453F4" stroke-width="1.56091"/>
<path fill-rule="evenodd" clip-rule="evenodd" d="M2.34216 30.31H22.9313V26.6722L24.4922 25.3321V31.8709H0.78125V6.63621L7.02489 0.392578H24.4922V14.0746L22.9313 15.4148V1.95349H7.02489L2.34216 6.63621V30.31Z" fill="#0453F4"/>
<path d="M7.03267 1.48652L4.45396 4.06521L4.45395 4.06521L2.27429 6.24488L7.03267 6.2617V1.48652Z" stroke="#0453F4" stroke-width="1.56091"/>
</svg>
