<svg width="40" height="40" viewBox="0 0 43 43" fill="none" xmlns="http://www.w3.org/2000/svg">
<rect x="1" y="1.21582" width="40.5321" height="40.5683" rx="20.266" fill="white" fill-opacity="0.2"/>
<rect x="1" y="1.21582" width="40.5321" height="40.5683" rx="20.266" stroke="white" stroke-opacity="0.5"/>
<path fill-rule="evenodd" clip-rule="evenodd" d="M21.266 13.2158C21.8183 13.2158 22.266 13.6635 22.266 14.2158V22.1868L24.973 19.4798C25.3635 19.0893 25.9967 19.0893 26.3872 19.4798C26.7778 19.8703 26.7778 20.5035 26.3872 20.894L22.6928 24.5884C21.9137 25.3676 20.651 25.3697 19.8692 24.5932L16.1473 20.8964C15.7554 20.5072 15.7533 19.874 16.1425 19.4822C16.5317 19.0903 17.1648 19.0882 17.5567 19.4774L20.266 22.1684L20.266 14.2158C20.266 13.6635 20.7137 13.2158 21.266 13.2158ZM14 22.5741C14.5523 22.5741 15 23.0218 15 23.5741V26.7841C15 27.3364 15.4477 27.7841 16 27.7841H26.5321C27.0844 27.7841 27.5321 27.3364 27.5321 26.7841V23.5741C27.5321 23.0218 27.9798 22.5741 28.5321 22.5741C29.0844 22.5741 29.5321 23.0218 29.5321 23.5741V26.7841C29.5321 28.441 28.1889 29.7841 26.5321 29.7841H16C14.3431 29.7841 13 28.441 13 26.7841V23.5741C13 23.0218 13.4477 22.5741 14 22.5741Z" fill="white"/>
</svg>
