<svg width="11" height="17" viewBox="0 0 11 17" fill="none" xmlns="http://www.w3.org/2000/svg">
<path d="M10.3078 5.95533C10.0316 8.25518 8.52521 9.17414 7.87461 9.84124C7.22304 10.5103 7.33974 10.6435 7.3835 11.6247C7.3908 11.7461 7.37317 11.8677 7.33168 11.982C7.2902 12.0964 7.22574 12.201 7.14228 12.2895C7.05882 12.3779 6.95813 12.4484 6.84641 12.4964C6.7347 12.5445 6.61432 12.5692 6.49269 12.569H3.90779C3.78625 12.5688 3.66603 12.5438 3.55446 12.4956C3.44289 12.4474 3.34231 12.3769 3.25886 12.2886C3.17541 12.2002 3.11084 12.0958 3.06909 11.9817C3.02733 11.8675 3.00928 11.7461 3.01601 11.6247C3.01601 10.662 3.10548 10.4383 2.52588 9.84124C1.78678 9.10218 0.0479516 8.05874 0.0479516 5.18903C0.0435124 4.47623 0.186794 3.77023 0.468764 3.11554C0.750734 2.46085 1.16528 1.87167 1.68627 1.38514C2.20725 0.898612 2.82339 0.525279 3.49583 0.288677C4.16827 0.0520755 4.88244 -0.0426642 5.59331 0.01043C6.30419 0.0635242 6.99636 0.263301 7.62619 0.597167C8.25602 0.931033 8.80985 1.39175 9.25278 1.95027C9.6957 2.5088 10.0181 3.15302 10.1997 3.84233C10.3813 4.53164 10.4181 5.25109 10.3078 5.95533Z" fill="#226FFF"/>
<path fill-rule="evenodd" clip-rule="evenodd" d="M7.53704 4.26365C7.87295 4.59955 7.87295 5.14416 7.53704 5.48006L5.24324 7.77375C4.90732 8.10965 4.36269 8.10965 4.02677 7.77375L2.87987 6.6269C2.54395 6.291 2.54395 5.74639 2.87987 5.41049C3.21579 5.07459 3.76042 5.07459 4.09634 5.41049L4.635 5.94913L6.32057 4.26365C6.65648 3.92774 7.20112 3.92774 7.53704 4.26365Z" fill="white"/>
<path d="M3.14453 13H7.27337V13.6133H3.14453V13Z" fill="#226FFF"/>
<path d="M3.14453 14H7.27337C7.27337 14.5336 6.84078 14.9662 6.30716 14.9662H4.11074C3.57712 14.9662 3.14453 14.5336 3.14453 14Z" fill="#226FFF"/>
<path d="M4.17578 15.3008H6.2402C6.2402 15.8517 5.79362 16.2982 5.24274 16.2982H5.17324C4.62236 16.2982 4.17578 15.8517 4.17578 15.3008Z" fill="#226FFF"/>
</svg>
