<svg width="20" height="15" viewBox="0 0 20 15" fill="none" xmlns="http://www.w3.org/2000/svg">
<path d="M4.8002 0.410156L16.5002 4.31016L16.8252 4.50516L3.8252 2.36016L4.8002 0.410156Z" fill="#226FFF"/>
<path d="M13.5746 4.62891H1.22461L1.54961 3.00391L13.5746 4.62891Z" fill="#226FFF"/>
<rect x="0.119141" y="4.98047" width="19.76" height="9.88193" fill="#226FFF"/>
<path d="M8.22827 6.56641H3.61067L1.78027 8.8674V10.8528L3.61067 13.2861H8.22827" stroke="white" stroke-width="0.65" stroke-linecap="round"/>
<path d="M11.9036 6.56641H16.5212L18.3516 8.8674V10.8528L16.5212 13.2861H11.9036" stroke="white" stroke-width="0.65" stroke-linecap="round"/>
<path d="M12.9011 10.1271C12.9011 11.7299 11.6019 13.0293 9.99949 13.0293C8.39704 13.0293 7.09792 11.7299 7.09792 10.1271C7.09792 8.52418 8.39704 7.22487 9.99949 7.22487C11.6019 7.22487 12.9011 8.52418 12.9011 10.1271Z" fill="#226FFF" stroke="#226FFF" stroke-width="0.520051"/>
<path fill-rule="evenodd" clip-rule="evenodd" d="M9.90322 8.32682C9.90322 8.22615 9.98484 8.14453 10.0855 8.14453C10.1862 8.14453 10.2678 8.22615 10.2678 8.32682V8.52966C10.7902 8.60972 11.1286 8.95048 11.1361 9.40485H10.602C10.5764 9.1399 10.35 8.98606 10.0167 8.98606C9.66638 8.98606 9.45275 9.157 9.45275 9.38776C9.45275 9.64843 9.72619 9.75527 9.98254 9.81509L10.2731 9.89201C10.7345 9.99885 11.1788 10.2424 11.1788 10.7809C11.1788 11.2568 10.8502 11.6013 10.2679 11.6789V11.9806C10.2679 12.0813 10.1863 12.1629 10.0856 12.1629C9.98493 12.1629 9.90332 12.0813 9.90332 11.9806V11.6929C9.2425 11.6606 8.83199 11.3191 8.80762 10.7381H9.35449C9.38012 11.0629 9.65356 11.221 10.0039 11.221C10.3713 11.221 10.6234 11.0415 10.6234 10.7766C10.6234 10.533 10.397 10.4305 10.0637 10.345L9.71337 10.2552C9.20495 10.1228 8.88879 9.86637 8.88879 9.42194C8.88879 8.9098 9.31578 8.55874 9.90322 8.51609V8.32682Z" fill="white"/>
<path d="M1.29492 4.51027L1.53016 2.86328L13.7625 4.51027" stroke="#226FFF" stroke-width="0.520051" stroke-linecap="round"/>
<path d="M16.8243 4.30137L4.61707 0.331014L3.87967 2.32987" stroke="#226FFF" stroke-width="0.520051" stroke-linecap="round"/>
</svg>
