<svg width="10" height="16" viewBox="0 0 10 16" fill="none" xmlns="http://www.w3.org/2000/svg">
<path d="M5.7376 10.1608C5.7376 10.4652 5.62052 10.7228 5.38636 10.9336C5.17562 11.1443 4.90634 11.2497 4.57852 11.2497C4.25069 11.2497 3.9697 11.1443 3.73555 10.9336C3.5248 10.7228 3.41943 10.4652 3.41943 10.1608V9.31787C3.41943 8.63881 3.61847 8.08854 4.01654 7.66706C4.43802 7.24557 4.85951 6.87092 5.28099 6.5431C5.67906 6.23869 6.042 5.89916 6.36982 5.52451C6.72106 5.12644 6.89668 4.65813 6.89668 4.11956C6.89668 3.60442 6.70935 3.19464 6.3347 2.89023C5.98346 2.56241 5.50344 2.3985 4.89463 2.3985C4.37948 2.3985 3.96971 2.52729 3.6653 2.78486C3.36089 3.04244 3.18528 3.40538 3.13844 3.8737C3.11503 4.13127 2.98624 4.36543 2.75208 4.57617C2.54134 4.7635 2.28377 4.85716 1.97936 4.85716C1.67496 4.85716 1.39397 4.74008 1.13639 4.50592C0.902235 4.27177 0.785156 4.00248 0.785156 3.69808C0.785156 3.08927 0.972483 2.539 1.34714 2.04727C1.72179 1.53212 2.21352 1.12234 2.82233 0.817937C3.45456 0.513531 4.14532 0.361328 4.89463 0.361328C6.13567 0.361328 7.16596 0.700857 7.98551 1.37991C8.80507 2.03556 9.21484 2.89023 9.21484 3.94394C9.21484 4.92741 8.99239 5.68842 8.54749 6.22699C8.12601 6.76555 7.64599 7.23386 7.10742 7.63193C6.73277 7.91292 6.40495 8.19391 6.12396 8.4749C5.86638 8.73248 5.7376 9.01346 5.7376 9.31787V10.1608ZM4.85951 15.6401C4.4146 15.6401 4.02824 15.4879 3.70042 15.1835C3.39602 14.9025 3.24382 14.563 3.24382 14.1649C3.24382 13.7435 3.39602 13.3922 3.70042 13.1112C4.02824 12.8068 4.4146 12.6546 4.85951 12.6546C5.28099 12.6546 5.64393 12.8068 5.94834 13.1112C6.25275 13.3922 6.40495 13.7435 6.40495 14.1649C6.40495 14.563 6.25275 14.9025 5.94834 15.1835C5.64393 15.4879 5.28099 15.6401 4.85951 15.6401Z" fill="#084BF2"/>
</svg>
