<svg width="18" height="17" viewBox="0 0 18 17" fill="none" xmlns="http://www.w3.org/2000/svg">
<path d="M8.70625 3.70983C8.70625 5.18687 7.50893 6.38422 6.03198 6.38422C4.55502 6.38422 3.3577 5.18687 3.3577 3.70983C3.3577 2.23279 4.55502 1.03543 6.03198 1.03543C7.50893 1.03543 8.70625 2.23279 8.70625 3.70983Z" fill="#226FFF" stroke="#226FFF" stroke-width="0.594297"/>
<path d="M15.2385 3.70983C15.2385 5.18687 14.0412 6.38422 12.5642 6.38422C11.0872 6.38422 9.88992 5.18687 9.88992 3.70983C9.88992 2.23279 11.0872 1.03543 12.5642 1.03543C14.0412 1.03543 15.2385 2.23279 15.2385 3.70983Z" fill="#226FFF" stroke="#226FFF" stroke-width="0.594297"/>
<path d="M1.56961 10.8392C1.56961 9.034 3.03303 7.57059 4.83825 7.57059H11.6725V15.8909H6.62103H3.27818H2.46106C1.96872 15.8909 1.56961 15.4918 1.56961 14.9995V10.8392Z" fill="#226FFF" stroke="#226FFF" stroke-width="0.594297"/>
<path d="M8.05398 10.8392C8.05398 9.034 9.5174 7.57059 11.3226 7.57059H12.5111C14.3163 7.57059 15.7797 9.034 15.7797 10.8392V14.9995C15.7797 15.4918 15.3806 15.8909 14.8882 15.8909H14.294H8.05398V10.8392Z" fill="white" stroke="white" stroke-width="0.594297"/>
<path d="M1.27398 8.1677C0.781652 8.1677 0.382539 8.56681 0.382539 9.05914V10.8421C0.382539 11.3344 0.781653 11.7335 1.27398 11.7335H2.46252C3.28307 11.7335 3.94826 11.0683 3.94826 10.2478V9.65344C3.94826 8.83288 3.28307 8.1677 2.46252 8.1677H1.27398Z" fill="#226FFF" stroke="white" stroke-width="0.594297"/>
<path d="M8.7034 10.8392C8.7034 9.034 10.1668 7.57059 11.972 7.57059H13.1605C14.9657 7.57059 16.4291 9.034 16.4291 10.8392V14.9995C16.4291 15.4918 16.03 15.8909 15.5377 15.8909H14.9434H8.7034V10.8392Z" fill="#226FFF" stroke="#226FFF" stroke-width="0.594297"/>
<path d="M16.725 8.1677C17.2174 8.1677 17.6165 8.56681 17.6165 9.05914V10.8421C17.6165 11.3344 17.2174 11.7335 16.725 11.7335H15.5365C14.7159 11.7335 14.0508 11.0683 14.0508 10.2478V9.65344C14.0508 8.83288 14.7159 8.1677 15.5365 8.1677H16.725Z" fill="#226FFF" stroke="white" stroke-width="0.594297"/>
<line x1="3.4748" y1="16.3594" x2="3.4748" y2="13.1094" stroke="white" stroke-width="0.65"/>
<line x1="14.5246" y1="16.3594" x2="14.5246" y2="13.1094" stroke="white" stroke-width="0.65"/>
</svg>
