<svg width="12" height="12" viewBox="0 0 12 12" fill="none" xmlns="http://www.w3.org/2000/svg">
<path fill-rule="evenodd" clip-rule="evenodd" d="M6.23851 8.11839L4.16545 8.41454C3.98223 8.44072 3.79736 8.37907 3.66647 8.24817C3.53557 8.11728 3.47397 7.93245 3.50015 7.74919L3.7963 5.67613C3.81431 5.55016 3.87266 5.43342 3.96262 5.34347L8.70106 0.605086C9.25789 0.0483047 10.1605 0.0483047 10.7173 0.605086L11.3096 1.19737C11.8664 1.75416 11.8664 2.65684 11.3096 3.21362L6.57118 7.95202C6.48122 8.04198 6.36449 8.10037 6.23851 8.11839ZM10.8596 2.76364L6.13255 7.4907L4.13922 7.77546L4.42399 5.78204L9.15101 1.05508L9.15103 1.05507C9.45936 0.74678 9.95908 0.746813 10.2673 1.05506L10.8596 1.64735C11.1679 1.95562 11.1679 2.45538 10.8596 2.76364ZM1.26431 2.56856C1.26431 2.19661 1.56583 1.89508 1.93779 1.89508H5.44808C5.63405 1.89508 5.78482 1.74431 5.78482 1.55833C5.78482 1.37236 5.63405 1.22159 5.44808 1.22159H1.93779C1.19388 1.22159 0.59082 1.82465 0.59082 2.56856V9.97689C0.59082 10.7208 1.19388 11.3239 1.93779 11.3239H9.34612C10.09 11.3239 10.6931 10.7208 10.6931 9.97689V6.46661C10.6931 6.28063 10.5423 6.12987 10.3564 6.12987C10.1704 6.12987 10.0196 6.28063 10.0196 6.46661V9.97689C10.0196 10.3489 9.71808 10.6504 9.34612 10.6504H1.93779C1.56583 10.6504 1.26431 10.3489 1.26431 9.97689V2.56856Z" fill="#A0A0A0"/>
</svg>
