<svg width="68" height="57" viewBox="0 0 68 57" fill="none" xmlns="http://www.w3.org/2000/svg">
<path d="M31.4218 4.49266C32.5848 2.53783 35.4153 2.53783 36.5783 4.49266L64.6191 51.6252C65.8089 53.6249 64.3678 56.1591 62.0409 56.1591H5.95919C3.6323 56.1591 2.19124 53.6249 3.38096 51.6252L31.4218 4.49266Z" fill="#F40404" fill-opacity="0.1"/>
<path d="M36.1337 37.3826C36.1072 38.7864 35.3777 39.5159 34.0822 39.5159C32.7315 39.5159 31.9743 38.7599 31.9478 37.3826L31.5963 23.0926C31.5697 21.7153 32.5955 20.7161 34.0546 20.7161C35.486 20.7161 36.5671 21.7418 36.5394 23.1202L36.1337 37.3826Z" fill="#F40404"/>
<path d="M36.9981 45.486C36.9981 47.0522 35.6208 48.2947 34.0822 48.2947C32.5148 48.2947 31.1641 47.0257 31.1641 45.486C31.1641 43.9186 32.4883 42.6761 34.0822 42.6761C35.6485 42.6761 36.9981 43.892 36.9981 45.486Z" fill="#F40404"/>
</svg>
