<svg width="16" height="16" viewBox="0 0 16 16" fill="none" xmlns="http://www.w3.org/2000/svg">
<path fill-rule="evenodd" clip-rule="evenodd" d="M0.25 3.1568C0.25 1.68949 1.43949 0.5 2.9068 0.5H12.5932C14.0605 0.5 15.25 1.68949 15.25 3.1568V12.8432C15.25 14.3105 14.0605 15.5 12.5932 15.5H2.9068C1.43949 15.5 0.25 14.3105 0.25 12.8432V3.1568ZM2.9068 1.56272C2.02641 1.56272 1.31272 2.27641 1.31272 3.1568V12.8432C1.31272 13.7236 2.02641 14.4373 2.9068 14.4373H12.5932C13.4736 14.4373 14.1873 13.7236 14.1873 12.8432V3.1568C14.1873 2.27641 13.4736 1.56272 12.5932 1.56272H2.9068Z" fill="#A0A0A0"/>
<path fill-rule="evenodd" clip-rule="evenodd" d="M2.98619 5.6766C2.98619 5.38314 3.22409 5.14524 3.51755 5.14524H6.61832C6.91178 5.14524 7.14968 5.38314 7.14968 5.6766C7.14968 5.97006 6.91178 6.20796 6.61832 6.20796H3.51755C3.22409 6.20796 2.98619 5.97006 2.98619 5.6766Z" fill="#A0A0A0"/>
<path fill-rule="evenodd" clip-rule="evenodd" d="M2.98619 8.15593C2.98619 7.86247 3.22409 7.62457 3.51755 7.62457H11.9819C12.2754 7.62457 12.5133 7.86247 12.5133 8.15593C12.5133 8.44939 12.2754 8.68729 11.9819 8.68729H3.51755C3.22409 8.68729 2.98619 8.44939 2.98619 8.15593Z" fill="#A0A0A0"/>
<path fill-rule="evenodd" clip-rule="evenodd" d="M2.98619 10.6353C2.98619 10.3418 3.22409 10.1039 3.51755 10.1039H11.9819C12.2754 10.1039 12.5133 10.3418 12.5133 10.6353C12.5133 10.9287 12.2754 11.1666 11.9819 11.1666H3.51755C3.22409 11.1666 2.98619 10.9287 2.98619 10.6353Z" fill="#A0A0A0"/>
</svg>
