<svg width="14" height="18" viewBox="0 0 14 18" fill="none" xmlns="http://www.w3.org/2000/svg">
<mask id="path-1-inside-1_3388_2495" fill="white">
<path fill-rule="evenodd" clip-rule="evenodd" d="M6.98313 2.89194C7.80685 1.4652 9.63121 0.976364 11.0579 1.8001C12.4847 2.62384 12.9735 4.44821 12.1498 5.87495L9.70916 10.1023C8.88544 11.5291 7.06109 12.0179 5.63435 11.1942C5.27813 10.9885 4.98037 10.7204 4.74691 10.4118L5.28305 9.48314L5.73736 8.69624C5.81008 8.57028 5.92986 8.47837 6.07035 8.44072L6.47154 8.33322L6.54175 8.21161C6.36486 8.53536 6.47798 8.94283 6.79919 9.12828C7.12513 9.31647 7.54191 9.20479 7.73009 8.87885L10.0017 4.94433C10.1898 4.61838 10.0782 4.2016 9.75221 4.01342C9.42627 3.82523 9.0095 3.93691 8.82131 4.26285L7.49354 6.56266C6.71366 6.45035 5.91967 6.62812 5.26214 7.06226L4.28155 7.70971C4.34565 7.50803 4.43234 7.31011 4.5425 7.1193L6.98313 2.89194Z"/>
</mask>
<path fill-rule="evenodd" clip-rule="evenodd" d="M6.98313 2.89194C7.80685 1.4652 9.63121 0.976364 11.0579 1.8001C12.4847 2.62384 12.9735 4.44821 12.1498 5.87495L9.70916 10.1023C8.88544 11.5291 7.06109 12.0179 5.63435 11.1942C5.27813 10.9885 4.98037 10.7204 4.74691 10.4118L5.28305 9.48314L5.73736 8.69624C5.81008 8.57028 5.92986 8.47837 6.07035 8.44072L6.47154 8.33322L6.54175 8.21161C6.36486 8.53536 6.47798 8.94283 6.79919 9.12828C7.12513 9.31647 7.54191 9.20479 7.73009 8.87885L10.0017 4.94433C10.1898 4.61838 10.0782 4.2016 9.75221 4.01342C9.42627 3.82523 9.0095 3.93691 8.82131 4.26285L7.49354 6.56266C6.71366 6.45035 5.91967 6.62812 5.26214 7.06226L4.28155 7.70971C4.34565 7.50803 4.43234 7.31011 4.5425 7.1193L6.98313 2.89194Z" fill="#226FFF"/>
<path d="M4.74691 10.4118L4.05411 10.0118L3.78885 10.4712L4.10888 10.8944L4.74691 10.4118ZM5.28305 9.48314L4.59024 9.08315L5.28305 9.48314ZM6.07035 8.44072L5.8633 7.66799L5.8633 7.66799L6.07035 8.44072ZM6.47154 8.33322L6.67859 9.10595L6.99866 9.02019L7.16434 8.73322L6.47154 8.33322ZM6.54175 8.21161L7.24377 8.59521L5.84894 7.81162L6.54175 8.21161ZM8.82131 4.26285L8.12851 3.86285L8.82131 4.26285ZM7.49354 6.56266L7.37951 7.35449L7.91556 7.43168L8.18634 6.96266L7.49354 6.56266ZM5.26214 7.06226L5.70293 7.72987L5.70293 7.72986L5.26214 7.06226ZM4.28155 7.70971L3.51915 7.46738L2.83353 9.62442L4.72233 8.37731L4.28155 7.70971ZM11.4579 1.10729C9.64857 0.0626422 7.33496 0.68257 6.29033 2.49194L7.67594 3.29194C8.27875 2.24782 9.61384 1.89009 10.658 2.49291L11.4579 1.10729ZM12.8426 6.27495C13.8872 4.46558 13.2673 2.15194 11.4579 1.10729L10.658 2.49291C11.7021 3.09573 12.0598 4.43084 11.457 5.47496L12.8426 6.27495ZM10.402 10.5023L12.8426 6.27495L11.457 5.47496L9.01635 9.70232L10.402 10.5023ZM5.23436 11.887C7.04372 12.9316 9.35734 12.3117 10.402 10.5023L9.01635 9.70232C8.41354 10.7464 7.07845 11.1042 6.03434 10.5013L5.23436 11.887ZM4.10888 10.8944C4.40567 11.2868 4.78388 11.6269 5.23436 11.887L6.03434 10.5013C5.77237 10.3501 5.55506 10.1541 5.38494 9.92919L4.10888 10.8944ZM5.43972 10.8118L5.97585 9.88314L4.59024 9.08315L4.05411 10.0118L5.43972 10.8118ZM5.97585 9.88314L6.43016 9.09624L5.04455 8.29624L4.59024 9.08315L5.97585 9.88314ZM6.43016 9.09624C6.3968 9.15402 6.34186 9.19618 6.27741 9.21345L5.8633 7.66799C5.51787 7.76055 5.22336 7.98654 5.04455 8.29624L6.43016 9.09624ZM6.27741 9.21345L6.67859 9.10595L6.26448 7.56049L5.8633 7.66799L6.27741 9.21345ZM7.16434 8.73322L7.23456 8.61161L5.84894 7.81162L5.77873 7.93323L7.16434 8.73322ZM5.83973 7.82802C5.45499 8.53215 5.70082 9.41788 6.3992 9.82109L7.19918 8.43547C7.25513 8.46778 7.27472 8.53857 7.24377 8.59521L5.83973 7.82802ZM6.3992 9.82109C7.10777 10.2302 8.01381 9.98741 8.42289 9.27884L7.03728 8.47885C7.07001 8.42217 7.14249 8.40274 7.19918 8.43547L6.3992 9.82109ZM8.42289 9.27884L10.6945 5.34433L9.30885 4.54433L7.03728 8.47885L8.42289 9.27884ZM10.6945 5.34433C11.1035 4.63575 10.8608 3.7297 10.1522 3.32061L9.35223 4.70623C9.29554 4.6735 9.27612 4.60102 9.30885 4.54433L10.6945 5.34433ZM10.1522 3.32061C9.44364 2.91151 8.5376 3.15428 8.12851 3.86285L9.51412 4.66285C9.48139 4.71953 9.40891 4.73896 9.35223 4.70623L10.1522 3.32061ZM8.12851 3.86285L6.80073 6.16267L8.18634 6.96266L9.51412 4.66285L8.12851 3.86285ZM7.60756 5.77084C6.63377 5.6306 5.64238 5.85257 4.82135 6.39466L5.70293 7.72986C6.19697 7.40366 6.79354 7.2701 7.37951 7.35449L7.60756 5.77084ZM4.82135 6.39466L3.84076 7.04211L4.72233 8.37731L5.70293 7.72987L4.82135 6.39466ZM3.84969 6.71931C3.71054 6.96033 3.6006 7.21114 3.51915 7.46738L5.04394 7.95205C5.09071 7.80492 5.15414 7.65989 5.2353 7.5193L3.84969 6.71931ZM6.29033 2.49194L3.84969 6.71931L5.2353 7.5193L7.67594 3.29194L6.29033 2.49194Z" fill="#226FFF" mask="url(#path-1-inside-1_3388_2495)"/>
<mask id="path-3-inside-2_3388_2495" fill="white">
<path fill-rule="evenodd" clip-rule="evenodd" d="M6.48838 5.56992C5.65026 5.57089 4.85332 5.93344 4.30189 6.56462L4.0014 6.90857C3.83415 7.10001 3.68595 7.30728 3.55888 7.52745L2.55827 9.26129C2.05751 10.1564 3.18223 11.0719 3.95709 10.3999L5.29256 9.24157L5.82979 8.31104C6.01797 7.9851 6.43475 7.87342 6.76069 8.06161C6.81254 8.09155 6.85897 8.12727 6.89963 8.16749L7.59768 7.90558C8.13012 7.70581 8.4393 7.14957 8.32786 6.5919L8.3103 6.50401C8.26345 6.26956 8.12858 6.06196 7.93341 5.92386C7.79598 5.82663 7.64079 5.75732 7.47665 5.71989L7.08373 5.63027C6.90679 5.58992 6.72586 5.56965 6.54437 5.56986L6.48838 5.56992Z"/>
</mask>
<path fill-rule="evenodd" clip-rule="evenodd" d="M6.48838 5.56992C5.65026 5.57089 4.85332 5.93344 4.30189 6.56462L4.0014 6.90857C3.83415 7.10001 3.68595 7.30728 3.55888 7.52745L2.55827 9.26129C2.05751 10.1564 3.18223 11.0719 3.95709 10.3999L5.29256 9.24157L5.82979 8.31104C6.01797 7.9851 6.43475 7.87342 6.76069 8.06161C6.81254 8.09155 6.85897 8.12727 6.89963 8.16749L7.59768 7.90558C8.13012 7.70581 8.4393 7.14957 8.32786 6.5919L8.3103 6.50401C8.26345 6.26956 8.12858 6.06196 7.93341 5.92386C7.79598 5.82663 7.64079 5.75732 7.47665 5.71989L7.08373 5.63027C6.90679 5.58992 6.72586 5.56965 6.54437 5.56986L6.48838 5.56992Z" fill="white"/>
<path d="M4.30189 6.56462L4.90434 7.09096L4.90434 7.09096L4.30189 6.56462ZM6.48838 5.56992L6.48746 4.76994L6.48746 4.76994L6.48838 5.56992ZM4.0014 6.90857L3.39895 6.38224L4.0014 6.90857ZM3.55888 7.52745L4.25176 7.92733L3.55888 7.52745ZM2.55827 9.26129L1.86533 8.86137L1.86011 8.87071L2.55827 9.26129ZM3.95709 10.3999L4.48125 11.0042L3.95709 10.3999ZM5.29256 9.24157L5.81672 9.84592L5.9182 9.7579L5.98536 9.64156L5.29256 9.24157ZM6.89963 8.16749L6.33706 8.73624L6.70116 9.0964L7.18065 8.91649L6.89963 8.16749ZM7.59768 7.90558L7.31666 7.15658L7.31666 7.15658L7.59768 7.90558ZM8.32786 6.5919L9.11234 6.43515L9.11234 6.43515L8.32786 6.5919ZM8.3103 6.50401L7.52583 6.66076L7.52583 6.66076L8.3103 6.50401ZM7.93341 5.92386L8.39547 5.27081L7.93341 5.92386ZM7.47665 5.71989L7.65453 4.93992L7.65453 4.93992L7.47665 5.71989ZM7.08373 5.63027L6.90585 6.41023L6.90585 6.41023L7.08373 5.63027ZM6.54437 5.56986L6.5453 6.36985L6.5453 6.36985L6.54437 5.56986ZM4.90434 7.09096C5.30407 6.63342 5.88176 6.37061 6.48931 6.36991L6.48746 4.76994C5.41876 4.77117 4.40257 5.23346 3.69944 6.03828L4.90434 7.09096ZM4.60385 7.43491L4.90434 7.09096L3.69944 6.03828L3.39895 6.38224L4.60385 7.43491ZM4.25176 7.92733C4.35286 7.75215 4.47078 7.58723 4.60385 7.43491L3.39895 6.38224C3.19752 6.61279 3.01903 6.86242 2.86601 7.12758L4.25176 7.92733ZM3.25115 9.66116L4.25176 7.92733L2.86601 7.12758L1.8654 8.86141L3.25115 9.66116ZM3.43293 9.79552C3.40719 9.81784 3.38974 9.82548 3.38223 9.82819C3.37446 9.83099 3.36824 9.83181 3.36174 9.83164C3.34659 9.83125 3.31656 9.82409 3.28432 9.79784C3.25208 9.7716 3.23897 9.74365 3.23551 9.7289C3.23403 9.72256 3.23356 9.71631 3.23473 9.70814C3.23586 9.70023 3.2398 9.68159 3.25643 9.65186L1.86011 8.87071C0.92176 10.5481 3.02931 12.2635 4.48125 11.0042L3.43293 9.79552ZM4.7684 8.63722L3.43293 9.79552L4.48125 11.0042L5.81672 9.84592L4.7684 8.63722ZM5.98536 9.64156L6.5226 8.71104L5.13699 7.91105L4.59975 8.84157L5.98536 9.64156ZM6.5226 8.71104C6.48987 8.76772 6.41739 8.78715 6.3607 8.75442L7.16068 7.3688C6.45211 6.9597 5.54607 7.20248 5.13699 7.91105L6.5226 8.71104ZM6.3607 8.75442C6.35276 8.74983 6.34464 8.74374 6.33706 8.73624L7.4622 7.59873C7.3733 7.51079 7.27232 7.43326 7.16068 7.3688L6.3607 8.75442ZM7.31666 7.15658L6.61861 7.41848L7.18065 8.91649L7.8787 8.65459L7.31666 7.15658ZM7.54339 6.74866C7.57799 6.92182 7.48199 7.09454 7.31666 7.15658L7.8787 8.65459C8.77826 8.31708 9.3006 7.37732 9.11234 6.43515L7.54339 6.74866ZM7.52583 6.66076L7.54339 6.74866L9.11234 6.43515L9.09477 6.34725L7.52583 6.66076ZM7.47136 6.57692C7.49957 6.59688 7.51906 6.62688 7.52583 6.66076L9.09477 6.34725C9.00785 5.91224 8.7576 5.52704 8.39547 5.27081L7.47136 6.57692ZM7.29878 6.49985C7.36079 6.51399 7.41943 6.54018 7.47136 6.57692L8.39547 5.27081C8.17253 5.11307 7.92079 5.00065 7.65453 4.93992L7.29878 6.49985ZM6.90585 6.41023L7.29878 6.49985L7.65453 4.93992L7.26161 4.85031L6.90585 6.41023ZM6.5453 6.36985C6.66662 6.36971 6.78757 6.38326 6.90585 6.41023L7.26161 4.85031C7.02601 4.79658 6.7851 4.76959 6.54345 4.76987L6.5453 6.36985ZM6.48931 6.36991L6.5453 6.36985L6.54345 4.76987L6.48746 4.76994L6.48931 6.36991Z" fill="white" mask="url(#path-3-inside-2_3388_2495)"/>
<mask id="path-5-inside-3_3388_2495" fill="white">
<path fill-rule="evenodd" clip-rule="evenodd" d="M8.36653 6.46416C6.9398 5.64043 5.11545 6.12926 4.29173 7.556L1.85109 11.7834C1.02737 13.2101 1.51621 15.0345 2.94295 15.8582C4.36968 16.682 6.19403 16.1931 7.01775 14.7664L9.45839 10.539C10.2821 9.11227 9.79327 7.2879 8.36653 6.46416ZM7.06141 8.67748C6.73547 8.48929 6.31869 8.60097 6.13051 8.92691L3.85894 12.8614C3.67076 13.1874 3.78244 13.6042 4.10838 13.7923C4.43432 13.9805 4.8511 13.8689 5.03928 13.5429L7.31085 9.60839C7.49903 9.28245 7.38735 8.86566 7.06141 8.67748Z"/>
</mask>
<path fill-rule="evenodd" clip-rule="evenodd" d="M8.36653 6.46416C6.9398 5.64043 5.11545 6.12926 4.29173 7.556L1.85109 11.7834C1.02737 13.2101 1.51621 15.0345 2.94295 15.8582C4.36968 16.682 6.19403 16.1931 7.01775 14.7664L9.45839 10.539C10.2821 9.11227 9.79327 7.2879 8.36653 6.46416ZM7.06141 8.67748C6.73547 8.48929 6.31869 8.60097 6.13051 8.92691L3.85894 12.8614C3.67076 13.1874 3.78244 13.6042 4.10838 13.7923C4.43432 13.9805 4.8511 13.8689 5.03928 13.5429L7.31085 9.60839C7.49903 9.28245 7.38735 8.86566 7.06141 8.67748Z" fill="#226FFF"/>
<path d="M4.29173 7.556L3.59892 7.156L4.29173 7.556ZM1.85109 11.7834L2.5439 12.1834L1.85109 11.7834ZM6.13051 8.92691L5.4377 8.52692L6.13051 8.92691ZM3.85894 12.8614L4.55175 13.2614L3.85894 12.8614ZM5.03928 13.5429L4.34648 13.1429L5.03928 13.5429ZM7.31085 9.60839L8.00365 10.0084L7.31085 9.60839ZM4.98453 7.956C5.58734 6.91189 6.92244 6.55415 7.96654 7.15697L8.76652 5.77135C6.95716 4.7267 4.64355 5.34663 3.59892 7.156L4.98453 7.956ZM2.5439 12.1834L4.98453 7.956L3.59892 7.156L1.15829 11.3834L2.5439 12.1834ZM3.34294 15.1654C2.29883 14.5626 1.94109 13.2275 2.5439 12.1834L1.15829 11.3834C0.113661 13.1927 0.7336 15.5064 2.54296 16.551L3.34294 15.1654ZM6.32495 14.3664C5.72213 15.4105 4.38704 15.7682 3.34294 15.1654L2.54296 16.551C4.35232 17.5957 6.66593 16.9757 7.71056 15.1664L6.32495 14.3664ZM8.76558 10.139L6.32495 14.3664L7.71056 15.1664L10.1512 10.939L8.76558 10.139ZM7.96654 7.15697C9.01065 7.7598 9.36839 9.09491 8.76558 10.139L10.1512 10.939C11.1958 9.12964 10.5759 6.816 8.76652 5.77135L7.96654 7.15697ZM6.82331 9.32691C6.79059 9.3836 6.71811 9.40302 6.66142 9.37029L7.4614 7.98467C6.75283 7.57557 5.84679 7.81835 5.4377 8.52692L6.82331 9.32691ZM4.55175 13.2614L6.82331 9.32691L5.4377 8.52692L3.16614 12.4614L4.55175 13.2614ZM4.50837 13.0995C4.56506 13.1323 4.58448 13.2047 4.55175 13.2614L3.16614 12.4614C2.75705 13.17 2.99983 14.0761 3.70839 14.4852L4.50837 13.0995ZM4.34648 13.1429C4.3792 13.0862 4.45169 13.0668 4.50837 13.0995L3.70839 14.4852C4.41696 14.8943 5.323 14.6515 5.73209 13.9429L4.34648 13.1429ZM6.61804 9.20839L4.34648 13.1429L5.73209 13.9429L8.00365 10.0084L6.61804 9.20839ZM6.66142 9.37029C6.60473 9.33756 6.58531 9.26508 6.61804 9.20839L8.00365 10.0084C8.41274 9.29982 8.16996 8.39377 7.4614 7.98467L6.66142 9.37029Z" fill="#226FFF" mask="url(#path-5-inside-3_3388_2495)"/>
<path fill-rule="evenodd" clip-rule="evenodd" d="M5.68837 11.22L5.51506 12.0879C6.55643 12.4662 8.86543 12.7118 9.77393 10.668H9.28325C8.36881 11.6263 6.89455 11.8843 5.68837 11.22Z" fill="white"/>
</svg>
