<svg width="16" height="20" viewBox="0 0 16 20" fill="none" xmlns="http://www.w3.org/2000/svg">
<path fill-rule="evenodd" clip-rule="evenodd" d="M15.5752 12.6521C15.5752 14.9951 13.6758 16.8945 11.3328 16.8945H10.8873C10.5944 16.8945 10.357 16.6571 10.357 16.3642C10.357 16.0713 10.5944 15.8339 10.8873 15.8339H11.3328C13.09 15.8339 14.5146 14.4094 14.5146 12.6521V7.34908C14.5146 5.59181 13.09 4.16726 11.3328 4.16726H7.62065V3.10665H11.3328C13.6758 3.10665 15.5752 5.00605 15.5752 7.34908V12.6521Z" fill="#A0A0A0" stroke="#A0A0A0" stroke-width="0.454545"/>
<path fill-rule="evenodd" clip-rule="evenodd" d="M10.6486 0.6104C10.8557 0.817497 10.8557 1.15327 10.6486 1.36036L8.37206 3.6369L10.6486 5.91343C10.8557 6.12053 10.8557 6.4563 10.6486 6.66339C10.4415 6.87049 10.1057 6.87049 9.89863 6.66339L7.24712 4.01188C7.04002 3.80478 7.04002 3.46901 7.24712 3.26192L7.36118 3.14785C7.37779 3.13124 7.36262 3.14641 7.36335 3.14569L9.89863 0.6104C10.1057 0.403304 10.4415 0.403304 10.6486 0.6104Z" fill="#A0A0A0" stroke="#A0A0A0" stroke-width="0.454545" stroke-linecap="round" stroke-linejoin="round"/>
<path fill-rule="evenodd" clip-rule="evenodd" d="M0.273438 7.34887C0.273438 5.00584 2.17284 3.10645 4.51586 3.10645H4.96132C5.25419 3.10645 5.49162 3.34387 5.49162 3.63675C5.49162 3.92963 5.25419 4.16705 4.96132 4.16705H4.51586C2.75859 4.16705 1.33404 5.5916 1.33404 7.34887V12.6519C1.33404 14.4092 2.75859 15.8337 4.51586 15.8337H8.22798V16.8943H4.51586C2.17284 16.8943 0.273438 14.9949 0.273438 12.6519V7.34887Z" fill="#A0A0A0" stroke="#A0A0A0" stroke-width="0.454545"/>
<path fill-rule="evenodd" clip-rule="evenodd" d="M5.20004 19.3906C4.99294 19.1835 4.99294 18.8477 5.20004 18.6406L7.47657 16.3641L5.20004 14.0875C4.99294 13.8804 4.99294 13.5447 5.20004 13.3376C5.40713 13.1305 5.7429 13.1305 5.95 13.3376L8.60151 15.9891C8.80861 16.1962 8.80861 16.532 8.60151 16.7391L8.48745 16.8531C8.47084 16.8697 8.48601 16.8546 8.48528 16.8553L5.95 19.3906C5.7429 19.5977 5.40713 19.5977 5.20004 19.3906Z" fill="#A0A0A0" stroke="#A0A0A0" stroke-width="0.454545" stroke-linecap="round" stroke-linejoin="round"/>
</svg>
