<svg width="12" height="18" viewBox="0 0 12 18" fill="none" xmlns="http://www.w3.org/2000/svg">
<path d="M6.12624 2.05732C4.71479 2.14034 3.46248 1.40005 3.01275 1.01953C3.22031 1.53843 3.51091 2.72151 3.01275 3.30267C2.39005 4.02912 0.625742 5.68959 0.521959 6.00093C0.418176 6.31226 0.625742 7.86895 2.39005 7.86895L3.94673 6.72738C4.38285 6.80006 4.98391 6.80799 5.50347 6.63258C5.64183 7.11389 5.62796 8.34633 4.46564 9.42563L4.43387 9.45513C2.97835 10.8064 0.641489 12.976 2.80512 15.9637H9.96614C9.13944 15.5347 9.20659 13.7786 9.34351 12.9541C9.44992 12.3133 10.0492 11.0238 10.3813 7.86895C10.7965 3.92534 7.89055 1.95354 6.12624 2.05732Z" fill="#226FFF"/>
<path d="M5.60742 1.01761C6.99119 0.879242 10.0493 1.495 11.2117 5.065C11.4885 6.31028 11.8136 9.31976 10.9004 11.3953" stroke="#226FFF" stroke-width="0.8" stroke-linecap="round" stroke-linejoin="round"/>
<path d="M1.55859 17H11.0028" stroke="#226FFF" stroke-width="0.8" stroke-linecap="round" stroke-linejoin="round"/>
</svg>
