<svg width="16" height="15" viewBox="0 0 16 15" fill="none" xmlns="http://www.w3.org/2000/svg">
<path d="M7.7457 7.55324H10.4532L10.5152 7.56018C10.8496 7.59764 11.1458 7.79309 11.3117 8.0858L11.5098 7.88609L13.4521 6.02605C13.8596 5.63584 14.4847 5.58451 14.9504 5.90304C15.519 6.29199 15.6407 7.08042 15.216 7.6228L12.3384 11.2972C12.1488 11.5392 11.8593 11.6806 11.5519 11.6806H7.34948C6.71553 11.6806 6.29289 12.0356 6.16082 12.2131L3.78743 14.4987L0.381836 11.0204L2.85896 8.88463C4.23253 6.38162 6.68911 6.95411 7.7457 7.55324Z" fill="#0453F4"/>
<path d="M4.21381 14.2204L0.707091 10.7136L2.4283 8.99228L5.93501 12.4991L4.21381 14.2204Z" fill="white" stroke="#0453F4"/>
<ellipse cx="9.03022" cy="1.90528" rx="1.40522" ry="1.40528" fill="#0453F4"/>
<path d="M11.7558 5.67456C11.7558 6.49611 10.5395 6.49611 9.03903 6.49611C7.5386 6.49611 6.32227 6.49611 6.32227 5.67456C6.32227 4.57606 7.5386 3.68555 9.03903 3.68555C10.5395 3.68555 11.7558 4.57606 11.7558 5.67456Z" fill="#0453F4"/>
</svg>
