<svg xmlns="http://www.w3.org/2000/svg" width="66" height="48" viewBox="0 0 66 48" fill="none">
  <rect x="0.62793" y="0.541016" width="64.7444" height="46.6119" rx="5" fill="#E6EEFE"/>
  <path d="M8.4917 36.9662V38.3638C8.4917 39.4683 9.38713 40.3638 10.4917 40.3638H55.5085C56.6131 40.3638 57.5085 39.4683 57.5085 38.3638V27.9328C57.5085 27.4043 57.2993 26.8973 56.9267 26.5225L44.6838 14.2118C43.9223 13.4461 42.6904 13.4232 41.901 14.16L24.6723 30.2413C23.9314 30.9329 22.7901 30.9609 22.0162 30.3064L19.5823 28.2481C18.8119 27.5966 17.6769 27.621 16.9352 28.3049L9.13599 35.4958C8.72531 35.8744 8.4917 36.4076 8.4917 36.9662Z" fill="#226FFF"/>
  <circle cx="17.0505" cy="13.8044" r="4.92552" fill="#226FFF"/>
</svg>