<svg xmlns="http://www.w3.org/2000/svg" width="16" height="16" viewBox="0 0 16 16" fill="none">
  <path d="M2 4.39997C2 3.76345 2.25286 3.153 2.70294 2.70291C3.15303 2.25283 3.76348 1.99997 4.4 1.99997H11.6C12.2365 1.99997 12.847 2.25283 13.2971 2.70291C13.7471 3.153 14 3.76345 14 4.39997V11.6C14 12.2365 13.7471 12.8469 13.2971 13.297C12.847 13.7471 12.2365 14 11.6 14H4.4C3.76348 14 3.15303 13.7471 2.70294 13.297C2.25286 12.8469 2 12.2365 2 11.6V4.39997Z" stroke="#8C8C8C" stroke-linecap="round" stroke-linejoin="round"/>
  <path d="M5.90002 7.39996C6.72845 7.39996 7.40002 6.72839 7.40002 5.89996C7.40002 5.07154 6.72845 4.39996 5.90002 4.39996C5.0716 4.39996 4.40002 5.07154 4.40002 5.89996C4.40002 6.72839 5.0716 7.39996 5.90002 7.39996Z" stroke="#8C8C8C" stroke-linecap="round" stroke-linejoin="round"/>
  <path d="M9.51562 8.37256L4.40002 14H11.6798C12.2952 14 12.8853 13.7555 13.3205 13.3204C13.7556 12.8853 14 12.2951 14 11.6798V11.6C14 11.3204 13.895 11.213 13.706 11.006L11.288 8.36896C11.1753 8.24603 11.0382 8.14794 10.8855 8.08094C10.7328 8.01395 10.5678 7.97952 10.401 7.97986C10.2343 7.9802 10.0694 8.0153 9.91695 8.08291C9.7645 8.15052 9.62782 8.24917 9.51562 8.37256Z" stroke="#8C8C8C" stroke-linecap="round" stroke-linejoin="round"/>
</svg>