<svg width="75" height="56" viewBox="0 0 75 56" fill="none" xmlns="http://www.w3.org/2000/svg">
<path d="M1.83984 7.31445C1.83984 4.00074 4.52614 1.31445 7.83984 1.31445H68.5425C71.8562 1.31445 74.5425 4.00074 74.5425 7.31445V53.6325C74.5425 54.7371 73.6471 55.6325 72.5425 55.6325H7.83985C4.52614 55.6325 1.83984 52.9462 1.83984 49.6325V7.31445Z" fill="#8C8C8C"/>
<rect x="0.167969" y="0.478516" width="72.7027" height="55.1537" rx="6" fill="white"/>
<path d="M8.56835 12.1767L7.99731 33.2381" stroke="#E5735C" stroke-width="1.5"/>
<path d="M44.8574 12.1767L44.2864 33.2381" stroke="#E5735C" stroke-width="1.5"/>
<path d="M20.013 11.6776L20.7506 33.2405" stroke="#E5735C" stroke-width="1.5"/>
<path d="M32.8341 22.208L20.8272 22.1909" stroke="#E5735C" stroke-width="1.5"/>
<path d="M56.881 22.208L44.8741 22.1909" stroke="#E5735C" stroke-width="1.5"/>
<path d="M33.5229 11.677L32.8843 33.243" stroke="#E5735C" stroke-width="1.5"/>
<path d="M38.3444 33.2299L38.2045 43.8293" stroke="#E5735C" stroke-width="1.5"/>
<path d="M8.11759 33.2309L8.09821 44.2542" stroke="#E5735C" stroke-width="1.5"/>
<path d="M66.1098 33.2309L66.0904 44.2542" stroke="#E5735C" stroke-width="1.5"/>
<path d="M66.9057 11.677L66.2671 33.243" stroke="#E5735C" stroke-width="1.5"/>
<path d="M66.9066 12.1846L7.79369 12.2933" stroke="#E5735C" stroke-width="1.5"/>
<path d="M66.9066 33.0146L7.79369 32.9059" stroke="#E5735C" stroke-width="1.5"/>
<path d="M66.9066 44.038L7.79369 43.9293" stroke="#E5735C" stroke-width="1.5"/>
<path d="M57.5698 11.677L56.9312 33.243" stroke="#E5735C" stroke-width="1.5"/>
<path d="M11.8711 18.9688L17.7169 18.7578" stroke="#323232" stroke-linecap="round"/>
<path d="M11.8594 21.4961L17.7155 21.3704" stroke="#323232" stroke-linecap="round"/>
<path d="M47.7812 16.4453L53.6381 16.3549" stroke="#323232" stroke-linecap="round"/>
<path d="M47.7812 19.0781L51.2891 18.9355" stroke="#323232" stroke-linecap="round"/>
<path d="M35.2695 18.9531L41.1264 18.8628" stroke="#323232" stroke-linecap="round"/>
<path d="M35.2695 16.2266L41.1168 16.5731" stroke="#323232" stroke-linecap="round"/>
<path d="M35.2656 21.5117L38.7735 21.3691" stroke="#323232" stroke-linecap="round"/>
<path d="M64.5195 24.0957L58.6627 24.0053" stroke="#323232" stroke-linecap="round"/>
<path d="M64.5195 21.3711L58.6723 21.7176" stroke="#323232" stroke-linecap="round"/>
<path d="M64.5234 26.6543L61.0156 26.5117" stroke="#323232" stroke-linecap="round"/>
<path d="M25.2266 30.7012L31.0788 30.9503" stroke="#323232" stroke-linecap="round"/>
<circle cx="11.8669" cy="18.863" r="0.835663" fill="#323232"/>
<path d="M24.4023 24.0039L30.2585 23.8782" stroke="#323232" stroke-linecap="round"/>
<path d="M27.7461 25.6113L30.2562 25.6109" stroke="#323232" stroke-linecap="round"/>
<path d="M46.1406 41.1289L53.638 41.724" stroke="#323232" stroke-linecap="round"/>
<path d="M11.8672 41.1289L35.2657 41.426" stroke="#323232" stroke-linecap="round"/>
<path d="M50.3086 38.9199L52.8187 38.9195" stroke="#323232" stroke-linecap="round"/>
<path d="M11.8672 38.9199L35.2657 38.0843" stroke="#323232" stroke-linecap="round"/>
<path d="M50.3086 36.4121L52.8187 36.4117" stroke="#323232" stroke-linecap="round"/>
<path d="M11.8672 36.4121L21.8951 35.5764" stroke="#323232" stroke-linecap="round"/>
<path d="M15.582 23.041L15.3611 26.0469C15.2801 27.1485 16.1074 28.1071 17.209 28.1881L22.2984 28.5623" stroke="#323232" stroke-width="0.5" stroke-linecap="round"/>
<path d="M61.3477 28.8906L62.1277 31.8019C62.4136 32.8688 61.7805 33.9655 60.7135 34.2514L55.7843 35.5722" stroke="#323232" stroke-width="0.5" stroke-linecap="round"/>
<path fill-rule="evenodd" clip-rule="evenodd" d="M22.6692 28.3983C22.7412 28.4818 22.732 28.6079 22.6485 28.6799L21.2881 29.854C21.2046 29.926 21.0785 29.9168 21.0065 29.8333C20.9345 29.7498 20.9437 29.6237 21.0272 29.5517L22.2364 28.5081L21.1928 27.2988C21.1208 27.2153 21.13 27.0893 21.2135 27.0172C21.297 26.9452 21.4231 26.9544 21.4951 27.0379L22.6692 28.3983Z" fill="#323232"/>
<path fill-rule="evenodd" clip-rule="evenodd" d="M55.3855 35.481C55.3304 35.5765 55.3631 35.6986 55.4586 35.7538L57.0148 36.6522C57.1103 36.7074 57.2324 36.6747 57.2875 36.5792C57.3427 36.4837 57.31 36.3616 57.2145 36.3064L55.8312 35.5078L56.6298 34.1245C56.6849 34.029 56.6522 33.9068 56.5567 33.8517C56.4612 33.7966 56.3391 33.8293 56.284 33.9248L55.3855 35.481Z" fill="#323232"/>
<path d="M28.668 27.1417C28.8025 27.3677 28.8355 27.7371 28.6957 28.1475C28.559 28.5491 28.2691 28.9462 27.8319 29.2064C27.3933 29.4674 26.8871 29.5429 26.4486 29.4787C25.9989 29.4129 25.6833 29.2125 25.5541 28.9953C25.2512 28.4865 25.3261 27.6511 26.1926 27.1353C26.6422 26.8677 27.2121 26.7427 27.712 26.7642C28.2362 26.7867 28.5594 26.9593 28.668 27.1417Z" stroke="#323232" stroke-width="0.731358"/>
<path d="M48.7227 36.3351C48.8572 36.5611 48.8902 36.9304 48.7504 37.3408C48.6137 37.7425 48.3237 38.1395 47.8866 38.3998C47.448 38.6608 46.9417 38.7363 46.5033 38.6721C46.0536 38.6062 45.738 38.4058 45.6088 38.1887C45.3059 37.6799 45.3807 36.8445 46.2473 36.3286C46.6969 36.061 47.2668 35.9361 47.7667 35.9575C48.2909 35.98 48.6141 36.1526 48.7227 36.3351Z" stroke="#323232" stroke-width="0.731358"/>
<rect x="0.167969" y="51.4531" width="72.7027" height="4.17831" rx="1" fill="#CCCCCC"/>
<path d="M6.01535 47.2754H15.2076L16.0433 50.618H5.17969L6.01535 47.2754Z" fill="#EABF4B"/>
<path d="M5.17969 50.6172H16.0433V52.2885H5.17969V50.6172Z" fill="#8C8C8C"/>
</svg>
