<svg width="88" height="71" viewBox="0 0 88 71" fill="none" xmlns="http://www.w3.org/2000/svg">
<path opacity="0.3" d="M34.3234 6.42504C34.3238 4.67339 35.9172 3.24509 37.6326 3.45874L43.5192 4.19194L72.0038 7.11216C73.3375 7.24889 74.3122 8.34015 74.3122 9.69677L74.3148 59.0472C74.3149 60.7898 72.7374 62.2153 71.0282 62.0171L36.597 58.0239C35.2798 57.8711 34.3242 56.7861 34.3242 55.4432L34.3218 12.8546L34.3234 6.42504Z" fill="white"/>
<path opacity="0.5" d="M28.3478 9.56566C28.3482 7.81401 29.9416 6.38571 31.657 6.59936L37.5437 7.33256L66.0282 10.2528C67.3619 10.3895 68.3366 11.4808 68.3366 12.8374L68.3392 62.1878C68.3393 63.9304 66.7618 65.3559 65.0526 65.1577L30.6214 61.1645C29.3042 61.0117 28.3486 59.9267 28.3486 58.5838L28.3462 15.9952L28.3478 9.56566Z" fill="white"/>
<g opacity="0.8">
<path opacity="0.7" d="M21.0827 12.0032C21.0831 10.2515 22.6765 8.82321 24.3919 9.03687L30.2785 9.77007L58.763 12.6903C60.0968 12.827 61.0714 13.9183 61.0715 15.2749L61.0741 64.6254C61.0742 66.3679 59.4967 67.7934 57.7875 67.5952L23.3563 63.602C22.0391 63.4492 21.0835 62.3642 21.0834 61.0213L21.0811 18.4327L21.0827 12.0032Z" fill="white"/>
<path d="M25.0591 46.1875L40.6153 47.8228" stroke="#A2AEC3" stroke-width="1.64664" stroke-linecap="round"/>
<path d="M25.0591 52.3828L55.0044 55.6055" stroke="#A2AEC3" stroke-width="1.64664" stroke-linecap="round"/>
<path d="M25.0591 57.8906L55.157 61.0622" stroke="#A2AEC3" stroke-width="1.64664" stroke-linecap="round"/>
<path d="M29.492 39.6151C28.276 39.4815 27.3295 38.3821 27.3779 37.1595C27.4263 35.937 28.4514 35.0542 29.6674 35.1878C30.8834 35.3214 31.8299 36.4208 31.7815 37.6433C31.7331 38.8659 30.708 39.7486 29.492 39.6151Z" fill="#A2AEC3"/>
<path d="M45.4534 41.3651C44.2374 41.2315 43.2909 40.1321 43.3393 38.9095C43.3878 37.687 44.4128 36.8042 45.6288 36.9378C46.8448 37.0714 47.7913 38.1708 47.7429 39.3933C47.6945 40.6159 46.6695 41.4986 45.4534 41.3651Z" fill="#A2AEC3"/>
<path d="M28.1242 32.2326L45.3141 34.1211L44.9706 33.482C44.8234 33.2079 44.7894 32.8924 44.8764 32.6084L45.2897 31.261L29.3692 28.6749C28.7655 28.5774 28.2919 27.9991 28.316 27.3903L28.6064 20.0577C28.6305 19.4489 29.1457 19.0053 29.7512 19.0718L48.4008 21.1206L48.6489 20.3125C48.7196 20.082 48.8659 19.8871 49.0647 19.7584C49.2635 19.6296 49.5036 19.5743 49.7474 19.6011L53.486 20.0119C53.778 20.0439 54.0534 20.1913 54.2516 20.4216C54.4499 20.6518 54.5547 20.9461 54.5431 21.2396C54.5315 21.5332 54.4043 21.8019 54.1896 21.9868C53.975 22.1717 53.6903 22.2576 53.3984 22.2255L50.5107 21.9083L47.121 32.9551L48.2024 34.9664C48.2984 35.1454 48.3471 35.3438 48.3435 35.5412C48.3399 35.7385 48.284 35.9277 48.1817 36.0891C48.0795 36.2506 47.9345 36.3786 47.7617 36.4599C47.5889 36.5411 47.3945 36.5727 47.1986 36.5514L28.0366 34.4463C27.7446 34.4142 27.4692 34.2668 27.271 34.0366C27.0727 33.8063 26.9679 33.512 26.9795 33.2185C26.9911 32.925 27.1183 32.6562 27.333 32.4713C27.5476 32.2864 27.8323 32.2006 28.1242 32.2326Z" fill="#A2AEC3"/>
</g>
<g filter="url(#filter0_d_3329_3123)">
<path d="M31.3432 58.147L31.3411 45.3132C31.3409 43.9385 30.3407 42.8394 28.9855 42.7244L24.2725 42.3247C22.5874 42.1818 21.0674 43.5957 21.0687 45.3049L21.0777 56.9192C21.0785 57.9515 20.5099 58.9394 19.6 59.4866L18.4727 60.1646L21.0918 60.4633L28.1149 61.1232C29.8068 61.2822 31.3434 59.8656 31.3432 58.147Z" fill="white"/>
</g>
<path d="M0.533342 43.39C0.533763 41.6448 2.11617 40.2188 3.8271 40.4218L9.23853 41.064L28.9998 42.74C30.355 42.855 31.3552 43.9541 31.3554 45.3288L31.3574 58.1626C31.3577 59.8812 29.8211 61.2978 28.1291 61.1388L2.8648 58.765C1.52085 58.6387 0.533966 57.5439 0.53358 56.1788L0.531788 49.839L0.533342 43.39Z" fill="#8DB8F0"/>
<path d="M28.5479 47.4585L3.67432 45.1857" stroke="white" stroke-width="1.64664" stroke-linecap="round"/>
<path d="M28.5514 51.1435L3.32959 48.8341" stroke="white" stroke-width="0.696637" stroke-linecap="round"/>
<path d="M28.5514 54.2763L3.32959 51.9669" stroke="white" stroke-width="0.696637" stroke-linecap="round"/>
<path d="M28.5489 57.4726L21.0244 56.6797" stroke="white" stroke-width="0.696637" stroke-linecap="round"/>
<path d="M48.7666 19.8944L48.427 21.0003L40.9557 20.8816L46.9977 35.9866L51.3144 22.0781L55.2661 22.5122C55.6656 22.5561 56.0551 22.4386 56.3489 22.1856C56.6427 21.9326 56.8167 21.5648 56.8326 21.1631C56.8485 20.7614 56.705 20.3587 56.4338 20.0436C56.1625 19.7285 55.7856 19.5268 55.386 19.4829L50.2698 18.9209C49.9362 18.8842 49.6076 18.9598 49.3355 19.136C49.0634 19.3122 48.8633 19.5789 48.7666 19.8944Z" fill="#A2AEC3"/>
<g filter="url(#filter1_d_3329_3123)">
<rect width="6.73211" height="19.1046" rx="3.36606" transform="matrix(0.707052 -0.707161 0.707052 0.707161 65.1616 34.8125)" fill="#349163"/>
<path d="M75.7314 23.0555C75.7314 33.1481 67.551 41.3298 57.4599 41.3298C47.3689 41.3298 39.1885 33.1481 39.1885 23.0555C39.1885 12.9629 47.3689 4.78125 57.4599 4.78125C67.551 4.78125 75.7314 12.9629 75.7314 23.0555Z" fill="#6FA8FF" fill-opacity="0.4"/>
<path fill-rule="evenodd" clip-rule="evenodd" d="M57.4599 34.5972C63.8332 34.5972 68.9998 29.4298 68.9998 23.0555C68.9998 16.6813 63.8332 11.5139 57.4599 11.5139C51.0867 11.5139 45.9201 16.6813 45.9201 23.0555C45.9201 29.4298 51.0867 34.5972 57.4599 34.5972ZM57.4599 41.3298C67.551 41.3298 75.7314 33.1481 75.7314 23.0555C75.7314 12.9629 67.551 4.78125 57.4599 4.78125C47.3689 4.78125 39.1885 12.9629 39.1885 23.0555C39.1885 33.1481 47.3689 41.3298 57.4599 41.3298Z" fill="#349163"/>
</g>
<defs>
<filter id="filter0_d_3329_3123" x="18.4727" y="42.3125" width="17.2857" height="23.2354" filterUnits="userSpaceOnUse" color-interpolation-filters="sRGB">
<feFlood flood-opacity="0" result="BackgroundImageFix"/>
<feColorMatrix in="SourceAlpha" type="matrix" values="0 0 0 0 0 0 0 0 0 0 0 0 0 0 0 0 0 0 127 0" result="hardAlpha"/>
<feOffset dx="2.20755" dy="2.20755"/>
<feGaussianBlur stdDeviation="1.10377"/>
<feComposite in2="hardAlpha" operator="out"/>
<feColorMatrix type="matrix" values="0 0 0 0 0 0 0 0 0 0 0 0 0 0 0 0 0 0 0.12 0"/>
<feBlend mode="normal" in2="BackgroundImageFix" result="effect1_dropShadow_3329_3123"/>
<feBlend mode="normal" in="SourceGraphic" in2="effect1_dropShadow_3329_3123" result="shape"/>
</filter>
<filter id="filter1_d_3329_3123" x="38.0847" y="4.78125" width="49.4693" height="48.7711" filterUnits="userSpaceOnUse" color-interpolation-filters="sRGB">
<feFlood flood-opacity="0" result="BackgroundImageFix"/>
<feColorMatrix in="SourceAlpha" type="matrix" values="0 0 0 0 0 0 0 0 0 0 0 0 0 0 0 0 0 0 127 0" result="hardAlpha"/>
<feOffset dx="2.20755" dy="3.31132"/>
<feGaussianBlur stdDeviation="1.65566"/>
<feComposite in2="hardAlpha" operator="out"/>
<feColorMatrix type="matrix" values="0 0 0 0 0 0 0 0 0 0 0 0 0 0 0 0 0 0 0.12 0"/>
<feBlend mode="normal" in2="BackgroundImageFix" result="effect1_dropShadow_3329_3123"/>
<feBlend mode="normal" in="SourceGraphic" in2="effect1_dropShadow_3329_3123" result="shape"/>
</filter>
</defs>
</svg>
