<svg width="69" height="69" viewBox="0 0 69 69" fill="none" xmlns="http://www.w3.org/2000/svg">
<path d="M0.09375 27.9922C0.09375 24.6785 2.78004 21.9922 6.09375 21.9922H57.0938C60.4075 21.9922 63.0938 24.6785 63.0938 27.9922V48.4922C63.0938 51.8059 60.4075 54.4922 57.0938 54.4922H6.09375C2.78004 54.4922 0.09375 51.8059 0.09375 48.4922V27.9922Z" fill="#C2C4C5"/>
<path fill-rule="evenodd" clip-rule="evenodd" d="M6.09375 12.9922C2.78027 12.9922 0.09375 15.6777 0.09375 18.9922V46.9922C0.09375 50.3066 2.78027 52.9922 6.09375 52.9922H58.0938C61.4072 52.9922 64.0938 50.3066 64.0938 46.9922V18.9922C64.0938 15.6777 61.4072 12.9922 58.0938 12.9922H6.09375ZM27.5938 15.9922C26.2129 15.9922 25.0938 17.1113 25.0938 18.4922C25.0938 19.873 26.2129 20.9922 27.5938 20.9922H36.5938C37.9746 20.9922 39.0938 19.873 39.0938 18.4922C39.0938 17.1113 37.9746 15.9922 36.5938 15.9922H27.5938Z" fill="white"/>
<rect x="33.0938" y="36.4648" width="25.1758" height="20.8351" rx="7" fill="#ACBEDB"/>
<rect x="33.0938" y="32.9922" width="25.1758" height="20.8351" rx="7" fill="white"/>
<path d="M27.9352 17.9124H35.9446L18.4002 0.21875L13.0605 2.52661L27.9352 17.9124Z" fill="#D9D9D9"/>
<rect x="24.0938" y="28.9922" width="12" height="2" rx="1" fill="#D9D9D9"/>
<rect x="24.0938" y="33.9922" width="12" height="2" rx="1" fill="#D9D9D9"/>
<rect x="24.0938" y="38.9922" width="12" height="2" rx="1" fill="#D9D9D9"/>
<rect x="33.0938" y="39.9922" width="14" height="4" rx="2" fill="#CAD5E8"/>
<rect x="51.582" y="56.1562" width="6.08961" height="17.2813" rx="3.04481" transform="rotate(-45 51.582 56.1562)" fill="url(#paint0_linear_2817_604)"/>
<path d="M61.1517 45.5211C61.1517 54.6498 53.7514 62.0501 44.6227 62.0501C35.494 62.0501 28.0938 54.6498 28.0938 45.5211C28.0938 36.3925 35.494 28.9922 44.6227 28.9922C53.7514 28.9922 61.1517 36.3925 61.1517 45.5211Z" fill="#6FA8FF" fill-opacity="0.4"/>
<path fill-rule="evenodd" clip-rule="evenodd" d="M44.6227 55.9605C50.3882 55.9605 55.062 51.2866 55.062 45.5211C55.062 39.7557 50.3882 35.0818 44.6227 35.0818C38.8572 35.0818 34.1834 39.7557 34.1834 45.5211C34.1834 51.2866 38.8572 55.9605 44.6227 55.9605ZM44.6227 62.0501C53.7514 62.0501 61.1517 54.6498 61.1517 45.5211C61.1517 36.3925 53.7514 28.9922 44.6227 28.9922C35.494 28.9922 28.0938 36.3925 28.0938 45.5211C28.0938 54.6498 35.494 62.0501 44.6227 62.0501Z" fill="#4288F8"/>
<path d="M36.7074 17.9124H28.698L46.2424 0.21875L51.582 2.52661L36.7074 17.9124Z" fill="white"/>
<circle cx="13.0938" cy="34.9922" r="9" fill="#2DAC57"/>
<circle cx="13.0938" cy="34.9922" r="6" fill="#2A883E"/>
<mask id="mask0_2817_604" style="mask-type:alpha" maskUnits="userSpaceOnUse" x="7" y="28" width="13" height="13">
<circle cx="13.0938" cy="34.9922" r="6" fill="white"/>
</mask>
<g mask="url(#mask0_2817_604)">
<circle cx="13.0938" cy="31.9922" r="3" fill="white"/>
<path d="M13.0938 35.9922C9.78004 35.9922 7.09375 38.6785 7.09375 41.9922H19.0938C19.0938 38.6785 16.4075 35.9922 13.0938 35.9922Z" fill="white"/>
</g>
<defs>
<linearGradient id="paint0_linear_2817_604" x1="57.6716" y1="67.8757" x2="52.6866" y2="68.668" gradientUnits="userSpaceOnUse">
<stop stop-color="#4288F8"/>
<stop offset="1" stop-color="#316CC6"/>
</linearGradient>
</defs>
</svg>
