<svg width="30" height="27" viewBox="0 0 30 27" fill="none" xmlns="http://www.w3.org/2000/svg">
<path d="M29.6426 13.8426C29.6426 13.1394 29.0725 12.5693 28.3693 12.5693H15.2119C14.5087 12.5693 13.9386 13.1394 13.9386 13.8426V22.0232C13.9386 22.7265 14.5087 23.2965 15.2119 23.2965H21.7906H23.7536L26.9639 26.3249C27.2347 26.5803 27.6796 26.3883 27.6796 26.0161V23.2965H28.3693C29.0725 23.2965 29.6426 22.7265 29.6426 22.0232V13.8426Z" fill="#0453F4" fill-opacity="0.15"/>
<path d="M0.356445 2.38327C0.356445 1.44564 1.11654 0.685547 2.05417 0.685547H24.1246C25.0622 0.685547 25.8223 1.44564 25.8223 2.38327V16.8139C25.8223 17.7515 25.0622 18.5116 24.1246 18.5116H13.0894H9.90613L4.2591 23.9704C3.98971 24.2308 3.53968 24.0399 3.53968 23.6653V18.5116H2.05417C1.11654 18.5116 0.356445 17.7515 0.356445 16.8139V2.38327Z" fill="#0453F4" fill-opacity="0.1"/>
<circle cx="6.08609" cy="9.8107" r="1.48551" fill="#0453F4"/>
<circle cx="13.3009" cy="9.8107" r="1.48551" fill="#0453F4"/>
<circle cx="20.5168" cy="9.8107" r="1.48551" fill="#0453F4"/>
</svg>
