<svg width="49" height="42" viewBox="0 0 49 42" fill="none" xmlns="http://www.w3.org/2000/svg">
<path d="M14.8386 0L15.447 1.48009C16.6246 4.34466 18.706 6.74594 21.3744 8.31832C18.706 9.89071 16.6246 12.292 15.447 15.1566L14.8386 16.6366L14.2301 15.1566C13.0525 12.292 10.9711 9.89071 8.30273 8.31832C10.9711 6.74594 13.0525 4.34466 14.2301 1.48009L14.8386 0Z" fill="#226FFF"/>
<path d="M37.0037 16.4844L37.3476 17.3209C38.0132 18.9401 39.1897 20.2973 40.6979 21.186C39.1897 22.0748 38.0132 23.432 37.3476 25.0511L37.0037 25.8877L36.6598 25.0511C35.9942 23.432 34.8178 22.0748 33.3096 21.186C34.8178 20.2973 35.9942 18.94 36.6598 17.3209L37.0037 16.4844Z" fill="#226FFF"/>
<path d="M29.0468 3.41016L29.232 3.86062C29.5904 4.73244 30.2238 5.46327 31.0359 5.94182C30.2238 6.42037 29.5904 7.1512 29.232 8.02302L29.0468 8.47348L28.8616 8.02302C28.5032 7.1512 27.8697 6.42037 27.0576 5.94182C27.8697 5.46327 28.5032 4.73244 28.8616 3.86062L29.0468 3.41016Z" fill="#226FFF"/>
<path d="M20.8755 25.538C15.9226 27.5192 12.2079 28.0145 10.9697 28.0145V39.1586C14.2717 39.365 21.7423 39.7778 25.2093 39.7778C29.5431 39.7778 36.3533 39.7778 38.8297 38.5395C40.5809 37.664 50.5929 31.1102 47.4973 28.6337C45.0209 26.6526 41.0998 29.872 39.4489 31.7293C33.2577 34.2058 27.7373 34.9529 25.8284 32.9675C24.2827 31.3599 23.4655 29.2529 27.0666 29.2529C33.5054 29.2529 34.496 28.0145 34.496 28.0145C36.9724 23.6811 27.0666 23.0616 20.8755 25.538Z" fill="#E0E4EB"/>
<rect x="0.914062" y="26.7773" width="7.42905" height="14.8581" fill="#E0E4EB"/>
</svg>
