<svg width="61" height="68" viewBox="0 0 61 68" fill="none" xmlns="http://www.w3.org/2000/svg">
<rect x="0.241211" y="0.820312" width="45.799" height="67.1718" rx="3.74471" fill="#DDDDDD"/>
<path d="M10.9277 0.820312H35.3539L32.8181 5.89183C32.5009 6.52615 31.8526 6.92684 31.1434 6.92684H15.1382C14.429 6.92684 13.7807 6.52615 13.4635 5.89183L10.9277 0.820312Z" fill="#CCCCCC"/>
<rect x="11.126" y="58.834" width="24.4261" height="1.52663" rx="0.763316" fill="#CCCCCC"/>
<path d="M15.326 23.5H13.9277C12.2709 23.5 10.9277 24.8431 10.9277 26.5V27.7634" stroke="#666666" stroke-width="2"/>
<path d="M31.3517 23.5H32.75C34.4069 23.5 35.75 24.8431 35.75 26.5V27.7634" stroke="#666666" stroke-width="2"/>
<path d="M15.326 40.8047H13.9277C12.2709 40.8047 10.9277 39.4615 10.9277 37.8047V36.5413" stroke="#666666" stroke-width="2"/>
<path d="M31.3517 40.8047H32.75C34.4069 40.8047 35.75 39.4615 35.75 37.8047V36.5413" stroke="#666666" stroke-width="2"/>
<path d="M60.1389 58.83C60.1389 62.3593 54.9136 62.3593 48.4679 62.3593C42.0222 62.3593 36.7969 62.3593 36.7969 58.83C36.7969 52.7041 39.912 49.9336 48.4679 49.9336C57.0238 49.9336 60.1389 52.7041 60.1389 58.83Z" fill="#323232"/>
<rect x="36.7969" y="62.625" width="23.2122" height="1.4068" rx="0.703401" fill="#8C8C8C"/>
<path d="M37.4611 53.9113C37.2961 52.7562 38.1924 51.7227 39.3593 51.7227H57.4464C58.6133 51.7227 59.5096 52.7562 59.3446 53.9113L57.8988 64.0322H38.9069L37.4611 53.9113Z" fill="#666666"/>
<path d="M46.6445 47.8555H50.1615V49.614C50.1615 50.5852 49.3742 51.3725 48.403 51.3725C47.4318 51.3725 46.6445 50.5852 46.6445 49.614V47.8555Z" fill="white"/>
<path d="M52.9753 45.0202C52.9753 47.6152 50.5188 49.9669 48.4032 49.9669C46.0047 49.9669 43.8311 47.3092 43.8311 45.0202C43.8311 41.8133 45.7218 39.7676 48.4032 39.7676C51.0845 39.7676 52.9753 41.8133 52.9753 45.0202Z" fill="white"/>
<path d="M47.6186 41.7234C45.2944 41.2341 43.8978 44.17 43.49 45.6991C41.5022 39.7355 46.5483 38.8181 47.4657 38.8181C48.1997 38.8181 49.9123 38.5123 50.6769 38.3594C50.6769 38.604 50.0652 38.8691 49.7594 38.971C53.6739 39.8273 53.7351 43.8132 53.2764 45.6991C52.6647 42.0292 49.6065 40.8059 50.0652 41.5705C50.524 42.335 50.524 42.335 47.6186 41.7234Z" fill="black"/>
<path d="M43.1279 45.0431C43.1279 44.8489 43.2854 44.6914 43.4796 44.6914C43.8681 44.6914 44.183 45.0063 44.183 45.3948V46.4499C44.183 46.6441 44.0256 46.8016 43.8313 46.8016C43.4429 46.8016 43.1279 46.4867 43.1279 46.0982V45.0431Z" fill="white"/>
<path d="M53.6777 45.0431C53.6777 44.8489 53.5203 44.6914 53.326 44.6914C52.9376 44.6914 52.6226 45.0063 52.6226 45.3948V46.4499C52.6226 46.6441 52.7801 46.8016 52.9743 46.8016C53.3628 46.8016 53.6777 46.4867 53.6777 46.0982V45.0431Z" fill="white"/>
<path fill-rule="evenodd" clip-rule="evenodd" d="M46.0387 46.3683C46.8696 46.3683 47.5432 46.0464 47.5432 45.2155C47.5432 44.3846 46.8696 44.0627 46.0387 44.0627C45.2078 44.0627 44.5342 44.3846 44.5342 45.2155C44.5342 46.0464 45.2078 46.3683 46.0387 46.3683ZM46.0387 46.7981C47.107 46.7981 47.9731 46.2838 47.9731 45.2155C47.9731 44.9102 47.9024 44.6502 47.7764 44.4345C48.1414 44.1407 48.6645 44.1406 49.0296 44.4342C48.9035 44.65 48.8327 44.9101 48.8327 45.2156C48.8327 46.2839 49.6987 46.7982 50.767 46.7982C51.8354 46.7982 52.7014 46.2839 52.7014 45.2156C52.7014 45.1897 52.7009 45.1642 52.6999 45.139L53.1505 44.6884V44.3367H52.4418C52.1071 43.8635 51.4824 43.6329 50.767 43.6329C50.1819 43.6329 49.6575 43.7872 49.3028 44.1023C48.7795 43.6781 48.0265 43.6782 47.5033 44.1025C47.1486 43.7872 46.624 43.6328 46.0387 43.6328C45.3233 43.6328 44.6986 43.8635 44.3639 44.3367H43.6553V44.6884L44.1059 45.139C44.1049 45.1642 44.1044 45.1896 44.1044 45.2155C44.1044 46.2838 44.9704 46.7981 46.0387 46.7981ZM50.767 46.3683C51.598 46.3683 52.2715 46.0465 52.2715 45.2156C52.2715 44.3846 51.598 44.0628 50.767 44.0628C49.9361 44.0628 49.2625 44.3846 49.2625 45.2156C49.2625 46.0465 49.9361 46.3683 50.767 46.3683Z" fill="black"/>
</svg>
