<svg width="40" height="40" viewBox="0 0 40 40" fill="none" xmlns="http://www.w3.org/2000/svg">
<circle cx="20" cy="20.001" r="19.6064" fill="#F6F6F6"/>
<path d="M19.4404 23.0294C19.2457 23.596 18.7127 23.9765 18.1135 23.9765C17.4327 23.9765 16.9584 23.3006 17.1899 22.6603L19.9479 15.0355C20.2397 14.2288 21.0056 13.6914 21.8634 13.6914C22.7221 13.6914 23.4887 14.23 23.7797 15.0379L26.53 22.6718C26.7587 23.3068 26.2882 23.9765 25.6132 23.9765C25.0159 23.9765 24.4852 23.5954 24.2942 23.0294L23.8134 21.6041H19.9301L19.4404 23.0294ZM20.4934 19.942H23.2502L21.9014 16.007H21.8273L20.4934 19.942Z" fill="#8C8C8C"/>
<path fill-rule="evenodd" clip-rule="evenodd" d="M15.6323 17.0882C15.3318 17.0882 15.0882 17.3318 15.0882 17.6323V26.3378C15.0882 26.6383 15.3318 26.8819 15.6323 26.8819H22.1617C22.4622 26.8819 22.7058 26.6383 22.7058 26.3378V24.2496H23.7941V26.3378C23.7941 27.2393 23.0632 27.9701 22.1617 27.9701H15.6323C14.7308 27.9701 14 27.2393 14 26.3378V17.6323C14 16.7308 14.7308 16 15.6323 16H17.7206V17.0882H15.6323Z" fill="#8C8C8C"/>
</svg>
