<svg width="40" height="40" viewBox="0 0 40 40" fill="none" xmlns="http://www.w3.org/2000/svg">
<circle cx="20" cy="20.001" r="19.6064" fill="#F6F6F6"/>
<path d="M13.1963 13C13.1963 12.4477 13.644 12 14.1963 12H22.4594L24.5647 14.1053L26.67 16.2105V27C26.67 27.5523 26.2223 28 25.67 28H14.1963C13.644 28 13.1963 27.5523 13.1963 27V13Z" fill="#2CA06A"/>
<path d="M26.6705 16.2105L22.46 12V15.7105C22.46 15.9867 22.6838 16.2105 22.96 16.2105H26.6705Z" fill="#1F704A"/>
<path d="M18.4381 18.25C18.6323 18.25 18.8121 18.3523 18.9113 18.5193L19.8756 20.1416H19.9136L20.8854 18.5175C20.9847 18.3516 21.1638 18.25 21.3572 18.25C21.7864 18.25 22.0501 18.7199 21.8264 19.0862L20.6581 21L21.8419 22.8963C22.074 23.268 21.8067 23.75 21.3685 23.75C21.1728 23.75 20.9913 23.6475 20.8904 23.4799L19.9136 21.8584H19.8756L18.8976 23.4819C18.7974 23.6483 18.6173 23.75 18.4231 23.75C17.9876 23.75 17.7224 23.2707 17.9538 22.9017L19.1463 21L17.9693 19.0893C17.7433 18.7225 18.0072 18.25 18.4381 18.25Z" fill="white"/>
</svg>
