<svg width="40" height="40" viewBox="0 0 40 40" fill="none" xmlns="http://www.w3.org/2000/svg">
<circle cx="20" cy="19.6064" r="19.6064" fill="white"/>
<path d="M13.1963 12.6055C13.1963 12.0532 13.644 11.6055 14.1963 11.6055H22.4594L24.5647 13.7107L26.67 15.816V26.6055C26.67 27.1578 26.2223 27.6055 25.67 27.6055H14.1963C13.644 27.6055 13.1963 27.1578 13.1963 26.6055V12.6055Z" fill="#2CA06A"/>
<path d="M26.6705 15.816L22.46 11.6055V15.316C22.46 15.5921 22.6838 15.816 22.96 15.816H26.6705Z" fill="#1F704A"/>
<path d="M18.4381 17.8555C18.6323 17.8555 18.8121 17.9578 18.9113 18.1247L19.8756 19.747H19.9136L20.8854 18.1229C20.9847 17.957 21.1638 17.8555 21.3572 17.8555V17.8555C21.7864 17.8555 22.0501 18.3254 21.8264 18.6917L20.6581 20.6055L21.8419 22.5017C22.074 22.8735 21.8067 23.3555 21.3685 23.3555V23.3555C21.1728 23.3555 20.9913 23.253 20.8904 23.0853L19.9136 21.4639H19.8756L18.8976 23.0874C18.7974 23.2537 18.6173 23.3555 18.4231 23.3555V23.3555C17.9876 23.3555 17.7224 22.8761 17.9538 22.5072L19.1463 20.6055L17.9693 18.6948C17.7433 18.328 18.0072 17.8555 18.4381 17.8555V17.8555Z" fill="white"/>
</svg>
