<svg width="60" height="67" viewBox="0 0 60 67" fill="none" xmlns="http://www.w3.org/2000/svg">
<path d="M7.64844 10.2951C7.64844 8.34366 9.23038 6.76172 11.1818 6.76172H50.1561C52.1075 6.76172 53.6895 8.34366 53.6895 10.2951V62.1005C53.6895 64.0519 52.1075 65.6339 50.1561 65.6339H11.1818C9.23038 65.6339 7.64844 64.0519 7.64844 62.1005V10.2951Z" fill="#B29059"/>
<path d="M6.79297 9.44157C6.79297 7.49014 8.37491 5.9082 10.3263 5.9082H49.3006C51.2521 5.9082 52.834 7.49015 52.834 9.44157V61.247C52.834 63.1984 51.2521 64.7804 49.3006 64.7804H10.3263C8.37491 64.7804 6.79297 63.1984 6.79297 61.247V9.44157Z" fill="#CFB489"/>
<g filter="url(#filter0_f_3102_2261)">
<path d="M21.0823 22.0465C21.3785 21.579 21.7461 21.1608 22.1718 20.8071L30.6121 13.793C31.6389 12.9396 32.9501 12.5052 34.2833 12.5767L45.7591 13.1921C48.6821 13.3489 50.9245 15.8454 50.7678 18.7684L48.6679 57.9269C48.5112 60.8498 46.0146 63.0923 43.0916 62.9355L15.9921 61.4823C13.0692 61.3256 10.8267 58.829 10.9835 55.9061L11.9593 37.7099C12.0079 36.803 12.2887 35.9239 12.7748 35.1568L21.0823 22.0465Z" fill="#AE9264"/>
</g>
<path d="M11.3768 15.4939C11.507 12.5469 14.0183 10.2733 16.9637 10.4358L20.3512 10.6227L44.0757 11.895C46.9987 12.0517 49.2411 14.5483 49.0843 17.4712L46.9845 56.6298C46.8277 59.5527 44.3311 61.7951 41.4082 61.6384L14.3087 60.1852C11.3857 60.0284 9.1433 57.5318 9.30004 54.6089L11.2796 17.6948L11.3768 15.4939Z" fill="#FDFAF6"/>
<g filter="url(#filter1_f_3102_2261)">
<path d="M13.9108 30.8856C14.0321 30.4957 14.108 30.0931 14.1369 29.6858L15.0179 17.2628C15.2146 14.4881 17.523 12.3376 20.3046 12.3376L33.8576 12.3376L35.0964 12.3376C37.6572 12.3376 39.8518 14.1687 40.3107 16.6881L46.685 51.6901C46.7619 52.1122 46.7872 52.5421 46.7605 52.9703L46.6422 54.8621C46.5095 56.985 45.1205 58.823 43.1143 59.5301L41.8831 59.9641C41.3171 60.1636 40.7213 60.2655 40.1212 60.2655L31.5933 60.2655L17.6786 59.3378C15.7815 59.2114 14.0975 58.0784 13.2655 56.3688L9.74126 49.1273C9.15084 47.9142 9.04532 46.5215 9.44619 45.2332L13.9108 30.8856Z" fill="#DDDDDD"/>
</g>
<path d="M7.15631 16.8866L10.1052 13.429L33.6379 10.1605C36.5372 9.75786 39.214 11.7818 39.6167 14.6811L45.0114 53.523C45.4141 56.4224 43.3902 59.0991 40.4908 59.5018L13.6104 63.2352C10.7111 63.6379 8.03431 61.614 7.63163 58.7147L2.54614 22.099L7.15631 16.8866Z" fill="#FDFAF6"/>
<g filter="url(#filter2_f_3102_2261)">
<path d="M9.21892 22.0755L3.24641 22.905L10.8054 14.235L11.4792 19.0861C11.6805 20.5358 10.6686 21.8742 9.21892 22.0755Z" fill="#CCCCCC"/>
</g>
<path d="M8.5197 21.2689L2.54719 22.0984L10.1062 13.4283L10.78 18.2795C10.9813 19.7291 9.96936 21.0675 8.5197 21.2689Z" fill="#CCCCCC"/>
<path d="M10.7231 25.8105C10.656 25.3273 10.9933 24.8811 11.4765 24.814L35.6469 21.457C36.3888 21.354 36.9142 22.1629 36.5184 22.7987L34.6186 25.8511C34.4801 26.0736 34.2499 26.2232 33.9902 26.2592L12.0995 29.2996C11.6163 29.3667 11.1702 29.0294 11.103 28.5462L10.7231 25.8105Z" fill="#666666"/>
<path d="M11.5551 31.791C11.488 31.3077 11.8253 30.8616 12.3085 30.7945L31.1391 28.1791C31.8628 28.0786 32.3887 28.8501 32.0306 29.487L30.3303 32.5116C30.1951 32.7521 29.9552 32.9157 29.6818 32.9536L12.9315 35.2801C12.4483 35.3472 12.0022 35.0099 11.9351 34.5266L11.5551 31.791Z" fill="#808080"/>
<path d="M12.3832 37.7695C12.3161 37.2863 12.6534 36.8401 13.1367 36.773L27.2937 34.8068C28.0217 34.7056 28.5476 35.4862 28.1804 36.123L26.4326 39.1542C26.2965 39.3903 26.0589 39.5504 25.7889 39.5879L13.7597 41.2586C13.2764 41.3257 12.8303 40.9884 12.7632 40.5052L12.3832 37.7695Z" fill="#999999"/>
<path d="M14.0434 49.7324C13.9763 49.2491 14.3136 48.803 14.7968 48.7359L23.5133 47.5253C23.9965 47.4582 24.4426 47.7955 24.5097 48.2787L24.8897 51.0144C24.9568 51.4976 24.6195 51.9437 24.1363 52.0109L15.4198 53.2215C14.9366 53.2886 14.4905 52.9513 14.4233 52.468L14.0434 49.7324Z" fill="#CCCCCC"/>
<path d="M13.2114 43.7519C13.1442 43.2687 13.4816 42.8225 13.9648 42.7554L24.0198 41.3589C24.7461 41.258 25.272 42.0349 24.9085 42.6718L24.0483 44.1787C23.9578 44.3372 23.9186 44.5199 23.9362 44.7016L23.973 45.0828C24.0186 45.5542 23.6844 45.9776 23.2153 46.0427L14.5878 47.241C14.1046 47.3081 13.6584 46.9708 13.5913 46.4876L13.2114 43.7519Z" fill="#B3B3B3"/>
<path d="M27.2933 51.1891C27.3437 51.5516 27.6782 51.8045 28.0407 51.7542C28.4031 51.7039 28.6561 51.3693 28.6057 51.0069L27.2933 51.1891ZM53.6834 1.15509C53.5963 0.799723 53.2376 0.582258 52.8822 0.669371L47.0911 2.08896C46.7357 2.17607 46.5182 2.53478 46.6054 2.89015C46.6925 3.24552 47.0512 3.46298 47.4065 3.37587L52.5542 2.11401L53.816 7.26166C53.9032 7.61703 54.2619 7.8345 54.6172 7.74738C54.9726 7.66027 55.1901 7.30157 55.103 6.9462L53.6834 1.15509ZM27.1632 43.9958L26.5966 43.6523L27.1632 43.9958ZM28.4044 49.5574C28.3541 49.1949 28.0195 48.942 27.6571 48.9923C27.2947 49.0426 27.0417 49.3772 27.092 49.7396L28.4044 49.5574ZM26.5887 46.1159C26.639 46.4783 26.9736 46.7313 27.336 46.681C27.6985 46.6306 27.9514 46.296 27.9011 45.9336L26.5887 46.1159ZM28.6881 42.7584C28.8778 42.4455 28.7779 42.0381 28.465 41.8484C28.1521 41.6587 27.7447 41.7586 27.555 42.0715L28.6881 42.7584ZM29.951 38.1194C29.7613 38.4322 29.8612 38.8397 30.1741 39.0293C30.487 39.219 30.8944 39.1192 31.0841 38.8063L29.951 38.1194ZM33.0009 35.6446C33.1906 35.3317 33.0907 34.9243 32.7778 34.7346C32.4649 34.5449 32.0575 34.6448 31.8678 34.9577L33.0009 35.6446ZM34.2638 31.0055C34.0741 31.3184 34.174 31.7258 34.4869 31.9155C34.7998 32.1052 35.2072 32.0053 35.3969 31.6924L34.2638 31.0055ZM37.3137 28.5307C37.5034 28.2179 37.4035 27.8104 37.0906 27.6208C36.7777 27.4311 36.3703 27.5309 36.1806 27.8438L37.3137 28.5307ZM38.5766 23.8917C38.3869 24.2046 38.4868 24.612 38.7997 24.8017C39.1126 24.9914 39.52 24.8915 39.7097 24.5786L38.5766 23.8917ZM41.6265 21.4169C41.8161 21.104 41.7163 20.6966 41.4034 20.5069C41.0905 20.3172 40.6831 20.4171 40.4934 20.73L41.6265 21.4169ZM42.8894 16.7779C42.6997 17.0908 42.7996 17.4982 43.1125 17.6879C43.4254 17.8775 43.8328 17.7777 44.0225 17.4648L42.8894 16.7779ZM45.9393 14.3031C46.1289 13.9902 46.0291 13.5828 45.7162 13.3931C45.4033 13.2034 44.9959 13.3033 44.8062 13.6162L45.9393 14.3031ZM47.2022 9.66405C47.0125 9.97693 47.1124 10.3843 47.4253 10.574C47.7381 10.7637 48.1456 10.6638 48.3352 10.351L47.2022 9.66405ZM50.252 7.18926C50.4417 6.87638 50.3419 6.46897 50.029 6.27928C49.7161 6.08959 49.3087 6.18946 49.119 6.50235L50.252 7.18926ZM51.515 2.55022C51.3253 2.8631 51.4252 3.27052 51.7381 3.4602C52.0509 3.64989 52.4584 3.55002 52.648 3.23714L51.515 2.55022ZM28.6057 51.0069L28.4044 49.5574L27.092 49.7396L27.2933 51.1891L28.6057 51.0069ZM27.9011 45.9336L27.6998 44.4841L26.3874 44.6664L26.5887 46.1159L27.9011 45.9336ZM27.6998 44.4841C27.6928 44.4338 27.7034 44.3827 27.7297 44.3393L26.5966 43.6523C26.4124 43.9563 26.3385 44.3144 26.3874 44.6664L27.6998 44.4841ZM27.7297 44.3393L28.6881 42.7584L27.555 42.0715L26.5966 43.6523L27.7297 44.3393ZM31.0841 38.8063L33.0009 35.6446L31.8678 34.9577L29.951 38.1194L31.0841 38.8063ZM35.3969 31.6924L37.3137 28.5307L36.1806 27.8438L34.2638 31.0055L35.3969 31.6924ZM39.7097 24.5786L41.6265 21.4169L40.4934 20.73L38.5766 23.8917L39.7097 24.5786ZM44.0225 17.4648L45.9393 14.3031L44.8062 13.6162L42.8894 16.7779L44.0225 17.4648ZM48.3352 10.351L50.252 7.18926L49.119 6.50235L47.2022 9.66405L48.3352 10.351ZM52.648 3.23714L53.6064 1.65628L52.4734 0.969368L51.515 2.55022L52.648 3.23714Z" fill="url(#paint0_linear_3102_2261)"/>
<rect x="20.3789" y="10.4336" width="15.0954" height="3.01908" rx="1" fill="#5B5040"/>
<rect x="19.6211" y="8.17188" width="16.605" height="3.01908" rx="1" fill="#796951"/>
<defs>
<filter id="filter0_f_3102_2261" x="9.20988" y="10.8017" width="43.3341" height="53.9084" filterUnits="userSpaceOnUse" color-interpolation-filters="sRGB">
<feFlood flood-opacity="0" result="BackgroundImageFix"/>
<feBlend mode="normal" in="SourceGraphic" in2="BackgroundImageFix" result="shape"/>
<feGaussianBlur stdDeviation="0.883342" result="effect1_foregroundBlur_3102_2261"/>
</filter>
<filter id="filter1_f_3102_2261" x="7.44035" y="10.5712" width="41.0959" height="51.4611" filterUnits="userSpaceOnUse" color-interpolation-filters="sRGB">
<feFlood flood-opacity="0" result="BackgroundImageFix"/>
<feBlend mode="normal" in="SourceGraphic" in2="BackgroundImageFix" result="shape"/>
<feGaussianBlur stdDeviation="0.883342" result="effect1_foregroundBlur_3102_2261"/>
</filter>
<filter id="filter2_f_3102_2261" x="0.596068" y="11.5843" width="13.5579" height="13.97" filterUnits="userSpaceOnUse" color-interpolation-filters="sRGB">
<feFlood flood-opacity="0" result="BackgroundImageFix"/>
<feBlend mode="normal" in="SourceGraphic" in2="BackgroundImageFix" result="shape"/>
<feGaussianBlur stdDeviation="1.32501" result="effect1_foregroundBlur_3102_2261"/>
</filter>
<linearGradient id="paint0_linear_3102_2261" x1="27.5138" y1="47.961" x2="57.6352" y2="7.55034" gradientUnits="userSpaceOnUse">
<stop stop-color="#F6DE22"/>
<stop offset="1" stop-color="#FB9200"/>
</linearGradient>
</defs>
</svg>
