<svg width="108" height="57" viewBox="0 0 108 57" fill="none" xmlns="http://www.w3.org/2000/svg">
<path d="M85.0838 54.2105H55.5609H20.393C18.2254 54.2105 16.5493 52.3089 16.8215 50.1585L21.4 13.9887C21.6277 12.1897 23.158 10.8408 24.9715 10.8408H60.6144C61.5946 10.8408 62.5325 10.4411 63.2114 9.73393L67.6739 5.0854C68.3528 4.37825 69.2907 3.97852 70.2709 3.97852H90.9625C93.1444 3.97852 94.8247 5.90397 94.5294 8.06579L88.6507 51.0978C88.4071 52.8812 86.8838 54.2105 85.0838 54.2105Z" fill="#4372DF"/>
<rect x="24.832" y="18.1953" width="37.3309" height="13.1756" rx="6" transform="rotate(10.8767 24.832 18.1953)" fill="white"/>
<rect x="19.9375" y="13.6816" width="37.3309" height="13.1756" rx="6" transform="rotate(-20.0916 19.9375 13.6816)" fill="white"/>
<path d="M25.6645 15.842L27.4936 15.1729C27.8304 15.0497 28.1337 14.9987 28.4035 15.0198C28.6754 15.0401 28.9028 15.1229 29.0857 15.2681C29.2708 15.4125 29.4088 15.6054 29.4995 15.8467C29.5988 16.1249 29.6028 16.378 29.5115 16.606C29.4216 16.8311 29.2621 17.0192 29.0329 17.1704L29.0498 17.2166C29.2269 17.1618 29.4113 17.1543 29.603 17.1939C29.7969 17.2328 29.9745 17.3226 30.1358 17.4633C30.2962 17.6017 30.4187 17.7865 30.5032 18.0176C30.5958 18.2708 30.6163 18.5178 30.5647 18.7588C30.5153 18.999 30.389 19.2199 30.1857 19.4215C29.9817 19.6209 29.7024 19.7855 29.348 19.9151L27.4133 20.6228L25.6645 15.842ZM28.9527 19.2436C29.2543 19.1333 29.4567 18.9944 29.5601 18.8268C29.6627 18.657 29.6785 18.4715 29.6074 18.2704C29.5529 18.1282 29.4695 18.0127 29.3572 17.924C29.2449 17.8353 29.1106 17.7821 28.9544 17.7644C28.7974 17.7444 28.6319 17.7663 28.458 17.8299L27.4939 18.1825L28.0084 19.589L28.9527 19.2436ZM28.1319 17.2454C28.2838 17.1898 28.4091 17.1128 28.5079 17.0143C28.608 16.9128 28.6743 16.7974 28.7069 16.6682C28.7395 16.539 28.7305 16.4051 28.6797 16.2664C28.6083 16.0779 28.4841 15.9499 28.3072 15.8823C28.1302 15.8148 27.9174 15.8265 27.6687 15.9175L26.7838 16.2411L27.2669 17.5618L28.1319 17.2454ZM32.4164 14.7274L33.255 14.4206L34.5665 18.0063L33.7543 18.3034L33.5225 17.6694L33.4828 17.6839C33.4727 17.9222 33.3966 18.1372 33.2546 18.3289C33.1148 18.5198 32.915 18.6628 32.6553 18.7578C32.4176 18.8447 32.1891 18.8684 31.97 18.8288C31.7509 18.7891 31.5536 18.6866 31.3783 18.5211C31.203 18.3556 31.0638 18.132 30.9607 17.8503L30.125 15.5655L30.9702 15.2564L31.7576 17.4091C31.8124 17.5587 31.8882 17.6807 31.9851 17.7751C32.0834 17.8664 32.1944 17.9243 32.3182 17.9489C32.4434 17.9705 32.5743 17.9564 32.7107 17.9065C32.8384 17.8598 32.9493 17.7843 33.0434 17.6799C33.1389 17.5726 33.2004 17.4441 33.228 17.2942C33.2577 17.1436 33.2408 16.9813 33.1772 16.8074L32.4164 14.7274ZM36.266 14.4797C36.1896 14.3529 36.0819 14.27 35.9429 14.231C35.8061 14.1913 35.6518 14.2028 35.4801 14.2656C35.3591 14.3098 35.2565 14.3673 35.1726 14.438C35.0908 14.5078 35.0341 14.5847 35.0024 14.6687C34.9729 14.7518 34.9731 14.8341 35.0029 14.9155C35.0383 15.0124 35.1081 15.0804 35.2123 15.1197C35.3187 15.1581 35.4687 15.1657 35.6623 15.1423L36.3157 15.0455C36.682 14.9964 36.9771 15.0219 37.201 15.1222C37.4263 15.2195 37.5871 15.3965 37.6835 15.6533C37.7656 15.8778 37.7757 16.0999 37.7139 16.3197C37.6512 16.5373 37.522 16.7368 37.3264 16.9182C37.1299 17.0973 36.8775 17.2433 36.5694 17.356C36.1181 17.5211 35.7243 17.5566 35.388 17.4625C35.0538 17.3676 34.8011 17.1543 34.6298 16.8226L35.4883 16.5086C35.568 16.6517 35.6792 16.7408 35.8219 16.7759C35.9667 16.8103 36.1378 16.7902 36.3351 16.7155C36.5406 16.6428 36.6898 16.5458 36.7827 16.4245C36.8755 16.3032 36.8985 16.175 36.8516 16.0399C36.8116 15.9373 36.7373 15.8671 36.6287 15.8295C36.5201 15.7918 36.3698 15.7869 36.1778 15.8147L35.5574 15.8994C35.2001 15.9527 34.9046 15.926 34.6709 15.8194C34.4372 15.7127 34.2744 15.5302 34.1824 15.2718C34.1027 15.0539 34.092 14.8407 34.1505 14.6321C34.2082 14.4214 34.3295 14.231 34.5144 14.061C34.7015 13.8903 34.9392 13.7522 35.2275 13.6467C35.5093 13.5436 35.7708 13.4979 36.0121 13.5095C36.2548 13.518 36.465 13.5809 36.6426 13.6981C36.8225 13.8145 36.9633 13.9776 37.065 14.1875L36.266 14.4797ZM37.2009 12.9773L38.0461 12.6681L39.3577 16.2537L38.5125 16.5629L37.2009 12.9773ZM37.4441 12.3118C37.3561 12.344 37.267 12.3529 37.1769 12.3385C37.0867 12.324 37.0068 12.2896 36.937 12.2353C36.8672 12.181 36.817 12.112 36.7864 12.0283C36.7566 11.9469 36.7508 11.8629 36.7691 11.7764C36.7874 11.6898 36.8267 11.6131 36.887 11.5461C36.9465 11.4769 37.0203 11.4262 37.1084 11.394C37.1964 11.3618 37.2855 11.3529 37.3757 11.3673C37.465 11.3796 37.5445 11.4129 37.6143 11.4672C37.6841 11.5215 37.7339 11.5894 37.7637 11.6709C37.7943 11.7545 37.8005 11.8396 37.7822 11.9261C37.7639 12.0127 37.725 12.0905 37.6655 12.1597C37.606 12.2289 37.5322 12.2796 37.4441 12.3118ZM40.8057 15.7241L39.9604 16.0333L38.6489 12.4476L39.4545 12.153L39.6767 12.7605L39.7229 12.7436C39.7317 12.5083 39.8054 12.3004 39.944 12.1199C40.084 11.9364 40.285 11.7968 40.5469 11.701C40.7957 11.61 41.0318 11.5835 41.2553 11.6215C41.4789 11.6595 41.6772 11.7617 41.8503 11.928C42.0257 12.0934 42.1649 12.317 42.2679 12.5988L43.1036 14.8835L42.265 15.1903L41.4776 13.0376C41.389 12.7955 41.2586 12.6298 41.0862 12.5406C40.913 12.4493 40.7168 12.4449 40.4974 12.5276C40.347 12.5802 40.2266 12.6604 40.1363 12.7683C40.0452 12.874 39.9906 13.0013 39.9727 13.1501C39.954 13.2967 39.9756 13.4547 40.0376 13.6242L40.8057 15.7241ZM45.3244 14.1536C44.9678 14.284 44.6312 14.3223 44.3145 14.2684C43.997 14.2124 43.7171 14.0714 43.4748 13.8456C43.2324 13.6198 43.0433 13.3209 42.9072 12.9489C42.7727 12.5813 42.7248 12.232 42.7634 11.9009C42.8012 11.5677 42.9192 11.2762 43.1174 11.0265C43.3178 10.776 43.5863 10.5892 43.9231 10.466C44.2269 10.3549 44.5262 10.3203 44.821 10.3622C45.1172 10.4011 45.3875 10.5293 45.6318 10.7469C45.8783 10.9637 46.0752 11.2735 46.2226 11.6763L46.3192 11.9404L43.8165 12.8559C43.8942 13.0546 43.9974 13.214 44.1262 13.3341C44.2564 13.4512 44.4027 13.5237 44.5651 13.5516C44.7298 13.5787 44.9023 13.5593 45.0828 13.4933C45.2633 13.4272 45.4042 13.3383 45.5055 13.2263C45.606 13.1122 45.6644 12.9885 45.6805 12.8554L46.506 12.5534C46.531 12.7789 46.5017 12.9955 46.418 13.2033C46.3335 13.4089 46.198 13.5945 46.0114 13.76C45.8263 13.9226 45.5973 14.0538 45.3244 14.1536ZM45.3034 11.6606C45.2447 11.5 45.1567 11.3687 45.0396 11.2668C44.9238 11.1619 44.7899 11.096 44.6379 11.0693C44.4881 11.0417 44.3339 11.0569 44.1754 11.1149C44.0126 11.1745 43.8803 11.2666 43.7786 11.3911C43.6761 11.5134 43.6112 11.6532 43.5838 11.8105C43.5565 11.9677 43.5651 12.1243 43.6097 12.2802L45.3034 11.6606ZM48.4367 10.0279C48.3604 9.90107 48.2527 9.81817 48.1137 9.77919C47.9768 9.7394 47.8226 9.7509 47.6509 9.8137C47.5298 9.85799 47.4273 9.91545 47.3434 9.98609C47.2616 10.0559 47.2049 10.1328 47.1732 10.2168C47.1437 10.2999 47.1439 10.3822 47.1737 10.4637C47.2091 10.5605 47.2789 10.6286 47.3831 10.6678C47.4895 10.7063 47.6395 10.7138 47.8331 10.6904L48.4865 10.5937C48.8528 10.5445 49.1479 10.5701 49.3718 10.6704C49.597 10.7677 49.7579 10.9447 49.8543 11.2014C49.9364 11.4259 49.9465 11.6481 49.8847 11.8678C49.822 12.0854 49.6928 12.2849 49.4971 12.4663C49.3006 12.6455 49.0483 12.7914 48.7402 12.9042C48.2889 13.0692 47.8951 13.1047 47.5587 13.0106C47.2246 12.9157 46.9718 12.7025 46.8006 12.3708L47.6591 12.0568C47.7388 12.1998 47.85 12.2889 47.9927 12.3241C48.1375 12.3584 48.3086 12.3383 48.5059 12.2636C48.7114 12.191 48.8606 12.094 48.9534 11.9726C49.0463 11.8513 49.0693 11.7231 49.0224 11.588C48.9824 11.4854 48.908 11.4152 48.7994 11.3776C48.6908 11.34 48.5405 11.335 48.3486 11.3628L47.7282 11.4475C47.3709 11.5009 47.0753 11.4742 46.8417 11.3675C46.608 11.2608 46.4451 11.0783 46.3531 10.82C46.2734 10.6021 46.2628 10.3888 46.3213 10.1803C46.379 9.9695 46.5003 9.77914 46.6852 9.60919C46.8723 9.43843 47.11 9.30031 47.3983 9.19484C47.6801 9.09178 47.9416 9.04603 48.1829 9.05759C48.4256 9.06614 48.6358 9.12902 48.8134 9.24622C48.9933 9.36262 49.134 9.52575 49.2358 9.73561L48.4367 10.0279ZM51.7799 8.80501C51.7036 8.6782 51.5959 8.5953 51.4568 8.55632C51.32 8.51653 51.1657 8.52804 50.994 8.59084C50.873 8.63512 50.7705 8.69258 50.6865 8.76323C50.6047 8.83307 50.548 8.90997 50.5163 8.99393C50.4869 9.07708 50.487 9.15938 50.5168 9.24082C50.5522 9.33767 50.622 9.40572 50.7262 9.44497C50.8326 9.48342 50.9826 9.49094 51.1762 9.46755L51.8296 9.37079C52.196 9.32164 52.4911 9.34721 52.7149 9.44751C52.9402 9.5448 53.101 9.72181 53.1974 9.97854C53.2795 10.203 53.2897 10.4252 53.2278 10.645C53.1652 10.8626 53.036 11.062 52.8403 11.2434C52.6438 11.4226 52.3915 11.5686 52.0833 11.6813C51.6321 11.8463 51.2383 11.8818 50.9019 11.7878C50.5677 11.6929 50.315 11.4796 50.1438 11.1479L51.0022 10.8339C51.082 10.9769 51.1932 11.066 51.3358 11.1012C51.4806 11.1356 51.6517 11.1154 51.849 11.0408C52.0545 10.9681 52.2037 10.8711 52.2966 10.7498C52.3895 10.6284 52.4125 10.5002 52.3656 10.3652C52.3255 10.2625 52.2512 10.1924 52.1426 10.1547C52.034 10.1171 51.8837 10.1122 51.6917 10.14L51.0713 10.2247C50.714 10.278 50.4185 10.2513 50.1848 10.1446C49.9511 10.0379 49.7883 9.85544 49.6963 9.5971C49.6166 9.37919 49.606 9.16596 49.6644 8.95739C49.7221 8.74663 49.8434 8.55627 50.0283 8.38632C50.2154 8.21556 50.4531 8.07745 50.7415 7.97197C51.0232 7.86892 51.2847 7.82317 51.5261 7.83472C51.7688 7.84327 51.9789 7.90615 52.1566 8.02336C52.3364 8.13976 52.4772 8.30289 52.5789 8.51275L51.7799 8.80501Z" fill="#323232"/>
<rect x="82.418" y="33.2949" width="24.884" height="8.78276" rx="3.99821" transform="rotate(-123.204 82.418 33.2949)" fill="white"/>
<rect x="51.1836" y="33.5684" width="37.3309" height="13.1756" rx="6" transform="rotate(10.8767 51.1836 33.5684)" fill="white"/>
<path d="M54.984 38.3679L56.8966 38.7354C57.2488 38.8031 57.5351 38.9153 57.7555 39.0723C57.9783 39.2296 58.1307 39.4176 58.2128 39.6363C58.2972 39.8553 58.3162 40.0917 58.2699 40.3453C58.2118 40.6349 58.085 40.8539 57.8894 41.0025C57.6965 41.1492 57.4629 41.2284 57.1886 41.2402L57.1793 41.2885C57.3594 41.3327 57.5214 41.4211 57.6653 41.5537C57.8116 41.6868 57.9177 41.8552 57.9836 42.0588C58.0499 42.2601 58.0599 42.4816 58.0134 42.7232C57.9626 42.9879 57.853 43.2103 57.6848 43.3904C57.5188 43.5709 57.2968 43.6953 57.0188 43.7636C56.7412 43.8296 56.4171 43.827 56.0465 43.7558L54.0234 43.3671L54.984 38.3679ZM56.053 42.9766C56.3684 43.0372 56.6135 43.0223 56.7884 42.9318C56.9637 42.839 57.0727 42.6881 57.1152 42.4791C57.1417 42.329 57.1296 42.1871 57.0789 42.0532C57.0283 41.9194 56.9405 41.8047 56.8157 41.7091C56.6913 41.6112 56.5382 41.5448 56.3564 41.5099L55.3482 41.3161L55.0656 42.7869L56.053 42.9766ZM56.3775 40.8409C56.5363 40.8714 56.6834 40.8698 56.8187 40.8362C56.9568 40.8007 57.0731 40.7359 57.1675 40.6419C57.262 40.5478 57.3231 40.4283 57.351 40.2833C57.3867 40.0849 57.3461 39.9113 57.2291 39.7623C57.1122 39.6133 56.9237 39.5139 56.6636 39.4639L55.7383 39.2861L55.473 40.6671L56.3775 40.8409ZM61.3469 40.8864L62.2238 41.0549L61.5034 44.8043L60.6541 44.6411L60.7814 43.9782L60.74 43.9703C60.6087 44.1694 60.4328 44.3146 60.2124 44.4059C59.9943 44.4976 59.7494 44.5174 59.4778 44.4652C59.2293 44.4175 59.0212 44.3202 58.8537 44.1735C58.6862 44.0267 58.5699 43.8373 58.5047 43.6052C58.4395 43.3731 58.4352 43.1098 58.4918 42.8152L58.9509 40.426L59.8347 40.5959L59.4022 42.8469C59.3721 43.0034 59.3743 43.147 59.4089 43.2778C59.4462 43.4066 59.5115 43.5135 59.605 43.5983C59.7013 43.6812 59.8207 43.7364 59.9634 43.7638C60.0969 43.7894 60.2309 43.7818 60.3652 43.7408C60.5024 43.6979 60.6213 43.6193 60.722 43.505C60.825 43.3912 60.894 43.2433 60.9289 43.0615L61.3469 40.8864ZM64.7751 42.6549C64.7749 42.5069 64.7253 42.3804 64.6261 42.2755C64.5292 42.1709 64.3911 42.1014 64.2115 42.0669C64.0849 42.0426 63.9675 42.0391 63.8591 42.0565C63.7531 42.0743 63.6649 42.1111 63.5945 42.1668C63.5264 42.2229 63.4842 42.2935 63.4679 42.3787C63.4484 42.48 63.4732 42.5742 63.5424 42.6615C63.6138 42.7492 63.7386 42.8329 63.9166 42.9124L64.5267 43.1657C64.8661 43.312 65.106 43.4858 65.2463 43.687C65.3894 43.8863 65.4362 44.1209 65.3868 44.3906C65.3416 44.6254 65.236 44.8211 65.0699 44.9777C64.9042 45.132 64.6908 45.2366 64.4297 45.2914C64.169 45.3439 63.8775 45.3393 63.5553 45.2773C63.0834 45.1867 62.7275 45.0145 62.4875 44.7607C62.2498 44.5074 62.1428 44.1945 62.1667 43.822L63.0643 43.9945C63.0591 44.1581 63.1086 44.2918 63.2128 44.3953C63.3193 44.4993 63.4764 44.5701 63.684 44.6076C63.8976 44.651 64.0754 44.6446 64.2175 44.5884C64.3596 44.5321 64.4452 44.434 64.4745 44.2941C64.493 44.1855 64.4654 44.0871 64.3916 43.9989C64.3179 43.9107 64.1915 43.8292 64.0126 43.7542L63.4371 43.5076C63.1033 43.3695 62.8636 43.1946 62.7181 42.9828C62.5726 42.7711 62.5269 42.5308 62.581 42.262C62.6248 42.0341 62.7254 41.8458 62.8828 41.6971C63.0407 41.546 63.2427 41.4452 63.4887 41.3946C63.737 41.3445 64.0119 41.3484 64.3134 41.4063C64.608 41.4629 64.8558 41.5583 65.0568 41.6924C65.2605 41.8246 65.4083 41.9866 65.5003 42.1785C65.5946 42.3709 65.6314 42.5832 65.6106 42.8155L64.7751 42.6549ZM66.3499 41.8478L67.2337 42.0176L66.5133 45.767L65.6295 45.5971L66.3499 41.8478ZM66.9009 41.4023C66.8088 41.3846 66.7279 41.3464 66.658 41.2876C66.5882 41.2289 66.5373 41.1582 66.5054 41.0757C66.4735 40.9932 66.466 40.9082 66.4828 40.8208C66.4992 40.7356 66.5374 40.6606 66.5976 40.5958C66.6578 40.531 66.731 40.4854 66.8172 40.459C66.9039 40.4303 66.9932 40.4248 67.0853 40.4425C67.1774 40.4602 67.2583 40.4984 67.3282 40.5572C67.3985 40.6137 67.4496 40.6832 67.4815 40.7657C67.5133 40.8482 67.5211 40.932 67.5047 41.0171C67.4879 41.1046 67.4494 41.1807 67.3892 41.2456C67.3291 41.3104 67.2556 41.3571 67.169 41.3858C67.0823 41.4145 66.993 41.42 66.9009 41.4023ZM68.0274 46.0579L67.1436 45.8881L67.864 42.1387L68.7064 42.3005L68.5844 42.9358L68.6327 42.9451C68.7613 42.7478 68.9315 42.6075 69.1432 42.5241C69.3577 42.4388 69.6018 42.4225 69.8757 42.4751C70.1358 42.5251 70.3519 42.6239 70.524 42.7715C70.6961 42.9191 70.8136 43.1088 70.8765 43.3404C70.9417 43.5725 70.946 43.8359 70.8894 44.1305L70.4303 46.5196L69.5534 46.3511L69.9859 44.1001C70.0346 43.8469 70.008 43.6377 69.906 43.4726C69.8046 43.3051 69.6385 43.2004 69.4079 43.1585C69.2519 43.1261 69.1073 43.133 68.9744 43.179C68.8419 43.2228 68.7296 43.3038 68.6377 43.4222C68.5462 43.5382 68.4834 43.6849 68.4493 43.8621L68.0274 46.0579ZM72.7101 47.0364C72.3373 46.9648 72.0289 46.8244 71.7851 46.6152C71.5417 46.4038 71.3742 46.1389 71.2826 45.8206C71.1911 45.5023 71.1826 45.1487 71.2574 44.7597C71.3312 44.3753 71.4699 44.0511 71.6734 43.7871C71.8773 43.5208 72.1284 43.3316 72.4268 43.2195C72.7275 43.1078 73.0539 43.0858 73.4061 43.1535C73.7237 43.2145 73.9982 43.3388 74.2294 43.5265C74.4634 43.7122 74.6292 43.9613 74.7267 44.2735C74.8265 44.5863 74.8359 44.9532 74.755 45.3745L74.7019 45.6506L72.0849 45.1478C72.0493 45.3581 72.0558 45.5479 72.1044 45.7172C72.1558 45.8846 72.2439 46.022 72.3689 46.1296C72.4961 46.2375 72.6541 46.3097 72.8428 46.3459C73.0315 46.3822 73.1981 46.3784 73.3426 46.3346C73.4875 46.2884 73.6011 46.2124 73.6835 46.1065L74.5467 46.2724C74.4522 46.4785 74.3155 46.6492 74.1368 46.7843C73.9586 46.9171 73.7469 47.0065 73.5018 47.0525C73.2594 47.0966 72.9955 47.0913 72.7101 47.0364ZM73.9749 44.8881C74.0072 44.72 73.9994 44.5622 73.9514 44.4146C73.9061 44.265 73.8252 44.1397 73.7086 44.0385C73.5943 43.9378 73.4543 43.8715 73.2886 43.8397C73.1182 43.807 72.9574 43.8178 72.8062 43.8723C72.6553 43.9245 72.5277 44.0109 72.4234 44.1317C72.319 44.2525 72.2459 44.3911 72.2038 44.5477L73.9749 44.8881ZM77.5018 45.1003C77.5016 44.9523 77.4519 44.8258 77.3527 44.7209C77.2559 44.6163 77.1177 44.5468 76.9382 44.5123C76.8116 44.488 76.6941 44.4845 76.5857 44.5019C76.4797 44.5197 76.3915 44.5564 76.3211 44.6121C76.2531 44.6683 76.2108 44.7389 76.1945 44.8241C76.175 44.9254 76.1999 45.0196 76.269 45.1069C76.3405 45.1946 76.4652 45.2782 76.6432 45.3578L77.2533 45.6111C77.5927 45.7574 77.8326 45.9312 77.9729 46.1324C78.116 46.3317 78.1628 46.5662 78.1134 46.836C78.0683 47.0707 77.9627 47.2664 77.7965 47.4231C77.6308 47.5774 77.4174 47.682 77.1563 47.7368C76.8956 47.7893 76.6041 47.7846 76.2819 47.7227C75.8101 47.6321 75.4541 47.4599 75.2141 47.2061C74.9764 46.9528 74.8695 46.6399 74.8933 46.2674L75.7909 46.4398C75.7857 46.6035 75.8352 46.7371 75.9395 46.8407C76.046 46.9447 76.203 47.0154 76.4106 47.0529C76.6242 47.0964 76.8021 47.09 76.9441 47.0337C77.0862 46.9775 77.1719 46.8794 77.2011 46.7395C77.2196 46.6308 77.192 46.5324 77.1182 46.4443C77.0445 46.3561 76.9182 46.2746 76.7392 46.1996L76.1637 45.953C75.8299 45.8149 75.5902 45.64 75.4448 45.4282C75.2993 45.2165 75.2536 44.9762 75.3076 44.7074C75.3514 44.4795 75.452 44.2912 75.6095 44.1425C75.7674 43.9914 75.9693 43.8906 76.2153 43.84C76.4636 43.7899 76.7385 43.7938 77.04 43.8517C77.3346 43.9083 77.5824 44.0037 77.7834 44.1377C77.9871 44.27 78.135 44.432 78.227 44.6239C78.3213 44.8163 78.358 45.0286 78.3373 45.2609L77.5018 45.1003ZM80.9976 45.772C80.9974 45.624 80.9477 45.4975 80.8486 45.3926C80.7517 45.288 80.6135 45.2185 80.434 45.184C80.3074 45.1597 80.1899 45.1562 80.0816 45.1736C79.9755 45.1914 79.8873 45.2282 79.817 45.2839C79.7489 45.34 79.7067 45.4106 79.6903 45.4958C79.6709 45.5971 79.6957 45.6913 79.7649 45.7786C79.8363 45.8663 79.961 45.95 80.1391 46.0295L80.7491 46.2828C81.0885 46.4291 81.3284 46.6029 81.4688 46.8041C81.6118 47.0034 81.6587 47.238 81.6092 47.5077C81.5641 47.7425 81.4585 47.9382 81.2924 48.0948C81.1267 48.2491 80.9133 48.3537 80.6521 48.4085C80.3914 48.461 80.1 48.4564 79.7777 48.3944C79.3059 48.3038 78.95 48.1316 78.7099 47.8778C78.4722 47.6245 78.3653 47.3116 78.3891 46.9391L79.2868 47.1116C79.2816 47.2752 79.3311 47.4089 79.4353 47.5124C79.5418 47.6164 79.6988 47.6872 79.9064 47.7247C80.12 47.7681 80.2979 47.7617 80.44 47.7055C80.582 47.6492 80.6677 47.5511 80.697 47.4112C80.7155 47.3026 80.6878 47.2042 80.6141 47.116C80.5403 47.0278 80.414 46.9463 80.2351 46.8713L79.6596 46.6247C79.3257 46.4866 79.0861 46.3117 78.9406 46.0999C78.7951 45.8882 78.7494 45.6479 78.8034 45.3791C78.8472 45.1512 78.9478 44.9629 79.1053 44.8142C79.2632 44.6631 79.4651 44.5623 79.7111 44.5117C79.9594 44.4616 80.2343 44.4655 80.5359 44.5234C80.8305 44.58 81.0783 44.6754 81.2792 44.8095C81.4829 44.9417 81.6308 45.1037 81.7228 45.2956C81.8171 45.488 81.8539 45.7003 81.8331 45.9326L80.9976 45.772Z" fill="#323232"/>
<path d="M62.6953 50.2695L56.7832 49.2464L61.9791 54.408L62.6953 50.2695Z" fill="white"/>
<rect x="83.1602" y="26.8516" width="15.4628" height="8.03341" rx="3.94986" transform="rotate(43.7106 83.1602 26.8516)" fill="#A857FF"/>
<path d="M84.6604 31.279L82.3447 33.7013L81.9097 33.2855L84.2255 30.8631L84.6604 31.279ZM83.3174 34.6953C82.8891 34.2858 82.8942 33.6375 83.4667 33.0386C84.0456 32.433 84.6903 32.4218 85.1119 32.8248C85.4331 33.1318 85.3846 33.4505 85.3234 33.6418L85.3402 33.6577L86.2038 32.7544L86.6287 33.1606L84.313 35.583L83.8947 35.1832L84.1698 34.8954L84.1464 34.873C83.9515 34.9429 83.6319 34.9959 83.3174 34.6953ZM83.7703 34.4559C84.0447 34.7182 84.429 34.6309 84.7681 34.2763C85.1039 33.925 85.1707 33.547 84.893 33.2815C84.6086 33.0096 84.2279 33.1131 83.9049 33.4511C83.5754 33.7957 83.4893 34.1872 83.7703 34.4559ZM85.4129 36.705C84.8642 36.1804 84.8783 35.4959 85.422 34.9271C85.9594 34.365 86.6653 34.3098 87.1839 34.8056C87.6289 35.231 87.7482 35.8765 87.1373 36.5156L87.0093 36.6494L85.7413 35.4372C85.4504 35.7514 85.4584 36.1081 85.7361 36.3736C85.9235 36.5527 86.1274 36.594 86.2833 36.5381L86.7015 36.9379C86.3239 37.1788 85.8345 37.108 85.4129 36.705ZM86.0229 35.1493L86.8794 35.9681C87.1128 35.7173 87.1215 35.3799 86.8739 35.1432C86.6163 34.8969 86.2586 34.9295 86.0229 35.1493ZM86.8887 37.0655C87.2789 36.6573 87.732 36.8599 88.0891 37.1629C88.2225 37.2745 88.4979 37.5089 88.5797 37.5808L88.7173 37.4369C88.89 37.2562 88.872 37.0405 88.6613 36.839C88.4705 36.6567 88.2703 36.6318 88.1121 36.7303L87.7005 36.3368C88.0249 36.0578 88.5265 36.0891 88.9816 36.5241C89.3262 36.8535 89.59 37.3747 89.1262 37.8598L87.9651 39.0744L87.5569 38.6841L87.7968 38.4332L87.7835 38.4204C87.556 38.4976 87.2574 38.4683 86.973 38.1964C86.6251 37.8637 86.5464 37.4235 86.8887 37.0655ZM87.3034 37.4556C87.1531 37.6129 87.2034 37.8147 87.3841 37.9874C87.6417 38.2337 87.9722 38.223 88.1673 38.0189L88.3112 37.8683L87.8841 37.5113C87.664 37.3329 87.4569 37.295 87.3034 37.4556Z" fill="#323232"/>
<path d="M82.8477 38.0312L79.9925 35.3018L80.9371 40.0298L82.8477 38.0312Z" fill="#A857FF"/>
<rect x="39.3633" y="35.2227" width="41.1738" height="14.2736" rx="7.13679" transform="rotate(-15.9131 39.3633 35.2227)" fill="#FFF050"/>
<path d="M47.2677 42.9894L46.3887 43.24L44.9929 38.3445L45.872 38.0939L47.2677 42.9894ZM48.7978 42.5532L47.9322 42.8L46.8854 39.1283L47.7104 38.8931L47.8877 39.5152L47.9351 39.5017C47.961 39.2677 48.0496 39.0657 48.201 38.8958C48.354 38.723 48.5646 38.5984 48.8329 38.5219C49.0876 38.4493 49.325 38.4401 49.5452 38.4943C49.7653 38.5485 49.9557 38.6648 50.1163 38.8433C50.2791 39.0211 50.4016 39.2542 50.4838 39.5427L51.1509 41.8823L50.2921 42.1272L49.6636 39.9228C49.593 39.6749 49.4749 39.5002 49.3095 39.3986C49.1434 39.2949 48.948 39.2763 48.7233 39.3428C48.5694 39.3842 48.4434 39.4555 48.3455 39.5565C48.2469 39.6553 48.1833 39.7782 48.1546 39.9253C48.1252 40.0702 48.1352 40.2294 48.1847 40.4029L48.7978 42.5532ZM52.6336 41.4596L51.7681 41.7063L50.7213 38.0347L51.5462 37.7995L51.7236 38.4216L51.7709 38.4081C51.7968 38.1741 51.8854 37.9721 52.0368 37.8022C52.1899 37.6294 52.4005 37.5048 52.6687 37.4283C52.9234 37.3557 53.1608 37.3465 53.381 37.4007C53.6012 37.4549 53.7915 37.5712 53.9521 37.7497C54.1149 37.9275 54.2374 38.1606 54.3197 38.4491L54.9867 40.7887L54.128 41.0335L53.4995 38.8292C53.4288 38.5813 53.3107 38.4065 53.1453 38.305C52.9793 38.2013 52.7839 38.1827 52.5591 38.2492C52.4052 38.2906 52.2793 38.3619 52.1813 38.4629C52.0828 38.5617 52.0191 38.6846 51.9904 38.8317C51.961 38.9766 51.9711 39.1358 52.0205 39.3093L52.6336 41.4596ZM57.2277 40.2302C56.8738 40.3311 56.5414 40.3406 56.2304 40.2586C55.9218 40.176 55.6545 40.0122 55.4286 39.7671C55.2028 39.5219 55.0365 39.2123 54.9298 38.8381C54.8219 38.4595 54.7992 38.1065 54.8618 37.7791C54.9245 37.4517 55.0652 37.1715 55.2839 36.9386C55.5049 36.705 55.7923 36.5377 56.1462 36.4368C56.5 36.336 56.8324 36.3265 57.1434 36.4084C57.4543 36.4904 57.7216 36.6542 57.9452 36.9C58.1711 37.1451 58.338 37.457 58.4459 37.8357C58.5526 38.2098 58.5746 38.5606 58.512 38.888C58.4516 39.2147 58.3109 39.4949 58.0899 39.7285C57.869 39.9621 57.5815 40.1293 57.2277 40.2302ZM55.8002 38.5827C55.8657 38.8126 55.9572 39.0095 56.0746 39.1734C56.1943 39.3367 56.3357 39.4524 56.4989 39.5204C56.6643 39.5878 56.844 39.5939 57.0378 39.5386C57.2271 39.4846 57.3732 39.3857 57.476 39.2418C57.5787 39.098 57.6368 38.9255 57.6501 38.7243C57.6657 38.5224 57.6395 38.3069 57.5717 38.0776C57.5085 37.8471 57.417 37.6501 57.2973 37.4869C57.1799 37.3229 57.0396 37.2069 56.8764 37.1389C56.7132 37.0709 56.537 37.0639 56.3476 37.1179C56.1538 37.1731 56.0044 37.273 55.8993 37.4175C55.7965 37.5613 55.7374 37.7342 55.7218 37.936C55.7085 38.1372 55.7346 38.3528 55.8002 38.5827ZM61.2654 38.9986L60.3188 39.2685L57.9602 35.9708L58.8798 35.7087L60.5039 38.1994L60.5444 38.1879L60.6176 35.2132L61.5304 34.9529L61.2654 38.9986ZM62.3383 37.5741C62.2309 37.1977 62.2805 36.8886 62.487 36.647C62.6958 36.4047 62.9961 36.2143 63.388 36.0757C63.5886 36.0015 63.8982 35.8949 64.3168 35.7561L64.2296 35.4629C64.1775 35.2803 64.0799 35.1559 63.9366 35.0895C63.795 35.0202 63.6172 35.016 63.403 35.0771C63.216 35.1304 63.0739 35.2136 62.977 35.3265C62.88 35.4395 62.8339 35.5684 62.8386 35.7132L62.0069 35.9504C61.9675 35.735 61.9885 35.5267 62.0701 35.3255C62.151 35.1221 62.2906 34.9409 62.4891 34.782C62.6875 34.6231 62.9365 34.5009 63.2363 34.4154C63.4933 34.3422 63.746 34.314 63.9945 34.3308C64.2447 34.3448 64.4689 34.4259 64.6671 34.5741C64.8669 34.7194 65.0105 34.9454 65.0979 35.2519L65.7977 37.7064L64.9728 37.9416L64.8282 37.4345L64.8012 37.4422C64.7598 37.6392 64.6645 37.8175 64.515 37.9771C64.3655 38.1367 64.1555 38.255 63.8851 38.3322C63.6484 38.3996 63.4243 38.4172 63.2128 38.3849C63.0036 38.3519 62.8225 38.2683 62.6697 38.134C62.5162 37.9974 62.4057 37.8108 62.3383 37.5741ZM63.168 37.3302C63.2117 37.4835 63.3018 37.5857 63.4383 37.637C63.577 37.6876 63.7399 37.6863 63.927 37.6329C64.096 37.5847 64.2363 37.5082 64.3477 37.4033C64.4592 37.2984 64.5335 37.1785 64.5706 37.0437C64.6093 36.9059 64.609 36.7683 64.5698 36.6308L64.4807 36.3308C64.3692 36.3675 64.2374 36.4136 64.0851 36.4692C63.9344 36.5219 63.8017 36.5695 63.6871 36.6119C63.4826 36.6897 63.3332 36.7896 63.2388 36.9116C63.1466 37.0329 63.1231 37.1724 63.168 37.3302ZM67.376 34.0029L66.6525 34.2091L67.1961 36.116C67.245 36.2873 67.3146 36.3905 67.4051 36.4256C67.4978 36.4601 67.614 36.4575 67.7537 36.4176C67.8506 36.39 67.9609 36.3537 68.0846 36.3087L68.2851 37.0119C68.1518 37.0743 67.9893 37.1328 67.7977 37.1874C67.5768 37.2504 67.3701 37.2691 67.1776 37.2436C66.9851 37.218 66.8189 37.1435 66.6789 37.0202C66.5389 36.8968 66.4386 36.7243 66.3779 36.5028L65.7937 34.454L65.2663 34.6043L65.0774 33.9417L65.6048 33.7913L65.3542 32.9123L66.2129 32.6675L66.4636 33.5465L67.1871 33.3402L67.376 34.0029ZM67.642 33.2105L68.5075 32.9637L69.5543 36.6354L68.6888 36.8822L67.642 33.2105ZM67.9331 32.5645C67.8429 32.5902 67.7534 32.5926 67.6646 32.5716C67.5757 32.5507 67.4985 32.5105 67.4329 32.4513C67.3672 32.392 67.3222 32.3195 67.2978 32.2339C67.274 32.1505 67.2744 32.0663 67.2989 31.9813C67.3234 31.8963 67.3682 31.8226 67.4332 31.7602C67.4977 31.6955 67.575 31.6504 67.6651 31.6246C67.7553 31.5989 67.8448 31.5966 67.9336 31.6176C68.0218 31.6363 68.0987 31.6753 68.1644 31.7345C68.23 31.7938 68.2747 31.8652 68.2985 31.9486C68.3229 32.0342 68.3229 32.1195 68.2984 32.2045C68.2739 32.2895 68.2294 32.3643 68.165 32.429C68.1005 32.4936 68.0232 32.5388 67.9331 32.5645ZM71.7953 36.0769C71.4414 36.1778 71.109 36.1873 70.7981 36.1053C70.4894 36.0227 70.2221 35.8589 69.9962 35.6138C69.7704 35.3686 69.6041 35.059 69.4974 34.6848C69.3895 34.3062 69.3668 33.9532 69.4295 33.6258C69.4921 33.2984 69.6328 33.0182 69.8515 32.7853C70.0725 32.5517 70.3599 32.3844 70.7138 32.2835C71.0677 32.1827 71.4001 32.1732 71.711 32.2551C72.022 32.3371 72.2892 32.5009 72.5128 32.7467C72.7387 32.9918 72.9056 33.3037 73.0136 33.6824C73.1203 34.0565 73.1423 34.4073 73.0796 34.7347C73.0192 35.0614 72.8786 35.3416 72.6576 35.5752C72.4366 35.8088 72.1492 35.976 71.7953 36.0769ZM70.3678 34.4294C70.4333 34.6593 70.5248 34.8562 70.6422 35.0201C70.7619 35.1834 70.9033 35.2991 71.0665 35.3671C71.2319 35.4345 71.4116 35.4406 71.6054 35.3853C71.7948 35.3313 71.9408 35.2324 72.0436 35.0885C72.1464 34.9447 72.2044 34.7722 72.2177 34.571C72.2333 34.3691 72.2072 34.1536 72.1394 33.9243C72.0761 33.6938 71.9846 33.4968 71.8649 33.3336C71.7475 33.1696 71.6072 33.0536 71.444 32.9856C71.2809 32.9176 71.1046 32.9106 70.9153 32.9646C70.7214 33.0198 70.572 33.1197 70.467 33.2642C70.3642 33.408 70.305 33.5809 70.2894 33.7827C70.2761 33.9839 70.3022 34.1995 70.3678 34.4294ZM74.8594 35.1229L73.9939 35.3697L72.9471 31.698L73.772 31.4628L73.9494 32.0849L73.9967 32.0714C74.0226 31.8374 74.1112 31.6354 74.2626 31.4655C74.4156 31.2927 74.6263 31.1681 74.8945 31.0916C75.1492 31.019 75.3866 31.0098 75.6068 31.064C75.827 31.1182 76.0173 31.2345 76.1779 31.413C76.3407 31.5908 76.4632 31.8239 76.5455 32.1124L77.2125 34.452L76.3537 34.6969L75.7253 32.4925C75.6546 32.2446 75.5365 32.0699 75.3711 31.9684C75.205 31.8646 75.0096 31.846 74.7849 31.9125C74.631 31.9539 74.5051 32.0252 74.4071 32.1262C74.3086 32.225 74.2449 32.3479 74.2162 32.495C74.1868 32.6399 74.1968 32.7991 74.2463 32.9727L74.8594 35.1229Z" fill="#323232"/>
<rect x="22.4688" y="33.5684" width="36.6446" height="12.6815" rx="6.34074" transform="rotate(13.0662 22.4688 33.5684)" fill="#FFF050"/>
<path d="M25.0173 42.7217L24.2271 42.5383L25.2485 38.1374L26.0387 38.3208L25.0173 42.7217ZM26.3928 43.0409L25.6147 42.8603L26.3807 39.5597L27.1223 39.7318L26.9925 40.291L27.0351 40.3009C27.1558 40.1303 27.3115 40.0116 27.5021 39.9448C27.6952 39.8765 27.9123 39.8703 28.1534 39.9262C28.3824 39.9794 28.5707 40.0743 28.7183 40.2111C28.8659 40.3478 28.9637 40.52 29.0116 40.7276C29.0616 40.9356 29.0564 41.1693 28.9962 41.4287L28.5081 43.5319L27.7361 43.3527L28.196 41.3711C28.2478 41.1482 28.2312 40.9618 28.1465 40.8118C28.0621 40.6599 27.9184 40.5614 27.7154 40.5164C27.578 40.4824 27.4497 40.4836 27.3302 40.5199C27.2112 40.5542 27.1089 40.6223 27.0233 40.7241C26.9382 40.824 26.8776 40.9519 26.8414 41.1079L26.3928 43.0409ZM29.841 43.8412L29.063 43.6606L29.829 40.3599L30.5706 40.5321L30.4408 41.0913L30.4834 41.1012C30.6041 40.9306 30.7598 40.8119 30.9504 40.7451C31.1435 40.6767 31.3606 40.6706 31.6017 40.7265C31.8306 40.7796 32.0189 40.8746 32.1666 41.0114C32.3142 41.1481 32.412 41.3203 32.4599 41.5279C32.5098 41.7359 32.5047 41.9696 32.4445 42.2289L31.9564 44.3321L31.1844 44.153L31.6443 42.1714C31.696 41.9485 31.6795 41.7621 31.5947 41.6121C31.5104 41.4602 31.3667 41.3617 31.1636 41.3167C31.0263 41.2827 30.8979 41.2839 30.7785 41.3202C30.6595 41.3545 30.5572 41.4226 30.4716 41.5244C30.3865 41.6243 30.3259 41.7522 30.2897 41.9082L29.841 43.8412ZM33.9364 44.8621C33.6182 44.7883 33.3561 44.6527 33.1499 44.4554C32.9458 44.2585 32.8087 44.0164 32.7388 43.729C32.6688 43.4416 32.6729 43.1297 32.7509 42.7933C32.8299 42.4529 32.9641 42.1691 33.1535 41.9419C33.3429 41.7146 33.5726 41.5576 33.8426 41.4708C34.1146 41.3845 34.4097 41.3782 34.7278 41.452C35.0459 41.5259 35.308 41.6614 35.5142 41.8588C35.7204 42.0561 35.8574 42.2982 35.9254 42.5852C35.9953 42.8726 35.9908 43.1865 35.9118 43.5269C35.8337 43.8633 35.7 44.1451 35.5106 44.3723C35.3232 44.6 35.0936 44.757 34.8215 44.8434C34.5495 44.9297 34.2545 44.936 33.9364 44.8621ZM33.5365 42.9692C33.4885 43.1759 33.4749 43.3681 33.4955 43.5459C33.5182 43.7241 33.5783 43.8747 33.6757 43.9977C33.7752 44.1211 33.9121 44.2031 34.0863 44.2435C34.2565 44.283 34.4125 44.269 34.5541 44.2015C34.6958 44.1341 34.815 44.0251 34.9119 43.8746C35.0107 43.7246 35.0831 43.546 35.1291 43.3389C35.1791 43.1326 35.1927 42.9404 35.17 42.7622C35.1494 42.5844 35.0903 42.4341 34.9929 42.3111C34.8954 42.1881 34.7616 42.1069 34.5914 42.0674C34.4171 42.0269 34.2582 42.0402 34.1145 42.1072C33.9728 42.1747 33.8526 42.2835 33.7537 42.4335C33.6569 42.584 33.5844 42.7626 33.5365 42.9692ZM37.6007 45.6421L36.7497 45.4446L36.3365 41.8702L37.1632 42.0621L37.3531 44.6942L37.3896 44.7027L38.7254 42.4247L39.546 42.6151L37.6007 45.6421ZM39.0462 44.9975C39.1247 44.6591 39.2961 44.4405 39.5603 44.3416C39.8266 44.2433 40.1416 44.2246 40.5054 44.2855C40.6931 44.3141 40.9793 44.3645 41.364 44.4367L41.4223 44.1716C41.4604 44.0075 41.4381 43.8689 41.3555 43.7557C41.2753 43.641 41.139 43.5614 40.9465 43.5167C40.7783 43.4777 40.6323 43.4811 40.5085 43.5271C40.3846 43.5731 40.2934 43.6534 40.2348 43.7679L39.4871 43.5944C39.5491 43.4102 39.655 43.2575 39.8048 43.1364C39.9551 43.0133 40.1414 42.9327 40.3638 42.8946C40.5862 42.8565 40.8321 42.8687 41.1016 42.9313C41.3326 42.9849 41.5409 43.0717 41.7266 43.1917C41.9148 43.3101 42.054 43.4694 42.1441 43.6697C42.2368 43.8685 42.2512 44.1056 42.1872 44.3812L41.6751 46.5877L40.9335 46.4156L41.0393 45.9597L41.015 45.9541C40.8982 46.0892 40.7475 46.1867 40.5628 46.2463C40.3782 46.3059 40.1643 46.3075 39.9211 46.2511C39.7084 46.2017 39.5268 46.119 39.3765 46.003C39.2282 45.8874 39.1237 45.7447 39.0628 45.5746C39.0023 45.4026 38.9968 45.2102 39.0462 44.9975ZM39.7952 45.1649C39.7633 45.3027 39.7892 45.4208 39.8731 45.5193C39.9591 45.6182 40.0861 45.6872 40.2543 45.7263C40.4063 45.7615 40.5481 45.7624 40.6797 45.7289C40.8113 45.6954 40.9205 45.6343 41.0073 45.5455C41.0966 45.4552 41.1556 45.3482 41.1843 45.2246L41.244 44.9534C41.1418 44.934 41.0196 44.9131 40.8774 44.8908C40.7378 44.8669 40.6143 44.8468 40.5071 44.8304C40.3149 44.8029 40.1559 44.8162 40.0302 44.8703C39.9065 44.9249 39.8282 45.0231 39.7952 45.1649ZM44.4929 44.391L43.8425 44.24L43.4447 45.9542C43.4089 46.1082 43.4186 46.2183 43.4737 46.2845C43.5308 46.3511 43.6222 46.399 43.7478 46.4282C43.835 46.4484 43.9362 46.4676 44.0516 46.4858L43.9048 47.118C43.7745 47.1091 43.6232 47.0847 43.451 47.0447C43.2524 46.9986 43.0839 46.9243 42.9454 46.8217C42.807 46.7191 42.7099 46.5898 42.6543 46.4338C42.5987 46.2778 42.5949 46.1008 42.643 45.9027L43.0705 44.0609L42.5964 43.9508L42.7346 43.3551L43.2088 43.4652L43.3922 42.675L44.1641 42.8541L43.9807 43.6443L44.6311 43.7953L44.4929 44.391ZM45.0401 43.8902L45.8182 44.0708L45.0521 47.3715L44.2741 47.1909L45.0401 43.8902ZM45.5439 43.5139C45.4628 43.495 45.3923 43.4584 45.3323 43.4039C45.2724 43.3494 45.2297 43.2851 45.2042 43.2108C45.1787 43.1366 45.1749 43.061 45.1928 42.984C45.2102 42.909 45.2467 42.8438 45.3022 42.7884C45.3578 42.7329 45.4243 42.695 45.5016 42.6745C45.5795 42.652 45.6589 42.6501 45.74 42.6689C45.821 42.6877 45.8915 42.7244 45.9515 42.7789C46.0119 42.8313 46.0548 42.8947 46.0803 42.9689C46.1058 43.0432 46.1098 43.1178 46.0924 43.1927C46.0746 43.2697 46.0378 43.336 45.9823 43.3914C45.9267 43.4468 45.86 43.4858 45.7822 43.5083C45.7043 43.5308 45.6249 43.5327 45.5439 43.5139ZM47.0321 47.9015C46.714 47.8276 46.4519 47.692 46.2457 47.4947C46.0415 47.2979 45.9045 47.0557 45.8345 46.7683C45.7646 46.4809 45.7686 46.169 45.8467 45.8326C45.9257 45.4922 46.0599 45.2084 46.2493 44.9812C46.4387 44.754 46.6684 44.5969 46.9384 44.5101C47.2104 44.4238 47.5054 44.4175 47.8235 44.4914C48.1417 44.5652 48.4038 44.7008 48.61 44.8981C48.8161 45.0954 48.9532 45.3375 49.0211 45.6245C49.0911 45.9119 49.0866 46.2258 49.0076 46.5662C48.9295 46.9026 48.7958 47.1844 48.6064 47.4116C48.419 47.6393 48.1893 47.7963 47.9173 47.8827C47.6453 47.969 47.3502 47.9753 47.0321 47.9015ZM46.6322 46.0086C46.5843 46.2152 46.5706 46.4074 46.5913 46.5852C46.614 46.7634 46.6741 46.914 46.7715 47.037C46.871 47.1605 47.0078 47.2424 47.1821 47.2828C47.3523 47.3223 47.5082 47.3084 47.6499 47.2409C47.7915 47.1734 47.9108 47.0644 48.0076 46.9139C48.1065 46.7639 48.1789 46.5853 48.2248 46.3782C48.2748 46.172 48.2885 45.9798 48.2658 45.8015C48.2451 45.6238 48.186 45.4734 48.0886 45.3504C47.9912 45.2274 47.8573 45.1462 47.6871 45.1067C47.5129 45.0663 47.3539 45.0796 47.2102 45.1466C47.0686 45.2141 46.9483 45.3228 46.8495 45.4728C46.7526 45.6233 46.6802 45.8019 46.6322 46.0086ZM49.8212 48.4783L49.0431 48.2977L49.8091 44.997L50.5507 45.1691L50.421 45.7284L50.4635 45.7382C50.5842 45.5677 50.7399 45.449 50.9305 45.3822C51.1236 45.3138 51.3407 45.3076 51.5818 45.3636C51.8108 45.4167 51.9991 45.5117 52.1467 45.6484C52.2943 45.7852 52.3921 45.9574 52.44 46.1649C52.49 46.373 52.4848 46.6067 52.4246 46.866L51.9365 48.9692L51.1645 48.7901L51.6245 46.8084C51.6762 46.5856 51.6597 46.3991 51.5749 46.2492C51.4906 46.0973 51.3469 45.9988 51.1438 45.9538C51.0065 45.9198 50.8781 45.9209 50.7586 45.9573C50.6396 45.9916 50.5373 46.0597 50.4517 46.1615C50.3667 46.2613 50.306 46.3893 50.2698 46.5453L49.8212 48.4783Z" fill="#323232"/>
<path d="M45.8828 52.1055L51.7216 53.4871L44.9157 56.1926L45.8828 52.1055Z" fill="#FFF050"/>
<rect x="100.719" y="20.4473" width="26.0355" height="8.76724" rx="4.38362" transform="rotate(75 100.719 20.4473)" fill="#FFF050"/>
<path d="M95.9087 25.2327L95.7617 24.6842L98.8165 23.8657L98.9635 24.4142L95.9087 25.2327ZM96.1645 26.1875L96.0198 25.6474L98.3109 25.0335L98.4488 25.5482L98.0606 25.6523L98.0686 25.6818C98.2137 25.7002 98.3383 25.7573 98.4423 25.853C98.5481 25.9497 98.6234 26.0818 98.6683 26.2492C98.7109 26.4081 98.7142 26.5557 98.6784 26.6919C98.6425 26.8281 98.5684 26.9452 98.456 27.0432C98.3439 27.1426 98.1979 27.2164 98.0178 27.2646L96.558 27.6558L96.4144 27.1199L97.7899 26.7514C97.9446 26.7099 98.0543 26.6383 98.119 26.5366C98.1851 26.4344 98.1986 26.3132 98.1595 26.173C98.1353 26.077 98.0922 25.998 98.0305 25.9362C97.9701 25.874 97.8943 25.8332 97.8032 25.8139C97.7136 25.7943 97.6146 25.7989 97.5063 25.8279L96.1645 26.1875ZM96.8059 28.581L96.6612 28.0409L98.9522 27.427L99.0902 27.9418L98.702 28.0458L98.7099 28.0753C98.855 28.0937 98.9796 28.1508 99.0836 28.2465C99.1894 28.3433 99.2648 28.4753 99.3096 28.6427C99.3522 28.8016 99.3556 28.9492 99.3197 29.0854C99.2839 29.2216 99.2097 29.3387 99.0973 29.4367C98.9852 29.5361 98.8392 29.6099 98.6592 29.6581L97.1993 30.0493L97.0557 29.5134L98.4312 29.1449C98.5859 29.1034 98.6956 29.0318 98.7603 28.9301C98.8264 28.8279 98.8399 28.7067 98.8008 28.5665C98.7766 28.4705 98.7336 28.3915 98.6718 28.3297C98.6114 28.2675 98.5357 28.2268 98.4446 28.2074C98.3549 28.1878 98.2559 28.1924 98.1476 28.2214L96.8059 28.581ZM97.524 31.4468C97.4649 31.226 97.4623 31.0194 97.5163 30.8271C97.5706 30.6362 97.675 30.4718 97.8295 30.3339C97.984 30.196 98.178 30.0958 98.4115 30.0332C98.6478 29.9699 98.8673 29.9594 99.07 30.0015C99.2727 30.0437 99.4454 30.1338 99.5879 30.272C99.7308 30.4116 99.8319 30.5918 99.891 30.8126C99.9502 31.0334 99.9528 31.24 99.8988 31.4323C99.8448 31.6246 99.7404 31.789 99.5855 31.9255C99.431 32.0634 99.2357 32.164 98.9994 32.2273C98.7659 32.2898 98.5478 32.3 98.3451 32.2579C98.1427 32.2171 97.9701 32.127 97.8272 31.9874C97.6842 31.8478 97.5832 31.6676 97.524 31.4468ZM98.5615 30.5764C98.4181 30.6148 98.2949 30.6697 98.1919 30.741C98.0893 30.8137 98.016 30.9004 97.9722 31.0011C97.9287 31.1032 97.9231 31.2148 97.9555 31.3357C97.9872 31.4539 98.0472 31.5456 98.1355 31.6108C98.2239 31.6761 98.3304 31.7139 98.4553 31.7241C98.5805 31.7358 98.7147 31.7217 98.8578 31.6819C99.0016 31.6448 99.1248 31.5899 99.2274 31.5172C99.3304 31.4459 99.4038 31.3599 99.4477 31.2592C99.4916 31.1585 99.4977 31.0491 99.466 30.931C99.4336 30.81 99.3731 30.7162 99.2843 30.6495C99.196 30.5843 99.0892 30.5458 98.964 30.5341C98.8392 30.5239 98.705 30.538 98.5615 30.5764ZM98.2491 33.9671L98.0908 33.3764L100.163 31.944L100.316 32.5178L98.753 33.502L98.7598 33.5273L100.607 33.6022L100.759 34.1718L98.2491 33.9671ZM99.1233 34.6476C99.3582 34.5847 99.5497 34.6186 99.6977 34.7492C99.8462 34.8813 99.9615 35.0697 100.044 35.3145C100.088 35.4399 100.151 35.6332 100.233 35.8946L100.416 35.8433C100.53 35.8128 100.608 35.7534 100.651 35.6651C100.695 35.5778 100.7 35.4674 100.664 35.3337C100.633 35.217 100.582 35.128 100.513 35.0666C100.444 35.0053 100.364 34.9753 100.274 34.9769L100.135 34.4579C100.269 34.4355 100.399 34.4506 100.523 34.5033C100.648 34.5556 100.759 34.6441 100.856 34.7689C100.953 34.8937 101.026 35.0497 101.076 35.2367C101.119 35.3971 101.134 35.5543 101.122 35.7086C101.11 35.8638 101.058 36.0022 100.964 36.1239C100.872 36.2466 100.73 36.3336 100.538 36.3848L99.0069 36.7952L98.869 36.2805L99.1854 36.1957L99.1809 36.1788C99.0589 36.1512 98.9491 36.0902 98.8514 35.9957C98.7538 35.9013 98.6824 35.7697 98.6371 35.6009C98.5976 35.4533 98.5889 35.3139 98.611 35.1829C98.6336 35.0532 98.6873 34.9416 98.7723 34.848C98.8586 34.754 98.9757 34.6872 99.1233 34.6476ZM99.2666 35.1655C99.171 35.1911 99.1066 35.246 99.0734 35.3303C99.0405 35.416 99.0398 35.5172 99.071 35.6339C99.0993 35.7394 99.1455 35.8273 99.2095 35.8975C99.2736 35.9678 99.3473 36.0151 99.4307 36.0395C99.5159 36.0649 99.6014 36.0661 99.6872 36.0431L99.8744 35.9907C99.8527 35.9211 99.8254 35.8388 99.7923 35.7436C99.7611 35.6495 99.7329 35.5666 99.7076 35.495C99.6613 35.3672 99.6008 35.2734 99.526 35.2136C99.4515 35.1551 99.3651 35.1391 99.2666 35.1655ZM101.292 37.8122L101.171 37.3608L99.981 37.6796C99.8741 37.7082 99.8093 37.7505 99.7865 37.8063C99.7642 37.8635 99.7647 37.9358 99.7881 38.023C99.8043 38.0834 99.8257 38.1523 99.8525 38.2296L99.4137 38.3471C99.3762 38.2637 99.3415 38.1622 99.3095 38.0427C99.2725 37.9048 99.263 37.7763 99.2807 37.6569C99.2985 37.5376 99.3464 37.4351 99.4244 37.3494C99.5025 37.2636 99.6106 37.203 99.7488 37.1675L101.027 36.8249L100.939 36.4958L101.353 36.385L101.441 36.7141L101.989 36.5672L102.133 37.103L101.584 37.25L101.705 37.7015L101.292 37.8122ZM101.781 37.9853L101.926 38.5254L99.635 39.1393L99.4903 38.5992L101.781 37.9853ZM102.18 38.1725C102.165 38.1163 102.164 38.0607 102.178 38.0057C102.192 37.9507 102.218 37.9031 102.255 37.8629C102.292 37.8227 102.338 37.7955 102.391 37.7812C102.443 37.7672 102.496 37.7683 102.548 37.7843C102.601 37.8004 102.646 37.829 102.684 37.87C102.724 37.9107 102.751 37.9591 102.766 38.0154C102.781 38.0716 102.782 38.1273 102.768 38.1822C102.755 38.2368 102.73 38.2842 102.693 38.3244C102.655 38.3646 102.611 38.3917 102.559 38.4056C102.505 38.4199 102.452 38.4191 102.4 38.403C102.347 38.3869 102.301 38.3586 102.262 38.3179C102.222 38.2772 102.195 38.2288 102.18 38.1725ZM99.9597 40.5368C99.9005 40.316 99.8979 40.1094 99.9519 39.9171C100.006 39.7262 100.111 39.5618 100.265 39.4239C100.42 39.286 100.614 39.1858 100.847 39.1233C101.083 39.0599 101.303 39.0494 101.506 39.0915C101.708 39.1337 101.881 39.2238 102.024 39.362C102.167 39.5016 102.268 39.6818 102.327 39.9026C102.386 40.1234 102.388 40.33 102.334 40.5223C102.281 40.7146 102.176 40.879 102.021 41.0155C101.867 41.1534 101.671 41.254 101.435 41.3173C101.202 41.3798 100.983 41.39 100.781 41.3479C100.578 41.3071 100.406 41.217 100.263 41.0774C100.12 40.9378 100.019 40.7576 99.9597 40.5368ZM100.997 39.6664C100.854 39.7049 100.731 39.7597 100.628 39.831C100.525 39.9038 100.452 39.9905 100.408 40.0911C100.364 40.1932 100.359 40.3048 100.391 40.4257C100.423 40.5439 100.483 40.6356 100.571 40.7008C100.66 40.7661 100.766 40.8039 100.891 40.8141C101.016 40.8258 101.15 40.8117 101.293 40.7719C101.437 40.7348 101.56 40.68 101.663 40.6072C101.766 40.5359 101.84 40.4499 101.883 40.3492C101.927 40.2485 101.933 40.1391 101.902 40.021C101.869 39.9 101.809 39.8062 101.72 39.7395C101.632 39.6743 101.525 39.6358 101.4 39.6241C101.275 39.6139 101.141 39.628 100.997 39.6664ZM100.522 42.4496L100.377 41.9095L102.668 41.2956L102.806 41.8104L102.418 41.9144L102.426 41.9439C102.571 41.9623 102.696 42.0194 102.8 42.1151C102.906 42.2119 102.981 42.3439 103.026 42.5113C103.068 42.6702 103.072 42.8178 103.036 42.954C103 43.0902 102.926 43.2073 102.813 43.3053C102.701 43.4047 102.555 43.4785 102.375 43.5267L100.915 43.9179L100.772 43.382L102.147 43.0135C102.302 42.972 102.412 42.9004 102.476 42.7987C102.542 42.6965 102.556 42.5753 102.517 42.4351C102.493 42.3391 102.45 42.2601 102.388 42.1983C102.327 42.1361 102.252 42.0953 102.161 42.076C102.071 42.0564 101.972 42.061 101.864 42.09L100.522 42.4496Z" fill="#323232"/>
<path d="M96.9766 41.0156L98.0461 45.0772L94.1335 41.7643L96.9766 41.0156Z" fill="#FFF050"/>
<path d="M24.0567 21.8872C24.4941 20.9938 25.7674 20.9938 26.2047 21.8872L26.4397 22.3673C26.7367 22.9739 27.4768 23.2143 28.0736 22.8981L28.5459 22.6479C29.4248 22.1822 30.4549 22.9306 30.2837 23.9104L30.1916 24.437C30.0753 25.1023 30.5327 25.7318 31.2014 25.8268L31.7306 25.902C32.7154 26.0418 33.1088 27.2528 32.3944 27.9448L32.0104 28.3167C31.5252 28.7866 31.5252 29.5647 32.0104 30.0346L32.3944 30.4065C33.1088 31.0985 32.7154 32.3095 31.7306 32.4493L31.2014 32.5245C30.5327 32.6195 30.0753 33.249 30.1916 33.9143L30.2837 34.4409C30.4549 35.4207 29.4248 36.1691 28.5459 35.7034L28.0736 35.4532C27.4768 35.137 26.7367 35.3774 26.4397 35.984L26.2047 36.4641C25.7674 37.3575 24.4941 37.3575 24.0567 36.4641L23.8217 35.984C23.5247 35.3774 22.7847 35.137 22.1879 35.4532L21.7155 35.7034C20.8366 36.1691 19.8065 35.4207 19.9778 34.4409L20.0698 33.9143C20.1861 33.249 19.7288 32.6195 19.0601 32.5245L18.5309 32.4493C17.5461 32.3095 17.1526 31.0985 17.8671 30.4065L18.2511 30.0346C18.7362 29.5647 18.7362 28.7866 18.2511 28.3167L17.8671 27.9448C17.1526 27.2528 17.5461 26.0418 18.5309 25.902L19.0601 25.8268C19.7288 25.7318 20.1861 25.1023 20.0698 24.437L19.9778 23.9104C19.8065 22.9306 20.8366 22.1822 21.7155 22.6479L22.1879 22.8981C22.7847 23.2143 23.5247 22.9739 23.8217 22.3673L24.0567 21.8872Z" fill="#FFF050"/>
<path d="M97.6357 43.7261C98.0079 43.356 98.641 43.5256 98.7783 44.0322L99.017 44.9126C99.0976 45.21 99.3671 45.4168 99.6753 45.4177L100.587 45.4203C101.112 45.4219 101.44 45.9895 101.179 46.4448L100.725 47.236C100.572 47.5033 100.616 47.8401 100.833 48.0587L101.476 48.7055C101.847 49.0777 101.677 49.7108 101.17 49.8481L100.29 50.0868C99.9925 50.1674 99.7857 50.4369 99.7848 50.745L99.7822 51.6572C99.7807 52.182 99.213 52.5097 98.7577 52.2486L97.9665 51.7949C97.6992 51.6416 97.3624 51.6859 97.1438 51.9032L96.497 52.5463C96.1248 52.9163 95.4917 52.7467 95.3544 52.2401L95.1158 51.3597C95.0351 51.0623 94.7656 50.8555 94.4575 50.8546L93.5454 50.852C93.0205 50.8504 92.6928 50.2828 92.9539 49.8275L93.4077 49.0363C93.561 48.769 93.5166 48.4322 93.2994 48.2136L92.6563 47.5668C92.2862 47.1946 92.4558 46.5615 92.9624 46.4242L93.8428 46.1856C94.1402 46.1049 94.347 45.8354 94.3479 45.5273L94.3506 44.6151C94.3521 44.0903 94.9197 43.7626 95.375 44.0237L96.1662 44.4775C96.4335 44.6308 96.7704 44.5864 96.9889 44.3691L97.6357 43.7261Z" fill="#4372DF"/>
<rect x="71.1797" y="28.1875" width="23.6063" height="12.0776" rx="6" transform="rotate(167.888 71.1797 28.1875)" fill="#A857FF"/>
<path d="M64.4063 26.114L63.3382 21.1367L64.2319 20.9449L65.3 25.9222L64.4063 26.114ZM61.2591 21.5109C62.1391 21.3221 62.9495 21.8817 63.2136 23.1123C63.4806 24.3566 62.9446 25.1764 62.0784 25.3623C61.4184 25.5039 61.0594 25.171 60.8712 24.931L60.8368 24.9383L61.2351 26.7945L60.3621 26.9819L59.2939 22.0046L60.1533 21.8202L60.2802 22.4114L60.3283 22.4011C60.4068 22.0966 60.6129 21.6496 61.2591 21.5109ZM61.1734 22.2844C60.6097 22.4054 60.3913 22.9628 60.5477 23.6916C60.7026 24.4134 61.1206 24.8199 61.6912 24.6974C62.2756 24.572 62.4704 24.0053 62.3214 23.3109C62.1694 22.6028 61.7509 22.1605 61.1734 22.2844ZM56.9453 22.4295C58.0727 22.1875 58.921 22.7893 59.1718 23.9581C59.4196 25.113 58.8866 26.0472 57.821 26.2759C56.9067 26.4721 55.9936 26.0711 55.7119 24.7581L55.6528 24.4831L58.2584 23.9239C58.1116 23.2902 57.6565 22.996 57.0859 23.1184C56.7009 23.201 56.4751 23.4221 56.4123 23.6657L55.553 23.8501C55.5724 23.1699 56.079 22.6154 56.9453 22.4295ZM58.3798 24.5235L56.6199 24.9012C56.736 25.4085 57.1525 25.7074 57.6612 25.5982C58.1906 25.4846 58.4549 25.0072 58.3798 24.5235ZM55.2329 23.9763C55.4128 24.815 54.7716 25.2115 54.0861 25.4018C53.832 25.4743 53.3024 25.6203 53.1423 25.6619L53.2058 25.9575C53.2854 26.3287 53.5718 26.4902 54.0049 26.3972C54.3967 26.3132 54.599 26.0828 54.6102 25.7999L55.4558 25.6184C55.5297 26.2642 55.0623 26.8679 54.1274 27.0685C53.4193 27.2205 52.5392 27.1073 52.3253 26.1105L51.7898 23.6149L52.6285 23.4349L52.7391 23.9506L52.7666 23.9447C52.8638 23.593 53.1554 23.2428 53.7397 23.1174C54.4547 22.9639 55.075 23.2407 55.2329 23.9763ZM54.3887 24.1647C54.3194 23.8416 54.0228 23.7326 53.6515 23.8123C53.1222 23.9259 52.8537 24.3503 52.9437 24.7696L53.01 25.079L53.8232 24.8469C54.2352 24.7226 54.4596 24.4947 54.3887 24.1647Z" fill="#323232"/>
<path d="M57.3867 18.2578L63.2532 16.9989L56.5055 14.1513L57.3867 18.2578Z" fill="#A857FF"/>
<path d="M11.2798 10.3906H14.0033H31.9734C33.2538 10.3906 34.6816 11.0255 35.7231 12.0581L38.563 14.8734C39.6045 15.906 41.0322 16.5409 42.3126 16.5409H76.2448C78.5031 16.5409 80.9403 18.4595 81.3127 20.5306L86.8784 51.4791C87.1635 53.0643 86.1192 54.2111 84.3907 54.2111H21.3617C19.133 54.2111 16.7214 52.3397 16.3066 50.2883L8.8049 13.1896C8.47808 11.5733 9.52386 10.3906 11.2798 10.3906Z" fill="#4372DF" fill-opacity="0.8"/>
<path d="M28.3024 32.6368L29.6514 39.5772H27.9913L26.6422 32.6368H28.3024ZM33.0135 39.5772H30.4257L29.0766 32.6368H31.6645C33.8227 32.6368 35.4042 33.9405 35.8253 36.107C36.2465 38.2735 35.1718 39.5772 33.0135 39.5772ZM31.8138 38.1776H32.6829C33.8938 38.1776 34.448 37.612 34.1554 36.107C33.8629 34.602 33.087 34.0268 31.8565 34.0268H31.0069L31.8138 38.1776ZM37.1862 39.5772L35.8371 32.6368H40.7297L40.9887 33.9693H37.7563L38.0414 35.436H41.0199L41.2789 36.7684H38.3004L38.5874 38.2447H41.8295L42.0885 39.5772H37.1862ZM44.3081 39.5772H42.5112L43.5645 32.6368H45.7715L49.5132 39.5772H47.726L46.9587 38.0913H44.4978L44.3081 39.5772ZM44.6559 36.8451H46.3161L45.0308 34.3527H44.9722L44.6559 36.8451ZM51.9014 39.5772L50.5524 32.6368H53.4723C55.0543 32.6368 56.0125 33.3462 56.2175 34.4006C56.3721 35.1963 55.9315 35.7427 55.1898 35.8961L55.2029 35.9632C56.0599 36.0015 56.9251 36.6342 57.1207 37.6408C57.3388 38.7624 56.6085 39.5772 55.046 39.5772H51.9014ZM54.3982 38.2543C55.1599 38.2543 55.444 37.9571 55.3471 37.4586C55.2408 36.9122 54.7636 36.5671 54.0995 36.5671H52.9765L53.3045 38.2543H54.3982ZM53.756 35.5031C54.3224 35.5031 54.6748 35.2059 54.5779 34.7074C54.4866 34.2377 54.0675 33.9405 53.4718 33.9405H52.4659L52.7697 35.5031H53.756ZM63.9738 36.107C64.4191 38.3981 63.2021 39.6731 61.3076 39.6731C59.4033 39.6731 57.6985 38.3885 57.255 36.107C56.8097 33.8159 58.0169 32.5409 59.9212 32.5409C61.8158 32.5409 63.5284 33.8159 63.9738 36.107ZM62.2746 36.107C62.0062 34.7266 61.2359 33.9789 60.2007 33.9789C59.1656 33.9789 58.6859 34.7266 58.9542 36.107C59.2226 37.4874 59.9929 38.2351 61.0281 38.2351C62.0632 38.2351 62.5429 37.4874 62.2746 36.107ZM65.2649 32.6368L67.0155 34.8608H67.0741L67.9699 32.6368H69.8352L68.371 36.107L71.2526 39.5772H69.3385L67.5549 37.334H67.4963L66.5846 39.5772H64.6803L66.2031 36.107L63.3801 32.6368H65.2649Z" fill="white"/>
</svg>
