<svg width="40" height="40" viewBox="0 0 40 40" fill="none" xmlns="http://www.w3.org/2000/svg">
<circle cx="20" cy="20.001" r="19.6064" fill="#F6F6F6"/>
<path d="M25.724 12.6981V16.0836H27.2168V17.3455H25.724V20.9373H24.1706V12.6981H25.724ZM23.5153 13.8509V15.0764H16.9619V13.8509H19.474V12.6738H21.0153V13.8509H23.5153ZM20.2386 15.4647C21.8406 15.4647 22.9571 16.3262 22.9571 17.6003C22.9571 18.8744 21.8406 19.7117 20.2386 19.7117C18.6245 19.7117 17.4959 18.8744 17.4959 17.6003C17.4959 16.3262 18.6245 15.4647 20.2386 15.4647ZM20.2386 16.6417C19.4983 16.6539 19.0007 16.9936 19.0129 17.6003C19.0007 18.207 19.4983 18.5347 20.2386 18.5347C20.9789 18.5347 21.4886 18.207 21.4886 17.6003C21.4886 16.9936 20.9789 16.6539 20.2386 16.6417ZM26.1245 22.2963V23.534H18.5639V20.3063H20.1051V22.2963H26.1245Z" fill="#8C8C8C"/>
<path fill-rule="evenodd" clip-rule="evenodd" d="M14.8491 16.7425C14.5486 16.7425 14.305 16.9861 14.305 17.2866V25.9921C14.305 26.2926 14.5486 26.5362 14.8491 26.5362H21.3785C21.679 26.5362 21.9226 26.2926 21.9226 25.9921V24.9039H23.0109V25.9921C23.0109 26.8936 22.28 27.6244 21.3785 27.6244H14.8491C13.9476 27.6244 13.2168 26.8936 13.2168 25.9921V17.2866C13.2168 16.3851 13.9476 15.6543 14.8491 15.6543H15.9374V16.7425H14.8491Z" fill="#8C8C8C"/>
</svg>
