<svg width="75" height="84" viewBox="0 0 75 84" fill="none" xmlns="http://www.w3.org/2000/svg">
<g filter="url(#filter0_d_2817_1090)">
<path d="M16 38.5078L44.5 17.5078L73 38.5078V80.5078H16V38.5078Z" fill="#D9D9D9"/>
</g>
<path d="M16.0879 38.5547L44.7405 17.5205L73.3972 38.5541L44.7405 60.6387L16.0879 38.5547Z" fill="#D6DBE6"/>
<path d="M44.7461 60.6411L73.3987 80.3398L73.3987 38.5547L44.7461 60.6411Z" fill="white"/>
<g filter="url(#filter1_d_2817_1090)">
<path d="M25.4805 48.2493C25.4805 55.1654 31.9631 60.772 39.9599 60.772C44.5324 60.772 48.6099 58.9389 51.2635 56.076L55.9838 56.7005C56.4251 56.7589 56.717 56.2549 56.4466 55.9012L53.6746 52.2754C54.1704 51.0119 54.4392 49.6577 54.4392 48.2493C54.4392 41.3332 47.9566 35.7266 39.9599 35.7266C31.9631 35.7266 25.4805 41.3332 25.4805 48.2493Z" fill="url(#paint0_radial_2817_1090)"/>
</g>
<line x1="33.2734" y1="48.2832" x2="45.8615" y2="48.2832" stroke="white" stroke-width="1.5" stroke-linecap="round"/>
<line x1="33.2734" y1="52.1973" x2="44.2961" y2="52.1973" stroke="white" stroke-width="1.5" stroke-linecap="round"/>
<line x1="33.2734" y1="44.3711" x2="39.6001" y2="44.3711" stroke="white" stroke-width="1.5" stroke-linecap="round"/>
<path d="M44.7461 60.6411L16.0935 80.3398L16.0935 38.5547L44.7461 60.6411Z" fill="white"/>
<path d="M44.7444 60.041H45.5599L73.397 80.339H16.0918L43.929 60.041H44.7444Z" fill="#D7DBE5"/>
<path d="M44.7444 60.6387L73.397 80.3397H16.0918L44.7444 60.6387Z" fill="#F7F8FA"/>
<g filter="url(#filter2_d_2817_1090)">
<path d="M59.9172 23.9879C66.4011 23.9879 71.6573 19.164 71.6573 12.2479C71.6573 5.33175 66.4011 0.507812 59.9172 0.507812C53.4334 0.507812 48.1772 5.33175 48.1772 12.2479C48.1772 14.7476 48.8639 17.0763 50.047 19.031L47.6005 25.0467C47.5303 25.2193 47.7137 25.3857 47.8788 25.2991L53.6559 22.2669C55.618 23.839 58.8396 23.9879 59.9172 23.9879Z" fill="url(#paint1_radial_2817_1090)"/>
</g>
<line x1="53.623" y1="10.7148" x2="66.2111" y2="10.7148" stroke="white" stroke-width="1.5" stroke-linecap="round"/>
<line x1="56.7539" y1="15.4102" x2="63.0806" y2="15.4102" stroke="white" stroke-width="1.5" stroke-linecap="round"/>
<g filter="url(#filter3_d_2817_1090)">
<path d="M9.82666 16.1602H34.0894C38.412 16.1602 41.9161 19.6643 41.9161 23.9869C41.9161 24.5229 41.8622 25.0464 41.7595 25.5522C43.9168 26.451 44.7514 29.151 44.9928 31.4235C45.0499 31.9602 44.2216 32.1583 43.8597 31.7578C42.3649 30.1036 40.2666 29.816 39.1768 29.9348C37.8086 31.1061 36.0316 31.8135 34.0894 31.8135H9.82666C5.5041 31.8135 1.99997 28.3094 1.99997 23.9869C1.99997 19.6643 5.5041 16.1602 9.82666 16.1602Z" fill="url(#paint2_radial_2817_1090)"/>
</g>
<line x1="9.01172" y1="21.6719" x2="34.9052" y2="21.6719" stroke="#666666" stroke-width="1.5" stroke-linecap="round"/>
<line x1="9.01172" y1="25.5859" x2="34.9052" y2="25.5859" stroke="#666666" stroke-width="1.5" stroke-linecap="round"/>
<defs>
<filter id="filter0_d_2817_1090" x="14" y="16.5078" width="61" height="67" filterUnits="userSpaceOnUse" color-interpolation-filters="sRGB">
<feFlood flood-opacity="0" result="BackgroundImageFix"/>
<feColorMatrix in="SourceAlpha" type="matrix" values="0 0 0 0 0 0 0 0 0 0 0 0 0 0 0 0 0 0 127 0" result="hardAlpha"/>
<feOffset dy="1"/>
<feGaussianBlur stdDeviation="1"/>
<feComposite in2="hardAlpha" operator="out"/>
<feColorMatrix type="matrix" values="0 0 0 0 0 0 0 0 0 0 0 0 0 0 0 0 0 0 0.12 0"/>
<feBlend mode="normal" in2="BackgroundImageFix" result="effect1_dropShadow_2817_1090"/>
<feBlend mode="normal" in="SourceGraphic" in2="effect1_dropShadow_2817_1090" result="shape"/>
</filter>
<filter id="filter1_d_2817_1090" x="23.4805" y="35.7266" width="35.0703" height="29.0449" filterUnits="userSpaceOnUse" color-interpolation-filters="sRGB">
<feFlood flood-opacity="0" result="BackgroundImageFix"/>
<feColorMatrix in="SourceAlpha" type="matrix" values="0 0 0 0 0 0 0 0 0 0 0 0 0 0 0 0 0 0 127 0" result="hardAlpha"/>
<feOffset dy="2"/>
<feGaussianBlur stdDeviation="1"/>
<feComposite in2="hardAlpha" operator="out"/>
<feColorMatrix type="matrix" values="0 0 0 0 0 0 0 0 0 0 0 0 0 0 0 0 0 0 0.12 0"/>
<feBlend mode="normal" in2="BackgroundImageFix" result="effect1_dropShadow_2817_1090"/>
<feBlend mode="normal" in="SourceGraphic" in2="effect1_dropShadow_2817_1090" result="shape"/>
</filter>
<filter id="filter2_d_2817_1090" x="45.5859" y="0.507812" width="28.0723" height="28.8145" filterUnits="userSpaceOnUse" color-interpolation-filters="sRGB">
<feFlood flood-opacity="0" result="BackgroundImageFix"/>
<feColorMatrix in="SourceAlpha" type="matrix" values="0 0 0 0 0 0 0 0 0 0 0 0 0 0 0 0 0 0 127 0" result="hardAlpha"/>
<feOffset dy="2"/>
<feGaussianBlur stdDeviation="1"/>
<feComposite in2="hardAlpha" operator="out"/>
<feColorMatrix type="matrix" values="0 0 0 0 0 0 0 0 0 0 0 0 0 0 0 0 0 0 0.12 0"/>
<feBlend mode="normal" in2="BackgroundImageFix" result="effect1_dropShadow_2817_1090"/>
<feBlend mode="normal" in="SourceGraphic" in2="effect1_dropShadow_2817_1090" result="shape"/>
</filter>
<filter id="filter3_d_2817_1090" x="0" y="16.1602" width="46.9961" height="19.8105" filterUnits="userSpaceOnUse" color-interpolation-filters="sRGB">
<feFlood flood-opacity="0" result="BackgroundImageFix"/>
<feColorMatrix in="SourceAlpha" type="matrix" values="0 0 0 0 0 0 0 0 0 0 0 0 0 0 0 0 0 0 127 0" result="hardAlpha"/>
<feOffset dy="2"/>
<feGaussianBlur stdDeviation="1"/>
<feComposite in2="hardAlpha" operator="out"/>
<feColorMatrix type="matrix" values="0 0 0 0 0 0 0 0 0 0 0 0 0 0 0 0 0 0 0.12 0"/>
<feBlend mode="normal" in2="BackgroundImageFix" result="effect1_dropShadow_2817_1090"/>
<feBlend mode="normal" in="SourceGraphic" in2="effect1_dropShadow_2817_1090" result="shape"/>
</filter>
<radialGradient id="paint0_radial_2817_1090" cx="0" cy="0" r="1" gradientUnits="userSpaceOnUse" gradientTransform="translate(39.5685 48.2493) scale(14.8707 18.7841)">
<stop stop-color="#B2BBF9"/>
<stop offset="0.435" stop-color="#8B98F3"/>
<stop offset="1" stop-color="#616ECA"/>
</radialGradient>
<radialGradient id="paint1_radial_2817_1090" cx="0" cy="0" r="1" gradientUnits="userSpaceOnUse" gradientTransform="translate(59.5259 12.6392) rotate(90) scale(12.914 12.1314)">
<stop stop-color="#FDD0D0"/>
<stop offset="0.507576" stop-color="#FAA2A2"/>
<stop offset="1" stop-color="#F57272"/>
</radialGradient>
<radialGradient id="paint2_radial_2817_1090" cx="0" cy="0" r="1" gradientUnits="userSpaceOnUse" gradientTransform="translate(14.5226 22.0302) rotate(17.7713) scale(32.0536 20.5238)">
<stop stop-color="white"/>
<stop offset="0.706988" stop-color="#EFF5FB"/>
<stop offset="1" stop-color="#DEEBF7"/>
</radialGradient>
</defs>
</svg>
