<svg width="71" height="60" viewBox="0 0 71 60" fill="none" xmlns="http://www.w3.org/2000/svg">
<rect x="7.41602" y="5.97266" width="50.1053" height="53.0526" fill="#3D7EF5"/>
<path d="M0.785156 5.97266H8.89042V59.0253H8.78516C4.36688 59.0253 0.785156 55.4436 0.785156 51.0253V5.97266Z" fill="#2E51C7"/>
<rect x="56.7852" y="5.97266" width="8.10526" height="53.0526" fill="#2B52C7"/>
<circle cx="64.8908" cy="53.1311" r="5.89474" fill="#2E51C7"/>
<line x1="19.4785" y1="15.1758" x2="19.4785" y2="16.9976" stroke="#83D2EA"/>
<path fill-rule="evenodd" clip-rule="evenodd" d="M32.9441 15.7824V15.1758H33.5513V15.7824H46.9123V15.1758H47.5195V16.9976H46.9123V16.3896H33.5513V16.9976H32.9441V16.3896H18.9766V15.7824H32.9441Z" fill="#83D2EA"/>
<path fill-rule="evenodd" clip-rule="evenodd" d="M17.7632 18.209L15.9414 18.209L15.9414 18.8163L16.5485 18.8163L16.5485 32.1772H15.9414L15.9414 32.7845H16.5485L16.5484 46.1435H15.9414L15.9414 46.7508H16.5484V46.7519H17.1557V46.7508H17.7632V46.1435H17.1557L17.1557 32.7845H17.7632V32.1772H17.1557L17.1557 18.8163L17.7632 18.8163V18.209Z" fill="#83D2EA"/>
<path fill-rule="evenodd" clip-rule="evenodd" d="M48.7344 25.498L50.5562 25.498V26.1053L49.9487 26.1053L49.9487 46.1461H50.5562V46.7534H49.9487V46.7536H49.3414V46.7534H48.7344L48.7344 46.1461H49.3414L49.3414 26.1053L48.7344 26.1053L48.7344 25.498Z" fill="#83D2EA"/>
<path fill-rule="evenodd" clip-rule="evenodd" d="M20.1913 48.5785L20.1913 49.1851L19.584 49.1851L19.584 47.3633L20.1913 47.3633L20.1913 47.9713H46.9119V47.3633L47.5192 47.3633V49.1851L46.9119 49.1851V48.5785H20.1913Z" fill="#83D2EA"/>
<path d="M0.785156 5.97286C0.785156 2.71728 3.42432 0.078125 6.67989 0.078125V47.236C4.53271 46.8066 2.37823 47.9399 1.51566 49.9526L0.785156 51.6571V5.97286Z" fill="#59ABF5"/>
<path d="M64.8908 51.2895V46.5H58.9961V55.3421L64.8908 52.3947V51.2895Z" fill="#1F359A"/>
<path d="M58.9961 5.97286C58.9961 2.71729 61.6353 0.078125 64.8908 0.078125L-nan -nanL64.8908 0.078125C68.1464 0.078125 70.7856 2.71729 70.7856 5.97286V53.1308L-nan -nanL70.7856 53.1308C69.7258 46.414 60.0559 46.414 58.9961 53.1308L-nan -nanL58.9961 53.1308V5.97286Z" fill="#58ADF5"/>
<path d="M70.7844 53.1308V5.97286C70.7844 2.71729 68.1453 0.078125 64.8897 0.078125C64.3808 0.078125 63.887 0.142603 63.416 0.263835V48.2652C66.5071 47.5298 70.1566 49.1517 70.7844 53.1308Z" fill="#4284F5"/>
<path d="M68.575 54.9726C68.575 57.2108 66.5957 59.0252 64.154 59.0252C61.7123 59.0252 58.9961 57.2108 58.9961 54.9726C58.9961 52.7343 61.7123 50.9199 64.154 50.9199C66.5957 50.9199 68.575 52.7343 68.575 54.9726Z" fill="#1F359A"/>
<path d="M33.2501 23.5011C29.9405 23.5011 27.6038 26.0746 27.6038 29.2419C27.6038 30.683 28.1528 31.655 28.8416 32.5819C28.991 32.7837 29.1431 32.9779 29.2994 33.1777L29.3828 33.2828C29.5652 33.5173 29.7537 33.7594 29.9301 34.0089C30.281 34.5071 30.6102 35.0672 30.7944 35.7296C30.8395 35.9068 30.8187 36.0959 30.7364 36.2567C30.6541 36.4175 30.5168 36.5371 30.3539 36.59C30.191 36.6429 30.0154 36.625 29.8646 36.5399C29.7139 36.4549 29.5999 36.3095 29.547 36.1349C29.4271 35.7033 29.2021 35.2999 28.8929 34.8618C28.7297 34.6339 28.5611 34.4105 28.3873 34.1919L28.3074 34.0887C28.151 33.8898 27.986 33.6796 27.8253 33.4629C27.0565 32.429 26.3008 31.1484 26.3008 29.241C26.3008 25.2489 29.2673 22.0938 33.2501 22.0938C37.233 22.0938 40.1995 25.248 40.1995 29.2419C40.1995 31.1484 39.4437 32.429 38.6749 33.4639C38.5142 33.6796 38.3492 33.8898 38.1928 34.0896L38.1129 34.1919C37.9305 34.4246 37.7611 34.6432 37.6074 34.8618C37.2981 35.2999 37.0731 35.7043 36.9532 36.1349C36.8978 36.3062 36.7833 36.4478 36.6336 36.5302C36.4839 36.6126 36.3105 36.6294 36.1496 36.5772C35.9887 36.5249 35.8526 36.4077 35.7698 36.2498C35.687 36.0919 35.6638 35.9055 35.705 35.7296C35.89 35.0672 36.2192 34.5071 36.571 34.0089C36.7465 33.7594 36.935 33.5173 37.1183 33.2828L37.2008 33.1777C37.3572 32.9779 37.5092 32.7837 37.6586 32.5829C38.3475 31.6541 38.8965 30.683 38.8965 29.2419C38.8965 26.0746 36.5597 23.5011 33.2501 23.5011ZM30.4269 38.0432H36.0733C36.2461 38.0432 36.4118 38.1174 36.534 38.2493C36.6561 38.3813 36.7248 38.5603 36.7248 38.7469C36.7248 38.9335 36.6561 39.1125 36.534 39.2444C36.4118 39.3764 36.2461 39.4505 36.0733 39.4505H30.4269C30.2542 39.4505 30.0884 39.3764 29.9663 39.2444C29.8441 39.1125 29.7754 38.9335 29.7754 38.7469C29.7754 38.5603 29.8441 38.3813 29.9663 38.2493C30.0884 38.1174 30.2542 38.0432 30.4269 38.0432ZM31.0784 41.5615C31.0784 41.3749 31.1471 41.1959 31.2693 41.0639C31.3914 40.932 31.5572 40.8578 31.7299 40.8578H34.7703C34.9431 40.8578 35.1088 40.932 35.231 41.0639C35.3531 41.1959 35.4218 41.3749 35.4218 41.5615C35.4218 41.7481 35.3531 41.9271 35.231 42.0591C35.1088 42.191 34.9431 42.2652 34.7703 42.2652H31.7299C31.5572 42.2652 31.3914 42.191 31.2693 42.0591C31.1471 41.9271 31.0784 41.7481 31.0784 41.5615Z" fill="white"/>
<path fill-rule="evenodd" clip-rule="evenodd" d="M35.3614 28.6625C35.5837 28.9026 35.5837 29.2918 35.3614 29.5319L33.0847 31.9909C32.8624 32.231 32.502 32.231 32.2797 31.9909L31.1413 30.7614C30.919 30.5213 30.919 30.1321 31.1413 29.892C31.3636 29.6519 31.724 29.6519 31.9463 29.892L32.6822 30.6868L34.5565 28.6625C34.7787 28.4224 35.1391 28.4224 35.3614 28.6625Z" fill="white"/>
</svg>
