<svg width="53" height="63" viewBox="0 0 53 63" fill="none" xmlns="http://www.w3.org/2000/svg">
<rect width="14.2066" height="15.6062" transform="matrix(0.990099 0.140369 -0.140375 0.990098 19.6367 0.181641)" fill="#C69B4C"/>
<rect x="23.8242" y="32.7012" width="6.10848" height="6.10834" fill="#6857A8"/>
<rect width="17.9436" height="17.9433" transform="matrix(0.950143 -0.311814 0.311826 0.950139 2.82422 10.0488)" fill="#ECCC90"/>
<path d="M9.35938 7.90234L13.3496 6.59286L16.0876 14.9358L14.733 14.175L13.9735 15.2278L12.6188 14.467L11.8594 15.5198L9.35938 7.90234Z" fill="#8B9CC7"/>
<rect width="22.0319" height="22.0314" transform="matrix(0.99965 0.0264639 -0.0264651 0.99965 24.0273 4.98242)" fill="#DBA971"/>
<path d="M32.8799 5.21693L37.2096 5.33155L36.9497 14.9641L35.8791 14.6747L34.7803 15.2015L33.7197 14.1487L32.6448 13.9123L32.8799 5.21693Z" fill="#BE797A"/>
<path d="M26.6902 34.4188C38.5921 34.4188 51.6968 32.0039 51.6968 18.957H1.68359C1.68359 32.0039 14.7883 34.4188 26.6902 34.4188Z" fill="#8577B9"/>
<path d="M26.5217 31.5898C30.1303 31.5898 39.2778 29.5976 39.2778 18.834H13.7656C13.7656 29.5976 22.2831 31.5898 26.5217 31.5898Z" fill="#8C7FBD"/>
<path d="M26.6875 34.4188C38.5894 34.4188 51.6941 32.0039 51.6941 18.957H48.6776C48.6759 25.7267 43.2012 33.1942 26.6875 34.4188Z" fill="#6857A8"/>
<path d="M26.5195 34.4188C14.6177 34.4188 1.51294 32.0039 1.51294 18.957H4.5294C4.53115 25.7267 10.0058 33.1942 26.5195 34.4188Z" fill="#A59ACB"/>
<path d="M41.0268 38.8105H12.7302L10.8438 52.9361H42.9133L41.0268 38.8105Z" fill="#8577B9"/>
<path d="M13.5214 41.4824H40.246L41.0095 48.3543H12.7578L13.5214 41.4824Z" fill="black"/>
<rect x="14.0195" y="42.0918" width="25.1975" height="6.10834" fill="#404040"/>
<rect x="7.41016" y="52.9355" width="38.9416" height="4.96303" fill="#8577B9"/>
<rect x="8.55469" y="55.6074" width="36.6509" height="1.14531" fill="#CCCCCC"/>
<rect x="8.55469" y="54.084" width="36.6509" height="1.14531" fill="#8C8C8C"/>
<path d="M8.55469 54.084L9.70003 54.8475H44.0602L45.2056 54.084V56.7564L44.0602 55.9928H9.70003L8.55469 56.7564V54.084Z" fill="#666666"/>
<rect x="9.32031" y="54.8457" width="35.1238" height="1.14531" rx="0.488454" fill="#323232"/>
<path d="M42.0709 55.418H11.6935C10.3642 56.4252 9.52515 57.9495 9.38515 59.6114L9.32031 60.381V62.099H44.4441V60.381L44.3792 59.6114C44.2392 57.9495 43.4002 56.4252 42.0709 55.418Z" fill="white"/>
<path d="M39.144 60.9038V60.5522C38.5068 60.5127 38.1091 60.1655 38.0806 59.6206H38.564C38.5903 59.9282 38.832 60.093 39.144 60.126V59.0757L38.9946 59.0361C38.4849 58.8955 38.1641 58.6362 38.1641 58.1924C38.1641 57.687 38.5793 57.3398 39.144 57.2827V56.9224H39.3989V57.2783C39.99 57.3179 40.3965 57.6738 40.4097 58.1616H39.9395C39.9131 57.8979 39.7021 57.7332 39.3989 57.7002V58.689L39.5352 58.7285C39.9438 58.8252 40.4492 59.0493 40.4536 59.625C40.4492 60.1304 40.0713 60.5105 39.3989 60.5522V60.9038H39.144ZM38.6475 58.166C38.6475 58.4363 38.9089 58.5571 39.144 58.623V57.7046C38.8364 57.7463 38.6475 57.9287 38.6475 58.166ZM39.3989 60.126C39.7373 60.0886 39.9702 59.8953 39.9746 59.6162C39.9702 59.3459 39.7241 59.2317 39.3989 59.1416V60.126Z" fill="#323232"/>
<path d="M0.339844 18.833C0.339844 18.0914 0.940999 17.4902 1.68256 17.4902H51.3643C52.1059 17.4902 52.707 18.0914 52.707 18.833C52.707 19.5745 52.1059 20.1757 51.3643 20.1757H1.68256C0.941001 20.1757 0.339844 19.5745 0.339844 18.833Z" fill="#6857A8"/>
<rect x="0.339844" y="17.4902" width="52.3672" height="2.01408" rx="1.00704" fill="#8577B9"/>
<path d="M20.2627 44.2266C20.2627 44.7231 20.6187 45.2109 21.2119 45.4131L20.9966 45.7383C20.5549 45.5845 20.2275 45.2703 20.0562 44.8813C19.8848 45.3142 19.5398 45.6614 19.0718 45.8262L18.8564 45.4966C19.4629 45.29 19.8364 44.7627 19.8364 44.231V44.1211H18.9839V43.7827H21.1064V44.1211H20.2627V44.2266ZM22.1348 46.0811V47.4653H21.7173V46.4194H19.4673V46.0811H22.1348ZM22.1348 43.5278V45.8833H21.7173V44.8726H20.9878V44.5298H21.7173V43.5278H22.1348ZM25.8889 43.5278V45.8701H25.4714V44.8726H24.7376V44.5298H25.4714V43.5278H25.8889ZM24.5706 45.98C25.3967 45.98 25.9021 46.2524 25.9021 46.7227C25.9021 47.1929 25.3967 47.4609 24.5706 47.4653C23.7444 47.4609 23.2346 47.1929 23.239 46.7227C23.2346 46.2524 23.7444 45.98 24.5706 45.98ZM24.5706 46.3052C23.9949 46.3052 23.6521 46.4546 23.6521 46.7227C23.6521 46.9863 23.9949 47.1401 24.5706 47.1357C25.1463 47.1401 25.489 46.9863 25.489 46.7227C25.489 46.4546 25.1463 46.3052 24.5706 46.3052ZM24.0169 44.2222C24.0169 44.7231 24.3728 45.2065 24.9661 45.4087L24.7507 45.7383C24.3091 45.5845 23.9839 45.2703 23.8147 44.8813C23.6411 45.323 23.2962 45.6768 22.8259 45.8481L22.6062 45.5142C23.2171 45.3032 23.5906 44.7715 23.5906 44.2266V44.1387H22.738V43.8003H24.8606V44.1387H24.0169V44.2222ZM30.3914 43.5278V45.0967H31.0022V45.4438H30.3914V47.4609H29.9739V43.5278H30.3914ZM29.3631 43.9409C29.3587 45.0791 28.8577 46.0942 27.5613 46.7358L27.3284 46.4106C28.315 45.9185 28.8511 45.2065 28.9368 44.2881H27.5262V43.9409H29.3631ZM33.1656 43.7871C33.1656 43.9365 33.1502 44.0771 33.1216 44.2134H33.9434V43.5322H34.3609V45.8745H33.9434V45.3823H32.9502V45.0439H33.9434V44.5474H33.0162C32.7503 45.1648 32.146 45.6064 31.2935 45.835L31.1353 45.5054C32.0713 45.2527 32.6404 44.7517 32.7173 44.1255H31.3418V43.7871H33.1656ZM34.3609 46.0459V47.4565H33.9434V46.3755H31.6934V46.0459H34.3609Z" fill="white"/>
<path d="M13.3824 58.8973C13.2639 59.0455 12.7767 59.9471 12.921 60.0914C13.0908 60.2612 13.5734 59.9723 13.6945 59.9042C14.103 59.6744 14.4796 59.3993 14.8696 59.1416C15.0204 59.0419 15.1963 58.9028 15.3744 58.8593C15.6915 58.782 15.6755 58.9798 15.8249 59.2637C15.9672 59.5342 16.2095 59.5712 16.5088 59.5107C16.984 59.4146 17.4354 59.1533 17.8522 58.9218C17.9509 58.8669 18.0877 58.9592 18.1805 58.995C18.3502 59.0606 18.5223 59.0439 18.7016 59.0439C19.0352 59.0439 19.3644 59.0558 19.6705 58.9028C19.9825 58.7467 19.883 59.3904 19.8767 59.5595C19.8706 59.7236 19.8306 59.8779 19.8306 60.0426C19.8306 60.242 20.7923 59.7434 20.8781 59.7034C21.5417 59.3937 22.1436 59.0087 22.7779 58.6477C22.9095 58.5727 24.1938 57.8267 24.2542 57.9041C24.3162 57.9834 24.2747 58.3031 24.2732 58.3736C24.2674 58.6405 24.2615 58.9125 24.2027 59.1742C24.1254 59.5176 24.1932 59.4005 24.4469 59.166C24.7039 58.9284 24.7921 58.821 24.8133 59.2067C24.8358 59.6176 25.9834 58.9793 26.2571 58.9679C26.4726 58.9589 26.345 59.3024 26.6832 59.2746C27.0118 59.2476 27.7813 58.8556 27.8366 59.3804C27.853 59.5367 27.8465 59.7079 27.8311 59.8635C27.8159 60.0181 27.7946 60.0305 27.9288 59.9069C28.157 59.6969 28.4027 59.5139 28.6779 59.3696C29.3852 58.9985 30.3633 59.1759 31.1366 59.0927C33.2247 58.8682 34.5357 58.7508 36.635 58.7508" stroke="#323232" stroke-width="0.7" stroke-linecap="round"/>
</svg>
