<svg width="40" height="40" viewBox="0 0 40 40" fill="none" xmlns="http://www.w3.org/2000/svg">
<circle cx="20" cy="20.001" r="19.6064" fill="#F8F8F8"/>
<path d="M13.5 13.002C13.5 12.4497 13.9477 12.002 14.5 12.002H22.7632L24.8684 14.1072L26.9737 16.2125V27.002C26.9737 27.5542 26.526 28.002 25.9737 28.002H14.5C13.9477 28.002 13.5 27.5542 13.5 27.002V13.002Z" fill="#E7736A"/>
<path d="M26.9742 16.2125L22.7637 12.002V15.7125C22.7637 15.9886 22.9875 16.2125 23.2637 16.2125H26.9742Z" fill="#D03E2F"/>
<path d="M22.3744 23.0305C22.2243 23.0305 22.1025 22.9087 22.1025 22.7586V20.3079C22.1025 20.1389 22.2395 20.002 22.4085 20.002H23.5095C23.6354 20.002 23.7375 20.104 23.7375 20.2299C23.7375 20.3558 23.6354 20.4579 23.5095 20.4579H22.6463V21.2861H23.3757C23.5016 21.2861 23.6036 21.3882 23.6036 21.5141C23.6036 21.64 23.5016 21.7421 23.3757 21.7421H22.6463V22.7586C22.6463 22.9087 22.5246 23.0305 22.3744 23.0305Z" fill="white"/>
<path d="M20.282 23.0305H19.5589C19.3899 23.0305 19.2529 22.8935 19.2529 22.7245V20.3079C19.2529 20.1389 19.3899 20.002 19.5589 20.002H20.2987C21.2022 20.002 21.7502 20.5708 21.7502 21.512C21.7502 22.4574 21.2022 23.0305 20.282 23.0305ZM19.7967 22.5578H20.2527C20.8843 22.5578 21.2064 22.2106 21.2064 21.512C21.2064 20.8176 20.8843 20.4746 20.2694 20.4746H19.7967V22.5578Z" fill="white"/>
<path d="M17.0092 23.0305C16.859 23.0305 16.7373 22.9087 16.7373 22.7586V20.3079C16.7373 20.1389 16.8743 20.002 17.0433 20.002H17.8751C18.5695 20.002 18.9418 20.4244 18.9418 21.0059C18.9418 21.5873 18.5653 22.0056 17.8667 22.0056H17.2811V22.7586C17.2811 22.9087 17.1594 23.0305 17.0092 23.0305ZM17.2811 21.558H17.7914C18.2014 21.558 18.3854 21.328 18.3854 21.0059C18.3854 20.6796 18.2014 20.4579 17.7914 20.4579H17.2811V21.558Z" fill="white"/>
</svg>
