<svg width="27" height="23" viewBox="0 0 27 23" fill="none" xmlns="http://www.w3.org/2000/svg">
<rect x="2.85352" y="3.12305" width="18.6783" height="19.777" fill="#E6EEFE"/>
<path fill-rule="evenodd" clip-rule="evenodd" d="M16.8406 7.86079C16.893 7.86079 16.9355 7.81827 16.9355 7.76581L16.9355 7.27662C16.9355 7.22416 16.893 7.18164 16.8406 7.18164V7.18164C16.7881 7.18164 16.7456 7.22416 16.7456 7.27662L16.7456 7.29377C16.7456 7.35569 16.6954 7.40589 16.6335 7.40589L12.6762 7.40589C12.6143 7.40589 12.5641 7.35569 12.5641 7.29377L12.5641 7.27662C12.5641 7.22416 12.5216 7.18164 12.4691 7.18164V7.18164C12.4167 7.18164 12.3741 7.22416 12.3741 7.27662L12.3741 7.29377C12.3741 7.35569 12.3239 7.40589 12.262 7.40589L8.30858 7.40589C8.24666 7.40589 8.19646 7.35569 8.19646 7.29377L8.19646 7.27662C8.19646 7.22416 8.15394 7.18164 8.10148 7.18164V7.18164C8.04903 7.18164 8.00651 7.22416 8.00651 7.27662L8.00651 7.76581C8.00651 7.81827 8.04903 7.86079 8.10148 7.86079V7.86079C8.15394 7.86079 8.19646 7.81827 8.19646 7.76581L8.19646 7.74653C8.19646 7.68343 8.24761 7.63227 8.31072 7.63227L12.2599 7.63227C12.323 7.63227 12.3741 7.68343 12.3741 7.74653L12.3741 7.76581C12.3741 7.81827 12.4167 7.86079 12.4691 7.86079V7.86079C12.5216 7.86079 12.5641 7.81827 12.5641 7.76581L12.5641 7.74653C12.5641 7.68343 12.6153 7.63227 12.6784 7.63227L16.6313 7.63227C16.6944 7.63227 16.7456 7.68343 16.7456 7.74653L16.7456 7.76581C16.7456 7.81827 16.7881 7.86079 16.8406 7.86079V7.86079Z" fill="#0453F4"/>
<path d="M16.7456 7.76581L17.2456 7.76581L16.7456 7.76581ZM16.7456 7.74653L17.2456 7.74653L16.7456 7.74653ZM12.6784 7.63227L12.6784 7.13227L12.6784 7.63227ZM12.5641 7.76581L12.0641 7.76581L12.5641 7.76581ZM12.3741 7.76581L11.8741 7.76581L12.3741 7.76581ZM12.2599 7.63227L12.2599 7.13227L12.2599 7.63227ZM8.19646 7.74653L8.69646 7.74653L8.19646 7.74653ZM8.31072 7.63227L8.31072 7.13227L8.31072 7.63227ZM8.19646 7.76581L7.69646 7.76581L8.19646 7.76581ZM12.262 7.40589L12.262 6.90589L12.262 7.40589ZM12.6762 7.40589L12.6762 6.90589L12.6762 7.40589ZM16.7456 7.27662L16.2456 7.27662L16.7456 7.27662ZM16.4355 7.27662L16.4355 7.76581L17.4355 7.76581L17.4355 7.27662L16.4355 7.27662ZM17.2456 7.29377L17.2456 7.27662L16.2456 7.27662L16.2456 7.29377L17.2456 7.29377ZM12.6762 7.90589L16.6335 7.90589L16.6335 6.90589L12.6762 6.90589L12.6762 7.90589ZM12.0641 7.27662L12.0641 7.29377L13.0641 7.29377L13.0641 7.27662L12.0641 7.27662ZM12.8741 7.29377L12.8741 7.27662L11.8741 7.27662L11.8741 7.29377L12.8741 7.29377ZM8.30858 7.90589L12.262 7.90589L12.262 6.90589L8.30858 6.90589L8.30858 7.90589ZM8.69646 7.29377L8.69646 7.27662L7.69646 7.27662L7.69646 7.29377L8.69646 7.29377ZM7.50651 7.27662L7.50651 7.76581L8.50651 7.76581L8.50651 7.27662L7.50651 7.27662ZM8.69646 7.76581L8.69646 7.74653L7.69646 7.74653L7.69646 7.76581L8.69646 7.76581ZM12.2599 7.13227L8.31072 7.13227L8.31072 8.13227L12.2599 8.13227L12.2599 7.13227ZM12.8741 7.76581L12.8741 7.74653L11.8741 7.74653L11.8741 7.76581L12.8741 7.76581ZM12.0641 7.74653L12.0641 7.76581L13.0641 7.76581L13.0641 7.74653L12.0641 7.74653ZM16.6313 7.13227L12.6784 7.13227L12.6784 8.13227L16.6313 8.13227L16.6313 7.13227ZM17.2456 7.76581L17.2456 7.74653L16.2456 7.74653L16.2456 7.76581L17.2456 7.76581ZM16.2456 7.76581C16.2456 8.09441 16.512 8.36079 16.8406 8.36079L16.8406 7.36079C17.0643 7.36079 17.2456 7.54213 17.2456 7.76581L16.2456 7.76581ZM16.6313 8.13227C16.4183 8.13227 16.2456 7.95957 16.2456 7.74653L17.2456 7.74653C17.2456 7.40729 16.9706 7.13227 16.6313 7.13227L16.6313 8.13227ZM13.0641 7.74653C13.0641 7.95957 12.8914 8.13227 12.6784 8.13227L12.6784 7.13227C12.3391 7.13227 12.0641 7.40729 12.0641 7.74653L13.0641 7.74653ZM12.4691 8.36079C12.7977 8.36079 13.0641 8.09441 13.0641 7.76581L12.0641 7.76581C12.0641 7.54213 12.2454 7.36079 12.4691 7.36079L12.4691 8.36079ZM11.8741 7.76581C11.8741 8.09441 12.1405 8.36079 12.4691 8.36079L12.4691 7.36079C12.6928 7.36079 12.8741 7.54213 12.8741 7.76581L11.8741 7.76581ZM12.2599 8.13227C12.0468 8.13227 11.8741 7.95957 11.8741 7.74653L12.8741 7.74653C12.8741 7.40729 12.5991 7.13227 12.2599 7.13227L12.2599 8.13227ZM8.69646 7.74653C8.69646 7.95957 8.52376 8.13227 8.31072 8.13227L8.31072 7.13227C7.97147 7.13227 7.69646 7.40729 7.69646 7.74653L8.69646 7.74653ZM8.10148 8.36079C8.43008 8.36079 8.69646 8.09441 8.69646 7.76581L7.69646 7.76581C7.69646 7.54213 7.87779 7.36079 8.10148 7.36079L8.10148 8.36079ZM7.50651 7.76581C7.50651 8.09441 7.77289 8.36079 8.10148 8.36079L8.10148 7.36079C8.32517 7.36079 8.50651 7.54213 8.50651 7.76581L7.50651 7.76581ZM8.10148 6.68164C7.77289 6.68164 7.50651 6.94802 7.50651 7.27662L8.50651 7.27662C8.50651 7.5003 8.32517 7.68164 8.10148 7.68164L8.10148 6.68164ZM8.69646 7.27662C8.69646 6.94802 8.43008 6.68164 8.10148 6.68164L8.10148 7.68164C7.87779 7.68164 7.69646 7.50031 7.69646 7.27662L8.69646 7.27662ZM8.30858 6.90589C8.5228 6.90589 8.69646 7.07955 8.69646 7.29377L7.69646 7.29377C7.69646 7.63183 7.97052 7.90589 8.30858 7.90589L8.30858 6.90589ZM11.8741 7.29377C11.8741 7.07955 12.0478 6.90589 12.262 6.90589L12.262 7.90589C12.6001 7.90589 12.8741 7.63183 12.8741 7.29377L11.8741 7.29377ZM12.4691 6.68164C12.1405 6.68164 11.8741 6.94802 11.8741 7.27662L12.8741 7.27662C12.8741 7.5003 12.6928 7.68164 12.4691 7.68164L12.4691 6.68164ZM13.0641 7.27662C13.0641 6.94802 12.7977 6.68164 12.4691 6.68164L12.4691 7.68164C12.2454 7.68164 12.0641 7.5003 12.0641 7.27662L13.0641 7.27662ZM12.6762 6.90589C12.8904 6.90589 13.0641 7.07955 13.0641 7.29377L12.0641 7.29377C12.0641 7.63183 12.3382 7.90589 12.6762 7.90589L12.6762 6.90589ZM16.2456 7.29377C16.2456 7.07955 16.4193 6.90589 16.6335 6.90589L16.6335 7.90589C16.9715 7.90589 17.2456 7.63183 17.2456 7.29377L16.2456 7.29377ZM16.8406 6.68164C16.512 6.68164 16.2456 6.94802 16.2456 7.27662L17.2456 7.27662C17.2456 7.5003 17.0643 7.68164 16.8406 7.68164L16.8406 6.68164ZM16.4355 7.76581C16.4355 7.54213 16.6169 7.36079 16.8406 7.36079L16.8406 8.36079C17.1692 8.36079 17.4355 8.09441 17.4355 7.76581L16.4355 7.76581ZM17.4355 7.27662C17.4355 6.94802 17.1692 6.68164 16.8406 6.68164L16.8406 7.68164C16.6169 7.68164 16.4355 7.5003 16.4355 7.27662L17.4355 7.27662Z" fill="#0453F4"/>
<path d="M0.380859 3.12305H3.40235V22.9001C1.73363 22.9001 0.380859 21.5473 0.380859 19.8786V3.12305Z" fill="#C5D7FD"/>
<rect x="21.2559" y="3.12305" width="3.02149" height="19.777" fill="#C5D7FD"/>
<circle cx="24.2814" cy="20.7033" r="2.19745" fill="#C5D7FD"/>
<path fill-rule="evenodd" clip-rule="evenodd" d="M6.7104 7.97452C6.7104 7.91201 6.65972 7.86133 6.59721 7.86133H6.14444C6.08193 7.86133 6.03125 7.91244 6.03125 7.97496V7.97496C6.03125 8.03699 6.08154 8.08771 6.14357 8.08771V8.08771C6.2056 8.08771 6.25588 8.138 6.25588 8.20003L6.25588 12.9592C6.25588 13.0212 6.2056 13.0715 6.14357 13.0715V13.0715C6.08154 13.0715 6.03125 13.1227 6.03125 13.1847V13.1847C6.03125 13.2467 6.08154 13.2979 6.14357 13.2979V13.2979C6.2056 13.2979 6.25588 13.3482 6.25588 13.4102L6.25588 18.166C6.25588 18.228 6.2056 18.2783 6.14357 18.2783V18.2783C6.08154 18.2783 6.03125 18.329 6.03125 18.391V18.391C6.03125 18.4536 6.08193 18.5047 6.14444 18.5047H6.59721C6.65972 18.5047 6.7104 18.454 6.7104 18.3915V18.3915C6.7104 18.329 6.65929 18.2783 6.59677 18.2783V18.2783C6.53377 18.2783 6.48227 18.2272 6.48227 18.1642L6.48227 13.4119C6.48227 13.3489 6.53377 13.2979 6.59677 13.2979V13.2979C6.65929 13.2979 6.7104 13.2472 6.7104 13.1847V13.1847C6.7104 13.1222 6.65929 13.0715 6.59677 13.0715V13.0715C6.53377 13.0715 6.48227 13.0204 6.48227 12.9574L6.48227 8.20178C6.48227 8.13878 6.53377 8.08771 6.59677 8.08771V8.08771C6.65929 8.08771 6.7104 8.03703 6.7104 7.97452V7.97452Z" fill="#0453F4"/>
<path d="M6.48227 12.9574L5.98227 12.9574L6.48227 12.9574ZM6.48227 13.4119L5.98227 13.4119L6.48227 13.4119ZM6.25588 8.20003L5.75588 8.20003L6.25588 8.20003ZM6.14444 8.36133H6.59721V7.36133H6.14444V8.36133ZM6.75588 12.9592L6.75588 8.20003L5.75588 8.20003L5.75588 12.9592L6.75588 12.9592ZM6.75588 18.166L6.75588 13.4102L5.75588 13.4102L5.75588 18.166L6.75588 18.166ZM6.14444 19.0047H6.59721V18.0047H6.14444V19.0047ZM5.98227 13.4119L5.98227 18.1642L6.98227 18.1642L6.98227 13.4119L5.98227 13.4119ZM5.98227 8.20178L5.98227 12.9574L6.98227 12.9574L6.98227 8.20178L5.98227 8.20178ZM6.59677 8.58771C6.93292 8.58771 7.2104 8.31567 7.2104 7.97452H6.2104C6.2104 7.75839 6.38565 7.58771 6.59677 7.58771L6.59677 8.58771ZM6.98227 8.20178C6.98227 8.41742 6.80741 8.58771 6.59677 8.58771L6.59677 7.58771C6.26014 7.58771 5.98227 7.86014 5.98227 8.20178L6.98227 8.20178ZM6.59677 12.5715C6.80741 12.5715 6.98227 12.7418 6.98227 12.9574L5.98227 12.9574C5.98227 13.2991 6.26014 13.5715 6.59677 13.5715V12.5715ZM7.2104 13.1847C7.2104 12.8435 6.93292 12.5715 6.59677 12.5715V13.5715C6.38565 13.5715 6.2104 13.4008 6.2104 13.1847H7.2104ZM6.59677 13.7979C6.93292 13.7979 7.2104 13.5258 7.2104 13.1847H6.2104C6.2104 12.9686 6.38565 12.7979 6.59677 12.7979V13.7979ZM6.98227 13.4119C6.98227 13.6276 6.80741 13.7979 6.59677 13.7979V12.7979C6.26014 12.7979 5.98227 13.0703 5.98227 13.4119L6.98227 13.4119ZM6.59677 17.7783C6.80741 17.7783 6.98227 17.9486 6.98227 18.1642L5.98227 18.1642C5.98227 18.5059 6.26014 18.7783 6.59677 18.7783V17.7783ZM7.2104 18.3915C7.2104 18.0503 6.93292 17.7783 6.59677 17.7783V18.7783C6.38565 18.7783 6.2104 18.6076 6.2104 18.3915H7.2104ZM6.59721 19.0047C6.93586 19.0047 7.2104 18.7301 7.2104 18.3915H6.2104C6.2104 18.1779 6.38358 18.0047 6.59721 18.0047V19.0047ZM5.53125 18.391C5.53125 18.7272 5.80327 19.0047 6.14444 19.0047V18.0047C6.36059 18.0047 6.53125 18.1799 6.53125 18.391H5.53125ZM6.14357 17.7783C5.80288 17.7783 5.53125 18.0554 5.53125 18.391H6.53125C6.53125 18.6026 6.3602 18.7783 6.14357 18.7783V17.7783ZM5.75588 18.166C5.75588 17.9519 5.92945 17.7783 6.14357 17.7783V18.7783C6.48174 18.7783 6.75588 18.5042 6.75588 18.166L5.75588 18.166ZM6.14357 13.7979C5.92946 13.7979 5.75588 13.6243 5.75588 13.4102L6.75588 13.4102C6.75588 13.072 6.48174 12.7979 6.14357 12.7979V13.7979ZM5.53125 13.1847C5.53125 13.5178 5.80036 13.7979 6.14357 13.7979V12.7979C6.36271 12.7979 6.53125 12.9756 6.53125 13.1847H5.53125ZM6.14357 12.5715C5.80036 12.5715 5.53125 12.8516 5.53125 13.1847H6.53125C6.53125 13.3937 6.36271 13.5715 6.14357 13.5715V12.5715ZM5.75588 12.9592C5.75588 12.7451 5.92945 12.5715 6.14357 12.5715V13.5715C6.48174 13.5715 6.75588 13.2973 6.75588 12.9592L5.75588 12.9592ZM6.14357 8.58771C5.92945 8.58771 5.75588 8.41414 5.75588 8.20003L6.75588 8.20003C6.75588 7.86186 6.48174 7.58771 6.14357 7.58771L6.14357 8.58771ZM5.53125 7.97496C5.53125 8.31061 5.80288 8.58771 6.14357 8.58771L6.14357 7.58771C6.3602 7.58771 6.53125 7.76337 6.53125 7.97496H5.53125ZM6.59721 8.36133C6.38358 8.36133 6.2104 8.18815 6.2104 7.97452H7.2104C7.2104 7.63586 6.93586 7.36133 6.59721 7.36133V8.36133ZM6.14444 7.36133C5.80327 7.36133 5.53125 7.63883 5.53125 7.97496H6.53125C6.53125 8.18606 6.36059 8.36133 6.14444 8.36133V7.36133Z" fill="#0453F4"/>
<path fill-rule="evenodd" clip-rule="evenodd" d="M18.252 10.6996C18.252 10.6371 18.3026 10.5859 18.3651 10.5859H18.8179C18.8804 10.5859 18.9311 10.6366 18.9311 10.6991V10.6991C18.9311 10.7616 18.88 10.8123 18.8175 10.8123V10.8123C18.7545 10.8123 18.703 10.8634 18.703 10.9264L18.703 18.1747C18.703 18.2377 18.7545 18.2888 18.8175 18.2888V18.2888C18.88 18.2888 18.9311 18.3395 18.9311 18.402V18.402C18.9311 18.4645 18.8804 18.5152 18.8179 18.5152H18.3651C18.3026 18.5152 18.252 18.4641 18.252 18.4015V18.4015C18.252 18.3395 18.3022 18.2888 18.3643 18.2888V18.2888C18.4263 18.2888 18.4766 18.2385 18.4766 18.1765L18.4766 10.9246C18.4766 10.8626 18.4263 10.8123 18.3643 10.8123V10.8123C18.3022 10.8123 18.252 10.7616 18.252 10.6996V10.6996Z" fill="#0453F4"/>
<path d="M18.4766 18.1765L17.9766 18.1765L18.4766 18.1765ZM18.8179 10.0859H18.3651V11.0859H18.8179V10.0859ZM18.203 10.9264L18.203 18.1747L19.203 18.1747L19.203 10.9264L18.203 10.9264ZM18.3651 19.0152H18.8179V18.0152H18.3651V19.0152ZM18.9766 18.1765L18.9766 10.9246L17.9766 10.9246L17.9766 18.1765L18.9766 18.1765ZM18.3643 10.3123C18.5809 10.3123 18.752 10.488 18.752 10.6996H17.752C17.752 11.0352 18.0236 11.3123 18.3643 11.3123L18.3643 10.3123ZM18.9766 10.9246C18.9766 10.5865 18.7024 10.3123 18.3643 10.3123L18.3643 11.3123C18.1502 11.3123 17.9766 11.1387 17.9766 10.9246L18.9766 10.9246ZM18.3643 18.7888C18.7024 18.7888 18.9766 18.5146 18.9766 18.1765L17.9766 18.1765C17.9766 17.9624 18.1502 17.7888 18.3643 17.7888V18.7888ZM18.752 18.4015C18.752 18.6131 18.5809 18.7888 18.3643 18.7888V17.7888C18.0236 17.7888 17.752 18.0659 17.752 18.4015H18.752ZM18.3651 18.0152C18.5813 18.0152 18.752 18.1904 18.752 18.4015H17.752C17.752 18.7377 18.024 19.0152 18.3651 19.0152V18.0152ZM18.4311 18.402C18.4311 18.1884 18.6043 18.0152 18.8179 18.0152V19.0152C19.1566 19.0152 19.4311 18.7406 19.4311 18.402H18.4311ZM18.8175 18.7888C18.6064 18.7888 18.4311 18.6181 18.4311 18.402H19.4311C19.4311 18.0608 19.1536 17.7888 18.8175 17.7888V18.7888ZM18.203 18.1747C18.203 18.5164 18.4808 18.7888 18.8175 18.7888V17.7888C19.0281 17.7888 19.203 17.9591 19.203 18.1747L18.203 18.1747ZM18.8175 10.3123C18.4808 10.3123 18.203 10.5847 18.203 10.9264L19.203 10.9264C19.203 11.142 19.0281 11.3123 18.8175 11.3123L18.8175 10.3123ZM18.4311 10.6991C18.4311 10.483 18.6064 10.3123 18.8175 10.3123L18.8175 11.3123C19.1536 11.3123 19.4311 11.0403 19.4311 10.6991H18.4311ZM18.3651 10.0859C18.024 10.0859 17.752 10.3634 17.752 10.6996H18.752C18.752 10.9107 18.5813 11.0859 18.3651 11.0859V10.0859ZM18.8179 11.0859C18.6043 11.0859 18.4311 10.9128 18.4311 10.6991H19.4311C19.4311 10.3605 19.1566 10.0859 18.8179 10.0859V11.0859Z" fill="#0453F4"/>
<path fill-rule="evenodd" clip-rule="evenodd" d="M8.31421 18.9663C8.25111 18.9663 8.19995 19.0174 8.19995 19.0805L8.19995 19.0977C8.19995 19.1513 8.1565 19.1948 8.10291 19.1948V19.1948C8.04931 19.1948 8.00586 19.1513 8.00586 19.0977V18.6127C8.00586 18.5591 8.04931 18.5156 8.10291 18.5156V18.5156C8.1565 18.5156 8.19995 18.5591 8.19995 18.6127L8.19995 18.6278C8.19995 18.6897 8.25015 18.7399 8.31208 18.7399H16.6298C16.6917 18.7399 16.7419 18.6897 16.7419 18.6278V18.6127C16.7419 18.5591 16.7854 18.5156 16.839 18.5156V18.5156C16.8926 18.5156 16.936 18.5591 16.936 18.6127V19.0977C16.936 19.1513 16.8926 19.1948 16.839 19.1948V19.1948C16.7854 19.1948 16.7419 19.1513 16.7419 19.0977V19.0805C16.7419 19.0174 16.6908 18.9663 16.6277 18.9663H8.31421Z" fill="#0453F4"/>
<path d="M8.19995 19.0805L7.69995 19.0805L8.19995 19.0805ZM8.69995 19.0977L8.69995 19.0805L7.69995 19.0805L7.69995 19.0977L8.69995 19.0977ZM7.50586 18.6127V19.0977H8.50586V18.6127H7.50586ZM8.69995 18.6278L8.69995 18.6127L7.69995 18.6127L7.69995 18.6278L8.69995 18.6278ZM8.31208 19.2399H16.6298V18.2399H8.31208V19.2399ZM16.2419 18.6127V18.6278H17.2419V18.6127H16.2419ZM17.436 19.0977V18.6127H16.436V19.0977H17.436ZM16.2419 19.0805V19.0977H17.2419V19.0805H16.2419ZM16.6277 18.4663H8.31421V19.4663H16.6277V18.4663ZM17.2419 19.0805C17.2419 18.7413 16.9669 18.4663 16.6277 18.4663V19.4663C16.4146 19.4663 16.2419 19.2936 16.2419 19.0805H17.2419ZM16.839 18.6948C17.0615 18.6948 17.2419 18.8752 17.2419 19.0977H16.2419C16.2419 19.4275 16.5092 19.6948 16.839 19.6948V18.6948ZM16.436 19.0977C16.436 18.8752 16.6164 18.6948 16.839 18.6948V19.6948C17.1687 19.6948 17.436 19.4275 17.436 19.0977H16.436ZM16.839 19.0156C16.6164 19.0156 16.436 18.8352 16.436 18.6127H17.436C17.436 18.2829 17.1687 18.0156 16.839 18.0156V19.0156ZM17.2419 18.6127C17.2419 18.8352 17.0615 19.0156 16.839 19.0156V18.0156C16.5092 18.0156 16.2419 18.2829 16.2419 18.6127H17.2419ZM16.6298 19.2399C16.9679 19.2399 17.2419 18.9658 17.2419 18.6278H16.2419C16.2419 18.4135 16.4156 18.2399 16.6298 18.2399V19.2399ZM7.69995 18.6278C7.69995 18.9658 7.97401 19.2399 8.31208 19.2399V18.2399C8.52629 18.2399 8.69995 18.4135 8.69995 18.6278L7.69995 18.6278ZM8.10291 19.0156C7.88036 19.0156 7.69995 18.8352 7.69995 18.6127L8.69995 18.6127C8.69995 18.2829 8.43264 18.0156 8.10291 18.0156V19.0156ZM8.50586 18.6127C8.50586 18.8352 8.32545 19.0156 8.10291 19.0156V18.0156C7.77317 18.0156 7.50586 18.2829 7.50586 18.6127H8.50586ZM8.10291 18.6948C8.32545 18.6948 8.50586 18.8752 8.50586 19.0977H7.50586C7.50586 19.4275 7.77317 19.6948 8.10291 19.6948V18.6948ZM8.69995 19.0805C8.69995 19.2936 8.52725 19.4663 8.31421 19.4663V18.4663C7.97496 18.4663 7.69995 18.7413 7.69995 19.0805L8.69995 19.0805ZM7.69995 19.0977C7.69995 18.8752 7.88036 18.6948 8.10291 18.6948V19.6948C8.43265 19.6948 8.69995 19.4275 8.69995 19.0977L7.69995 19.0977Z" fill="#0453F4"/>
<path d="M0.380859 3.12323C0.380859 1.90962 1.36469 0.925781 2.57831 0.925781V18.5054C1.77788 18.3453 0.974728 18.7678 0.653178 19.5181L0.380859 20.1535V3.12323Z" fill="#DAE5FE"/>
<path d="M24.2814 20.0159V18.2305H22.084V21.5266L24.2814 20.4279V20.0159Z" fill="#C5D7FD"/>
<path d="M22.084 3.12323C22.084 1.90961 23.0678 0.925781 24.2814 0.925781L-nan -nanL24.2814 0.925781C25.4951 0.925781 26.4789 1.90961 26.4789 3.12323V20.7028L-nan -nanL26.4789 20.7028C26.0838 18.1989 22.479 18.1989 22.084 20.7028L-nan -nanL22.084 20.7028V3.12323Z" fill="#DAE5FE"/>
<path d="M26.4753 20.7028V3.12323C26.4753 1.90961 25.4915 0.925781 24.2779 0.925781C24.0882 0.925781 23.9041 0.949817 23.7285 0.99501V18.889C24.8808 18.6149 26.2413 19.2195 26.4753 20.7028Z" fill="#C5D7FD"/>
<path d="M25.6548 21.3916C25.6548 22.226 24.917 22.9024 24.0068 22.9024C23.0965 22.9024 22.084 22.226 22.084 21.3916C22.084 20.5572 23.0965 19.8809 24.0068 19.8809C24.917 19.8809 25.6548 20.5572 25.6548 21.3916Z" fill="#C5D7FD"/>
</svg>
