<svg width="68" height="68" viewBox="0 0 68 68" fill="none" xmlns="http://www.w3.org/2000/svg">
<path d="M37.4992 16.8379L67.3916 36.8923L30.6883 67.5414L0.795898 43.3248L37.4992 16.8379Z" fill="#A6BDDC"/>
<path d="M37.4992 8.89062L67.3916 28.945L30.6883 59.5942L0.795898 35.3776L37.4992 8.89062Z" fill="#CADBF7"/>
<path d="M37.4992 0.945312L67.3916 20.9997L30.6883 51.6489L0.795898 27.4322L37.4992 0.945312Z" fill="white"/>
<path fill-rule="evenodd" clip-rule="evenodd" d="M53.3916 20.2431L53.3916 24.7837L37.8778 29.7027L37.8778 25.1621L32.7696 26.6756L24.256 29.3243L24.256 24.9098L17.4451 26.6756L17.4451 22.135L27.6614 19.4863L27.6614 23.7242L41.2833 19.4863L41.2833 24.0823L53.3916 20.2431Z" fill="#1CCA68"/>
</svg>
