<svg width="85" height="63" viewBox="0 0 85 63" fill="none" xmlns="http://www.w3.org/2000/svg">
<path d="M84.333 5.32812C84.333 2.5667 82.0944 0.328125 79.333 0.328125H37.1112C34.3498 0.328125 32.1112 2.5667 32.1112 5.32812V33.3755C32.1112 36.1369 34.3498 38.3755 37.1112 38.3755H62.0189C63.404 38.3755 64.7271 38.95 65.6726 39.9622L73.903 48.7721C75.1506 50.1076 77.3883 49.2079 77.3642 47.3805L77.2927 41.9421C77.2669 39.9799 78.8504 38.3755 80.8127 38.3755C82.7569 38.3755 84.333 36.7994 84.333 34.8551V5.32812Z" fill="url(#paint0_linear_3417_7160)"/>
<g filter="url(#filter0_d_3417_7160)">
<path d="M68.405 5.07031H43.3418C40.5804 5.07031 38.3418 7.30889 38.3418 10.0703V37.1494C38.3418 38.7975 39.6778 40.1335 41.3259 40.1335H68.405C71.1664 40.1335 73.405 37.895 73.405 35.1335V10.0703C73.405 7.30889 71.1664 5.07031 68.405 5.07031Z" fill="#D9D9D9"/>
</g>
<path d="M21.1836 10.0703C21.1836 7.30888 23.4222 5.07031 26.1836 5.07031H68.4054C71.1668 5.07031 73.4054 7.30889 73.4054 10.0703V38.1176C73.4054 40.8791 71.1668 43.1176 68.4054 43.1176H44.9845C43.6025 43.1176 42.2821 43.6897 41.3368 44.6979L32.1084 54.5416C30.8932 55.8378 28.7173 55.0241 28.6508 53.2486L28.4011 46.5924C28.3284 44.6526 26.7348 43.1176 24.7936 43.1176C22.7999 43.1176 21.1836 41.5014 21.1836 39.5076V10.0703Z" fill="#90A3D5"/>
<path d="M19.6914 11.5625C19.6914 8.80107 21.93 6.5625 24.6914 6.5625H66.9132C69.6747 6.5625 71.9132 8.80108 71.9132 11.5625V39.6098C71.9132 42.3713 69.6747 44.6098 66.9132 44.6098H42.0055C40.6204 44.6098 39.2973 45.1844 38.3518 46.1965L30.1215 55.0065C28.8738 56.342 26.6361 55.4423 26.6602 53.6148L26.7317 48.1765C26.7575 46.2143 25.174 44.6098 23.2117 44.6098C21.2675 44.6098 19.6914 43.0337 19.6914 41.0895V11.5625Z" fill="white"/>
<line x1="26.4141" y1="13.9609" x2="66.6836" y2="13.9609" stroke="#C1CEEC" stroke-width="3" stroke-linecap="round"/>
<line x1="48.7949" y1="20.7266" x2="66.6837" y2="20.7266" stroke="#C1CEEC" stroke-width="3" stroke-linecap="round"/>
<line x1="48.7949" y1="27.3906" x2="66.6837" y2="27.3906" stroke="#C1CEEC" stroke-width="3" stroke-linecap="round"/>
<line x1="48.7949" y1="34.1094" x2="66.6837" y2="34.1094" stroke="#C1CEEC" stroke-width="3" stroke-linecap="round"/>
<g filter="url(#filter1_d_3417_7160)">
<path fill-rule="evenodd" clip-rule="evenodd" d="M31.133 24.11C30.3606 22.6133 28.0935 23.2206 28.1732 24.9029C28.23 26.1014 26.9741 26.9166 25.9021 26.3774C24.3976 25.6205 22.9202 27.4439 23.9736 28.7579C24.7242 29.6941 24.1875 31.0919 23.0034 31.2855C21.3415 31.5572 21.2184 33.9007 22.8429 34.3447C24.0004 34.661 24.388 36.1072 23.5438 36.9597C22.359 38.1562 23.6376 40.1242 25.2127 39.5288C26.3351 39.1046 27.4989 40.0469 27.3172 41.2328C27.0621 42.8973 29.2534 43.7379 30.1778 42.3304C30.8365 41.3276 32.3319 41.4058 32.8821 42.4721C33.6545 43.9688 35.9216 43.3615 35.8419 41.6793C35.7851 40.4807 37.041 39.6655 38.113 40.2048C39.6175 40.9616 41.0949 39.1382 40.0415 37.8243C39.2909 36.888 39.8276 35.4902 41.0117 35.2966C42.6736 35.0249 42.7967 32.6814 41.1722 32.2375C40.0147 31.9211 39.6271 30.4749 40.4713 29.6224C40.7426 29.3485 40.8847 29.0341 40.9237 28.7193L41.4718 28.1714C42.1012 27.5421 42.1012 26.522 41.4718 25.8927C40.8424 25.2635 39.8219 25.2635 39.1925 25.8927L37.9556 27.1293C37.1724 26.9792 36.5627 26.2317 36.698 25.3493C36.9531 23.6848 34.7617 22.8442 33.8373 24.2517C33.1786 25.2546 31.6832 25.1763 31.133 24.11Z" fill="white"/>
</g>
<path d="M23.7429 21.0491C23.6255 18.5716 26.9644 17.6772 28.1019 19.8814C28.9123 21.4519 31.1147 21.5671 32.0847 20.0901C33.4461 18.0173 36.6735 19.2553 36.2978 21.7066C36.0301 23.4533 37.7441 24.841 39.397 24.2162C41.7168 23.3394 43.5999 26.2377 41.855 27.9998C40.6117 29.2554 41.1826 31.3853 42.8873 31.8512C45.2797 32.505 45.0984 35.9564 42.6509 36.3566C40.9069 36.6418 40.1166 38.7004 41.222 40.0792C42.7733 42.0143 40.5975 44.6997 38.3818 43.5851C36.8031 42.7909 34.9534 43.9915 35.037 45.7567C35.1543 48.2342 31.8155 49.1286 30.678 46.9244C29.8676 45.3539 27.6652 45.2387 26.6952 46.7157C25.3338 48.7885 22.1064 47.5505 22.4821 45.0992C22.7498 43.3525 21.0358 41.9648 19.3829 42.5896C17.0631 43.4664 15.18 40.5681 16.9249 38.806C18.1682 37.5504 17.5973 35.4205 15.8926 34.9546C13.5002 34.3008 13.6815 30.8494 16.129 30.4492C17.873 30.164 18.6633 28.1054 17.5579 26.7266C16.0065 24.7915 18.1824 22.1061 20.398 23.2207C21.9768 24.0149 23.8265 22.8143 23.7429 21.0491Z" fill="white"/>
<path d="M41.5746 36.6461L42.6526 36.4698C45.1001 36.0696 45.2806 32.6184 42.8882 31.9646C41.1835 31.4987 40.6126 29.3688 41.856 28.1132C43.6008 26.3511 41.7177 23.4527 39.398 24.3296C37.745 24.9544 36.031 23.5666 36.2987 21.82C36.6744 19.3686 33.447 18.1306 32.0856 20.2035C31.1156 21.6805 28.9132 21.5653 28.1028 19.9948C26.9653 17.7905 23.6265 18.6849 23.7438 21.1625C23.8274 22.9276 21.9778 24.1283 20.399 23.3341C18.1833 22.2194 16.0075 24.9048 17.5588 26.84C18.6642 28.2188 17.8742 30.2773 16.1302 30.5625C13.6824 30.9627 13.5019 34.4144 15.8946 35.0682L16.9848 35.3662C18.4427 35.7646 19.4842 37.5461 20.5026 38.6628C22.2638 40.5939 26.1305 42.2109 28.1245 42.3344C31.2434 42.5276 35.7431 41.4225 37.7697 39.6251C38.9096 38.614 40.0708 36.892 41.5746 36.6461Z" fill="#B7C3E1"/>
<path d="M24.2424 21.0255C24.1504 19.0844 26.7663 18.3837 27.6575 20.1107C28.6435 22.0213 31.3227 22.1613 32.5027 20.3646C33.5698 18.7398 36.0977 19.7113 35.8035 21.6308C35.4778 23.7558 37.5631 25.444 39.5739 24.6839C41.3918 23.9967 42.8663 26.268 41.4997 27.648C39.9871 29.1755 40.6816 31.7667 42.7555 32.3335C44.6292 32.8456 44.4882 35.5495 42.5701 35.8632C40.4486 36.2101 39.487 38.7144 40.8319 40.3919C42.0467 41.9072 40.3433 44.0121 38.6065 43.1385C36.6861 42.1723 34.4358 43.6328 34.5375 45.7803C34.6295 47.7214 32.0135 48.4222 31.1223 46.6951C30.1364 44.7845 27.4572 44.6445 26.2772 46.4412C25.2101 48.066 22.6822 47.0945 22.9764 45.175C23.3021 43.05 21.2168 41.3618 19.206 42.1219C17.3881 42.8091 15.9136 40.5378 17.2802 39.1578C18.7928 37.6303 18.0983 35.0391 16.0244 34.4723C14.1507 33.9602 14.2917 31.2563 16.2097 30.9426C18.3313 30.5957 19.2928 28.0914 17.948 26.4139C16.7332 24.8986 18.4366 22.7937 20.1734 23.6674C22.0938 24.6335 24.3441 23.173 24.2424 21.0255Z" stroke="#465E9B"/>
<path fill-rule="evenodd" clip-rule="evenodd" d="M43.328 22.5778C44.2549 23.5045 44.2549 25.007 43.328 25.9337L30.435 38.8233C29.508 39.75 28.0051 39.75 27.0782 38.8233L21.0614 32.8082C20.1345 31.8815 20.1345 30.379 21.0614 29.4523C21.9884 28.5256 23.4913 28.5256 24.4182 29.4523L28.7566 33.7895L39.9712 22.5778C40.8981 21.6511 42.401 21.6511 43.328 22.5778Z" fill="white" stroke="#465E9B" stroke-linecap="round" stroke-linejoin="round"/>
<defs>
<filter id="filter0_d_3417_7160" x="35.3418" y="4.07031" width="43.0635" height="43.0625" filterUnits="userSpaceOnUse" color-interpolation-filters="sRGB">
<feFlood flood-opacity="0" result="BackgroundImageFix"/>
<feColorMatrix in="SourceAlpha" type="matrix" values="0 0 0 0 0 0 0 0 0 0 0 0 0 0 0 0 0 0 127 0" result="hardAlpha"/>
<feOffset dx="1" dy="3"/>
<feGaussianBlur stdDeviation="2"/>
<feComposite in2="hardAlpha" operator="out"/>
<feColorMatrix type="matrix" values="0 0 0 0 0.423529 0 0 0 0 0.52549 0 0 0 0 0.784314 0 0 0 1 0"/>
<feBlend mode="normal" in2="BackgroundImageFix" result="effect1_dropShadow_3417_7160"/>
<feBlend mode="normal" in="SourceGraphic" in2="effect1_dropShadow_3417_7160" result="shape"/>
</filter>
<filter id="filter1_d_3417_7160" x="20.4085" y="22.9778" width="31.1977" height="30.6303" filterUnits="userSpaceOnUse" color-interpolation-filters="sRGB">
<feFlood flood-opacity="0" result="BackgroundImageFix"/>
<feColorMatrix in="SourceAlpha" type="matrix" values="0 0 0 0 0 0 0 0 0 0 0 0 0 0 0 0 0 0 127 0" result="hardAlpha"/>
<feOffset dx="4" dy="5"/>
<feGaussianBlur stdDeviation="2.64"/>
<feComposite in2="hardAlpha" operator="out"/>
<feColorMatrix type="matrix" values="0 0 0 0 0.423529 0 0 0 0 0.52549 0 0 0 0 0.784314 0 0 0 0.5 0"/>
<feBlend mode="normal" in2="BackgroundImageFix" result="effect1_dropShadow_3417_7160"/>
<feBlend mode="normal" in="SourceGraphic" in2="effect1_dropShadow_3417_7160" result="shape"/>
</filter>
<linearGradient id="paint0_linear_3417_7160" x1="63.9071" y1="0.328126" x2="122.443" y2="79.7895" gradientUnits="userSpaceOnUse">
<stop stop-color="#C1D4EC"/>
<stop offset="1" stop-color="#67B4A2"/>
</linearGradient>
</defs>
</svg>
