<svg width="30" height="28" viewBox="0 0 30 28" fill="none" xmlns="http://www.w3.org/2000/svg">
<path d="M14.5344 13.6336H19.4848L19.5982 13.6463C20.2096 13.7148 20.751 14.0721 21.0544 14.6073L21.4167 14.2422L24.9679 10.8414C25.7129 10.128 26.8559 10.0341 27.7073 10.6165C28.7469 11.3276 28.9696 12.7692 28.1929 13.7609L22.9316 20.4787C22.585 20.9212 22.0556 21.1796 21.4936 21.1796H13.8099C12.6508 21.1796 11.8781 21.8288 11.6366 22.1533L7.29708 26.332L1.07031 19.9727L5.59948 16.0678C8.11091 11.4915 12.6025 12.5382 14.5344 13.6336Z" fill="#0453F4" fill-opacity="0.1"/>
<path d="M4.20347 15.5811L0.374023 19.4106L8.07853 27.1151L11.908 23.2856C12.2451 22.9485 12.2451 22.4019 11.908 22.0648L5.42434 15.5811C5.08721 15.244 4.54061 15.244 4.20347 15.5811Z" fill="#0453F4" fill-opacity="0.15"/>
<circle cx="16.8838" cy="3.3066" r="2.5693" fill="#0453F4"/>
<path d="M21.8526 10.1981C21.8526 11.7001 19.6287 11.7001 16.8853 11.7001C14.1419 11.7001 11.918 11.7001 11.918 10.1981C11.918 8.18966 14.1419 6.56152 16.8853 6.56152C19.6286 6.56152 21.8526 8.18966 21.8526 10.1981Z" fill="#0453F4"/>
</svg>
