<svg width="40" height="40" viewBox="0 0 40 40" fill="none" xmlns="http://www.w3.org/2000/svg">
<circle cx="20" cy="20.001" r="19.6064" fill="#FFFFFF"/>
<path d="M13.0127 13C13.0127 12.4477 13.4604 12 14.0127 12H22.2759L24.3811 14.1053L26.4864 16.2105V27C26.4864 27.5523 26.0387 28 25.4864 28H14.0127C13.4604 28 13.0127 27.5523 13.0127 27V13Z" fill="#6590E6"/>
<path d="M26.4869 16.2105L22.2764 12V15.7105C22.2764 15.9867 22.5002 16.2105 22.7764 16.2105H26.4869Z" fill="#2461DB"/>
<path d="M18.1827 23.1503C17.8911 23.1503 17.6348 22.9567 17.5553 22.676L16.6833 19.6014C16.5977 19.2998 16.8243 19 17.1379 19C17.3545 19 17.5433 19.1473 17.5961 19.3574L18.2401 21.9197H18.2783L18.8981 19.4787C18.9696 19.1972 19.2231 19 19.5136 19C19.8033 19 20.0562 19.196 20.1286 19.4765L20.7547 21.9045H20.793L21.4296 19.3577C21.4822 19.1475 21.6711 19 21.8878 19C22.2012 19 22.4277 19.2997 22.3422 19.6012L21.4701 22.676C21.3905 22.9567 21.1343 23.1503 20.8427 23.1503H20.8151C20.522 23.1503 20.2649 22.9548 20.1866 22.6723L19.5394 20.3376H19.4859L18.8388 22.6723C18.7605 22.9548 18.5034 23.1503 18.2103 23.1503H18.1827Z" fill="white"/>
</svg>
