<svg width="30" height="28" viewBox="0 0 30 28" fill="none" xmlns="http://www.w3.org/2000/svg">
<path d="M3.03502 2.8291L5.53502 0.329102H10.7136H21.0707V27.8291H0.356445V14.0791V7.2041V5.48535L3.03502 2.8291Z" fill="#0453F4" fill-opacity="0.1"/>
<path d="M14.7021 22.6873L19.1073 22.6719L15.416 18.3403L14.7021 22.6873Z" fill="#0453F4" fill-opacity="0.1"/>
<rect x="25.6514" y="9.61523" width="5.69104" height="13.4516" transform="rotate(49.5638 25.6514 9.61523)" fill="#0453F4" fill-opacity="0.15"/>
<path d="M5.53516 5.50781H0.356585L5.53516 0.329241V5.50781Z" fill="#0453F4" fill-opacity="0.2"/>
<path fill-rule="evenodd" clip-rule="evenodd" d="M2.67773 8.54353C2.67773 8.24766 2.91758 8.00781 3.21345 8.00781H18.2134C18.5093 8.00781 18.7492 8.24766 18.7492 8.54353C18.7492 8.83939 18.5093 9.07924 18.2134 9.07924H3.21345C2.91758 9.07924 2.67773 8.83939 2.67773 8.54353Z" fill="#0453F4"/>
<path fill-rule="evenodd" clip-rule="evenodd" d="M2.67773 12.1148C2.67773 11.8189 2.91758 11.5791 3.21345 11.5791H5.71345C6.00932 11.5791 6.24916 11.8189 6.24916 12.1148C6.24916 12.4107 6.00932 12.6505 5.71345 12.6505H3.21345C2.91758 12.6505 2.67773 12.4107 2.67773 12.1148Z" fill="#0453F4"/>
<path fill-rule="evenodd" clip-rule="evenodd" d="M7.32031 12.1148C7.32031 11.8189 7.56016 11.5791 7.85603 11.5791H18.2132C18.509 11.5791 18.7489 11.8189 18.7489 12.1148C18.7489 12.4107 18.509 12.6505 18.2132 12.6505H7.85603C7.56016 12.6505 7.32031 12.4107 7.32031 12.1148Z" fill="#0453F4"/>
<path fill-rule="evenodd" clip-rule="evenodd" d="M10.5352 15.6861C10.5352 15.3902 10.775 15.1504 11.0709 15.1504H16.6066C16.9025 15.1504 17.1423 15.3902 17.1423 15.6861C17.1423 15.982 16.9025 16.2218 16.6066 16.2218H11.0709C10.775 16.2218 10.5352 15.982 10.5352 15.6861Z" fill="#0453F4"/>
<path fill-rule="evenodd" clip-rule="evenodd" d="M2.67773 15.6861C2.67773 15.3902 2.91758 15.1504 3.21345 15.1504L8.57059 15.1504C8.86646 15.1504 9.10631 15.3902 9.10631 15.6861C9.10631 15.982 8.86646 16.2218 8.57059 16.2218L3.21345 16.2218C2.91758 16.2218 2.67773 15.982 2.67773 15.6861Z" fill="#0453F4"/>
<path fill-rule="evenodd" clip-rule="evenodd" d="M2.67773 19.2574C2.67773 18.9615 2.91758 18.7217 3.21345 18.7217H10.3563C10.6522 18.7217 10.892 18.9615 10.892 19.2574C10.892 19.5533 10.6522 19.7931 10.3563 19.7931H3.21345C2.91758 19.7931 2.67773 19.5533 2.67773 19.2574Z" fill="#0453F4"/>
<path fill-rule="evenodd" clip-rule="evenodd" d="M2.67773 22.8297C2.67773 22.5338 2.91758 22.2939 3.21345 22.2939H14.2849C14.5807 22.2939 14.8206 22.5338 14.8206 22.8297C14.8206 23.1255 14.5807 23.3654 14.2849 23.3654H3.21345C2.91758 23.3654 2.67773 23.1255 2.67773 22.8297Z" fill="#0453F4"/>
</svg>
