<svg width="48" height="39" viewBox="0 0 48 39" fill="none" xmlns="http://www.w3.org/2000/svg">
<path fill-rule="evenodd" clip-rule="evenodd" d="M0.452637 21.1352C0.452637 18.2633 2.78076 15.9352 5.65264 15.9352H15.4026V10.0852C15.4026 9.36719 15.9847 8.78516 16.7026 8.78516C17.4206 8.78516 18.0026 9.36719 18.0026 10.0852V15.9352H27.7526C30.6245 15.9352 32.9526 18.2633 32.9526 21.1352V32.8351C32.9526 35.707 30.6245 38.0352 27.7526 38.0352H5.65264C2.78076 38.0352 0.452637 35.707 0.452637 32.8352V21.1352ZM9.55264 23.0852C9.55264 22.3672 10.1347 21.7852 10.8526 21.7852C11.5706 21.7852 12.1526 22.3672 12.1526 23.0852V26.9852C12.1526 27.7031 11.5706 28.2852 10.8526 28.2852C10.1347 28.2852 9.55264 27.7031 9.55264 26.9852V23.0852ZM22.5526 21.7852C21.8347 21.7852 21.2526 22.3672 21.2526 23.0852V26.9852C21.2526 27.7031 21.8347 28.2852 22.5526 28.2852C23.2706 28.2852 23.8526 27.7031 23.8526 26.9852V23.0852C23.8526 22.3672 23.2706 21.7852 22.5526 21.7852Z" fill="#226FFF"/>
<path d="M32.3469 6.10967C30.737 4.91093 28.4191 6.31781 28.8194 8.35212L29.3603 11.0963L29.4028 11.3514C29.4902 11.9866 29.4403 12.6332 29.2566 13.2476L29.2484 13.2747C29.0329 13.9791 29.4892 14.9127 30.2257 14.9127C32.4495 14.9127 34.2523 16.7154 34.2523 18.9393L34.2523 19.8983C34.2523 20.2989 34.4843 20.6568 34.8118 20.8875C34.9394 20.9774 35.0626 21.0741 35.1806 21.1772L37.2861 23.0168L37.436 23.1374C39.0444 24.3357 41.3623 22.9288 40.962 20.8945L40.421 18.1504L40.3786 17.8953C40.2912 17.2599 40.3412 16.6131 40.5251 15.9987C40.709 15.3842 41.0225 14.8163 41.4446 14.3334L43.2836 12.227L43.4053 12.079C44.6031 10.4696 43.1962 8.15169 41.1619 8.55206L38.4187 9.09242L38.1626 9.13542C37.5274 9.22283 36.8808 9.17299 36.2664 8.98926C35.6521 8.80553 35.0843 8.49219 34.6013 8.07037L32.4949 6.23139L32.3469 6.10967Z" fill="#E6EEFE"/>
</svg>
