<svg width="44" height="27" viewBox="0 0 44 27" fill="none" xmlns="http://www.w3.org/2000/svg">
<path fill-rule="evenodd" clip-rule="evenodd" d="M15.2183 13.497C18.8736 13.497 21.8369 10.5337 21.8369 6.87839C21.8369 3.22302 18.8736 0.259766 15.2183 0.259766C11.5629 0.259766 8.59965 3.22302 8.59965 6.87839C8.59965 10.5337 11.5629 13.497 15.2183 13.497ZM15.2194 15.5531C8.03261 15.5531 1.96056 20.3258 -0.00012207 26.8746H30.4389C28.4782 20.3258 22.4062 15.5531 15.2194 15.5531Z" fill="#226FFF"/>
<path fill-rule="evenodd" clip-rule="evenodd" d="M21.7828 0.308594C21.1315 0.308594 20.8683 1.1478 21.403 1.51974C25.6719 4.48945 25.0349 10.9892 20.2706 13.0736L19.7432 13.3043C18.7051 13.7585 19.0294 15.3086 20.1625 15.3086H28.1604L28.1583 19.4274C28.158 19.895 28.7427 20.107 29.0422 19.7479L32.7449 15.3086H33.6619H35.6619C39.8041 15.3086 43.1619 11.9507 43.1619 7.80859C43.1619 3.66646 39.8041 0.308594 35.6619 0.308594H21.7828Z" fill="#E6EEFE"/>
</svg>
