<svg width="11" height="17" viewBox="0 0 11 17" fill="none" xmlns="http://www.w3.org/2000/svg">
<path d="M2.36719 3.18746C2.36719 2.3421 2.70301 1.53135 3.30077 0.933586C3.89854 0.335821 4.70928 0 5.55465 0C6.40002 0 7.21076 0.335821 7.80853 0.933586C8.40629 1.53135 8.74211 2.3421 8.74211 3.18746V8.4999C8.74211 9.34527 8.40629 10.156 7.80853 10.7538C7.21076 11.3515 6.40002 11.6874 5.55465 11.6874C4.70928 11.6874 3.89854 11.3515 3.30077 10.7538C2.70301 10.156 2.36719 9.34527 2.36719 8.4999V3.18746Z" fill="#0453F4"/>
<path d="M0.773431 6.90625C0.914326 6.90625 1.04945 6.96222 1.14908 7.06185C1.24871 7.16148 1.30468 7.2966 1.30468 7.43749V8.49998C1.30468 9.62714 1.75244 10.7081 2.54946 11.5052C3.34648 12.3022 4.42747 12.7499 5.55463 12.7499C6.68178 12.7499 7.76278 12.3022 8.5598 11.5052C9.35682 10.7081 9.80458 9.62714 9.80458 8.49998V7.43749C9.80458 7.2966 9.86055 7.16148 9.96018 7.06185C10.0598 6.96222 10.1949 6.90625 10.3358 6.90625C10.4767 6.90625 10.6118 6.96222 10.7115 7.06185C10.8111 7.16148 10.8671 7.2966 10.8671 7.43749V8.49998C10.8671 9.81697 10.3779 11.087 9.49446 12.0637C8.61101 13.0404 7.39625 13.6542 6.08587 13.7859V15.9374H9.27333C9.41423 15.9374 9.54935 15.9934 9.64898 16.093C9.74861 16.1926 9.80458 16.3277 9.80458 16.4686C9.80458 16.6095 9.74861 16.7447 9.64898 16.8443C9.54935 16.9439 9.41423 16.9999 9.27333 16.9999H1.83592C1.69502 16.9999 1.5599 16.9439 1.46027 16.8443C1.36065 16.7447 1.30468 16.6095 1.30468 16.4686C1.30468 16.3277 1.36065 16.1926 1.46027 16.093C1.5599 15.9934 1.69502 15.9374 1.83592 15.9374H5.02338V13.7859C3.713 13.6542 2.49825 13.0404 1.61479 12.0637C0.73134 11.087 0.242171 9.81697 0.242188 8.49998V7.43749C0.242188 7.2966 0.298158 7.16148 0.397785 7.06185C0.497413 6.96222 0.632537 6.90625 0.773431 6.90625Z" fill="#0453F4"/>
</svg>
