<svg xmlns="http://www.w3.org/2000/svg" width="80" height="80" viewBox="0 0 80 80" fill="none">
  <rect width="80" height="80" rx="40" fill="#226FFF" fill-opacity="0.1"/>
  <path d="M34.6654 40.0026C34.6654 42.8316 33.5416 45.5447 31.5412 47.5451C29.5408 49.5455 26.8277 50.6693 23.9987 50.6693C21.1697 50.6693 18.4566 49.5455 16.4562 47.5451C14.4558 45.5447 13.332 42.8316 13.332 40.0026C13.332 37.1736 14.4558 34.4605 16.4562 32.4601C18.4566 30.4597 21.1697 29.3359 23.9987 29.3359C26.8277 29.3359 29.5408 30.4597 31.5412 32.4601C33.5416 34.4605 34.6654 37.1736 34.6654 40.0026ZM34.6654 40.0026H66.6654V48.0026M55.9987 40.0026V48.0026" stroke="#226FFF" stroke-width="4" stroke-linecap="round" stroke-linejoin="round"/>
</svg>