<svg xmlns="http://www.w3.org/2000/svg" width="16" height="17" viewBox="0 0 16 17" fill="none">
  <path d="M4.88867 6.94491V4.61138C4.88867 3.78619 5.21645 2.9948 5.7999 2.4113C6.38334 1.8278 7.17467 1.5 7.99978 1.5C8.8249 1.5 9.61623 1.8278 10.1997 2.4113C10.7831 2.9948 11.1109 3.78619 11.1109 4.61138V6.94491" stroke="#666666" stroke-linecap="round"/>
  <path d="M2.55566 6.94336H13.4446V13.944C13.4446 14.3566 13.2807 14.7523 12.9889 15.044C12.6972 15.3357 12.3016 15.4997 11.889 15.4997H4.11122C3.69866 15.4997 3.303 15.3357 3.01128 15.044C2.71955 14.7523 2.55566 14.3566 2.55566 13.944V6.94336Z" stroke="#666666" stroke-linejoin="round"/>
  <path d="M9.94531 11.2207H9.95198V11.2274H9.94531V11.2207Z" stroke="#666666" stroke-width="1.75008" stroke-linejoin="round"/>
</svg>