<svg width="48" height="50" viewBox="0 0 48 50" fill="none" xmlns="http://www.w3.org/2000/svg">
<rect x="8" width="32" height="33.6" rx="6.09524" fill="#226FFF"/>
<path fill-rule="evenodd" clip-rule="evenodd" d="M22.259 10.8621C22.8113 10.7003 23.3957 10.6136 24.0004 10.6136C27.4166 10.6136 30.186 13.383 30.186 16.7992C30.186 20.2154 27.4166 22.9848 24.0004 22.9848C20.5841 22.9848 17.8147 20.2154 17.8147 16.7992C17.8147 15.8864 18.0124 15.0198 18.3674 14.2399C18.8213 15.0231 19.6686 15.5498 20.639 15.5498C22.088 15.5498 23.2627 14.3751 23.2627 12.9261C23.2627 12.0884 22.8702 11.3424 22.259 10.8621ZM24.0004 7.33008C18.7707 7.33008 14.5312 11.5695 14.5312 16.7992C14.5312 22.0289 18.7707 26.2683 24.0004 26.2683C29.23 26.2683 33.4695 22.0289 33.4695 16.7992C33.4695 11.5695 29.23 7.33008 24.0004 7.33008Z" fill="white"/>
<path d="M27.9496 19.0744C27.9496 19.9644 27.2281 20.6859 26.3381 20.6859C25.4481 20.6859 24.7266 19.9644 24.7266 19.0744C24.7266 18.1844 25.4481 17.4629 26.3381 17.4629C27.2281 17.4629 27.9496 18.1844 27.9496 19.0744Z" fill="white" fill-opacity="0.2"/>
<path d="M41.9135 49.1642C41.8551 49.1642 41.8064 49.1435 41.7674 49.1021C41.7285 49.0538 41.709 49.0021 41.709 48.9469C41.709 48.9262 41.7122 48.9055 41.7187 48.8848C41.7252 48.8641 41.7317 48.8434 41.7382 48.8227L43.8903 45.4701L41.8843 42.2624C41.8648 42.221 41.8551 42.1796 41.8551 42.1382C41.8551 42.083 41.8745 42.0347 41.9135 41.9933C41.9524 41.945 42.0011 41.9209 42.0595 41.9209H43.2573C43.3417 41.9209 43.4066 41.945 43.4521 41.9933C43.504 42.0416 43.543 42.0865 43.5689 42.1279L44.8738 44.187L46.1884 42.1279C46.2144 42.0865 46.2533 42.0416 46.3053 41.9933C46.3572 41.945 46.4254 41.9209 46.5098 41.9209H47.6491C47.701 41.9209 47.7465 41.945 47.7854 41.9933C47.8309 42.0347 47.8536 42.083 47.8536 42.1382C47.8536 42.1865 47.8406 42.2279 47.8146 42.2624L45.8086 45.4598L47.9704 48.8227C47.9834 48.8434 47.9899 48.8641 47.9899 48.8848C47.9964 48.9055 47.9997 48.9262 47.9997 48.9469C47.9997 49.0021 47.9802 49.0538 47.9412 49.1021C47.9023 49.1435 47.8536 49.1642 47.7952 49.1642H46.5584C46.4741 49.1642 46.4059 49.1401 46.354 49.0918C46.3085 49.0435 46.2728 49.0021 46.2468 48.9676L44.8251 46.7946L43.4131 48.9676C43.3936 49.0021 43.3579 49.0435 43.306 49.0918C43.2606 49.1401 43.1924 49.1642 43.1015 49.1642H41.9135Z" fill="#323232"/>
<path d="M35.9775 49.1649C35.8874 49.1649 35.8167 49.1408 35.7652 49.0925C35.7202 49.0442 35.6848 48.9821 35.659 48.9062L34.2791 44.1153C34.2662 44.0808 34.2598 44.0463 34.2598 44.0118C34.2598 43.9497 34.2791 43.898 34.3177 43.8566C34.3627 43.8083 34.4142 43.7842 34.4721 43.7842H35.3213C35.4049 43.7842 35.4693 43.8083 35.5143 43.8566C35.5593 43.9049 35.5883 43.9497 35.6012 43.9911L36.4793 47.1885L37.4154 44.0118C37.4283 43.9635 37.4572 43.9152 37.5022 43.867C37.5537 43.8118 37.6245 43.7842 37.7145 43.7842H38.2646C38.3547 43.7842 38.4222 43.8118 38.4673 43.867C38.5187 43.9152 38.5509 43.9635 38.5638 44.0118L39.4998 47.1885L40.378 43.9911C40.3844 43.9497 40.4102 43.9049 40.4552 43.8566C40.5067 43.8083 40.571 43.7842 40.6482 43.7842H41.4974C41.5553 43.7842 41.6036 43.8083 41.6422 43.8566C41.6872 43.898 41.7097 43.9497 41.7097 44.0118C41.7097 44.0463 41.7065 44.0808 41.7001 44.1153L40.3105 48.9062C40.2912 48.9821 40.2558 49.0442 40.2043 49.0925C40.1593 49.1408 40.0917 49.1649 40.0017 49.1649H39.2586C39.1685 49.1649 39.0977 49.1408 39.0463 49.0925C38.9948 49.0442 38.9562 48.9821 38.9305 48.9062L37.9944 45.8433L37.039 48.9062C37.0197 48.9821 36.9843 49.0442 36.9329 49.0925C36.8814 49.1408 36.8106 49.1649 36.7206 49.1649H35.9775Z" fill="#323232"/>
<path d="M31.4809 49.2664C30.7394 49.2664 30.1495 49.0456 29.7111 48.6042C29.2791 48.1627 29.0502 47.5211 29.0244 46.6795C29.0244 46.6243 29.0244 46.5519 29.0244 46.4622C29.0244 46.3656 29.0244 46.2897 29.0244 46.2346C29.0502 45.7034 29.163 45.2481 29.3629 44.8687C29.5628 44.4824 29.8432 44.1892 30.2043 43.9891C30.5653 43.7822 30.9876 43.6787 31.4712 43.6787C32.0128 43.6787 32.4641 43.7994 32.8252 44.0409C33.1927 44.2754 33.4667 44.5996 33.6472 45.0135C33.8342 45.4206 33.9277 45.8896 33.9277 46.4208V46.6588C33.9277 46.7278 33.9019 46.7864 33.8503 46.8347C33.8052 46.883 33.7504 46.9072 33.6859 46.9072H30.5234C30.5234 46.914 30.5234 46.9278 30.5234 46.9485C30.5234 46.9623 30.5234 46.9761 30.5234 46.9899C30.5299 47.2107 30.5686 47.4142 30.6395 47.6004C30.7169 47.7798 30.8232 47.9247 30.9586 48.035C31.1005 48.1454 31.2681 48.2006 31.4615 48.2006C31.6227 48.2006 31.7549 48.1765 31.858 48.1282C31.9612 48.0799 32.045 48.0212 32.1095 47.9523C32.1804 47.8833 32.232 47.8246 32.2642 47.7763C32.3223 47.7074 32.3674 47.666 32.3996 47.6522C32.4383 47.6315 32.4963 47.6211 32.5737 47.6211H33.5795C33.644 47.6211 33.6955 47.6418 33.7342 47.6832C33.7794 47.7177 33.7987 47.7694 33.7923 47.8384C33.7858 47.9488 33.731 48.0868 33.6279 48.2523C33.5311 48.411 33.3861 48.5697 33.1927 48.7283C32.9992 48.8801 32.7575 49.0077 32.4673 49.1112C32.1836 49.2147 31.8548 49.2664 31.4809 49.2664ZM30.5234 45.9655H32.419V45.9448C32.419 45.6965 32.3803 45.4826 32.3029 45.3033C32.232 45.117 32.1256 44.9722 31.9838 44.8687C31.8419 44.7652 31.6711 44.7135 31.4712 44.7135C31.2713 44.7135 31.1005 44.7652 30.9586 44.8687C30.8168 44.9722 30.7072 45.117 30.6298 45.3033C30.5589 45.4826 30.5234 45.6965 30.5234 45.9448V45.9655Z" fill="#323232"/>
<path d="M26.7032 49.1637C26.6342 49.1637 26.5756 49.1395 26.5273 49.0912C26.479 49.043 26.4549 48.9809 26.4549 48.905V44.0416C26.4549 43.9658 26.479 43.9037 26.5273 43.8554C26.5756 43.8071 26.6342 43.7829 26.7032 43.7829H27.738C27.8139 43.7829 27.8759 43.8071 27.9242 43.8554C27.9725 43.9037 27.9967 43.9658 27.9967 44.0416V48.905C27.9967 48.9809 27.9725 49.043 27.9242 49.0912C27.8759 49.1395 27.8139 49.1637 27.738 49.1637H26.7032ZM26.6722 42.9551C26.6032 42.9551 26.5445 42.931 26.4963 42.8827C26.448 42.8344 26.4238 42.7723 26.4238 42.6965V41.8686C26.4238 41.7928 26.448 41.7307 26.4963 41.6824C26.5445 41.6272 26.6032 41.5996 26.6722 41.5996H27.7587C27.8346 41.5996 27.8966 41.6272 27.9449 41.6824C28.0001 41.7307 28.0277 41.7928 28.0277 41.8686V42.6965C28.0277 42.7723 28.0001 42.8344 27.9449 42.8827C27.8966 42.931 27.8346 42.9551 27.7587 42.9551H26.6722Z" fill="#323232"/>
<path d="M22.8596 49.1649C22.7651 49.1649 22.6926 49.1408 22.6422 49.0925C22.5981 49.0373 22.5603 48.9752 22.5288 48.9062L20.7523 44.105C20.7397 44.0774 20.7334 44.0463 20.7334 44.0118C20.7334 43.9497 20.7523 43.898 20.7901 43.8566C20.8342 43.8083 20.8846 43.7842 20.9413 43.7842H21.8579C21.9398 43.7842 21.9997 43.8083 22.0375 43.8566C22.0816 43.9049 22.1099 43.9497 22.1225 43.9911L23.2848 47.4058L24.4471 43.9911C24.466 43.9497 24.4944 43.9049 24.5322 43.8566C24.5763 43.8083 24.6361 43.7842 24.7117 43.7842H25.6283C25.685 43.7842 25.7323 43.8083 25.7701 43.8566C25.8142 43.898 25.8362 43.9497 25.8362 44.0118C25.8362 44.0463 25.8331 44.0774 25.8268 44.105L24.0408 48.9062C24.0156 48.9752 23.9778 49.0373 23.9274 49.0925C23.877 49.1408 23.8045 49.1649 23.71 49.1649H22.8596Z" fill="#323232"/>
<path d="M18.0111 49.1649C17.9508 49.1649 17.8995 49.1408 17.8573 49.0925C17.8151 49.0442 17.7939 48.9821 17.7939 48.9062V44.0429C17.7939 43.9739 17.8151 43.9152 17.8573 43.867C17.8995 43.8118 17.9508 43.7842 18.0111 43.7842H18.8977C18.9581 43.7842 19.0093 43.8118 19.0516 43.867C19.0998 43.9152 19.1239 43.9739 19.1239 44.0429V44.4568C19.2747 44.2429 19.4587 44.0774 19.6758 43.9601C19.899 43.8428 20.1554 43.7842 20.4449 43.7842H20.8339C20.8942 43.7842 20.9455 43.8083 20.9877 43.8566C21.03 43.9049 21.0511 43.967 21.0511 44.0429V44.9328C21.0511 45.0086 21.03 45.0707 20.9877 45.119C20.9455 45.1673 20.8942 45.1914 20.8339 45.1914H20.0377C19.7723 45.1914 19.5643 45.2777 19.4135 45.4501C19.2627 45.6157 19.1873 45.8537 19.1873 46.1641V48.9062C19.1873 48.9821 19.1662 49.0442 19.1239 49.0925C19.0817 49.1408 19.0274 49.1649 18.9611 49.1649H18.0111Z" fill="#323232"/>
<path d="M14.4157 49.2664C13.6491 49.2664 13.0392 49.0456 12.5859 48.6042C12.1393 48.1627 11.9026 47.5211 11.876 46.6795C11.876 46.6243 11.876 46.5519 11.876 46.4622C11.876 46.3656 11.876 46.2897 11.876 46.2346C11.9026 45.7034 12.0193 45.2481 12.2259 44.8687C12.4326 44.4824 12.7226 44.1892 13.0958 43.9891C13.4691 43.7822 13.9058 43.6787 14.4057 43.6787C14.9657 43.6787 15.4323 43.7994 15.8056 44.0409C16.1855 44.2754 16.4688 44.5996 16.6555 45.0135C16.8488 45.4206 16.9454 45.8896 16.9454 46.4208V46.6588C16.9454 46.7278 16.9188 46.7864 16.8655 46.8347C16.8188 46.883 16.7621 46.9072 16.6955 46.9072H13.4258C13.4258 46.914 13.4258 46.9278 13.4258 46.9485C13.4258 46.9623 13.4258 46.9761 13.4258 46.9899C13.4325 47.2107 13.4725 47.4142 13.5458 47.6004C13.6258 47.7798 13.7358 47.9247 13.8758 48.035C14.0224 48.1454 14.1957 48.2006 14.3957 48.2006C14.5624 48.2006 14.699 48.1765 14.8057 48.1282C14.9123 48.0799 14.999 48.0212 15.0656 47.9523C15.139 47.8833 15.1923 47.8246 15.2256 47.7763C15.2856 47.7074 15.3323 47.666 15.3656 47.6522C15.4056 47.6315 15.4656 47.6211 15.5456 47.6211H16.5855C16.6521 47.6211 16.7055 47.6418 16.7455 47.6832C16.7921 47.7177 16.8121 47.7694 16.8055 47.8384C16.7988 47.9488 16.7421 48.0868 16.6355 48.2523C16.5355 48.411 16.3855 48.5697 16.1855 48.7283C15.9855 48.8801 15.7356 49.0077 15.4356 49.1112C15.1423 49.2147 14.8023 49.2664 14.4157 49.2664ZM13.4258 45.9655H15.3856V45.9448C15.3856 45.6965 15.3456 45.4826 15.2656 45.3033C15.1923 45.117 15.0823 44.9722 14.9357 44.8687C14.789 44.7652 14.6124 44.7135 14.4057 44.7135C14.1991 44.7135 14.0224 44.7652 13.8758 44.8687C13.7291 44.9722 13.6158 45.117 13.5358 45.3033C13.4625 45.4826 13.4258 45.6965 13.4258 45.9448V45.9655Z" fill="#323232"/>
<path d="M10.9322 49.1651C10.5045 49.1651 10.1389 49.0961 9.83538 48.9582C9.53185 48.8133 9.30075 48.5926 9.14208 48.2959C8.99032 47.9993 8.91444 47.6268 8.91444 47.1784V45.0054H8.10732C8.03144 45.0054 7.96936 44.9813 7.92107 44.933C7.87278 44.8847 7.84863 44.8226 7.84863 44.7467V44.0431C7.84863 43.9672 7.87278 43.9051 7.92107 43.8568C7.96936 43.8085 8.03144 43.7844 8.10732 43.7844H8.91444V42.077C8.91444 42.0012 8.93858 41.9391 8.98687 41.8908C9.04206 41.8425 9.10414 41.8184 9.17313 41.8184H10.1872C10.2631 41.8184 10.3252 41.8425 10.3735 41.8908C10.4217 41.9391 10.4459 42.0012 10.4459 42.077V43.7844H11.7393C11.8083 43.7844 11.867 43.8085 11.9152 43.8568C11.9635 43.9051 11.9877 43.9672 11.9877 44.0431V44.7467C11.9877 44.8226 11.9635 44.8847 11.9152 44.933C11.867 44.9813 11.8083 45.0054 11.7393 45.0054H10.4459V47.0542C10.4459 47.3164 10.4907 47.5233 10.5804 47.6751C10.677 47.8199 10.8425 47.8924 11.0771 47.8924H11.8325C11.9014 47.8924 11.9601 47.9165 12.0084 47.9648C12.0567 48.0131 12.0808 48.0717 12.0808 48.1407V48.9064C12.0808 48.9823 12.0567 49.0444 12.0084 49.0927C11.9601 49.141 11.9014 49.1651 11.8325 49.1651H10.9322Z" fill="#323232"/>
<path d="M3.09037 49.1629C3.03027 49.1629 2.97919 49.1388 2.93712 49.0905C2.89506 49.0422 2.87402 48.9801 2.87402 48.9042V44.0409C2.87402 43.965 2.89506 43.9029 2.93712 43.8546C2.97919 43.8063 3.03027 43.7822 3.09037 43.7822H3.97377C4.03987 43.7822 4.09396 43.8063 4.13603 43.8546C4.17809 43.9029 4.19913 43.965 4.19913 44.0409V44.4444C4.35537 44.2237 4.55669 44.0409 4.80309 43.896C5.04948 43.7511 5.34995 43.6787 5.70452 43.6787C6.05908 43.6787 6.36857 43.7718 6.63299 43.9581C6.90342 44.1375 7.11375 44.403 7.26399 44.7549C7.42024 45.0998 7.49836 45.5206 7.49836 46.0173V48.9042C7.49836 48.9801 7.47433 49.0422 7.42625 49.0905C7.38418 49.1388 7.3331 49.1629 7.27301 49.1629H6.31749C6.25139 49.1629 6.1973 49.1388 6.15523 49.0905C6.11317 49.0422 6.09213 48.9801 6.09213 48.9042V46.0793C6.09213 45.7137 6.01401 45.4309 5.85776 45.2308C5.70752 45.0239 5.48517 44.9204 5.1907 44.9204C4.90825 44.9204 4.6829 45.0239 4.51463 45.2308C4.34636 45.4309 4.26223 45.7137 4.26223 46.0793V48.9042C4.26223 48.9801 4.24119 49.0422 4.19913 49.0905C4.15706 49.1388 4.10598 49.1629 4.04588 49.1629H3.09037Z" fill="#323232"/>
<path d="M0.25869 49.1642C0.182808 49.1642 0.120722 49.1401 0.0724333 49.0918C0.0241444 49.0435 0 48.9814 0 48.9055V42.1796C0 42.1037 0.0241444 42.0416 0.0724333 41.9933C0.120722 41.945 0.182808 41.9209 0.25869 41.9209H1.42797C1.50385 41.9209 1.56594 41.945 1.61423 41.9933C1.66252 42.0416 1.68666 42.1037 1.68666 42.1796V48.9055C1.68666 48.9814 1.66252 49.0435 1.61423 49.0918C1.56594 49.1401 1.50385 49.1642 1.42797 49.1642H0.25869Z" fill="#323232"/>
</svg>
