<svg xmlns="http://www.w3.org/2000/svg" width="200" height="30" viewBox="0 0 200 30" fill="none">
<path d="M179.609 27.1235C179.416 27.1235 179.255 27.055 179.126 26.9181C178.997 26.7585 178.933 26.5874 178.933 26.4049C178.933 26.3364 178.943 26.268 178.965 26.1995C178.986 26.1311 179.008 26.0627 179.029 25.9942L186.146 14.9072L179.512 4.29916C179.448 4.16228 179.416 4.02541 179.416 3.88853C179.416 3.70603 179.48 3.54633 179.609 3.40946C179.738 3.24977 179.899 3.16992 180.092 3.16992H184.053C184.332 3.16992 184.547 3.24977 184.697 3.40946C184.869 3.56915 184.998 3.71743 185.083 3.85431L189.399 10.664L193.746 3.85431C193.832 3.71743 193.961 3.56915 194.132 3.40946C194.304 3.24977 194.53 3.16992 194.809 3.16992H198.576C198.748 3.16992 198.898 3.24977 199.027 3.40946C199.178 3.54633 199.253 3.70603 199.253 3.88853C199.253 4.04822 199.21 4.1851 199.124 4.29916L192.49 14.8729L199.639 25.9942C199.682 26.0627 199.704 26.1311 199.704 26.1995C199.725 26.268 199.736 26.3364 199.736 26.4049C199.736 26.5874 199.671 26.7585 199.543 26.9181C199.414 27.055 199.253 27.1235 199.059 27.1235H194.97C194.691 27.1235 194.465 27.0436 194.293 26.8839C194.143 26.7242 194.025 26.5874 193.939 26.4733L189.238 19.2872L184.568 26.4733C184.504 26.5874 184.386 26.7242 184.214 26.8839C184.064 27.0436 183.838 27.1235 183.538 27.1235H179.609Z" fill="black"/>
<path d="M159.978 27.1261C159.681 27.1261 159.447 27.0462 159.276 26.8866C159.127 26.7269 159.01 26.5215 158.925 26.2706L154.362 10.4271C154.319 10.313 154.298 10.1989 154.298 10.0849C154.298 9.87954 154.362 9.70844 154.489 9.57157C154.638 9.41188 154.808 9.33203 155 9.33203H157.808C158.085 9.33203 158.298 9.41188 158.447 9.57157C158.595 9.73126 158.691 9.87954 158.734 10.0164L161.638 20.5902L164.733 10.0849C164.776 9.92517 164.872 9.76548 165.021 9.60579C165.191 9.42328 165.425 9.33203 165.723 9.33203H167.542C167.84 9.33203 168.063 9.42328 168.212 9.60579C168.382 9.76548 168.489 9.92517 168.531 10.0849L171.627 20.5902L174.531 10.0164C174.552 9.87954 174.637 9.73126 174.786 9.57157C174.956 9.41188 175.169 9.33203 175.424 9.33203H178.233C178.424 9.33203 178.584 9.41188 178.711 9.57157C178.86 9.70844 178.935 9.87954 178.935 10.0849C178.935 10.1989 178.924 10.313 178.903 10.4271L174.307 26.2706C174.244 26.5215 174.127 26.7269 173.956 26.8866C173.807 27.0462 173.584 27.1261 173.286 27.1261H170.829C170.531 27.1261 170.297 27.0462 170.127 26.8866C169.957 26.7269 169.829 26.5215 169.744 26.2706L166.648 16.1417L163.489 26.2706C163.425 26.5215 163.308 26.7269 163.138 26.8866C162.968 27.0462 162.734 27.1261 162.436 27.1261H159.978Z" fill="black"/>
<path d="M145.107 27.4599C142.655 27.4599 140.704 26.7299 139.254 25.2699C137.826 23.8098 137.069 21.6882 136.983 18.9051C136.983 18.7226 136.983 18.483 136.983 18.1865C136.983 17.8671 136.983 17.6161 136.983 17.4336C137.069 15.677 137.442 14.1714 138.103 12.9167C138.764 11.6391 139.691 10.6696 140.885 10.008C142.079 9.32364 143.476 8.98145 145.075 8.98145C146.866 8.98145 148.358 9.38067 149.552 10.1791C150.768 10.9548 151.674 12.027 152.271 13.3957C152.889 14.7417 153.198 16.293 153.198 18.0496V18.8366C153.198 19.0647 153.113 19.2587 152.942 19.4183C152.793 19.578 152.612 19.6579 152.399 19.6579H141.941C141.941 19.6807 141.941 19.7263 141.941 19.7948C141.941 19.8404 141.941 19.886 141.941 19.9316C141.962 20.6616 142.09 21.3346 142.324 21.9506C142.58 22.5437 142.932 23.0228 143.38 23.3878C143.849 23.7528 144.403 23.9353 145.043 23.9353C145.576 23.9353 146.013 23.8555 146.354 23.6958C146.695 23.5361 146.972 23.3422 147.186 23.114C147.42 22.8859 147.591 22.692 147.697 22.5323C147.889 22.3042 148.039 22.1673 148.145 22.1217C148.273 22.0532 148.465 22.019 148.721 22.019H152.047C152.26 22.019 152.431 22.0875 152.559 22.2243C152.708 22.3384 152.772 22.5095 152.751 22.7376C152.729 23.1026 152.548 23.5589 152.207 24.1064C151.887 24.6311 151.407 25.1558 150.768 25.6805C150.128 26.1824 149.328 26.6044 148.369 26.9466C147.431 27.2888 146.343 27.4599 145.107 27.4599ZM141.941 16.5439H148.209V16.4755C148.209 15.6542 148.081 14.947 147.825 14.3539C147.591 13.7379 147.239 13.2589 146.77 12.9167C146.301 12.5745 145.736 12.4034 145.075 12.4034C144.414 12.4034 143.849 12.5745 143.38 12.9167C142.911 13.2589 142.548 13.7379 142.292 14.3539C142.058 14.947 141.941 15.6542 141.941 16.4755V16.5439Z" fill="black"/>
<path d="M129.305 27.1188C129.077 27.1188 128.883 27.039 128.723 26.8793C128.563 26.7196 128.484 26.5143 128.484 26.2633V10.1803C128.484 9.92931 128.563 9.724 128.723 9.56431C128.883 9.40462 129.077 9.32477 129.305 9.32477H132.727C132.978 9.32477 133.183 9.40462 133.343 9.56431C133.502 9.724 133.582 9.92931 133.582 10.1803V26.2633C133.582 26.5143 133.502 26.7196 133.343 26.8793C133.183 27.039 132.978 27.1188 132.727 27.1188H129.305ZM129.202 6.58723C128.974 6.58723 128.78 6.50738 128.62 6.34769C128.461 6.188 128.381 5.98268 128.381 5.73174V2.99419C128.381 2.74325 128.461 2.53794 128.62 2.37825C128.78 2.19574 128.974 2.10449 129.202 2.10449H132.795C133.046 2.10449 133.251 2.19574 133.411 2.37825C133.594 2.53794 133.685 2.74325 133.685 2.99419V5.73174C133.685 5.98268 133.594 6.188 133.411 6.34769C133.251 6.50738 133.046 6.58723 132.795 6.58723H129.202Z" fill="black"/>
<path d="M116.595 27.1261C116.282 27.1261 116.043 27.0462 115.876 26.8866C115.73 26.7041 115.605 26.4987 115.501 26.2706L109.626 10.3928C109.584 10.3016 109.563 10.1989 109.563 10.0849C109.563 9.87954 109.626 9.70844 109.751 9.57157C109.897 9.41188 110.063 9.33203 110.251 9.33203H113.282C113.553 9.33203 113.751 9.41188 113.876 9.57157C114.022 9.73126 114.116 9.87954 114.157 10.0164L118.001 21.3088L121.845 10.0164C121.907 9.87954 122.001 9.73126 122.126 9.57157C122.272 9.41188 122.47 9.33203 122.72 9.33203H125.751C125.938 9.33203 126.095 9.41188 126.22 9.57157C126.365 9.70844 126.438 9.87954 126.438 10.0849C126.438 10.1989 126.428 10.3016 126.407 10.3928L120.501 26.2706C120.418 26.4987 120.293 26.7041 120.126 26.8866C119.959 27.0462 119.72 27.1261 119.407 27.1261H116.595Z" fill="black"/>
<path d="M100.564 27.1261C100.364 27.1261 100.195 27.0462 100.055 26.8866C99.9155 26.7269 99.8457 26.5215 99.8457 26.2706V10.1875C99.8457 9.95939 99.9155 9.76548 100.055 9.60579C100.195 9.42328 100.364 9.33203 100.564 9.33203H103.496C103.695 9.33203 103.865 9.42328 104.005 9.60579C104.164 9.76548 104.244 9.95939 104.244 10.1875V11.5563C104.743 10.8491 105.351 10.3016 106.069 9.91376C106.807 9.52594 107.655 9.33203 108.612 9.33203H109.899C110.098 9.33203 110.268 9.41188 110.408 9.57157C110.547 9.73126 110.617 9.93657 110.617 10.1875V13.1304C110.617 13.3813 110.547 13.5866 110.408 13.7463C110.268 13.906 110.098 13.9859 109.899 13.9859H107.266C106.388 13.9859 105.7 14.271 105.201 14.8413C104.703 15.3889 104.453 16.1759 104.453 17.2025V26.2706C104.453 26.5215 104.384 26.7269 104.244 26.8866C104.104 27.0462 103.925 27.1261 103.705 27.1261H100.564Z" fill="black"/>
<path d="M88.6723 27.4599C86.1372 27.4599 84.1202 26.7299 82.6211 25.2699C81.1442 23.8098 80.3616 21.6882 80.2734 18.9051C80.2734 18.7226 80.2734 18.483 80.2734 18.1865C80.2734 17.8671 80.2734 17.6161 80.2734 17.4336C80.3616 15.677 80.7474 14.1714 81.4308 12.9167C82.1141 11.6391 83.0731 10.6696 84.3075 10.008C85.542 9.32364 86.9859 8.98145 88.6392 8.98145C90.4909 8.98145 92.034 9.38067 93.2685 10.1791C94.525 10.9548 95.4619 12.027 96.0791 13.3957C96.7184 14.7417 97.0381 16.293 97.0381 18.0496V18.8366C97.0381 19.0647 96.9499 19.2587 96.7735 19.4183C96.6192 19.578 96.4319 19.6579 96.2114 19.6579H85.3987C85.3987 19.6807 85.3987 19.7263 85.3987 19.7948C85.3987 19.8404 85.3987 19.886 85.3987 19.9316C85.4208 20.6616 85.553 21.3346 85.7955 21.9506C86.06 22.5437 86.4238 23.0228 86.8867 23.3878C87.3717 23.7528 87.9448 23.9353 88.6062 23.9353C89.1573 23.9353 89.6092 23.8555 89.9619 23.6958C90.3146 23.5361 90.6012 23.3422 90.8216 23.114C91.0641 22.8859 91.2404 22.692 91.3507 22.5323C91.5491 22.3042 91.7034 22.1673 91.8136 22.1217C91.9459 22.0532 92.1443 22.019 92.4088 22.019H95.8477C96.0681 22.019 96.2445 22.0875 96.3767 22.2243C96.5311 22.3384 96.5972 22.5095 96.5751 22.7376C96.5531 23.1026 96.3657 23.5589 96.013 24.1064C95.6824 24.6311 95.1864 25.1558 94.525 25.6805C93.8637 26.1824 93.037 26.6044 92.0451 26.9466C91.0751 27.2888 89.9509 27.4599 88.6723 27.4599ZM85.3987 16.5439H91.8797V16.4755C91.8797 15.6542 91.7475 14.947 91.4829 14.3539C91.2404 13.7379 90.8767 13.2589 90.3917 12.9167C89.9068 12.5745 89.3226 12.4034 88.6392 12.4034C87.9559 12.4034 87.3717 12.5745 86.8867 12.9167C86.4017 13.2589 86.027 13.7379 85.7625 14.3539C85.52 14.947 85.3987 15.6542 85.3987 16.4755V16.5439Z" fill="black"/>
<path d="M77.1515 27.1229C75.7371 27.1229 74.528 26.8948 73.5242 26.4385C72.5205 25.9594 71.7562 25.2294 71.2315 24.2485C70.7296 23.2675 70.4787 22.0356 70.4787 20.5528V13.3667H67.8096C67.5586 13.3667 67.3533 13.2869 67.1936 13.1272C67.0339 12.9675 66.9541 12.7622 66.9541 12.5112V10.1843C66.9541 9.93337 67.0339 9.72805 67.1936 9.56836C67.3533 9.40867 67.5586 9.32882 67.8096 9.32882H70.4787V3.68263C70.4787 3.43169 70.5585 3.22637 70.7182 3.06668C70.9007 2.90699 71.1061 2.82715 71.3342 2.82715H74.6877C74.9386 2.82715 75.1439 2.90699 75.3036 3.06668C75.4633 3.22637 75.5432 3.43169 75.5432 3.68263V9.32882H79.8206C80.0487 9.32882 80.2426 9.40867 80.4023 9.56836C80.562 9.72805 80.6418 9.93337 80.6418 10.1843V12.5112C80.6418 12.7622 80.562 12.9675 80.4023 13.1272C80.2426 13.2869 80.0487 13.3667 79.8206 13.3667H75.5432V20.1421C75.5432 21.009 75.6914 21.6934 75.988 22.1953C76.3074 22.6744 76.8549 22.9139 77.6305 22.9139H80.1286C80.3567 22.9139 80.5506 22.9938 80.7103 23.1534C80.87 23.3131 80.9498 23.507 80.9498 23.7352V26.2674C80.9498 26.5183 80.87 26.7237 80.7103 26.8834C80.5506 27.043 80.3567 27.1229 80.1286 27.1229H77.1515Z" fill="black"/>
<path d="M51.2193 27.1177C51.0206 27.1177 50.8517 27.0379 50.7126 26.8782C50.5735 26.7185 50.5039 26.5132 50.5039 26.2622V10.1791C50.5039 9.92818 50.5735 9.72286 50.7126 9.56317C50.8517 9.40348 51.0206 9.32364 51.2193 9.32364H54.1407C54.3594 9.32364 54.5382 9.40348 54.6773 9.56317C54.8164 9.72286 54.886 9.92818 54.886 10.1791V11.5137C55.4027 10.7837 56.0685 10.1791 56.8833 9.70005C57.6981 9.22098 58.6918 8.98145 59.8643 8.98145C61.0368 8.98145 62.0603 9.28942 62.9347 9.90537C63.829 10.4985 64.5246 11.3768 65.0214 12.5403C65.5382 13.6809 65.7965 15.0725 65.7965 16.715V26.2622C65.7965 26.5132 65.717 26.7185 65.558 26.8782C65.4189 27.0379 65.25 27.1177 65.0513 27.1177H61.8914C61.6728 27.1177 61.4939 27.0379 61.3548 26.8782C61.2157 26.7185 61.1461 26.5132 61.1461 26.2622V16.9203C61.1461 15.7113 60.8878 14.7759 60.3711 14.1143C59.8742 13.43 59.1389 13.0878 58.1651 13.0878C57.2311 13.0878 56.4858 13.43 55.9294 14.1143C55.3729 14.7759 55.0947 15.7113 55.0947 16.9203V26.2622C55.0947 26.5132 55.0251 26.7185 54.886 26.8782C54.7469 27.0379 54.578 27.1177 54.3792 27.1177H51.2193Z" fill="black"/>
<path d="M41.8555 27.1235C41.6045 27.1235 41.3992 27.0436 41.2395 26.8839C41.0798 26.7242 41 26.5189 41 26.268V4.02541C41 3.77446 41.0798 3.56915 41.2395 3.40946C41.3992 3.24977 41.6045 3.16992 41.8555 3.16992H45.7223C45.9732 3.16992 46.1785 3.24977 46.3382 3.40946C46.4979 3.56915 46.5778 3.77446 46.5778 4.02541V26.268C46.5778 26.5189 46.4979 26.7242 46.3382 26.8839C46.1785 27.0436 45.9732 27.1235 45.7223 27.1235H41.8555Z" fill="black"/>
<path fill-rule="evenodd" clip-rule="evenodd" d="M11.953 5.96313C12.8073 5.71295 13.7112 5.57876 14.6465 5.57876C19.9306 5.57876 24.2142 9.86238 24.2142 15.1465C24.2142 20.4306 19.9306 24.7142 14.6465 24.7142C9.36238 24.7142 5.07876 20.4306 5.07876 15.1465C5.07876 13.7346 5.38457 12.3942 5.93355 11.1878C6.63568 12.3992 7.94628 13.214 9.44718 13.214C11.6885 13.214 13.5055 11.397 13.5055 9.15568C13.5055 7.86001 12.8983 6.70615 11.953 5.96313ZM14.6465 0.5C6.55746 0.5 0 7.05746 0 15.1465C0 23.2355 6.55746 29.793 14.6465 29.793C22.7355 29.793 29.293 23.2355 29.293 15.1465C29.293 7.05746 22.7355 0.5 14.6465 0.5Z" fill="#0453F4"/>
<path d="M20.7508 18.6664C20.7508 20.0431 19.6349 21.159 18.2582 21.159C16.8816 21.159 15.7656 20.0431 15.7656 18.6664C15.7656 17.2898 16.8816 16.1738 18.2582 16.1738C19.6349 16.1738 20.7508 17.2898 20.7508 18.6664Z" fill="#0453F4" fill-opacity="0.2"/>
</svg>