<svg width="32" height="34" viewBox="0 0 32 34" fill="none" xmlns="http://www.w3.org/2000/svg">
<path fill-rule="evenodd" clip-rule="evenodd" d="M14.259 10.8621C14.8113 10.7003 15.3957 10.6136 16.0004 10.6136C19.4166 10.6136 22.186 13.383 22.186 16.7992C22.186 20.2154 19.4166 22.9848 16.0004 22.9848C12.5841 22.9848 9.81473 20.2154 9.81473 16.7992C9.81473 15.8864 10.0124 15.0198 10.3674 14.2399C10.8213 15.0231 11.6686 15.5498 12.639 15.5498C14.088 15.5498 15.2627 14.3751 15.2627 12.9261C15.2627 12.0884 14.8702 11.3424 14.259 10.8621ZM16.0004 7.33008C10.7707 7.33008 6.53125 11.5695 6.53125 16.7992C6.53125 22.0289 10.7707 26.2683 16.0004 26.2683C21.23 26.2683 25.4695 22.0289 25.4695 16.7992C25.4695 11.5695 21.23 7.33008 16.0004 7.33008Z" fill="white"/>
<path d="M19.9496 19.0744C19.9496 19.9644 19.2281 20.6859 18.3381 20.6859C17.4481 20.6859 16.7266 19.9644 16.7266 19.0744C16.7266 18.1844 17.4481 17.4629 18.3381 17.4629C19.2281 17.4629 19.9496 18.1844 19.9496 19.0744Z" fill="white" fill-opacity="0.2"/>
</svg>
