<svg xmlns="http://www.w3.org/2000/svg" width="20" height="20" viewBox="0 0 20 20" fill="none">
  <path d="M3.65413 11.6953L3.70806 11.6753C4.42564 11.4086 4.96055 10.798 5.13078 10.0513L5.30517 9.28641L5.47956 10.0513C5.64979 10.798 6.1847 11.4086 6.90228 11.6753L6.95621 11.6953L6.90228 11.7154C6.1847 11.982 5.64979 12.5926 5.47956 13.3393L5.30517 14.1042L5.13078 13.3393C4.96055 12.5926 4.42564 11.982 3.70806 11.7154L3.65413 11.6953Z" fill="#226FFF"/>
  <path d="M11.5283 5.9707L11.5619 5.95821C12.0091 5.79199 12.3425 5.41143 12.4487 4.94602L12.5573 4.46925L12.666 4.94602C12.7721 5.41143 13.1056 5.79199 13.5528 5.95821L13.5864 5.9707L13.5528 5.9832C13.1056 6.14942 12.7721 6.52998 12.666 6.99538L12.5573 7.47215L12.4487 6.99538C12.3425 6.52998 12.0091 6.14942 11.5619 5.9832L11.5283 5.9707Z" fill="#226FFF"/>
  <path d="M2.22692 8.28125L2.24622 8.27408C2.5031 8.17861 2.69458 7.96005 2.75551 7.69276L2.81794 7.41894L2.88037 7.69276C2.9413 7.96005 3.13278 8.17861 3.38965 8.27408L3.40896 8.28125L3.38965 8.28842C3.13278 8.38389 2.9413 8.60245 2.88036 8.86974L2.81794 9.14356L2.75551 8.86974C2.69458 8.60245 2.5031 8.38389 2.24622 8.28842L2.22692 8.28125Z" fill="#226FFF"/>
  <path fill-rule="evenodd" clip-rule="evenodd" d="M4.42458 3.41667C4.66538 3.17575 5.0558 3.17575 5.29661 3.41667L8.70968 6.83144L7.21515 8.32671L3.80208 4.91195C3.56128 4.67102 3.56128 4.2804 3.80208 4.03948L4.42458 3.41667ZM15.8593 16.9752L7.56862 8.68035L9.06315 7.18508L17.3705 15.4965C17.518 15.7739 17.4749 16.1261 17.2413 16.3598L16.7436 16.8578C16.5039 17.0975 16.1397 17.1367 15.8593 16.9752ZM17.6714 15.0525C18.1065 15.5369 18.0911 16.2829 17.6254 16.7489L17.1277 17.2468C16.6461 17.7287 15.8652 17.7287 15.3836 17.2468L3.48328 5.34062C3.00167 4.85877 3.00167 4.07754 3.48328 3.59569L3.981 3.09772C4.46261 2.61587 5.24346 2.61587 5.72507 3.09772L9.08332 6.45762L9.0857 6.45523L9.43917 6.80887L17.5948 14.9685C17.6218 14.9956 17.6474 15.0236 17.6714 15.0525Z" fill="#226FFF"/>
</svg>