<svg xmlns="http://www.w3.org/2000/svg" width="15" height="14" viewBox="0 0 15 14" fill="none">
  <path d="M2.25701 8.03906L2.30303 8.02196C2.91535 7.79439 3.37179 7.27339 3.51705 6.63623L3.66586 5.98351L3.81467 6.63623C3.95993 7.27339 4.41638 7.79439 5.0287 8.02196L5.07472 8.03906L5.0287 8.05617C4.41638 8.28373 3.95993 8.80473 3.81467 9.44189L3.66586 10.0946L3.51705 9.44189C3.37179 8.80473 2.91535 8.28373 2.30303 8.05617L2.25701 8.03906Z" fill="white"/>
  <path d="M8.97666 3.1543L9.00535 3.14364C9.387 3.0018 9.6715 2.67706 9.76204 2.27992L9.85479 1.87309L9.94755 2.27992C10.0381 2.67706 10.3226 3.0018 10.7042 3.14364L10.7329 3.1543L10.7042 3.16496C10.3226 3.3068 10.0381 3.63153 9.94754 4.02867L9.85479 4.43551L9.76204 4.02867C9.6715 3.63153 9.387 3.3068 9.00535 3.16496L8.97666 3.1543Z" fill="white"/>
  <path d="M1.03973 5.12598L1.0562 5.11985C1.27539 5.03839 1.43878 4.85189 1.49078 4.62381L1.54405 4.39015L1.59732 4.62381C1.64932 4.85189 1.81271 5.03839 2.03191 5.11985L2.04838 5.12598L2.03191 5.1321C1.81271 5.21356 1.64932 5.40006 1.59732 5.62815L1.54405 5.8618L1.49078 5.62815C1.43878 5.40006 1.27539 5.21356 1.0562 5.1321L1.03973 5.12598Z" fill="white"/>
  <path fill-rule="evenodd" clip-rule="evenodd" d="M2.90773 0.969609C3.11322 0.764024 3.44637 0.764024 3.65185 0.969609L6.57062 3.88982L5.29532 5.16576L2.37655 2.24554C2.17107 2.03996 2.17107 1.70664 2.37655 1.50105L2.90773 0.969609ZM12.0928 12.6005C12.073 12.5834 12.0537 12.5655 12.0349 12.5467L2.11096 2.61779C1.69999 2.20662 1.69999 1.53998 2.11096 1.12881L2.53567 0.703885C2.94664 0.292715 3.61295 0.292716 4.02392 0.703886L6.88945 3.57084L6.89151 3.56877L14.1524 10.8333C14.5634 11.2444 14.5634 11.9111 14.1524 12.3222L13.7277 12.7472C13.3167 13.1583 12.6504 13.1583 12.2395 12.7472L12.0928 12.6005Z" fill="white"/>
</svg>