<svg xmlns="http://www.w3.org/2000/svg" width="64" height="64" viewBox="0 0 64 64" fill="none">
  <circle cx="32" cy="32" r="32" fill="#F7F8FA"/>
  <mask id="mask0_580_13212" style="mask-type:alpha" maskUnits="userSpaceOnUse" x="0" y="0" width="64" height="64">
    <circle cx="32" cy="32" r="32" fill="#D9D9D9"/>
  </mask>
  <g mask="url(#mask0_580_13212)">
    <path d="M39.494 21.3261C37.4782 19.1497 34.6626 17.9512 31.5549 17.9512C28.4307 17.9512 25.6058 19.1424 23.5993 21.3054C21.571 23.4922 20.5828 26.4641 20.8148 29.6733C21.2748 36.0047 26.0927 41.1551 31.5549 41.1551C37.0172 41.1551 41.8268 36.0057 42.294 29.6754C42.5292 26.4952 41.5347 23.5294 39.494 21.3261ZM49.7866 64.3591H13.3233C12.846 64.3653 12.3733 64.265 11.9397 64.0656C11.506 63.8661 11.1223 63.5725 10.8164 63.2061C10.1431 62.4012 9.87167 61.3022 10.0726 60.1907C10.9469 55.3406 13.6755 51.2665 17.964 48.4064C21.7741 45.8674 26.6003 44.47 31.5549 44.47C36.5096 44.47 41.3358 45.8684 45.1458 48.4064C49.4344 51.2654 52.1629 55.3396 53.0372 60.1896C53.2382 61.3011 52.9668 62.4002 52.2935 63.2051C51.9877 63.5717 51.604 63.8655 51.1703 64.0651C50.7367 64.2647 50.264 64.3652 49.7866 64.3591Z" fill="#E0E4EB"/>
  </g>
</svg>