<svg xmlns="http://www.w3.org/2000/svg" width="14" height="14" viewBox="0 0 14 14" fill="none">
  <path fill-rule="evenodd" clip-rule="evenodd" d="M1.94385 2.45332C1.94385 2.14956 2.19009 1.90332 2.49385 1.90332H10.1506C10.4544 1.90332 10.7006 2.14956 10.7006 2.45332V4.76623C10.7006 5.06999 10.4544 5.31623 10.1506 5.31623C9.84689 5.31623 9.60065 5.06999 9.60065 4.76623V3.00332H3.04385V10.9959H4.96633C5.27009 10.9959 5.51633 11.2421 5.51633 11.5459C5.51633 11.8496 5.27009 12.0959 4.96633 12.0959H2.49385C2.19009 12.0959 1.94385 11.8496 1.94385 11.5459V2.45332ZM4.01369 4.76623C4.01369 4.46248 4.25993 4.21623 4.56369 4.21623H8.07122C8.37497 4.21623 8.62122 4.46248 8.62122 4.76623C8.62122 5.06999 8.37497 5.31623 8.07122 5.31623H4.56369C4.25993 5.31623 4.01369 5.06999 4.01369 4.76623ZM10.1729 6.21064C10.3264 6.21686 10.4702 6.28696 10.5697 6.40399L11.9256 7.99916C12.1094 8.21543 12.0985 8.53607 11.9004 8.73931L8.78977 11.9298C8.68626 12.036 8.54425 12.0959 8.39596 12.0959H6.80079C6.49704 12.0959 6.25079 11.8496 6.25079 11.5459V10.11C6.25079 9.96418 6.30874 9.82429 6.41188 9.72114L9.76174 6.37129C9.87035 6.26268 10.0194 6.20443 10.1729 6.21064ZM4.01369 6.76019C4.01369 6.45644 4.25993 6.21019 4.56369 6.21019H6.24248C6.54624 6.21019 6.79248 6.45644 6.79248 6.76019C6.79248 7.06395 6.54624 7.31019 6.24248 7.31019H4.56369C4.25993 7.31019 4.01369 7.06395 4.01369 6.76019ZM7.35079 10.3379V10.9959H8.16405L10.7631 8.33L10.1178 7.57082L7.35079 10.3379Z" fill="#666666"/>
</svg>