<svg xmlns="http://www.w3.org/2000/svg" width="16" height="16" viewBox="0 0 16 16" fill="none">
  <path fill-rule="evenodd" clip-rule="evenodd" d="M8.27237 10.5189L5.90317 10.8574C5.69377 10.8873 5.48248 10.8169 5.33289 10.6673C5.1833 10.5177 5.1129 10.3064 5.14282 10.097L5.48128 7.7278C5.50186 7.58383 5.56854 7.45041 5.67135 7.34761L11.0867 1.93232C11.7231 1.296 12.7547 1.296 13.391 1.93232L14.0679 2.60922C14.7042 3.24554 14.7042 4.27718 14.0679 4.9135L8.65257 10.3288C8.54976 10.4316 8.41634 10.4984 8.27237 10.5189ZM11.6009 2.4466L11.601 2.44658C11.9533 2.09426 12.5245 2.09429 12.8767 2.44658L13.5536 3.12348C13.9059 3.47578 13.9059 4.04694 13.5536 4.39924L8.15127 9.80159L5.87318 10.127L6.19864 7.84884L11.6009 2.4466ZM2.58757 4.17629C2.58757 3.7512 2.93217 3.40659 3.35727 3.40659H7.36902C7.58157 3.40659 7.75387 3.23429 7.75387 3.02174C7.75387 2.8092 7.58157 2.6369 7.36902 2.6369H3.35727C2.50708 2.6369 1.81787 3.32611 1.81787 4.17629V12.643C1.81787 13.4931 2.50708 14.1824 3.35727 14.1824H11.8239C12.6741 14.1824 13.3633 13.4931 13.3633 12.643V8.6312C13.3633 8.41866 13.191 8.24635 12.9785 8.24635C12.7659 8.24635 12.5936 8.41866 12.5936 8.6312V12.643C12.5936 13.068 12.249 13.4127 11.8239 13.4127H3.35727C2.93217 13.4127 2.58757 13.068 2.58757 12.643V4.17629Z" fill="#226FFF"/>
</svg>