<svg xmlns="http://www.w3.org/2000/svg" width="14" height="15" viewBox="0 0 14 15" fill="none">
  <path d="M3.00791 5.09375C3.08803 6.20582 3.91299 7.0625 4.8126 7.0625C5.71221 7.0625 6.53853 6.20609 6.61728 5.09375C6.69931 3.93684 5.89623 3.125 4.8126 3.125C3.72896 3.125 2.92588 3.95789 3.00791 5.09375Z" stroke="#8C8C8C" stroke-width="0.875" stroke-linecap="round" stroke-linejoin="round"/>
  <path d="M4.81261 8.8125C6.5946 8.8125 8.30823 9.69762 8.73753 11.4214C8.79441 11.6494 8.6514 11.875 8.41706 11.875H1.20788C0.973546 11.875 0.831359 11.6494 0.887414 11.4214C1.31671 9.67 3.03034 8.8125 4.81261 8.8125Z" stroke="#8C8C8C" stroke-width="0.875" stroke-miterlimit="10"/>
  <path d="M8.53062 5.5843C8.59461 6.47242 9.26125 7.17188 9.97984 7.17188C10.6984 7.17188 11.3662 6.4727 11.4291 5.5843C11.4944 4.66035 10.8455 4 9.97984 4C9.11414 4 8.46527 4.6773 8.53062 5.5843Z" stroke="#8C8C8C" stroke-width="0.875" stroke-linecap="round" stroke-linejoin="round"/>
  <path d="M8.36692 8.86777C8.86047 8.64164 9.40407 8.55469 9.9802 8.55469C11.4021 8.55469 12.772 9.26152 13.1152 10.6383C13.1603 10.8204 13.046 11.0006 12.859 11.0006H9.7888" stroke="#8C8C8C" stroke-width="0.875" stroke-miterlimit="10" stroke-linecap="round"/>
</svg>