<svg xmlns="http://www.w3.org/2000/svg" width="16" height="17" viewBox="0 0 16 17" fill="none">
  <path d="M8.85645 14.2134C8.85645 14.2134 9.71359 14.2134 9.71359 13.3563C9.71359 12.4992 8.85645 9.92773 5.42787 9.92773C1.9993 9.92773 1.14216 12.4992 1.14216 13.3563C1.14216 14.2134 1.9993 14.2134 1.9993 14.2134H8.85645ZM5.42787 9.07059C4.74589 9.07059 4.09184 8.79967 3.6096 8.31744C3.12736 7.8352 2.85645 7.18115 2.85645 6.49916C2.85645 5.81718 3.12736 5.16312 3.6096 4.68089C4.09184 4.19865 4.74589 3.92773 5.42787 3.92773C6.10986 3.92773 6.76391 4.19865 7.24615 4.68089C7.72839 5.16312 7.9993 5.81718 7.9993 6.49916C7.9993 7.18115 7.72839 7.8352 7.24615 8.31744C6.76391 8.79967 6.10986 9.07059 5.42787 9.07059ZM10.3856 14.2134C10.5126 13.9458 10.576 13.6525 10.5707 13.3563C10.5707 12.1949 9.98787 10.9992 8.9113 10.1677C9.44858 10.0018 10.0085 9.92085 10.5707 9.92773C13.9993 9.92773 14.8564 12.4992 14.8564 13.3563C14.8564 14.2134 13.9993 14.2134 13.9993 14.2134H10.3856ZM10.9993 9.07059C10.431 9.07059 9.88594 8.84483 9.48407 8.44296C9.08221 8.0411 8.85645 7.49606 8.85645 6.92773C8.85645 6.35941 9.08221 5.81437 9.48407 5.41251C9.88594 5.01064 10.431 4.78488 10.9993 4.78488C11.5676 4.78488 12.1127 5.01064 12.5145 5.41251C12.9164 5.81437 13.1422 6.35941 13.1422 6.92773C13.1422 7.49606 12.9164 8.0411 12.5145 8.44296C12.1127 8.84483 11.5676 9.07059 10.9993 9.07059Z" fill="#226FFF"/>
</svg>