<svg xmlns="http://www.w3.org/2000/svg" width="44" height="30" viewBox="0 0 44 30" fill="none">
  <path fill-rule="evenodd" clip-rule="evenodd" d="M28.6743 16.4314C32.2452 16.4314 35.14 13.5366 35.14 9.96572C35.14 6.3948 32.2452 3.5 28.6743 3.5C25.1034 3.5 22.2086 6.3948 22.2086 9.96572C22.2086 13.5366 25.1034 16.4314 28.6743 16.4314ZM28.6756 18.4401C21.6548 18.4401 15.723 23.1027 13.8076 29.5002H43.5435C41.6282 23.1027 35.6964 18.4401 28.6756 18.4401Z" fill="#226FFF"/>
  <path d="M7.57764 6.74357C7.48324 5.29645 9.08919 4.36926 10.2952 5.17457L13.6174 7.39287C13.777 7.49946 13.9789 7.52068 14.1572 7.44961L17.8679 5.97049C19.2151 5.43353 20.5931 6.67436 20.1999 8.07023L19.1168 11.9153C19.0648 12.1 19.107 12.2986 19.2297 12.4462L21.7831 15.5183C22.71 16.6335 21.9558 18.3276 20.5067 18.385L16.5152 18.543C16.3234 18.5506 16.1476 18.6521 16.0451 18.8144L13.9124 22.1922C13.1382 23.4184 11.294 23.2246 10.7916 21.8642L9.40784 18.1168C9.34135 17.9368 9.1905 17.8009 9.00446 17.7536L5.133 16.7691C3.72754 16.4117 3.34199 14.5979 4.48058 13.6997L7.6169 11.2256C7.76761 11.1068 7.85017 10.9213 7.83767 10.7298L7.57764 6.74357Z" fill="#E6EEFE"/>
</svg>