<svg xmlns="http://www.w3.org/2000/svg" width="17" height="10" viewBox="0 0 17 10" fill="none">
  <path fill-rule="evenodd" clip-rule="evenodd" d="M7.96429 2.48674C7.96429 3.86013 6.90884 4.97348 5.60688 4.97348C4.30492 4.97348 3.24947 3.86013 3.24947 2.48674C3.24947 1.11335 4.30492 0 5.60688 0C6.90884 0 7.96429 1.11335 7.96429 2.48674ZM0.186523 9.99964C0.884915 7.5392 3.04762 5.74606 5.60736 5.74606C8.16567 5.74606 10.3274 7.5372 11.027 9.99551H11.7351C11.3517 8.64522 10.5781 7.47273 9.55254 6.62363C10.2157 6.29708 10.9554 6.11469 11.7356 6.11469C14.0733 6.11469 16.0484 7.75231 16.6861 9.99933H11.0281C11.0281 9.99943 11.0282 9.99954 11.0282 9.99964H0.186523ZM13.889 3.13854C13.889 4.39277 12.9251 5.40952 11.7361 5.40952C10.5471 5.40952 9.5832 4.39277 9.5832 3.13854C9.5832 1.88431 10.5471 0.867552 11.7361 0.867552C12.9251 0.867552 13.889 1.88431 13.889 3.13854Z" fill="#8C8C8C"/>
</svg>