<svg xmlns="http://www.w3.org/2000/svg" width="47" height="27" viewBox="0 0 47 27" fill="none">
  <path fill-rule="evenodd" clip-rule="evenodd" d="M32.7642 14.5895C36.1024 14.5895 38.8086 11.8833 38.8086 8.5451C38.8086 5.20689 36.1024 2.50073 32.7642 2.50073C29.426 2.50073 26.7198 5.20689 26.7198 8.5451C26.7198 11.8833 29.426 14.5895 32.7642 14.5895ZM46.6622 26.8068H32.763C31.6858 23.2089 29.5111 20.0851 26.6274 17.8241C28.4909 16.9531 30.5701 16.4666 32.7629 16.4666C39.3265 16.4666 44.872 20.8257 46.6622 26.8068Z" fill="#E6EEFE"/>
  <path fill-rule="evenodd" clip-rule="evenodd" d="M15.5562 13.4299C19.2116 13.4299 22.1748 10.4666 22.1748 6.81125C22.1748 3.15588 19.2116 0.192627 15.5562 0.192627C11.9009 0.192627 8.9376 3.15588 8.9376 6.81125C8.9376 10.4666 11.9009 13.4299 15.5562 13.4299ZM15.5573 15.486C8.37056 15.486 2.29851 20.2587 0.33783 26.8075H30.7769C28.8162 20.2587 22.7441 15.486 15.5573 15.486Z" fill="#226FFF"/>
</svg>