<svg xmlns="http://www.w3.org/2000/svg" width="72" height="50" viewBox="0 0 72 50" fill="none">
  <path fill-rule="evenodd" clip-rule="evenodd" d="M39.9112 38.8083C42.901 38.8083 45.3247 36.3847 45.3247 33.3949C45.3247 30.4051 42.901 27.9814 39.9112 27.9814C36.9215 27.9814 34.4978 30.4051 34.4978 33.3949C34.4978 36.3847 36.9215 38.8083 39.9112 38.8083ZM39.9103 49.7511H27.4619L27.4619 49.7511H52.3588C50.7554 44.3944 45.7888 40.4903 39.9104 40.4903C37.9466 40.4903 36.0847 40.926 34.4158 41.706C36.9982 43.731 38.9457 46.5287 39.9103 49.7511Z" fill="#EBEBEB"/>
  <path fill-rule="evenodd" clip-rule="evenodd" d="M24.4992 37.7696C27.7731 37.7696 30.427 35.1156 30.427 31.8418C30.427 28.568 27.7731 25.9141 24.4992 25.9141C21.2254 25.9141 18.5715 28.568 18.5715 31.8418C18.5715 35.1156 21.2254 37.7696 24.4992 37.7696ZM24.5001 39.6111C18.0634 39.6111 12.6251 43.8858 10.8691 49.7512H38.1311C36.3752 43.8858 30.9368 39.6111 24.5001 39.6111Z" fill="#EBEBEB"/>
  <rect x="35.835" width="36.0711" height="18.9688" rx="2" fill="#EBEBEB"/>
  <path d="M40.2174 23.0449L41.8173 13.3529L50.4209 13.8871L40.2174 23.0449Z" fill="#EBEBEB"/>
  <rect width="22.8994" height="12.0422" rx="2" transform="matrix(-1 0 0 1 23.3232 9.52148)" fill="#EBEBEB"/>
  <path d="M20.542 24.1523L19.5264 17.9994L14.0645 18.3385L20.542 24.1523Z" fill="#EBEBEB"/>
</svg>