<svg xmlns="http://www.w3.org/2000/svg" width="12" height="12" viewBox="0 0 12 12" fill="none">
  <path fill-rule="evenodd" clip-rule="evenodd" d="M6.61775 10.7562C6.61775 11.1007 6.33855 11.3799 5.99414 11.3799C5.64973 11.3799 5.37053 11.1007 5.37053 10.7563L5.37053 6.63001L1.24429 6.63001C0.89988 6.63001 0.62068 6.35081 0.620681 6.0064C0.620681 5.66199 0.899881 5.38279 1.24429 5.38279L5.37053 5.38279L5.37053 1.23153C5.37053 0.887118 5.64973 0.607917 5.99414 0.607917C6.33855 0.607917 6.61775 0.887118 6.61775 1.23153L6.61775 5.38279L10.769 5.38279C11.1134 5.38279 11.3926 5.66199 11.3926 6.0064C11.3926 6.35081 11.1134 6.63001 10.769 6.63001H6.61775V10.7562Z" fill="#226FFF"/>
</svg>