<svg xmlns="http://www.w3.org/2000/svg" width="12" height="12" viewBox="0 0 12 12" fill="none">
  <path fill-rule="evenodd" clip-rule="evenodd" d="M6.61726 10.7562C6.61726 11.1007 6.33806 11.3799 5.99365 11.3799C5.64924 11.3799 5.37004 11.1007 5.37004 10.7563L5.37004 6.63001L1.2438 6.63001C0.899392 6.63001 0.620192 6.35081 0.620192 6.0064C0.620192 5.66199 0.899393 5.38279 1.2438 5.38279L5.37004 5.38279L5.37004 1.23153C5.37004 0.887118 5.64924 0.607917 5.99365 0.607917C6.33806 0.607917 6.61726 0.887118 6.61726 1.23153L6.61726 5.38279L10.7685 5.38279C11.1129 5.38279 11.3921 5.66199 11.3921 6.0064C11.3921 6.35081 11.1129 6.63001 10.7685 6.63001H6.61726V10.7562Z" fill="#8C8C8C"/>
</svg>