<svg width="32" height="33" viewBox="0 0 32 33" fill="none" xmlns="http://www.w3.org/2000/svg">
<rect y="0.267578" width="32" height="32" rx="9.84615" fill="white"/>
<path fill-rule="evenodd" clip-rule="evenodd" d="M16.999 13.1006C16.999 12.5483 16.5513 12.1006 15.999 12.1006C15.4467 12.1006 14.999 12.5483 14.999 13.1006V15.2676H12.833C12.2807 15.2676 11.833 15.7153 11.833 16.2676C11.833 16.8199 12.2807 17.2676 12.833 17.2676H14.999V19.4341C14.999 19.9864 15.4467 20.4341 15.999 20.4341C16.5513 20.4341 16.999 19.9864 16.999 19.4341V17.2676H19.1665C19.7188 17.2676 20.1665 16.8199 20.1665 16.2676C20.1665 15.7153 19.7188 15.2676 19.1665 15.2676H16.999V13.1006Z" fill="#226FFF"/>
</svg>
