<svg width="16" height="17" viewBox="0 0 16 17" fill="none" xmlns="http://www.w3.org/2000/svg">
<path fill-rule="evenodd" clip-rule="evenodd" d="M2.10234 1.93525C2.10234 1.75139 2.25139 1.60234 2.43525 1.60234H5.11434C5.2982 1.60234 5.44725 1.75139 5.44725 1.93525V2.76469L4.94746 2.76424L4.94664 2.76424L3.54883 2.76488L2.95014 2.76515L2.94912 3.3639L2.94153 7.84186C2.94034 8.54411 3.19118 9.22347 3.64844 9.75641L8.87486 15.8479C9.60363 16.6973 10.8876 16.783 11.7228 16.038L15.2344 12.9058C16.0473 12.1807 16.1303 10.9382 15.4209 10.1115L10.1929 4.01814C9.71048 3.45592 9.0332 3.09714 8.29713 3.0139L7.81012 2.95883L7.14273 2.88336L7.14273 3.55507L7.14273 5.74079C7.14273 6.12182 6.83388 6.43071 6.45288 6.43071L6.20981 6.43071C5.96307 6.43071 5.76305 6.23067 5.76305 5.9839V5.79703C5.76305 5.65347 5.87942 5.53708 6.02297 5.53708H6.04594L6.64592 5.53709L6.64592 5.2345H6.64725V1.93525C6.64725 1.08865 5.96095 0.402344 5.11434 0.402344H2.43525C1.58865 0.402344 0.902344 1.08865 0.902344 1.93525V4.01656C0.902344 4.34793 1.17097 4.61656 1.50234 4.61656C1.83371 4.61656 2.10234 4.34793 2.10234 4.01656V1.93525ZM5.44598 3.96475V4.45549C4.92668 4.67919 4.56311 5.19566 4.56311 5.79705L4.56311 5.98391C4.56311 6.89345 5.30035 7.63077 6.2098 7.63077H6.45287C7.49658 7.63077 8.34267 6.78458 8.34267 5.74077L8.34267 4.23647C8.70692 4.31724 9.03715 4.51399 9.28222 4.79963L14.5103 10.893C14.7939 11.2235 14.7607 11.7203 14.4357 12.0102L10.9241 15.1424C10.5902 15.4402 10.0769 15.406 9.7855 15.0664L4.55908 8.97492C4.28895 8.66008 4.14076 8.25874 4.14147 7.84388L4.14804 3.96467L4.94636 3.9643L4.94717 3.9643L5.44598 3.96475Z" fill="black" fill-opacity="0.6"/>
</svg>
