<svg width="16" height="14" viewBox="0 0 16 14" fill="none" xmlns="http://www.w3.org/2000/svg">
<path fill-rule="evenodd" clip-rule="evenodd" d="M2.93797 1.63291C2.7542 1.63291 2.57795 1.70591 2.448 1.83586C2.31805 1.96581 2.24504 2.14206 2.24504 2.32583V6.79837H9.14956L9.14271 6.80519C8.80291 7.14422 8.54841 7.51991 8.37924 7.93225H2.02849L1.20696 9.57531C1.1542 9.68095 1.12925 9.79844 1.13459 9.9164C1.13994 10.0344 1.17536 10.1491 1.2375 10.2495C1.29964 10.35 1.38643 10.4329 1.48963 10.4904C1.59283 10.5479 1.70901 10.578 1.82713 10.578H8.36864C8.53417 10.9926 8.78497 11.3706 9.12103 11.7119H1.82766C1.51633 11.712 1.20986 11.6325 0.937872 11.481C0.665803 11.3294 0.436992 11.1109 0.273171 10.846C0.109351 10.5811 0.015961 10.2788 0.00187094 9.9677C-0.0122191 9.65659 0.0534591 9.34705 0.192667 9.06847L1.11116 7.23147V2.32583C1.11116 1.84133 1.30363 1.37668 1.64622 1.03408C1.98882 0.69149 2.45347 0.499023 2.93797 0.499023H10.4972C10.9817 0.499023 11.4463 0.69149 11.7889 1.03408C12.1315 1.37668 12.324 1.84133 12.324 2.32583V5.85688C12.0944 5.8121 11.8553 5.78984 11.6066 5.79011C11.4646 5.79026 11.3258 5.7977 11.1901 5.81244V2.32583C11.1901 2.14206 11.1171 1.96581 10.9872 1.83586C10.8572 1.70591 10.681 1.63291 10.4972 1.63291H2.93797ZM13.0254 10.6888C12.7209 10.9932 12.3482 11.1455 11.9072 11.1455C11.4663 11.1455 11.0936 10.9932 10.7891 10.6888C10.4846 10.3843 10.3324 10.0116 10.3324 9.57064C10.3324 9.12968 10.4846 8.75697 10.7891 8.4525C11.0936 8.14804 11.4663 7.9958 11.9072 7.9958C12.3482 7.9958 12.7209 8.14804 13.0254 8.4525C13.3298 8.75697 13.4821 9.12968 13.4821 9.57064C13.4821 10.0116 13.3298 10.3843 13.0254 10.6888ZM13.4191 11.9644L15.1199 13.6652L16.0018 12.7833L14.301 11.0825C14.448 10.8515 14.5582 10.61 14.6317 10.3581C14.7052 10.1061 14.7419 9.84361 14.7419 9.57064C14.7432 8.78448 14.4677 8.11528 13.9155 7.56304C13.3632 7.01079 12.6938 6.73509 11.9072 6.73593C11.1207 6.73677 10.4515 7.01247 9.89964 7.56304C9.34781 8.1136 9.07211 8.7828 9.07253 9.57064C9.07295 10.3585 9.34865 11.0279 9.89964 11.5789C10.4506 12.1299 11.1198 12.4053 11.9072 12.4053C12.1802 12.4053 12.4427 12.3686 12.6947 12.2951C12.9466 12.2216 13.1881 12.1114 13.4191 11.9644Z" fill="black" fill-opacity="0.6"/>
</svg>
