<svg width="14" height="12" viewBox="0 0 14 12" fill="none" xmlns="http://www.w3.org/2000/svg">
<path d="M12.4067 0.196864C12.257 0.087652 12.0859 0.0215813 11.9082 0.00445921C11.7306 -0.0126629 11.552 0.0196879 11.3881 0.0986678L6.01617 2.48483C5.88912 2.54369 5.75302 2.57372 5.61567 2.5732H2.17662C1.88798 2.5732 1.61116 2.70252 1.40707 2.93271C1.20297 3.1629 1.08831 3.47511 1.08831 3.80065V3.89885H0V6.84472H1.08831V6.97237C1.09513 7.29278 1.21279 7.59747 1.41616 7.82133C1.61952 8.04519 1.89245 8.17046 2.17662 8.17036L3.48259 11.293C3.57102 11.5033 3.71024 11.6812 3.88427 11.8062C4.0583 11.9313 4.26007 11.9984 4.46642 12H5.01493C5.30205 11.9974 5.57664 11.8669 5.77885 11.637C5.98107 11.4071 6.09454 11.0964 6.09453 10.7726V8.2882L11.3881 10.6744C11.5184 10.7321 11.6572 10.7621 11.7973 10.7627C12.0146 10.7582 12.2262 10.6832 12.4067 10.5467C12.5499 10.4377 12.668 10.2917 12.7513 10.121C12.8346 9.9502 12.8806 9.75954 12.8856 9.56474V1.20828C12.8848 1.00847 12.8407 0.811895 12.7573 0.635635C12.6738 0.459376 12.5535 0.308758 12.4067 0.196864ZM5.00622 3.80065V6.97237H2.17662V3.80065H5.00622ZM5.00622 10.7726H4.45771L3.38682 8.17036H5.00622V10.7726ZM6.41667 7.11967C6.31328 7.06013 6.20549 7.01085 6.09453 6.97237V3.73191C6.2044 3.70615 6.31216 3.67002 6.41667 3.6239L11.7973 1.20828V9.53528L6.41667 7.11967ZM12.9117 4.14433V6.59923C13.2003 6.59923 13.4771 6.46991 13.6812 6.23972C13.8853 6.00953 14 5.69732 14 5.37178C14 5.04624 13.8853 4.73404 13.6812 4.50385C13.4771 4.27365 13.2003 4.14433 12.9117 4.14433Z" fill="black" fill-opacity="0.6"/>
</svg>
