<svg xmlns="http://www.w3.org/2000/svg" width="20" height="21" viewBox="0 0 20 21" fill="none">
  <path d="M10 17.375H3.75C3.58424 17.375 3.42527 17.3092 3.30806 17.1919C3.19085 17.0747 3.125 16.9158 3.125 16.75V10.5C3.125 10.3342 3.19085 10.1753 3.30806 10.0581C3.42527 9.94085 3.58424 9.875 3.75 9.875H10M10 17.375V9.875M10 17.375H16.25C16.4158 17.375 16.5747 17.3092 16.6919 17.1919C16.8092 17.0747 16.875 16.9158 16.875 16.75V10.5C16.875 10.3342 16.8092 10.1753 16.6919 10.0581C16.5747 9.94085 16.4158 9.875 16.25 9.875H10M13.125 10.5V13M10.625 4.25V6.75M6.875 10.5V13M5.625 4.25V9.875H14.375V4.25C14.375 4.08424 14.3092 3.92527 14.1919 3.80806C14.0747 3.69085 13.9158 3.625 13.75 3.625H6.25C6.08424 3.625 5.92527 3.69085 5.80806 3.80806C5.69085 3.92527 5.625 4.08424 5.625 4.25Z" stroke="#226FFF" stroke-width="1.5"/>
</svg>