<svg xmlns="http://www.w3.org/2000/svg" width="20" height="21" viewBox="0 0 20 21" fill="none">
  <path fill-rule="evenodd" clip-rule="evenodd" d="M10.05 6.14502C10.2309 6.14502 10.4043 6.21685 10.5322 6.34472C10.66 6.47259 10.7319 6.64601 10.7319 6.82684V6.83593C11.7219 7.08593 12.55 7.86593 12.55 8.94775C12.55 9.12858 12.4782 9.302 12.3503 9.42987C12.2225 9.55773 12.0491 9.62956 11.8682 9.62956C11.6874 9.62956 11.514 9.55773 11.3861 9.42987C11.2582 9.302 11.1864 9.12858 11.1864 8.94775C11.1864 8.59866 10.7991 8.11502 10.05 8.11502C9.30096 8.11502 8.91369 8.59866 8.91369 8.94775C8.91369 9.29684 9.30096 9.78138 10.05 9.78138C11.3091 9.78138 12.55 10.6541 12.55 11.9787C12.55 13.0605 11.7219 13.8414 10.7319 14.0905V14.0996C10.7319 14.2804 10.66 14.4538 10.5322 14.5817C10.4043 14.7095 10.2309 14.7814 10.05 14.7814C9.86922 14.7814 9.6958 14.7095 9.56793 14.5817C9.44007 14.4538 9.36823 14.2804 9.36823 14.0996V14.0905C8.37823 13.8414 7.55005 13.0605 7.55005 11.9787C7.55005 11.7978 7.62188 11.6244 7.74975 11.4965C7.87761 11.3687 8.05104 11.2968 8.23187 11.2968C8.4127 11.2968 8.58612 11.3687 8.71399 11.4965C8.84185 11.6244 8.91369 11.7978 8.91369 11.9787C8.91369 12.3277 9.30096 12.8114 10.05 12.8114C10.7991 12.8114 11.1864 12.3277 11.1864 11.9787C11.1864 11.6296 10.7991 11.145 10.05 11.145C8.79096 11.145 7.55005 10.2723 7.55005 8.94775C7.55005 7.86593 8.37823 7.08593 9.36823 6.83593V6.82684C9.36823 6.64601 9.44007 6.47259 9.56793 6.34472C9.6958 6.21685 9.86922 6.14502 10.05 6.14502Z" fill="#226FFF"/>
  <path d="M17.25 10.5C17.25 14.5041 14.0041 17.75 10 17.75C8.84119 17.75 7.7479 17.4787 6.77822 16.9968C6.5148 16.8659 6.24127 16.8664 6.05952 16.8819C5.86305 16.8986 5.66048 16.9443 5.47597 16.9941C5.2579 17.053 4.99088 17.14 4.73582 17.2231C4.58748 17.2714 4.44319 17.3184 4.31493 17.3577C3.9191 17.4793 3.5817 17.5614 3.31302 17.5759C3.04018 17.5906 2.97869 17.5291 2.9748 17.5253L2.97477 17.5252C2.79322 17.3437 2.75786 17.1932 2.76404 17.0379C2.77199 16.8385 2.85425 16.5907 3.01156 16.2627C3.0725 16.1357 3.1365 16.0126 3.20506 15.8807C3.22321 15.8458 3.24169 15.8102 3.26052 15.7738C3.34593 15.6087 3.43888 15.4253 3.51455 15.2427C3.64656 14.9241 3.83493 14.3655 3.55513 13.8242C3.04081 12.8293 2.75 11.6997 2.75 10.5C2.75 6.49594 5.99594 3.25 10 3.25C14.0041 3.25 17.25 6.49594 17.25 10.5Z" stroke="#226FFF" stroke-width="1.5"/>
</svg>