<svg xmlns="http://www.w3.org/2000/svg" width="20" height="21" viewBox="0 0 20 21" fill="none">
  <path d="M8.26923 13.9615H11.7308M10 18C11.9891 18 13.8968 17.2098 15.3033 15.8033C16.7098 14.3968 17.5 12.4891 17.5 10.5C17.5 8.51088 16.7098 6.60322 15.3033 5.1967C13.8968 3.79018 11.9891 3 10 3C8.01088 3 6.10322 3.79018 4.6967 5.1967C3.29018 6.60322 2.5 8.51088 2.5 10.5C2.5 12.4891 3.29018 14.3968 4.6967 15.8033C6.10322 17.2098 8.01088 18 10 18Z" stroke="#226FFF" stroke-width="1.5" stroke-linecap="round" stroke-linejoin="round"/>
  <path d="M10 13.9618V9.92334H8.84619" stroke="#226FFF" stroke-width="1.5" stroke-linecap="round" stroke-linejoin="round"/>
  <circle cx="10" cy="7.03857" r="1" fill="#226FFF"/>
</svg>