<svg xmlns="http://www.w3.org/2000/svg" width="20" height="21" viewBox="0 0 20 21" fill="none">
  <path d="M1.66663 17.1666H3.33329M3.33329 17.1666H7.49996M3.33329 17.1666V6.49992C3.33329 5.56659 3.33329 5.09992 3.51496 4.74325C3.67496 4.42909 3.92913 4.17492 4.24329 4.01492C4.59996 3.83325 5.06663 3.83325 5.99996 3.83325H7.33329C8.26663 3.83325 8.73329 3.83325 9.08913 4.01492C9.40329 4.17492 9.65913 4.42909 9.81829 4.74325C9.99996 5.09909 9.99996 5.56575 9.99996 6.49742V8.83325M7.49996 17.1666H16.6666M7.49996 17.1666V12.4733C7.49996 12.0358 7.49996 11.8166 7.55246 11.6124C7.59968 11.4302 7.67524 11.2608 7.77913 11.1041C7.89579 10.9291 8.05913 10.7816 8.38413 10.4899L10.3025 8.76659C10.9316 8.20159 11.2466 7.91909 11.6025 7.81159C11.9161 7.7171 12.2505 7.7171 12.5641 7.81159C12.9208 7.91909 13.2358 8.20158 13.8658 8.76742L15.7825 10.4899C16.1075 10.7816 16.27 10.9291 16.3875 11.1041C16.4908 11.2599 16.5675 11.4316 16.6133 11.6124C16.6666 11.8166 16.6666 12.0358 16.6666 12.4733V17.1666M16.6666 17.1666H18.3333" stroke="#226FFF" stroke-width="1.5" stroke-linecap="round" stroke-linejoin="round"/>
</svg>