<svg xmlns="http://www.w3.org/2000/svg" width="20" height="21" viewBox="0 0 20 21" fill="none">
  <g clip-path="url(#clip0_318_3496)">
    <path d="M-5 0.380371H25V20.3804H-5V0.380371Z" fill="white"/>
    <path d="M1.6084 7.22021L3.85493 3.85041L4.41656 4.22483L2.17003 7.59464L1.6084 7.22021ZM2.45085 7.78185L4.69738 4.41204L5.25902 4.78646L3.01248 8.15627L2.45085 7.78185ZM3.2933 8.34348L5.53983 4.97367L6.10147 5.3481L3.85494 8.7179L3.2933 8.34348Z" fill="black"/>
    <path d="M13.9644 15.4565L16.2109 12.0867L16.7725 12.4612L14.526 15.831L13.9644 15.4565ZM14.8068 16.0182L17.0533 12.6484L17.615 13.0228L15.3684 16.3926L14.8068 16.0182ZM15.6493 16.5798L17.8958 13.21L18.4574 13.5844L16.2109 16.9542L15.6493 16.5798Z" fill="black"/>
    <path d="M14.8069 13.5845L17.6151 15.4566L14.8069 13.5845Z" fill="black"/>
    <path d="M14.8069 13.5845L17.6151 15.4566" stroke="white" stroke-width="0.3375"/>
    <path d="M6.66309 8.15527C7.2589 7.26155 8.18535 6.64111 9.23862 6.43045C10.2919 6.2198 11.3857 6.43618 12.2794 7.032C13.1732 7.62782 13.7936 8.55426 14.0042 9.60753C14.2149 10.6608 13.9985 11.7546 13.4027 12.6483L6.66309 8.15527Z" fill="#CD2E3A"/>
    <path d="M6.66304 8.15558C6.06722 9.04931 5.85084 10.1431 6.06149 11.1964C6.27215 12.2497 6.89258 13.1761 7.78631 13.7719C8.68004 14.3677 9.77385 14.5841 10.8271 14.3735C11.8804 14.1628 12.8068 13.5424 13.4026 12.6486C13.7006 12.2018 13.8087 11.6549 13.7034 11.1282C13.5981 10.6016 13.2879 10.1384 12.841 9.84048C12.3941 9.54257 11.8472 9.43438 11.3206 9.53971C10.794 9.64503 10.3308 9.95525 10.0328 10.4021L6.66304 8.15558Z" fill="#0047A0"/>
    <path d="M10.0329 10.4024C10.6532 9.4719 10.4018 8.21464 9.47123 7.59428C8.54068 6.97392 7.28342 7.22537 6.66306 8.15592C6.0427 9.08646 6.29415 10.3437 7.2247 10.9641C8.15524 11.5844 9.4125 11.333 10.0329 10.4024Z" fill="#CD2E3A"/>
    <path d="M3.85522 16.9546L1.60869 13.5848L2.17033 13.2104L4.41686 16.5802L3.85522 16.9546ZM4.69768 16.393L2.45114 13.0232L3.01278 12.6487L5.25931 16.0185L4.69768 16.393ZM5.54013 15.8313L3.2936 12.4615L3.85523 12.0871L6.10176 15.4569L5.54013 15.8313Z" fill="black"/>
    <path d="M16.2112 8.71777L13.9646 5.34797L14.5263 4.97355L16.7728 8.34335L16.2112 8.71777ZM17.0536 8.15614L14.8071 4.78633L15.3687 4.41191L17.6153 7.78172L17.0536 8.15614ZM17.8961 7.59451L15.6496 4.2247L16.2112 3.85028L18.4577 7.22009L17.8961 7.59451Z" fill="black"/>
    <path d="M3.43408 14.8018L4.27653 14.2401L3.43408 14.8018ZM14.8072 7.21971L15.79 6.56447L14.8072 7.21971ZM16.6325 6.00284L17.4749 5.44121L16.6325 6.00284Z" fill="black"/>
    <path d="M3.43408 14.8018L4.27653 14.2401M14.8072 7.21971L15.79 6.56447M16.6325 6.00284L17.4749 5.44121" stroke="white" stroke-width="0.3375"/>
  </g>
  <defs>
    <clipPath id="clip0_318_3496">
      <rect width="30" height="20" fill="white" transform="translate(-5 0.380859)"/>
    </clipPath>
  </defs>
</svg>