<svg width="20" height="21" viewBox="0 0 20 21" fill="none" xmlns="http://www.w3.org/2000/svg">
<g clip-path="url(#clip0_3097_5746)">
<rect y="0.5" width="20" height="20" rx="10" fill="white"/>
<g clip-path="url(#clip1_3097_5746)">
<path fill-rule="evenodd" clip-rule="evenodd" d="M-4 0.5H26V20.5H-4V0.5Z" fill="#FE0000"/>
<path fill-rule="evenodd" clip-rule="evenodd" d="M-4 0.5H11V10.5H-4V0.5Z" fill="#000095"/>
<path d="M6.25 2L4.375 8.9976L9.4976 3.875L2.5 5.75L9.4976 7.625L4.375 2.5024L6.25 9.5L8.125 2.5024L3.0024 7.625L10 5.75L3.0024 3.875L8.125 8.9976L6.25 2Z" fill="white"/>
<path d="M6.24988 7.75C7.35445 7.75 8.24988 6.85457 8.24988 5.75C8.24988 4.64543 7.35445 3.75 6.24988 3.75C5.14531 3.75 4.24988 4.64543 4.24988 5.75C4.24988 6.85457 5.14531 7.75 6.24988 7.75Z" fill="white" stroke="#000095" stroke-width="0.25"/>
</g>
</g>
<defs>
<clipPath id="clip0_3097_5746">
<rect y="0.5" width="20" height="20" rx="10" fill="white"/>
</clipPath>
<clipPath id="clip1_3097_5746">
<rect width="30" height="20" fill="white" transform="translate(-4 0.5)"/>
</clipPath>
</defs>
</svg>
