<svg xmlns="http://www.w3.org/2000/svg" width="20" height="21" viewBox="0 0 20 21" fill="none">
  <path d="M5.66488 12.096H15.1451C15.8519 12.096 16.5297 12.3768 17.0295 12.8765C17.5292 13.3763 17.81 14.0541 17.81 14.7609C17.81 15.4677 17.5292 16.1455 17.0295 16.6452C16.5297 17.145 15.8519 17.4258 15.1451 17.4258H5.66488C4.95811 17.4258 4.28028 17.145 3.78052 16.6452C3.28076 16.1455 3 15.4677 3 14.7609C3 14.0541 3.28076 13.3763 3.78052 12.8765C4.28028 12.3768 4.95811 12.096 5.66488 12.096ZM14.3879 3.56494H6.29496C5.88916 3.56494 5.55967 3.8586 5.55967 4.22162V11.4393C5.55967 11.8024 5.88916 12.096 6.29496 12.096H14.3879C14.7937 12.096 15.1232 11.8024 15.1232 11.4393V4.22162C15.1232 3.8586 14.7937 3.56494 14.3879 3.56494Z" stroke="#226FFF" stroke-width="1.5" stroke-linecap="round" stroke-linejoin="round"/>
  <path d="M11.8132 3.56512V6.84621C11.8126 6.89015 11.8027 6.93346 11.7841 6.97331C11.7656 7.01315 11.7389 7.04864 11.7057 7.07744C11.6337 7.14038 11.5412 7.1749 11.4455 7.17455H9.23734C9.14225 7.17494 9.05025 7.14085 8.97837 7.07859C8.94518 7.04979 8.91845 7.01431 8.89992 6.97446C8.88139 6.93462 8.87149 6.89131 8.87085 6.84737V3.56396" stroke="#226FFF" stroke-width="1.5" stroke-linecap="round" stroke-linejoin="round"/>
  <circle cx="6.5" cy="14.8501" r="1" fill="#226FFF"/>
  <circle cx="10.5" cy="14.8501" r="1" fill="#226FFF"/>
  <circle cx="14.5" cy="14.8501" r="1" fill="#226FFF"/>
</svg>