<svg xmlns="http://www.w3.org/2000/svg" width="20" height="21" viewBox="0 0 20 21" fill="none">
  <path d="M13.0301 3.83423H14.8481C15.1695 3.83423 15.4778 3.96192 15.7051 4.18922C15.9324 4.41651 16.0601 4.72479 16.0601 5.04623V17.1662C16.0601 17.4877 15.9324 17.7959 15.7051 18.0232C15.4778 18.2505 15.1695 18.3782 14.8481 18.3782H5.15206C4.83062 18.3782 4.52234 18.2505 4.29505 18.0232C4.06776 17.7959 3.94006 17.4877 3.94006 17.1662V5.04623C3.94006 4.72479 4.06776 4.41651 4.29505 4.18922C4.52234 3.96192 4.83062 3.83423 5.15206 3.83423H6.97006" stroke="#226FFF" stroke-width="1.5" stroke-linecap="round" stroke-linejoin="round"/>
  <path d="M11.818 2.62207H8.18199C7.86055 2.62207 7.55227 2.74976 7.32498 2.97706C7.09769 3.20435 6.96999 3.51263 6.96999 3.83407V4.44007C6.96999 4.76151 7.09769 5.06979 7.32498 5.29708C7.55227 5.52438 7.86055 5.65207 8.18199 5.65207H11.818C12.1394 5.65207 12.4477 5.52438 12.675 5.29708C12.9023 5.06979 13.03 4.76151 13.03 4.44007V3.83407C13.03 3.51263 12.9023 3.20435 12.675 2.97706C12.4477 2.74976 12.1394 2.62207 11.818 2.62207ZM9.15523 8.33059C9.01701 8.33059 8.88445 8.3855 8.78671 8.48323C8.68898 8.58097 8.63407 8.71353 8.63407 8.85175V10.3146H7.17118C7.03296 10.3146 6.90041 10.3695 6.80267 10.4673C6.70493 10.565 6.65002 10.6976 6.65002 10.8358V12.5265C6.65002 12.8138 6.88394 13.0477 7.17118 13.0477H8.63407V14.5106C8.63407 14.7978 8.86798 15.0317 9.15523 15.0317H10.846C10.9842 15.0317 11.1167 14.9768 11.2145 14.8791C11.3122 14.7814 11.3671 14.6488 11.3671 14.5106V13.0453H12.83C12.9682 13.0453 13.1008 12.9904 13.1985 12.8926C13.2963 12.7949 13.3512 12.6623 13.3512 12.5241V10.8358C13.3509 10.6978 13.2958 10.5655 13.1981 10.4681C13.1004 10.3706 12.968 10.3158 12.83 10.3158H11.3671V8.85054C11.3668 8.71253 11.3118 8.58028 11.2141 8.48281C11.1164 8.38533 10.984 8.33059 10.846 8.33059H9.15523Z" stroke="#226FFF" stroke-width="1.5" stroke-linecap="round" stroke-linejoin="round"/>
</svg>