<svg xmlns="http://www.w3.org/2000/svg" width="16" height="15" viewBox="0 0 16 15" fill="none">
  <path d="M9.18691 4.30706L5.756 7.67077C5.42985 7.99334 5.25064 8.43419 5.25781 8.89744C5.26758 9.36608 5.46058 9.81223 5.79543 10.1402C6.13144 10.4727 6.58394 10.6635 7.05256 10.6716C7.28197 10.6764 7.51003 10.6353 7.72331 10.5507C7.93659 10.466 8.13079 10.3396 8.29447 10.1788L11.7245 6.81506C12.0481 6.49494 12.3033 6.11241 12.4745 5.69068C12.6458 5.26895 12.7296 4.81682 12.7209 4.36172C12.702 3.4244 12.3167 2.53177 11.6474 1.87523C10.9763 1.21114 10.0753 0.830909 9.13136 0.813431C8.67303 0.804284 8.21748 0.886577 7.79132 1.0555C7.36516 1.22443 6.97694 1.4766 6.64935 1.79728L3.21665 5.16188C2.73163 5.64229 2.34916 6.21615 2.09241 6.84871C1.83567 7.48126 1.70998 8.15934 1.72296 8.84189C1.75181 10.2475 2.33015 11.5859 3.33403 12.5703C4.34014 13.5662 5.69094 14.1366 7.10632 14.1634C7.79409 14.1778 8.47779 14.0547 9.11739 13.8014C9.75699 13.5482 10.3396 13.1698 10.8311 12.6886L14.262 9.32306" stroke="#226FFF" stroke-width="1.5" stroke-linecap="round" stroke-linejoin="round"/>
</svg>