<svg xmlns="http://www.w3.org/2000/svg" width="20" height="21" viewBox="0 0 20 21" fill="none">
  <g clip-path="url(#clip0_529_4292)">
    <path d="M0 0.5H29.6296V20.5H0V0.5Z" fill="#EE1C25"/>
    <path d="M5.59977 6.70264L7.51557 12.6723L2.5 8.98294H8.69955L3.68398 12.6723L5.59977 6.70264Z" fill="#FFFF00"/>
    <path d="M11.4567 5.69063L11.2753 7.77486L10.2121 5.98074L12.1138 6.79949L10.1 7.26884L11.4567 5.69063Z" fill="#FFFF00"/>
    <path d="M13.9846 8.13665L13.0186 9.98628L12.7263 7.91499L14.1652 9.4168L12.1293 9.0581L13.9846 8.13665Z" fill="#FFFF00"/>
    <path d="M14.2252 11.8255L12.598 13.1153L13.1657 11.1034L13.8743 13.0689L12.16 11.9005L14.2252 11.8255Z" fill="#FFFF00"/>
    <path d="M11.4151 13.3735L11.3192 15.4636L10.1834 13.7156L12.117 14.4538L10.1241 15.0073L11.4151 13.3735Z" fill="#FFFF00"/>
  </g>
  <defs>
    <clipPath id="clip0_529_4292">
      <rect width="29.6296" height="20" fill="white" transform="translate(0 0.5)"/>
    </clipPath>
  </defs>
</svg>