<svg xmlns="http://www.w3.org/2000/svg" width="20" height="21" viewBox="0 0 20 21" fill="none">
  <g clip-path="url(#clip0_529_4206)">
    <path d="M-2.85718 0.380859H35.1428V20.3809H-2.85718V0.380859Z" fill="#B22234"/>
    <path d="M-2.85718 2.68896H35.1428H-2.85718ZM35.1428 5.76589H-2.85718H35.1428ZM-2.85718 8.84281H35.1428H-2.85718ZM35.1428 11.9197H-2.85718H35.1428ZM-2.85718 14.9967H35.1428H-2.85718ZM35.1428 18.0736H-2.85718H35.1428Z" fill="black"/>
    <path d="M-2.85718 2.68896H35.1428M35.1428 5.76589H-2.85718M-2.85718 8.84281H35.1428M35.1428 11.9197H-2.85718M-2.85718 14.9967H35.1428M35.1428 18.0736H-2.85718" stroke="white" stroke-width="1.53846"/>
    <path d="M-2.85718 0.380859H12.3428V11.1501H-2.85718V0.380859Z" fill="#3C3B6E"/>
    <path d="M-0.324162 1.91895L0.0375505 3.03219L-0.909424 2.34417H0.261104L-0.685875 3.03219L-0.324162 1.91895Z" fill="white"/>
    <path d="M-0.324162 4.07227L0.0375505 5.18551L-0.909424 4.49749H0.261104L-0.685875 5.18551L-0.324162 4.07227Z" fill="white"/>
    <path d="M-0.324162 6.22656L0.0375505 7.3398L-0.909424 6.65178H0.261104L-0.685875 7.3398L-0.324162 6.22656Z" fill="white"/>
    <path d="M-0.324162 8.38037L0.0375505 9.49361L-0.909424 8.80559H0.261104L-0.685875 9.49361L-0.324162 8.38037Z" fill="white"/>
    <path d="M0.942683 0.840332L1.3044 1.95357L0.357422 1.26555H1.52795L0.580971 1.95357L0.942683 0.840332Z" fill="white"/>
    <path d="M0.942683 2.99463L1.3044 4.10787L0.357422 3.41985H1.52795L0.580971 4.10787L0.942683 2.99463Z" fill="white"/>
    <path d="M0.942683 5.14795L1.3044 6.26119L0.357422 5.57317H1.52795L0.580971 6.26119L0.942683 5.14795Z" fill="white"/>
    <path d="M0.942683 7.30225L1.3044 8.41549L0.357422 7.72747H1.52795L0.580971 8.41549L0.942683 7.30225Z" fill="white"/>
    <path d="M0.942683 9.45654L1.3044 10.5698L0.357422 9.88176H1.52795L0.580971 10.5698L0.942683 9.45654Z" fill="white"/>
    <path d="M2.20928 1.91895L2.571 3.03219L1.62402 2.34417H2.79455L1.84757 3.03219L2.20928 1.91895Z" fill="white"/>
    <path d="M2.20928 4.07227L2.571 5.18551L1.62402 4.49749H2.79455L1.84757 5.18551L2.20928 4.07227Z" fill="white"/>
    <path d="M2.20928 6.22656L2.571 7.3398L1.62402 6.65178H2.79455L1.84757 7.3398L2.20928 6.22656Z" fill="white"/>
    <path d="M2.20928 8.38037L2.571 9.49361L1.62402 8.80559H2.79455L1.84757 9.49361L2.20928 8.38037Z" fill="white"/>
    <path d="M3.47589 0.840332L3.8376 1.95357L2.89062 1.26555H4.06115L3.11417 1.95357L3.47589 0.840332Z" fill="white"/>
    <path d="M3.47589 2.99463L3.8376 4.10787L2.89062 3.41985H4.06115L3.11417 4.10787L3.47589 2.99463Z" fill="white"/>
    <path d="M3.47589 5.14795L3.8376 6.26119L2.89062 5.57317H4.06115L3.11417 6.26119L3.47589 5.14795Z" fill="white"/>
    <path d="M3.47589 7.30225L3.8376 8.41549L2.89062 7.72747H4.06115L3.11417 8.41549L3.47589 7.30225Z" fill="white"/>
    <path d="M3.47589 9.45654L3.8376 10.5698L2.89062 9.88176H4.06115L3.11417 10.5698L3.47589 9.45654Z" fill="white"/>
    <path d="M4.74273 1.91895L5.10445 3.03219L4.15747 2.34417H5.328L4.38102 3.03219L4.74273 1.91895Z" fill="white"/>
    <path d="M4.74273 4.07227L5.10445 5.18551L4.15747 4.49749H5.328L4.38102 5.18551L4.74273 4.07227Z" fill="white"/>
    <path d="M4.74273 6.22656L5.10445 7.3398L4.15747 6.65178H5.328L4.38102 7.3398L4.74273 6.22656Z" fill="white"/>
    <path d="M4.74273 8.38037L5.10445 9.49361L4.15747 8.80559H5.328L4.38102 9.49361L4.74273 8.38037Z" fill="white"/>
    <path d="M6.00909 0.840332L6.3708 1.95357L5.42383 1.26555H6.59436L5.64738 1.95357L6.00909 0.840332Z" fill="white"/>
    <path d="M6.00909 2.99463L6.3708 4.10787L5.42383 3.41985H6.59436L5.64738 4.10787L6.00909 2.99463Z" fill="white"/>
    <path d="M6.00909 5.14795L6.3708 6.26119L5.42383 5.57317H6.59436L5.64738 6.26119L6.00909 5.14795Z" fill="white"/>
    <path d="M6.00909 7.30225L6.3708 8.41549L5.42383 7.72747H6.59436L5.64738 8.41549L6.00909 7.30225Z" fill="white"/>
    <path d="M6.00909 9.45654L6.3708 10.5698L5.42383 9.88176H6.59436L5.64738 10.5698L6.00909 9.45654Z" fill="white"/>
    <path d="M7.27569 1.91895L7.6374 3.03219L6.69043 2.34417H7.86096L6.91398 3.03219L7.27569 1.91895Z" fill="white"/>
    <path d="M7.27569 4.07227L7.6374 5.18551L6.69043 4.49749H7.86096L6.91398 5.18551L7.27569 4.07227Z" fill="white"/>
    <path d="M7.27569 6.22656L7.6374 7.3398L6.69043 6.65178H7.86096L6.91398 7.3398L7.27569 6.22656Z" fill="white"/>
    <path d="M7.27569 8.38037L7.6374 9.49361L6.69043 8.80559H7.86096L6.91398 9.49361L7.27569 8.38037Z" fill="white"/>
    <path d="M8.54278 0.84082L8.90449 1.95406L7.95752 1.26604H9.12805L8.18107 1.95406L8.54278 0.84082Z" fill="white"/>
    <path d="M8.54278 2.99512L8.90449 4.10836L7.95752 3.42034H9.12805L8.18107 4.10836L8.54278 2.99512Z" fill="white"/>
    <path d="M8.54278 5.14893L8.90449 6.26217L7.95752 5.57415H9.12805L8.18107 6.26217L8.54278 5.14893Z" fill="white"/>
    <path d="M8.54278 7.30273L8.90449 8.41598L7.95752 7.72795H9.12805L8.18107 8.41598L8.54278 7.30273Z" fill="white"/>
    <path d="M8.54278 9.45703L8.90449 10.5703L7.95752 9.88225H9.12805L8.18107 10.5703L8.54278 9.45703Z" fill="white"/>
    <path d="M9.80938 1.91943L10.1711 3.03267L9.22412 2.34465H10.3946L9.44767 3.03267L9.80938 1.91943Z" fill="white"/>
    <path d="M9.80938 4.07275L10.1711 5.18599L9.22412 4.49797H10.3946L9.44767 5.18599L9.80938 4.07275Z" fill="white"/>
    <path d="M9.80938 6.22705L10.1711 7.34029L9.22412 6.65227H10.3946L9.44767 7.34029L9.80938 6.22705Z" fill="white"/>
    <path d="M9.80938 8.38086L10.1711 9.4941L9.22412 8.80608H10.3946L9.44767 9.4941L9.80938 8.38086Z" fill="white"/>
    <path d="M11.076 0.841797L11.4377 1.95504L10.4907 1.26702H11.6613L10.7143 1.95504L11.076 0.841797Z" fill="white"/>
    <path d="M11.076 2.99512L11.4377 4.10836L10.4907 3.42034H11.6613L10.7143 4.10836L11.076 2.99512Z" fill="white"/>
    <path d="M11.076 5.14941L11.4377 6.26266L10.4907 5.57463H11.6613L10.7143 6.26266L11.076 5.14941Z" fill="white"/>
    <path d="M11.076 7.30273L11.4377 8.41598L10.4907 7.72795H11.6613L10.7143 8.41598L11.076 7.30273Z" fill="white"/>
    <path d="M11.076 9.45752L11.4377 10.5708L10.4907 9.88274H11.6613L10.7143 10.5708L11.076 9.45752Z" fill="white"/>
  </g>
  <defs>
    <clipPath id="clip0_529_4206">
      <rect width="38" height="20" fill="white" transform="translate(-2.85718 0.380859)"/>
    </clipPath>
  </defs>
</svg>