<svg xmlns="http://www.w3.org/2000/svg" width="16" height="15" viewBox="0 0 16 15" fill="none">
  <path fill-rule="evenodd" clip-rule="evenodd" d="M8 1.0459C6.28827 1.0459 4.64664 1.72588 3.43626 2.93626C2.22588 4.14664 1.5459 5.78827 1.5459 7.5C1.5459 9.21173 2.22588 10.8534 3.43626 12.0637C4.64664 13.2741 6.28827 13.9541 8 13.9541C9.71173 13.9541 11.3534 13.2741 12.5637 12.0637C13.7741 10.8534 14.4541 9.21173 14.4541 7.5C14.4541 5.78827 13.7741 4.14664 12.5637 2.93626C11.3534 1.72588 9.71173 1.0459 8 1.0459ZM2.72915 2.22915C4.12707 0.831239 6.02305 0.0458984 8 0.0458984C9.97695 0.0458984 11.8729 0.831239 13.2708 2.22915C14.6688 3.62707 15.4541 5.52305 15.4541 7.5C15.4541 9.47695 14.6688 11.3729 13.2708 12.7708C11.8729 14.1688 9.97695 14.9541 8 14.9541C6.02305 14.9541 4.12707 14.1688 2.72915 12.7708C1.33124 11.3729 0.545898 9.47695 0.545898 7.5C0.545898 5.52305 1.33124 3.62707 2.72915 2.22915Z" fill="#666666"/>
  <path d="M7.42686 8.90995C7.43596 7.69089 7.80895 7.3179 8.43668 6.9358C8.80967 6.70837 9.10079 6.34447 9.10079 5.83501C9.10079 5.21639 8.61863 4.8252 8.01819 4.8252C7.49964 4.8252 6.98109 5.13451 6.9265 5.8805H6.09863C6.14412 4.77971 6.98109 4.13379 8.01819 4.13379C9.15538 4.13379 9.90137 4.87068 9.90137 5.8714C9.90137 6.581 9.56476 7.08136 9.00072 7.42707C8.43668 7.77277 8.22744 8.11847 8.20924 8.90995V8.95544H7.42686V8.90995ZM7.84534 10.8659C7.52693 10.8659 7.25401 10.6021 7.26311 10.2746C7.25401 9.95616 7.52693 9.69233 7.84534 9.69233C8.16375 9.69233 8.42758 9.95616 8.42758 10.2746C8.42758 10.6021 8.16375 10.8659 7.84534 10.8659Z" fill="#666666"/>
</svg>