<svg xmlns="http://www.w3.org/2000/svg" width="16" height="16" viewBox="0 0 16 16" fill="none">
  <path d="M2.35352 7.64652V9.05852C2.35343 9.42934 2.42639 9.79655 2.56824 10.1392C2.71008 10.4818 2.91804 10.7931 3.18022 11.0554C3.44239 11.3176 3.75367 11.5256 4.09625 11.6675C4.43884 11.8095 4.80603 11.8825 5.17685 11.8825H13.6468M2.35352 4.11719H10.8235C11.1944 4.1171 11.5617 4.19009 11.9043 4.33197C12.247 4.47386 12.5583 4.68187 12.8206 4.94412C13.0828 5.20637 13.2908 5.51772 13.4327 5.86039C13.5746 6.20305 13.6476 6.57031 13.6475 6.94119V8.35252" stroke="#323232" stroke-width="0.88" stroke-linecap="round" stroke-linejoin="round"/>
  <path d="M11.5282 9.76467L13.6462 11.882L11.5282 14M4.46956 6.23533L2.35156 4.11733L4.46956 2" stroke="#323232" stroke-width="0.88" stroke-linecap="round" stroke-linejoin="round"/>
</svg>