<svg xmlns="http://www.w3.org/2000/svg" width="34" height="42" viewBox="0 0 34 42" fill="none">
  <path fill-rule="evenodd" clip-rule="evenodd" d="M33.6665 26.8333C33.6665 31.988 29.4878 36.1666 24.3332 36.1666H23.3532C22.7088 36.1666 22.1865 35.6443 22.1865 35C22.1865 34.3556 22.7088 33.8333 23.3532 33.8333H24.3332C28.1992 33.8333 31.3332 30.6993 31.3332 26.8333V15.1666C31.3332 11.3006 28.1992 8.16662 24.3332 8.16662H16.1665V5.83329H24.3332C29.4878 5.83329 33.6665 10.012 33.6665 15.1666V26.8333Z" fill="#0453F4"/>
  <path fill-rule="evenodd" clip-rule="evenodd" d="M22.8274 0.341709C23.283 0.79732 23.283 1.53601 22.8274 1.99162L17.819 7L22.8274 12.0084C23.283 12.464 23.283 13.2027 22.8274 13.6583C22.3718 14.1139 21.6331 14.1139 21.1775 13.6583L15.3442 7.82496C14.8885 7.36935 14.8885 6.63065 15.3442 6.17504L15.5951 5.9241C15.6316 5.88756 15.5983 5.92094 15.5999 5.91934L21.1775 0.341709C21.6331 -0.113903 22.3718 -0.113903 22.8274 0.341709Z" fill="#0453F4"/>
  <path fill-rule="evenodd" clip-rule="evenodd" d="M0.00244141 15.1667C0.00244141 10.012 4.18112 5.83337 9.33578 5.83337H10.3158C10.9601 5.83337 11.4824 6.35571 11.4824 7.00004C11.4824 7.64437 10.9601 8.16671 10.3158 8.16671H9.33578C5.46978 8.16671 2.33577 11.3007 2.33577 15.1667V26.8334C2.33577 30.6994 5.46978 33.8334 9.33577 33.8334H17.5024V36.1667H9.33577C4.18112 36.1667 0.00244141 31.988 0.00244141 26.8334V15.1667Z" fill="#0453F4"/>
  <path fill-rule="evenodd" clip-rule="evenodd" d="M10.8415 41.6583C10.3859 41.2027 10.3859 40.464 10.8415 40.0084L15.8499 35L10.8415 29.9916C10.3859 29.536 10.3859 28.7973 10.8415 28.3417C11.2972 27.8861 12.0359 27.8861 12.4915 28.3417L18.3248 34.175C18.7804 34.6307 18.7804 35.3693 18.3248 35.825L18.0739 36.0759C18.0373 36.1124 18.0707 36.0791 18.0691 36.0807L12.4915 41.6583C12.0359 42.1139 11.2972 42.1139 10.8415 41.6583Z" fill="#0453F4"/>
</svg>