<svg width="16" height="13" viewBox="0 0 16 13" fill="none" xmlns="http://www.w3.org/2000/svg">
<path d="M8.45796 2.14023C9.05686 1.50928 10.0898 1.32887 11.3078 1.45158C12.4378 1.56514 13.5999 1.93052 14.4103 2.26935V11.3564C13.5697 11.0358 12.4809 10.7227 11.4003 10.6146C10.3984 10.5129 9.31419 10.5789 8.45796 11.0651V2.14023ZM8.00008 1.31239C7.09807 0.536748 5.79038 0.421363 4.5999 0.540411C3.21345 0.680521 1.81418 1.1558 0.942387 1.55232C0.862396 1.5887 0.794563 1.64733 0.746985 1.72121C0.699408 1.79509 0.674097 1.88111 0.674072 1.96898V12.0423C0.674093 12.1189 0.693337 12.1942 0.73004 12.2615C0.766744 12.3287 0.819733 12.3857 0.884156 12.4272C0.948578 12.4686 1.02237 12.4932 1.09878 12.4988C1.17519 12.5043 1.25177 12.4906 1.32151 12.4589C2.1292 12.0926 3.43048 11.6521 4.69147 11.5249C5.98177 11.3948 7.06327 11.6045 7.64294 12.328C7.68585 12.3814 7.74021 12.4246 7.80202 12.4543C7.86384 12.4839 7.93152 12.4993 8.00008 12.4993C8.06865 12.4993 8.13633 12.4839 8.19814 12.4543C8.25996 12.4246 8.31432 12.3814 8.35723 12.328C8.9369 11.6045 10.0184 11.3948 11.3078 11.5249C12.5697 11.6521 13.8719 12.0926 14.6787 12.4589C14.7484 12.4906 14.825 12.5043 14.9014 12.4988C14.9778 12.4932 15.0516 12.4686 15.116 12.4272C15.1804 12.3857 15.2334 12.3287 15.2701 12.2615C15.3068 12.1942 15.3261 12.1189 15.3261 12.0423V1.96898C15.3261 1.88111 15.3008 1.79509 15.2532 1.72121C15.2056 1.64733 15.1378 1.5887 15.0578 1.55232C14.186 1.1558 12.7867 0.680521 11.4003 0.540411C10.2098 0.420448 8.9021 0.536748 8.00008 1.31239Z" fill="white"/>
</svg>
