<svg xmlns="http://www.w3.org/2000/svg" width="16" height="16" viewBox="0 0 16 16" fill="none">
  <path d="M7.31818 10.8633H1.5V11.5047C1.5 12.2259 1.90747 12.8852 2.55252 13.2077C2.8169 13.3399 3.10843 13.4087 3.40403 13.4087H8.77273C7.9694 13.4087 7.31818 12.7575 7.31818 11.9542V10.8633Z" stroke="#226FFF" stroke-linecap="round" stroke-linejoin="round"/>
  <path d="M14.2275 5.40909H11.3184V5.40897C11.3184 4.31804 11.3184 2.5 12.7729 2.5C14.2275 2.5 14.2275 4.31818 14.2275 5.40909Z" stroke="#226FFF" stroke-linecap="round" stroke-linejoin="round"/>
  <path d="M4.04541 10.8636V7.95455V4.68182C4.04541 3.47683 5.02224 2.5 6.22723 2.5H12.7727C11.609 2.5 11.3181 3.95455 11.3181 5.40909V6M7.68177 13.4091H9.13632H10.5909C10.9925 13.4091 11.3181 13.0835 11.3181 12.6818V12.6818" stroke="#226FFF" stroke-linecap="round" stroke-linejoin="round"/>
  <circle cx="10.519" cy="9.33398" r="1.92443" transform="rotate(-45 10.519 9.33398)" stroke="#226FFF"/>
  <path d="M13.0223 12.5443C13.2175 12.7396 13.5341 12.7396 13.7294 12.5443C13.9247 12.3491 13.9247 12.0325 13.7294 11.8372L13.0223 12.5443ZM12.0901 10.905L12.4437 10.5515L12.4407 10.5485L12.0901 10.905ZM12.1651 11.6872L13.0223 12.5443L13.7294 11.8372L12.8722 10.9801L12.1651 11.6872ZM11.5881 11.1127L11.7395 11.2615L12.4407 10.5485L12.2892 10.3996L11.5881 11.1127ZM11.7365 11.2586L12.1651 11.6872L12.8722 10.9801L12.4436 10.5515L11.7365 11.2586Z" fill="#226FFF"/>
</svg>