<svg xmlns="http://www.w3.org/2000/svg" width="182" height="166" viewBox="0 0 182 166" fill="none">
  <path d="M52.7105 111.79L65.7541 98.8066L67.4542 117.422L53.5769 114.659C52.2444 114.394 51.7476 112.749 52.7105 111.79Z" fill="#226FFF" fill-opacity="0.2" stroke="#323232" stroke-width="2.54716" stroke-linecap="round"/>
  <path d="M128.526 111.79L115.482 98.8066L113.782 117.422L127.659 114.659C128.992 114.394 129.489 112.749 128.526 111.79Z" fill="#226FFF" fill-opacity="0.2" stroke="#323232" stroke-width="2.54716" stroke-linecap="round"/>
  <path d="M64.2059 75.9694L67.4575 114.802C67.5782 116.244 68.5986 117.45 70 117.809L77.8067 119.806C85.8031 121.852 94.2763 121.901 102.307 119.994H106.038C107.628 109.265 110.637 83.9985 109.957 68.7677C109.277 53.537 97.2066 31.255 89.9811 24.3447L85.7308 27.7293L78.8507 34.8797C76.1521 37.6843 73.7423 40.83 71.7261 44.159C65.9691 53.6644 63.2787 64.8954 64.2059 75.9694Z" fill="#226FFF" fill-opacity="0.32"/>
  <path d="M115.483 57.3456L116.345 60.8273C117.351 64.8865 117.683 69.0832 117.329 73.25L116.034 88.4946L113.777 115.058C113.666 116.372 112.804 117.502 111.567 117.958L108.238 119.184C96.8704 123.372 84.3829 123.372 73.0157 119.184L69.6889 117.959C68.4506 117.502 67.5887 116.37 67.4786 115.055L64.2059 75.9703C63.2787 64.8963 65.8798 53.8128 71.6367 44.3074L71.9393 43.8078C73.8349 40.6781 76.0515 37.7545 78.5533 35.0845L87.7256 25.2958C89.0666 23.8646 91.3377 23.8636 92.68 25.2935L102.137 35.3679C104.733 38.1333 107.09 41.1139 109.182 44.2777L112.508 49.3071" stroke="#323232" stroke-width="2.54716" stroke-linecap="round"/>
  <path d="M114.051 52.96L114.361 54.1152" stroke="#323232" stroke-width="2.54716" stroke-linecap="round"/>
  <path d="M103.752 141.206C103.752 153.857 90.4053 165.499 90.4053 165.499C90.4053 165.499 77.0586 153.857 77.0586 141.206C77.0586 133.869 83.0341 124.884 90.4053 124.884C97.7764 124.884 103.752 133.869 103.752 141.206Z" fill="#FF5922" fill-opacity="0.3"/>
  <path d="M98.469 138.283C98.469 145.927 90.4054 152.96 90.4054 152.96C90.4054 152.96 82.3418 145.927 82.3418 138.283C82.3418 133.85 85.952 128.422 90.4054 128.422C94.8588 128.422 98.469 133.85 98.469 138.283Z" fill="#FF3422" fill-opacity="0.3"/>
  <ellipse cx="128.659" cy="21.8077" rx="20.4013" ry="20.3077" fill="white"/>
  <path d="M149.417 25.0162C150.092 22.1686 150.299 19.782 149.929 18.4807C149.867 18.2606 149.966 18.0135 150.181 17.9335L151 17.6275C151.192 17.5558 151.409 17.6464 151.485 17.8371C152.79 21.1122 151.354 23.736 150.082 25.3667C149.829 25.6913 149.322 25.4168 149.417 25.0162Z" fill="#EFF1F5"/>
  <path d="M108.258 21.807C108.258 33.0226 117.392 42.1147 128.659 42.1147C123.053 41.5855 112.045 35.8692 110.167 17.5624C110.074 16.66 108.942 16.4934 108.744 17.3787C108.426 18.8041 108.258 20.286 108.258 21.807Z" fill="#EFF1F5"/>
  <ellipse cx="13.4758" cy="126.308" rx="11.4758" ry="11.4231" fill="white"/>
  <path d="M21.9156 131.687C20.4449 125.481 19.994 120.28 20.8003 117.444C20.9367 116.964 20.7194 116.426 20.2522 116.251L18.466 115.585C18.047 115.428 17.5751 115.626 17.4096 116.041C14.5664 123.179 17.6959 128.897 20.4667 132.451C21.0184 133.159 22.1225 132.56 21.9156 131.687Z" fill="#EFF1F5"/>
  <ellipse cx="75.1041" cy="131.807" rx="8.50056" ry="8.46153" fill="white"/>
  <ellipse cx="43.6521" cy="127.576" rx="25.5017" ry="25.3846" fill="white"/>
  <path d="M49.6885 152.247C60.8603 149.549 69.156 139.527 69.156 127.577C69.156 122.743 67.7983 118.224 65.4417 114.378C64.9604 113.592 63.8487 114.133 64.0272 115.036C66.1822 125.944 65.177 143.111 49.3501 150.809C48.4642 151.24 48.7309 152.478 49.6885 152.247Z" fill="#EFF1F5"/>
  <path d="M19.7129 121.23C20.1448 119.463 20.7656 117.77 21.5528 116.173C25.6342 107.892 34.1879 102.191 44.0793 102.191C57.9288 102.191 69.156 113.367 69.156 127.153C69.156 128.35 69.0713 129.528 68.9076 130.68" stroke="#323232" stroke-width="2.54716" stroke-linecap="round"/>
  <path d="M19 127.153C19 127.722 19.0191 128.286 19.0567 128.846" stroke="#323232" stroke-width="2.54716" stroke-linecap="round"/>
  <path d="M2 127.154C2 120.378 7.51845 114.885 14.3258 114.885C16.8646 114.885 19.2242 115.649 21.1851 116.959" stroke="#323232" stroke-width="2.54716" stroke-linecap="round"/>
  <path d="M69.0086 130.232C69.1764 126.263 72.5446 123.181 76.5316 123.348C80.5186 123.516 83.6146 126.868 83.4467 130.837L83.4467 132.653L89.9812 132.653" stroke="#323232" stroke-width="2.54716" stroke-linecap="round"/>
  <path d="M109.139 27.7307C108.566 25.8568 108.258 23.8681 108.258 21.8077C108.258 10.592 117.392 1.5 128.659 1.5C139.927 1.5 149.061 10.592 149.061 21.8077C149.061 22.9608 148.964 24.0916 148.778 25.1923" stroke="#323232" stroke-width="2.54716" stroke-linecap="round"/>
  <path d="M149.484 18.7169C150.498 17.5038 152.026 16.7314 153.735 16.7314C157.636 16.7314 159.26 19.1939 159.26 23.0776H165.21" stroke="#323232" stroke-width="2.54716" stroke-linecap="round"/>
  <path fill-rule="evenodd" clip-rule="evenodd" d="M38.3008 9.03846C38.3008 7.63651 39.4373 6.5 40.8392 6.5H91.866C93.268 6.5 94.4045 7.63651 94.4045 9.03846C94.4045 10.4404 93.268 11.5769 91.866 11.5769H71.9627L71.4578 12.2052C70.9585 12.8265 70.9585 13.7114 71.4578 14.3327L71.9629 14.9612H88.466C89.868 14.9612 91.0045 16.0977 91.0045 17.4997C91.0045 18.9016 89.868 20.0381 88.466 20.0381H25.5385C24.1365 20.0381 23 18.9016 23 17.4997C23 16.0977 24.1365 14.9612 25.5385 14.9612H59.0421L59.5472 14.3327C60.0466 13.7114 60.0466 12.8265 59.5472 12.2052L59.0423 11.5769H40.8392C39.4373 11.5769 38.3008 10.4404 38.3008 9.03846Z" fill="#226FFF" fill-opacity="0.12"/>
  <path fill-rule="evenodd" clip-rule="evenodd" d="M121.436 123.136C121.436 121.384 122.856 119.963 124.609 119.963H174.579C176.331 119.963 177.752 121.384 177.752 123.136C177.752 124.888 176.331 126.309 174.579 126.309H163.511L162.88 127.094C162.256 127.871 162.256 128.977 162.88 129.754L163.512 130.54H178.828C180.58 130.54 182.001 131.961 182.001 133.713C182.001 135.465 180.58 136.886 178.828 136.886H113.982C112.229 136.886 110.809 135.465 110.809 133.713C110.809 131.961 112.229 130.54 113.982 130.54H147.36L147.992 129.754C148.616 128.977 148.616 127.871 147.992 127.094L147.361 126.309H124.609C122.856 126.309 121.436 124.888 121.436 123.136Z" fill="#226FFF" fill-opacity="0.12"/>
  <path d="M86.7038 50.6041C84.5592 52.6093 80.6929 53.012 76.4238 50.5586C74.0751 49.2088 72.5395 47.5318 71.7452 45.8214" stroke="#323232" stroke-width="2.54716" stroke-linecap="round"/>
</svg>