<svg xmlns="http://www.w3.org/2000/svg" width="176" height="153" viewBox="0 0 176 153" fill="none">
  <path fill-rule="evenodd" clip-rule="evenodd" d="M31.1061 35.3494C30.8762 34.9245 30.3663 34.7076 29.9071 34.8572C27.1847 35.744 23.8319 35.4809 20.7428 33.8843C15.3548 31.0994 12.8095 25.3122 15.0575 20.9581C15.1079 20.8605 15.1603 20.7645 15.2145 20.67C15.4988 20.1753 15.3237 19.5071 14.817 19.2444C14.7203 19.1943 14.624 19.1426 14.5279 19.0892C10.1648 16.6654 8.21406 11.8421 10.1708 8.31621C12.1274 4.79029 17.2506 3.89689 21.6137 6.32075C22.7849 6.97135 23.7822 7.79482 24.5768 8.71966C24.8698 9.06072 25.3684 9.15277 25.7631 8.93757C29.8007 6.7359 35.7235 6.95314 41.0747 9.92593C41.7327 10.2914 42.3598 10.6863 42.9543 11.1063C43.1103 11.2165 43.2979 11.2711 43.4888 11.2751C44.7974 11.302 46.0155 11.8792 46.7486 12.9569C47.1971 13.6163 47.4048 14.3759 47.3943 15.1475C47.3916 15.3495 47.4438 15.5503 47.5582 15.7168C49.8442 19.0446 50.6478 22.8267 49.521 26.0619C49.317 26.6474 49.7053 27.3256 50.3041 27.4861C51.1486 27.7124 51.9397 28.124 52.6201 28.7279C53.9653 29.9218 54.616 31.6351 54.5737 33.4213C54.564 33.8294 54.8099 34.2042 55.1737 34.3892C55.8731 34.7448 56.4564 35.2937 56.8305 36.0129C57.2922 36.9002 57.359 37.8997 57.0956 38.8435C56.9404 39.3998 57.2269 40.0492 57.7368 40.3204C58.4483 40.6988 59.0559 41.2881 59.4553 42.0558C60.095 43.2855 60.0536 44.6905 59.4675 45.8426C59.1927 46.3826 59.3531 47.1366 59.8226 47.5197C59.981 47.6489 60.1306 47.7907 60.2698 47.9446C60.3185 47.9984 60.3982 48.0112 60.4626 47.9777C61.4408 47.4682 62.6442 47.8443 63.1505 48.8175C63.437 49.3682 63.4389 49.9921 63.2094 50.5223C63.0725 50.8385 63.0244 51.2031 63.1562 51.5214C63.1695 51.5535 63.1825 51.5857 63.1953 51.6182C63.5894 52.6209 63.668 53.6444 63.4779 54.5106C63.4 54.8654 63.492 55.2457 63.7449 55.5066C64.009 55.7788 64.2193 56.0501 64.3396 56.2814C64.8459 57.2547 65.0039 59.5274 64.0101 60.045C63.0163 60.5625 61.247 59.1289 60.7407 58.1557C60.6058 57.8964 60.4722 57.5273 60.3676 57.1155C60.2898 56.8093 60.0654 56.5614 59.7824 56.421C59.2733 56.1683 58.7898 55.7723 58.3791 55.2627C58.1571 54.9871 57.8069 54.8418 57.4539 54.8664C55.8565 54.9778 54.2735 54.1583 53.4905 52.6533C52.8421 51.4069 52.8934 49.9806 53.5024 48.8199C53.7724 48.3054 53.6237 47.5867 53.1683 47.2257C52.9003 47.0133 52.5368 46.9361 52.211 47.0395C50.1288 47.701 47.9161 46.9646 46.9885 45.1816C46.553 44.3444 46.4689 43.4074 46.682 42.5115C46.8463 41.8205 46.3518 40.9327 45.6584 40.7787C44.7197 40.5702 43.8386 40.1388 43.091 39.4753C42.8701 39.2792 42.6678 39.069 42.4843 38.8468C42.174 38.4711 41.629 38.3462 41.1919 38.5614C39.5637 39.3635 37.5355 39.5477 35.5453 38.9198C33.5402 38.2871 31.9762 36.9571 31.1061 35.3494Z" fill="#E0E4EB"/>
  <path d="M60.5396 138.562L69.7132 122.664L76.1544 140.186L62.111 141.092C60.7649 141.179 59.8653 139.73 60.5396 138.562Z" fill="#226FFF" fill-opacity="0.2" stroke="#323232" stroke-width="2.53398" stroke-linecap="round"/>
  <path d="M133.332 119.046L117.443 109.868L120.621 128.264L133.236 122.023C134.445 121.425 134.5 119.721 133.332 119.046Z" fill="#226FFF" fill-opacity="0.2" stroke="#323232" stroke-width="2.53398" stroke-linecap="round"/>
  <path d="M61.4342 100.898L74.6401 137.67C75.1262 139.023 76.4155 139.921 77.8534 139.906L85.7885 139.825C94.0393 139.741 102.169 137.63 109.426 133.701L113.007 132.741C111.761 121.981 108.122 96.8313 103.534 82.3126C98.9462 67.794 81.6038 49.4037 72.8835 44.5963L69.6786 48.9552L64.9146 57.6381C63.0543 61.0287 61.5752 64.6147 60.5043 68.3308L60.4007 68.6904C57.3521 79.2689 57.7137 90.5384 61.4342 100.898Z" fill="#226FFF" fill-opacity="0.32"/>
  <path d="M106.731 69.8695L108.485 73.0539C110.482 76.68 111.873 80.608 112.603 84.6829L115.308 99.7781L120.007 125.997C120.238 127.286 119.703 128.593 118.634 129.351L115.84 131.331C105.959 138.333 93.8998 141.566 81.8441 140.445L78.437 140.128C77.1314 140.007 76.0142 139.141 75.571 137.907L62.2796 100.897C58.5591 90.5372 58.1975 79.2677 61.2461 68.6892L61.4469 67.9926C62.4536 64.4993 63.8212 61.1202 65.5276 57.9101L71.8037 46.1033C72.7228 44.3743 74.9141 43.7858 76.575 44.8219L88.257 52.1091C91.4543 54.1035 94.4769 56.3654 97.2922 58.8703L101.799 62.88" stroke="#323232" stroke-width="2.53398" stroke-linecap="round"/>
  <path d="M104.225 66.0068L104.822 67.0415" stroke="#323232" stroke-width="2.53398" stroke-linecap="round"/>
  <path d="M119.825 88.5247C120.623 86.7293 121.292 84.271 122.831 82.9174C123.504 82.3256 124.384 81.9251 125.182 81.5309C126.544 80.8589 127.984 80.6315 129.5 80.9091C131.817 81.3333 133.929 82.3116 135.457 84.1533C136.062 84.8824 136.872 86.244 136.495 87.2916C136.134 88.2936 134.398 88.7604 133.507 88.9856C131.422 89.5126 130.745 87.319 130.05 85.7483C128.756 82.8284 131.766 80.4771 134.118 79.2867C136.643 78.0086 140.297 75.6201 143.215 77.0996" stroke="#323232" stroke-width="2.53398" stroke-linecap="round"/>
  <path d="M7.60254 140.768L153.729 140.768" stroke="#323232" stroke-width="2.53398" stroke-linecap="round"/>
  <path d="M2.53418 140.768H3.37884" stroke="#323232" stroke-width="2.53398" stroke-linecap="round"/>
  <path d="M157.952 140.768L174.001 140.768" stroke="#323232" stroke-width="2.53398" stroke-linecap="round"/>
  <path d="M73.5742 87.2949L80.1441 93.8683" stroke="#323232" stroke-width="1.68932" stroke-linecap="round"/>
  <path d="M75.9619 84.9023L82.5318 91.4758" stroke="#323232" stroke-width="1.68932" stroke-linecap="round"/>
  <path d="M80.1436 84.9043L73.5736 91.4777" stroke="#323232" stroke-width="1.68932" stroke-linecap="round"/>
  <path d="M82.5342 87.2949L75.9643 93.8683" stroke="#323232" stroke-width="1.68932" stroke-linecap="round"/>
  <path d="M55.748 68.9336L55.748 112.034" stroke="#323232" stroke-width="1.68932" stroke-linecap="round"/>
  <path d="M59.9717 91.7529L59.9717 119.642" stroke="#323232" stroke-width="1.68932" stroke-linecap="round"/>
  <path d="M64.1943 105.273L64.1943 127.246" stroke="#323232" stroke-width="1.68932" stroke-linecap="round"/>
  <path d="M69.6857 60.9064C71.3749 64.2859 70.1077 69.3573 66.7281 69.9586" stroke="#323232" stroke-width="1.68932" stroke-linecap="round"/>
  <path d="M148.985 66.8826C149.312 66.9018 149.639 66.8446 149.941 66.7154L154.389 64.8077L155.392 67.9465L156.685 72.3992L150.792 77.6748L149.741 73.7321C149.572 73.0994 149.12 72.5807 148.516 72.3277L143.934 70.4079L143.502 66.5597L148.985 66.8826ZM143.961 70.6546L143.961 70.654L143.961 70.6546Z" fill="#E0E4EB" stroke="#323232" stroke-width="2.53398"/>
</svg>