<svg width="305" height="309" viewBox="0 0 305 309" fill="none" xmlns="http://www.w3.org/2000/svg">
<g opacity="0.8" filter="url(#filter0_f_303_823)">
<path d="M14.3008 274.106C16.8619 270.079 21.3031 267.641 26.0752 267.641H89.6627C94.025 267.641 98.1184 269.749 100.651 273.301C104.449 278.625 100.695 286.023 94.1552 286.101L21.4657 286.971C14.8151 287.051 10.7313 279.718 14.3008 274.106Z" fill="black"/>
</g>
<g opacity="0.8" filter="url(#filter1_f_303_823)">
<path d="M280.676 274.106C278.115 270.079 273.673 267.641 268.901 267.641H205.314C200.952 267.641 196.858 269.749 194.325 273.301C190.528 278.625 194.282 286.023 200.821 286.101L273.511 286.971C280.161 287.051 284.245 279.718 280.676 274.106Z" fill="black"/>
</g>
<g filter="url(#filter2_bi_303_823)">
<path d="M139.979 186.844L145.775 182.07L152.935 171.16L223.171 272.423H204.332C198.849 272.423 193.731 269.678 190.698 265.111L166.573 228.781L139.979 186.844Z" fill="url(#paint0_linear_303_823)" fill-opacity="0.5"/>
</g>
<g filter="url(#filter3_bi_303_823)">
<path d="M139.979 186.844L145.775 182.07L152.935 171.16L223.171 272.423H204.332C198.849 272.423 193.731 269.678 190.698 265.111L166.573 228.781L139.979 186.844Z" fill="url(#paint1_linear_303_823)" fill-opacity="0.5"/>
</g>
<g filter="url(#filter4_bi_303_823)">
<path d="M146.116 79.1021L151.912 83.8755L159.072 94.786L226.241 0.000587463H207.401C201.919 0.000587463 196.8 2.74574 193.767 7.31289L169.642 43.6428L146.116 79.1021Z" fill="url(#paint2_linear_303_823)" fill-opacity="0.5"/>
</g>
<g filter="url(#filter5_bi_303_823)">
<path d="M146.116 79.1021L151.912 83.8755L159.072 94.786L226.241 0.000587463H207.401C201.919 0.000587463 196.8 2.74574 193.767 7.31289L169.642 43.6428L146.116 79.1021Z" fill="url(#paint3_linear_303_823)" fill-opacity="0.5"/>
</g>
<g filter="url(#filter6_bi_303_823)">
<path d="M30.4005 13.536C26.7392 7.63052 30.9864 0 37.9348 0H56.7857L126.681 132.972H104.45L30.4005 13.536Z" fill="url(#paint4_linear_303_823)" fill-opacity="0.5"/>
</g>
<g filter="url(#filter7_bi_303_823)">
<path d="M30.4007 13.5361C26.7393 7.6306 30.9865 0 37.9349 0H56.7857L126.681 132.972H104.452L30.4007 13.5361Z" fill="url(#paint5_linear_303_823)" fill-opacity="0.5"/>
</g>
<g filter="url(#filter8_bi_303_823)">
<path d="M24.6233 259.155C20.8835 265.057 25.1241 272.765 32.1115 272.765H57.0279L37.6289 262.499L71.6289 205.499L119.629 132.973H104.575L24.6233 259.155Z" fill="url(#paint6_linear_303_823)" fill-opacity="0.5"/>
</g>
<g filter="url(#filter9_bi_303_823)">
<path d="M24.6233 259.156C20.8835 265.058 25.1241 272.766 32.1115 272.766H57.0279L40.3412 267.763C38.0821 267.086 36.8964 264.611 37.784 262.426L42.6289 250.5L118.629 132.974H104.575L24.6233 259.156Z" fill="url(#paint7_linear_303_823)" fill-opacity="0.5"/>
</g>
<g filter="url(#filter10_b_303_823)">
<path d="M42.6651 272.764C40.4649 272.764 38.6313 271.984 37.1645 270.426C35.6977 268.607 34.9644 266.659 34.9644 264.581C34.9644 263.802 35.0865 263.022 35.331 262.243C35.5755 261.464 35.82 260.684 36.0644 259.905L117.106 133.654L41.565 12.8589C40.8316 11.3002 40.4648 9.74157 40.4648 8.18293C40.4648 6.10472 41.1983 4.28629 42.6651 2.72764C44.1319 0.909212 45.9653 0 48.1656 0H93.2702C96.4483 0 98.8929 0.909212 100.604 2.72764C102.56 4.54606 104.027 6.2346 105.005 7.79326L154.143 85.3361L203.648 7.79326C204.626 6.2346 206.093 4.54606 208.048 2.72764C210.004 0.909212 212.571 0 215.749 0H258.653C260.609 0 262.32 0.909212 263.787 2.72764C265.499 4.28629 266.354 6.10472 266.354 8.18293C266.354 10.0013 265.865 11.56 264.887 12.8589L189.346 133.265L270.755 259.905C271.244 260.684 271.488 261.464 271.488 262.243C271.732 263.022 271.855 263.802 271.855 264.581C271.855 266.659 271.121 268.607 269.654 270.426C268.188 271.984 266.354 272.764 264.154 272.764H217.583C214.405 272.764 211.838 271.855 209.882 270.036C208.171 268.218 206.826 266.659 205.848 265.36L152.309 183.531L99.1375 265.36C98.4041 266.659 97.0595 268.218 95.1037 270.036C93.3924 271.855 90.8255 272.764 87.403 272.764H42.6651Z" fill="url(#paint8_linear_303_823)" fill-opacity="0.5"/>
</g>
<g filter="url(#filter11_bi_303_823)">
<path d="M42.6651 272.764C40.4649 272.764 38.6313 271.984 37.1645 270.426C35.6977 268.607 34.9644 266.659 34.9644 264.581C34.9644 263.802 35.0865 263.022 35.331 262.243C35.5755 261.464 35.82 260.684 36.0644 259.905L117.106 133.654L41.565 12.8589C40.8316 11.3002 40.4648 9.74157 40.4648 8.18293C40.4648 6.10472 41.1983 4.28629 42.6651 2.72764C44.1319 0.909212 45.9653 0 48.1656 0H93.2702C96.4483 0 98.8929 0.909212 100.604 2.72764C102.56 4.54606 104.027 6.2346 105.005 7.79326L154.143 85.3361L203.648 7.79326C204.626 6.2346 206.093 4.54606 208.048 2.72764C210.004 0.909212 212.571 0 215.749 0H258.653C260.609 0 262.32 0.909212 263.787 2.72764C265.499 4.28629 266.354 6.10472 266.354 8.18293C266.354 10.0013 265.865 11.56 264.887 12.8589L189.346 133.265L270.755 259.905C271.244 260.684 271.488 261.464 271.488 262.243C271.732 263.022 271.855 263.802 271.855 264.581C271.855 266.659 271.121 268.607 269.654 270.426C268.188 271.984 266.354 272.764 264.154 272.764H217.583C214.405 272.764 211.838 271.855 209.882 270.036C208.171 268.218 206.826 266.659 205.848 265.36L152.309 183.531L99.1375 265.36C98.4041 266.659 97.0595 268.218 95.1037 270.036C93.3924 271.855 90.8255 272.764 87.403 272.764H42.6651Z" fill="url(#paint9_linear_303_823)" fill-opacity="0.5"/>
</g>
<g filter="url(#filter12_bdi_303_823)">
<path d="M42.7007 272.764C40.5005 272.764 38.6669 271.984 37.2001 270.426C35.7333 268.607 35 266.659 35 264.581C35 263.802 35.1222 263.022 35.3666 262.243C35.6111 261.464 35.8556 260.684 36.1001 259.905L117.141 133.654L41.6007 12.8589C40.8673 11.3002 40.5005 9.74157 40.5005 8.18293C40.5005 6.10472 41.2339 4.28629 42.7007 2.72764C44.1676 0.909212 46.001 0 48.2012 0H93.3059C96.484 0 98.9285 0.909212 100.64 2.72764C102.596 4.54606 104.062 6.2346 105.04 7.79326L154.179 85.3361L203.684 7.79326C204.661 6.2346 206.128 4.54606 208.084 2.72764C210.04 0.909212 212.607 0 215.785 0H258.689C260.645 0 262.356 0.909212 263.823 2.72764C265.534 4.28629 266.39 6.10472 266.39 8.18293C266.39 10.0013 265.901 11.56 264.923 12.8589L189.382 133.265L270.79 259.905C271.279 260.684 271.524 261.464 271.524 262.243C271.768 263.022 271.89 263.802 271.89 264.581C271.89 266.659 271.157 268.607 269.69 270.426C268.223 271.984 266.39 272.764 264.19 272.764H217.618C214.44 272.764 211.873 271.855 209.918 270.036C208.206 268.218 206.862 266.659 205.884 265.36L152.345 183.531L99.1731 265.36C98.4397 266.659 97.0951 268.218 95.1393 270.036C93.4281 271.855 90.8612 272.764 87.4386 272.764H42.7007Z" fill="url(#paint10_linear_303_823)" fill-opacity="0.5" shape-rendering="crispEdges"/>
</g>
<g filter="url(#filter13_i_303_823)">
<path d="M42.7007 272.764C40.5005 272.764 38.6669 271.984 37.2001 270.426C35.7333 268.607 35 266.659 35 264.581C35 263.802 35.1222 263.022 35.3666 262.243C35.6111 261.464 35.8556 260.684 36.1001 259.905L117.141 133.654L41.6007 12.8589C40.8673 11.3002 40.5005 9.74157 40.5005 8.18293C40.5005 6.10472 41.2339 4.28629 42.7007 2.72764C44.1676 0.909212 46.001 0 48.2012 0H93.3059C96.4839 0 98.9285 0.909212 100.64 2.72764C102.596 4.54606 104.062 6.2346 105.04 7.79326L154.179 85.3361L203.684 7.79326C204.661 6.2346 206.128 4.54606 208.084 2.72764C210.04 0.909212 212.607 0 215.785 0H258.689C260.645 0 262.356 0.909212 263.823 2.72764C265.534 4.28629 266.39 6.10472 266.39 8.18293C266.39 10.0013 265.901 11.56 264.923 12.8589L189.382 133.265L270.79 259.905C271.279 260.684 271.524 261.464 271.524 262.243C271.768 263.022 271.89 263.802 271.89 264.581C271.89 266.659 271.157 268.607 269.69 270.426C268.223 271.984 266.39 272.764 264.19 272.764H217.618C214.44 272.764 211.873 271.855 209.918 270.036C208.206 268.218 206.862 266.659 205.884 265.36L152.345 183.531L99.1731 265.36C98.4397 266.659 97.0951 268.218 95.1393 270.036C93.4281 271.855 90.8612 272.764 87.4386 272.764H42.7007Z" fill="white" fill-opacity="0.1"/>
</g>
<defs>
<filter id="filter0_f_303_823" x="0.565539" y="255.228" width="114.018" height="44.1574" filterUnits="userSpaceOnUse" color-interpolation-filters="sRGB">
<feFlood flood-opacity="0" result="BackgroundImageFix"/>
<feBlend mode="normal" in="SourceGraphic" in2="BackgroundImageFix" result="shape"/>
<feGaussianBlur stdDeviation="6.20649" result="effect1_foregroundBlur_303_823"/>
</filter>
<filter id="filter1_f_303_823" x="180.393" y="255.228" width="114.018" height="44.1574" filterUnits="userSpaceOnUse" color-interpolation-filters="sRGB">
<feFlood flood-opacity="0" result="BackgroundImageFix"/>
<feBlend mode="normal" in="SourceGraphic" in2="BackgroundImageFix" result="shape"/>
<feGaussianBlur stdDeviation="6.20649" result="effect1_foregroundBlur_303_823"/>
</filter>
<filter id="filter2_bi_303_823" x="119.521" y="150.703" width="124.107" height="142.178" filterUnits="userSpaceOnUse" color-interpolation-filters="sRGB">
<feFlood flood-opacity="0" result="BackgroundImageFix"/>
<feGaussianBlur in="BackgroundImageFix" stdDeviation="10.2286"/>
<feComposite in2="SourceAlpha" operator="in" result="effect1_backgroundBlur_303_823"/>
<feBlend mode="normal" in="SourceGraphic" in2="effect1_backgroundBlur_303_823" result="shape"/>
<feColorMatrix in="SourceAlpha" type="matrix" values="0 0 0 0 0 0 0 0 0 0 0 0 0 0 0 0 0 0 127 0" result="hardAlpha"/>
<feOffset/>
<feGaussianBlur stdDeviation="0.68191"/>
<feComposite in2="hardAlpha" operator="arithmetic" k2="-1" k3="1"/>
<feColorMatrix type="matrix" values="0 0 0 0 1 0 0 0 0 1 0 0 0 0 1 0 0 0 1 0"/>
<feBlend mode="normal" in2="shape" result="effect2_innerShadow_303_823"/>
</filter>
<filter id="filter3_bi_303_823" x="119.521" y="150.703" width="124.107" height="142.178" filterUnits="userSpaceOnUse" color-interpolation-filters="sRGB">
<feFlood flood-opacity="0" result="BackgroundImageFix"/>
<feGaussianBlur in="BackgroundImageFix" stdDeviation="10.2286"/>
<feComposite in2="SourceAlpha" operator="in" result="effect1_backgroundBlur_303_823"/>
<feBlend mode="normal" in="SourceGraphic" in2="effect1_backgroundBlur_303_823" result="shape"/>
<feColorMatrix in="SourceAlpha" type="matrix" values="0 0 0 0 0 0 0 0 0 0 0 0 0 0 0 0 0 0 127 0" result="hardAlpha"/>
<feOffset/>
<feGaussianBlur stdDeviation="0.68191"/>
<feComposite in2="hardAlpha" operator="arithmetic" k2="-1" k3="1"/>
<feColorMatrix type="matrix" values="0 0 0 0 1 0 0 0 0 1 0 0 0 0 1 0 0 0 1 0"/>
<feBlend mode="normal" in2="shape" result="effect2_innerShadow_303_823"/>
</filter>
<filter id="filter4_bi_303_823" x="125.659" y="-20.4567" width="121.039" height="135.7" filterUnits="userSpaceOnUse" color-interpolation-filters="sRGB">
<feFlood flood-opacity="0" result="BackgroundImageFix"/>
<feGaussianBlur in="BackgroundImageFix" stdDeviation="10.2286"/>
<feComposite in2="SourceAlpha" operator="in" result="effect1_backgroundBlur_303_823"/>
<feBlend mode="normal" in="SourceGraphic" in2="effect1_backgroundBlur_303_823" result="shape"/>
<feColorMatrix in="SourceAlpha" type="matrix" values="0 0 0 0 0 0 0 0 0 0 0 0 0 0 0 0 0 0 127 0" result="hardAlpha"/>
<feOffset/>
<feGaussianBlur stdDeviation="0.68191"/>
<feComposite in2="hardAlpha" operator="arithmetic" k2="-1" k3="1"/>
<feColorMatrix type="matrix" values="0 0 0 0 1 0 0 0 0 1 0 0 0 0 1 0 0 0 1 0"/>
<feBlend mode="normal" in2="shape" result="effect2_innerShadow_303_823"/>
</filter>
<filter id="filter5_bi_303_823" x="125.659" y="-20.4567" width="121.039" height="135.7" filterUnits="userSpaceOnUse" color-interpolation-filters="sRGB">
<feFlood flood-opacity="0" result="BackgroundImageFix"/>
<feGaussianBlur in="BackgroundImageFix" stdDeviation="10.2286"/>
<feComposite in2="SourceAlpha" operator="in" result="effect1_backgroundBlur_303_823"/>
<feBlend mode="normal" in="SourceGraphic" in2="effect1_backgroundBlur_303_823" result="shape"/>
<feColorMatrix in="SourceAlpha" type="matrix" values="0 0 0 0 0 0 0 0 0 0 0 0 0 0 0 0 0 0 127 0" result="hardAlpha"/>
<feOffset/>
<feGaussianBlur stdDeviation="0.68191"/>
<feComposite in2="hardAlpha" operator="arithmetic" k2="-1" k3="1"/>
<feColorMatrix type="matrix" values="0 0 0 0 1 0 0 0 0 1 0 0 0 0 1 0 0 0 1 0"/>
<feBlend mode="normal" in2="shape" result="effect2_innerShadow_303_823"/>
</filter>
<filter id="filter6_bi_303_823" x="8.59838" y="-20.4573" width="138.541" height="173.887" filterUnits="userSpaceOnUse" color-interpolation-filters="sRGB">
<feFlood flood-opacity="0" result="BackgroundImageFix"/>
<feGaussianBlur in="BackgroundImageFix" stdDeviation="10.2286"/>
<feComposite in2="SourceAlpha" operator="in" result="effect1_backgroundBlur_303_823"/>
<feBlend mode="normal" in="SourceGraphic" in2="effect1_backgroundBlur_303_823" result="shape"/>
<feColorMatrix in="SourceAlpha" type="matrix" values="0 0 0 0 0 0 0 0 0 0 0 0 0 0 0 0 0 0 127 0" result="hardAlpha"/>
<feOffset/>
<feGaussianBlur stdDeviation="0.68191"/>
<feComposite in2="hardAlpha" operator="arithmetic" k2="-1" k3="1"/>
<feColorMatrix type="matrix" values="0 0 0 0 1 0 0 0 0 1 0 0 0 0 1 0 0 0 1 0"/>
<feBlend mode="normal" in2="shape" result="effect2_innerShadow_303_823"/>
</filter>
<filter id="filter7_bi_303_823" x="8.59887" y="-20.4573" width="138.54" height="173.887" filterUnits="userSpaceOnUse" color-interpolation-filters="sRGB">
<feFlood flood-opacity="0" result="BackgroundImageFix"/>
<feGaussianBlur in="BackgroundImageFix" stdDeviation="10.2286"/>
<feComposite in2="SourceAlpha" operator="in" result="effect1_backgroundBlur_303_823"/>
<feBlend mode="normal" in="SourceGraphic" in2="effect1_backgroundBlur_303_823" result="shape"/>
<feColorMatrix in="SourceAlpha" type="matrix" values="0 0 0 0 0 0 0 0 0 0 0 0 0 0 0 0 0 0 127 0" result="hardAlpha"/>
<feOffset/>
<feGaussianBlur stdDeviation="0.68191"/>
<feComposite in2="hardAlpha" operator="arithmetic" k2="-1" k3="1"/>
<feColorMatrix type="matrix" values="0 0 0 0 1 0 0 0 0 1 0 0 0 0 1 0 0 0 1 0"/>
<feBlend mode="normal" in2="shape" result="effect2_innerShadow_303_823"/>
</filter>
<filter id="filter8_bi_303_823" x="2.77514" y="112.516" width="137.311" height="180.706" filterUnits="userSpaceOnUse" color-interpolation-filters="sRGB">
<feFlood flood-opacity="0" result="BackgroundImageFix"/>
<feGaussianBlur in="BackgroundImageFix" stdDeviation="10.2286"/>
<feComposite in2="SourceAlpha" operator="in" result="effect1_backgroundBlur_303_823"/>
<feBlend mode="normal" in="SourceGraphic" in2="effect1_backgroundBlur_303_823" result="shape"/>
<feColorMatrix in="SourceAlpha" type="matrix" values="0 0 0 0 0 0 0 0 0 0 0 0 0 0 0 0 0 0 127 0" result="hardAlpha"/>
<feOffset/>
<feGaussianBlur stdDeviation="0.68191"/>
<feComposite in2="hardAlpha" operator="arithmetic" k2="-1" k3="1"/>
<feColorMatrix type="matrix" values="0 0 0 0 1 0 0 0 0 1 0 0 0 0 1 0 0 0 1 0"/>
<feBlend mode="normal" in2="shape" result="effect2_innerShadow_303_823"/>
</filter>
<filter id="filter9_bi_303_823" x="2.77514" y="112.517" width="136.311" height="180.706" filterUnits="userSpaceOnUse" color-interpolation-filters="sRGB">
<feFlood flood-opacity="0" result="BackgroundImageFix"/>
<feGaussianBlur in="BackgroundImageFix" stdDeviation="10.2286"/>
<feComposite in2="SourceAlpha" operator="in" result="effect1_backgroundBlur_303_823"/>
<feBlend mode="normal" in="SourceGraphic" in2="effect1_backgroundBlur_303_823" result="shape"/>
<feColorMatrix in="SourceAlpha" type="matrix" values="0 0 0 0 0 0 0 0 0 0 0 0 0 0 0 0 0 0 127 0" result="hardAlpha"/>
<feOffset/>
<feGaussianBlur stdDeviation="0.68191"/>
<feComposite in2="hardAlpha" operator="arithmetic" k2="-1" k3="1"/>
<feColorMatrix type="matrix" values="0 0 0 0 1 0 0 0 0 1 0 0 0 0 1 0 0 0 1 0"/>
<feBlend mode="normal" in2="shape" result="effect2_innerShadow_303_823"/>
</filter>
<filter id="filter10_b_303_823" x="21.3262" y="-13.6382" width="264.167" height="300.04" filterUnits="userSpaceOnUse" color-interpolation-filters="sRGB">
<feFlood flood-opacity="0" result="BackgroundImageFix"/>
<feGaussianBlur in="BackgroundImageFix" stdDeviation="6.8191"/>
<feComposite in2="SourceAlpha" operator="in" result="effect1_backgroundBlur_303_823"/>
<feBlend mode="normal" in="SourceGraphic" in2="effect1_backgroundBlur_303_823" result="shape"/>
</filter>
<filter id="filter11_bi_303_823" x="21.3262" y="-13.6382" width="264.167" height="300.04" filterUnits="userSpaceOnUse" color-interpolation-filters="sRGB">
<feFlood flood-opacity="0" result="BackgroundImageFix"/>
<feGaussianBlur in="BackgroundImageFix" stdDeviation="6.8191"/>
<feComposite in2="SourceAlpha" operator="in" result="effect1_backgroundBlur_303_823"/>
<feBlend mode="normal" in="SourceGraphic" in2="effect1_backgroundBlur_303_823" result="shape"/>
<feColorMatrix in="SourceAlpha" type="matrix" values="0 0 0 0 0 0 0 0 0 0 0 0 0 0 0 0 0 0 127 0" result="hardAlpha"/>
<feOffset/>
<feGaussianBlur stdDeviation="1.36382"/>
<feComposite in2="hardAlpha" operator="arithmetic" k2="-1" k3="1"/>
<feColorMatrix type="matrix" values="0 0 0 0 1 0 0 0 0 1 0 0 0 0 1 0 0 0 1 0"/>
<feBlend mode="normal" in2="shape" result="effect2_innerShadow_303_823"/>
</filter>
<filter id="filter12_bdi_303_823" x="30" y="-5" width="274.622" height="313.223" filterUnits="userSpaceOnUse" color-interpolation-filters="sRGB">
<feFlood flood-opacity="0" result="BackgroundImageFix"/>
<feGaussianBlur in="BackgroundImageFix" stdDeviation="2.5"/>
<feComposite in2="SourceAlpha" operator="in" result="effect1_backgroundBlur_303_823"/>
<feColorMatrix in="SourceAlpha" type="matrix" values="0 0 0 0 0 0 0 0 0 0 0 0 0 0 0 0 0 0 127 0" result="hardAlpha"/>
<feOffset dx="19.0935" dy="21.8211"/>
<feGaussianBlur stdDeviation="6.8191"/>
<feComposite in2="hardAlpha" operator="out"/>
<feColorMatrix type="matrix" values="0 0 0 0 0.133333 0 0 0 0 0.435294 0 0 0 0 1 0 0 0 0.16 0"/>
<feBlend mode="normal" in2="effect1_backgroundBlur_303_823" result="effect2_dropShadow_303_823"/>
<feBlend mode="normal" in="SourceGraphic" in2="effect2_dropShadow_303_823" result="shape"/>
<feColorMatrix in="SourceAlpha" type="matrix" values="0 0 0 0 0 0 0 0 0 0 0 0 0 0 0 0 0 0 127 0" result="hardAlpha"/>
<feOffset dx="1.36382"/>
<feGaussianBlur stdDeviation="0.68191"/>
<feComposite in2="hardAlpha" operator="arithmetic" k2="-1" k3="1"/>
<feColorMatrix type="matrix" values="0 0 0 0 1 0 0 0 0 1 0 0 0 0 1 0 0 0 0.4 0"/>
<feBlend mode="normal" in2="shape" result="effect3_innerShadow_303_823"/>
</filter>
<filter id="filter13_i_303_823" x="22.6609" y="-6.58085" width="249.23" height="279.345" filterUnits="userSpaceOnUse" color-interpolation-filters="sRGB">
<feFlood flood-opacity="0" result="BackgroundImageFix"/>
<feBlend mode="normal" in="SourceGraphic" in2="BackgroundImageFix" result="shape"/>
<feColorMatrix in="SourceAlpha" type="matrix" values="0 0 0 0 0 0 0 0 0 0 0 0 0 0 0 0 0 0 127 0" result="hardAlpha"/>
<feOffset dx="-13.1617" dy="-6.58085"/>
<feGaussianBlur stdDeviation="6.16954"/>
<feComposite in2="hardAlpha" operator="arithmetic" k2="-1" k3="1"/>
<feColorMatrix type="matrix" values="0 0 0 0 1 0 0 0 0 1 0 0 0 0 1 0 0 0 0.4 0"/>
<feBlend mode="normal" in2="shape" result="effect1_innerShadow_303_823"/>
</filter>
<linearGradient id="paint0_linear_303_823" x1="150.924" y1="183.093" x2="218.022" y2="272.423" gradientUnits="userSpaceOnUse">
<stop stop-color="#3F3F3F"/>
<stop offset="0.2" stop-color="#9D9D9D"/>
<stop offset="1" stop-color="#9D9D9D"/>
</linearGradient>
<linearGradient id="paint1_linear_303_823" x1="150.924" y1="183.093" x2="218.022" y2="272.423" gradientUnits="userSpaceOnUse">
<stop stop-color="#3F3F3F"/>
<stop offset="0.2" stop-color="#9D9D9D"/>
<stop offset="1" stop-color="#9D9D9D"/>
</linearGradient>
<linearGradient id="paint2_linear_303_823" x1="153.993" y1="89.3307" x2="221.091" y2="0.000637002" gradientUnits="userSpaceOnUse">
<stop stop-color="#9D9D9D"/>
<stop offset="0.5" stop-color="#003599"/>
<stop offset="1"/>
</linearGradient>
<linearGradient id="paint3_linear_303_823" x1="153.993" y1="89.3307" x2="221.091" y2="0.000637002" gradientUnits="userSpaceOnUse">
<stop stop-color="#9D9D9D"/>
<stop offset="0.5" stop-color="#003599"/>
<stop offset="1"/>
</linearGradient>
<linearGradient id="paint4_linear_303_823" x1="45.3998" y1="-2.72588e-08" x2="103.29" y2="132.972" gradientUnits="userSpaceOnUse">
<stop/>
<stop offset="0.5" stop-color="#003599"/>
<stop offset="1" stop-color="#737373"/>
</linearGradient>
<linearGradient id="paint5_linear_303_823" x1="45.3998" y1="-2.72588e-08" x2="103.29" y2="132.972" gradientUnits="userSpaceOnUse">
<stop/>
<stop offset="0.5" stop-color="#003599"/>
<stop offset="1" stop-color="#737373"/>
</linearGradient>
<linearGradient id="paint6_linear_303_823" x1="45.6049" y1="272.765" x2="108.396" y2="135.123" gradientUnits="userSpaceOnUse">
<stop stop-color="#CECECE"/>
<stop offset="0.5" stop-color="#9D9D9D"/>
<stop offset="1" stop-color="#737373"/>
</linearGradient>
<linearGradient id="paint7_linear_303_823" x1="45.6049" y1="272.766" x2="108.396" y2="135.124" gradientUnits="userSpaceOnUse">
<stop stop-color="#CECECE"/>
<stop offset="0.5" stop-color="#9D9D9D"/>
<stop offset="1" stop-color="#737373"/>
</linearGradient>
<linearGradient id="paint8_linear_303_823" x1="120.99" y1="1.52874e-06" x2="190.781" y2="289.13" gradientUnits="userSpaceOnUse">
<stop/>
<stop offset="0.14" stop-color="#226FFF"/>
<stop offset="0.345" stop-color="#226FFF"/>
<stop offset="0.54" stop-color="white"/>
<stop offset="1" stop-color="white"/>
</linearGradient>
<linearGradient id="paint9_linear_303_823" x1="120.99" y1="1.71512e-06" x2="189.417" y2="295.608" gradientUnits="userSpaceOnUse">
<stop/>
<stop offset="0.14" stop-color="#226FFF"/>
<stop offset="0.345" stop-color="#226FFF" stop-opacity="0.5"/>
<stop offset="0.54" stop-color="white" stop-opacity="0.2"/>
<stop offset="1" stop-color="white" stop-opacity="0"/>
</linearGradient>
<linearGradient id="paint10_linear_303_823" x1="121.026" y1="2.20849e-06" x2="190.816" y2="297.654" gradientUnits="userSpaceOnUse">
<stop/>
<stop offset="0.14" stop-color="#226FFF"/>
<stop offset="0.345" stop-color="#226FFF" stop-opacity="0.5"/>
<stop offset="0.54" stop-color="white" stop-opacity="0.2"/>
<stop offset="1" stop-color="white" stop-opacity="0"/>
</linearGradient>
</defs>
</svg>
