<svg xmlns="http://www.w3.org/2000/svg" width="237" height="273" viewBox="0 0 237 273" fill="none">
  <g filter="url(#filter0_i_303_838)">
    <path d="M7.70074 272.764C5.50052 272.764 3.66694 271.984 2.20013 270.426C0.733317 268.607 0 266.659 0 264.581C0 263.802 0.122173 263.022 0.366642 262.243C0.611111 261.464 0.855597 260.684 1.10007 259.905L82.1415 133.654L6.60067 12.8589C5.86727 11.3002 5.50047 9.74157 5.50047 8.18293C5.50047 6.10472 6.23392 4.28629 7.70074 2.72764C9.16755 0.909212 11.001 0 13.2012 0H58.3059C61.4839 0 63.9285 0.909212 65.6398 2.72764C67.5956 4.54606 69.0625 6.2346 70.0404 7.79326L119.179 85.3361L168.684 7.79326C169.661 6.2346 171.128 4.54606 173.084 2.72764C175.04 0.909212 177.607 0 180.785 0H223.689C225.645 0 227.356 0.909212 228.823 2.72764C230.534 4.28629 231.39 6.10472 231.39 8.18293C231.39 10.0013 230.901 11.56 229.923 12.8589L154.382 133.265L235.79 259.905C236.279 260.684 236.524 261.464 236.524 262.243C236.768 263.022 236.89 263.802 236.89 264.581C236.89 266.659 236.157 268.607 234.69 270.426C233.223 271.984 231.39 272.764 229.19 272.764H182.618C179.44 272.764 176.873 271.855 174.918 270.036C173.206 268.218 171.862 266.659 170.884 265.36L117.345 183.531L64.1731 265.36C63.4397 266.659 62.0951 268.218 60.1393 270.036C58.4281 271.855 55.8612 272.764 52.4386 272.764H7.70074Z" fill="white" fill-opacity="0.1"/>
  </g>
  <defs>
    <filter id="filter0_i_303_838" x="-12.3391" y="-6.58085" width="249.23" height="279.345" filterUnits="userSpaceOnUse" color-interpolation-filters="sRGB">
      <feFlood flood-opacity="0" result="BackgroundImageFix"/>
      <feBlend mode="normal" in="SourceGraphic" in2="BackgroundImageFix" result="shape"/>
      <feColorMatrix in="SourceAlpha" type="matrix" values="0 0 0 0 0 0 0 0 0 0 0 0 0 0 0 0 0 0 127 0" result="hardAlpha"/>
      <feOffset dx="-13.1617" dy="-6.58085"/>
      <feGaussianBlur stdDeviation="6.16954"/>
      <feComposite in2="hardAlpha" operator="arithmetic" k2="-1" k3="1"/>
      <feColorMatrix type="matrix" values="0 0 0 0 1 0 0 0 0 1 0 0 0 0 1 0 0 0 0.4 0"/>
      <feBlend mode="normal" in2="shape" result="effect1_innerShadow_303_838"/>
    </filter>
  </defs>
</svg>