<svg width="16" height="15" viewBox="0 0 16 15" fill="none" xmlns="http://www.w3.org/2000/svg">
<path d="M7.30153 0.505445C7.58723 -0.0734289 8.41268 -0.0734299 8.69837 0.505444L10.5083 4.17272C10.6217 4.40259 10.841 4.56192 11.0947 4.59878L15.1418 5.18685C15.7806 5.27968 16.0357 6.06473 15.5734 6.51532L12.6449 9.3699C12.4614 9.54883 12.3776 9.80663 12.4209 10.0593L13.1123 14.09C13.2214 14.7262 12.5536 15.2114 11.9822 14.911L8.36238 13.008C8.13549 12.8887 7.86442 12.8887 7.63752 13.008L4.01771 14.911C3.44633 15.2114 2.77852 14.7262 2.88764 14.09L3.57897 10.0593C3.6223 9.80663 3.53854 9.54883 3.35497 9.3699L0.426483 6.51533C-0.035775 6.06473 0.219304 5.27968 0.858129 5.18685L4.9052 4.59878C5.15888 4.56192 5.37818 4.40259 5.49163 4.17272L7.30153 0.505445Z" fill="#0453F4"/>
<path fill-rule="evenodd" clip-rule="evenodd" d="M10.3688 6.47216C10.5142 6.62231 10.511 6.86255 10.3617 7.00874L7.82966 9.48793C7.69079 9.62389 7.47208 9.63196 7.32368 9.50659L5.65806 8.09944C5.4985 7.96464 5.47782 7.72528 5.61188 7.56482C5.74593 7.40437 5.98396 7.38357 6.14352 7.51838L7.54776 8.70471L9.83523 6.46501C9.98454 6.31881 10.2234 6.32201 10.3688 6.47216Z" fill="white"/>
</svg>
