<svg xmlns="http://www.w3.org/2000/svg" width="17" height="16" viewBox="0 0 17 16" fill="none">
  <path d="M6.89326 0.907562C7.44348 -0.207307 9.03324 -0.207305 9.58346 0.907563L11.0991 3.97856C11.1719 4.12613 11.3127 4.22842 11.4756 4.25208L14.8646 4.74454C16.0949 4.92331 16.5862 6.43527 15.6959 7.30308L13.2436 9.69351C13.1257 9.80838 13.072 9.97388 13.0998 10.1361L13.6787 13.5114C13.8889 14.7368 12.6027 15.6712 11.5023 15.0927L8.47103 13.4991C8.32537 13.4225 8.15135 13.4225 8.00569 13.4991L4.97443 15.0927C3.87399 15.6712 2.58784 14.7368 2.79801 13.5114L3.37693 10.1361C3.40475 9.97388 3.35097 9.80838 3.23313 9.69351L0.780793 7.30308C-0.109483 6.43527 0.381785 4.92331 1.61211 4.74454L5.00116 4.25208C5.16401 4.22842 5.3048 4.12613 5.37763 3.97856L6.89326 0.907562Z" fill="#FF9500"/>
</svg>