<svg width="134" height="46" viewBox="0 0 134 46" fill="none" xmlns="http://www.w3.org/2000/svg">
<rect y="0.913086" width="42" height="44.1" rx="8" fill="#242DFF"/>
<path fill-rule="evenodd" clip-rule="evenodd" d="M18.7149 15.1709C19.4399 14.9586 20.2069 14.8447 21.0005 14.8447C25.4843 14.8447 29.1191 18.4796 29.1191 22.9634C29.1191 27.4472 25.4843 31.082 21.0005 31.082C16.5167 31.082 12.8818 27.4472 12.8818 22.9634C12.8818 21.7654 13.1413 20.6279 13.6072 19.6043C14.2029 20.6322 15.3151 21.3236 16.5886 21.3236C18.4905 21.3236 20.0323 19.7818 20.0323 17.8799C20.0323 16.7805 19.5171 15.8014 18.7149 15.1709ZM21.0005 10.5352C14.1366 10.5352 8.57227 16.0995 8.57227 22.9634C8.57227 29.8273 14.1366 35.3916 21.0005 35.3916C27.8644 35.3916 33.4287 29.8273 33.4287 22.9634C33.4287 16.0995 27.8644 10.5352 21.0005 10.5352Z" fill="white"/>
<path d="M26.1794 25.9491C26.1794 27.1172 25.2324 28.0642 24.0643 28.0642C22.8962 28.0642 21.9492 27.1172 21.9492 25.9491C21.9492 24.7809 22.8962 23.834 24.0643 23.834C25.2324 23.834 26.1794 24.7809 26.1794 25.9491Z" fill="white" fill-opacity="0.2"/>
<path d="M123.856 29.1825C123.759 29.1825 123.678 29.148 123.613 29.0791C123.548 28.9986 123.516 28.9123 123.516 28.8204C123.516 28.7859 123.521 28.7514 123.532 28.7169C123.543 28.6824 123.553 28.6479 123.564 28.6134L127.151 23.0257L123.808 17.6795C123.775 17.6105 123.759 17.5415 123.759 17.4725C123.759 17.3805 123.792 17.3001 123.856 17.2311C123.921 17.1506 124.003 17.1104 124.1 17.1104H126.096C126.237 17.1104 126.345 17.1506 126.421 17.2311C126.507 17.3116 126.572 17.3863 126.616 17.4553L128.79 20.8872L130.981 17.4553C131.025 17.3863 131.09 17.3116 131.176 17.2311C131.263 17.1506 131.376 17.1104 131.517 17.1104H133.416C133.502 17.1104 133.578 17.1506 133.643 17.2311C133.719 17.3001 133.757 17.3805 133.757 17.4725C133.757 17.553 133.735 17.622 133.692 17.6795L130.348 23.0085L133.951 28.6134C133.973 28.6479 133.984 28.6824 133.984 28.7169C133.995 28.7514 134 28.7859 134 28.8204C134 28.9123 133.968 28.9986 133.903 29.0791C133.838 29.148 133.757 29.1825 133.659 29.1825H131.598C131.457 29.1825 131.344 29.1423 131.257 29.0618C131.181 28.9813 131.122 28.9123 131.079 28.8549L128.709 25.2332L126.356 28.8549C126.323 28.9123 126.264 28.9813 126.177 29.0618C126.102 29.1423 125.988 29.1825 125.836 29.1825H123.856Z" fill="black"/>
<path d="M113.963 29.1837C113.812 29.1837 113.694 29.1435 113.609 29.063C113.534 28.9825 113.475 28.879 113.432 28.7526L111.132 20.7677C111.11 20.7102 111.1 20.6527 111.1 20.5952C111.1 20.4918 111.132 20.4055 111.196 20.3365C111.271 20.2561 111.357 20.2158 111.453 20.2158H112.869C113.008 20.2158 113.115 20.2561 113.19 20.3365C113.266 20.417 113.314 20.4918 113.335 20.5607L114.799 25.8897L116.359 20.5952C116.38 20.5148 116.429 20.4343 116.504 20.3538C116.59 20.2618 116.707 20.2158 116.858 20.2158H117.774C117.924 20.2158 118.037 20.2618 118.112 20.3538C118.198 20.4343 118.251 20.5148 118.273 20.5952L119.833 25.8897L121.297 20.5607C121.307 20.4918 121.35 20.417 121.425 20.3365C121.511 20.2561 121.618 20.2158 121.747 20.2158H123.162C123.259 20.2158 123.339 20.2561 123.404 20.3365C123.479 20.4055 123.516 20.4918 123.516 20.5952C123.516 20.6527 123.511 20.7102 123.5 20.7677L121.184 28.7526C121.152 28.879 121.093 28.9825 121.007 29.063C120.932 29.1435 120.82 29.1837 120.669 29.1837H119.431C119.281 29.1837 119.163 29.1435 119.077 29.063C118.991 28.9825 118.927 28.879 118.884 28.7526L117.324 23.6478L115.732 28.7526C115.7 28.879 115.641 28.9825 115.555 29.063C115.469 29.1435 115.351 29.1837 115.201 29.1837H113.963Z" fill="black"/>
<path d="M106.468 29.3529C105.232 29.3529 104.249 28.9849 103.518 28.2491C102.798 27.5133 102.417 26.444 102.374 25.0414C102.374 24.9494 102.374 24.8287 102.374 24.6792C102.374 24.5182 102.374 24.3918 102.374 24.2998C102.417 23.4145 102.605 22.6557 102.938 22.0233C103.271 21.3795 103.739 20.8908 104.34 20.5574C104.942 20.2125 105.646 20.04 106.452 20.04C107.355 20.04 108.107 20.2412 108.709 20.6436C109.321 21.0346 109.778 21.5749 110.079 22.2648C110.39 22.9431 110.546 23.7249 110.546 24.6102V25.0069C110.546 25.1219 110.503 25.2196 110.417 25.3001C110.342 25.3805 110.251 25.4208 110.143 25.4208H104.872C104.872 25.4323 104.872 25.4553 104.872 25.4898C104.872 25.5128 104.872 25.5358 104.872 25.5587C104.883 25.9267 104.948 26.2658 105.066 26.5763C105.195 26.8752 105.372 27.1166 105.598 27.3006C105.834 27.4845 106.114 27.5765 106.436 27.5765C106.705 27.5765 106.925 27.5363 107.097 27.4558C107.269 27.3753 107.408 27.2776 107.516 27.1626C107.634 27.0476 107.72 26.9499 107.774 26.8694C107.87 26.7545 107.946 26.6855 107.999 26.6625C108.064 26.628 108.161 26.6108 108.289 26.6108H109.966C110.073 26.6108 110.159 26.6452 110.224 26.7142C110.299 26.7717 110.331 26.8579 110.32 26.9729C110.31 27.1569 110.218 27.3868 110.046 27.6628C109.885 27.9272 109.643 28.1916 109.321 28.4561C108.999 28.709 108.596 28.9217 108.112 29.0942C107.639 29.2666 107.091 29.3529 106.468 29.3529ZM104.872 23.8514H108.032V23.8169C108.032 23.403 107.967 23.0466 107.838 22.7477C107.72 22.4372 107.543 22.1958 107.306 22.0233C107.07 21.8509 106.785 21.7646 106.452 21.7646C106.119 21.7646 105.834 21.8509 105.598 22.0233C105.361 22.1958 105.179 22.4372 105.05 22.7477C104.931 23.0466 104.872 23.403 104.872 23.8169V23.8514Z" fill="black"/>
<path d="M98.5047 29.18C98.3897 29.18 98.292 29.1398 98.2115 29.0593C98.131 28.9788 98.0908 28.8754 98.0908 28.7489V20.6433C98.0908 20.5168 98.131 20.4133 98.2115 20.3329C98.292 20.2524 98.3897 20.2121 98.5047 20.2121H100.229C100.356 20.2121 100.459 20.2524 100.54 20.3329C100.62 20.4133 100.66 20.5168 100.66 20.6433V28.7489C100.66 28.8754 100.62 28.9788 100.54 29.0593C100.459 29.1398 100.356 29.18 100.229 29.18H98.5047ZM98.453 18.8325C98.338 18.8325 98.2403 18.7922 98.1598 18.7117C98.0793 18.6313 98.0391 18.5278 98.0391 18.4013V17.0216C98.0391 16.8952 98.0793 16.7917 98.1598 16.7112C98.2403 16.6192 98.338 16.5732 98.453 16.5732H100.264C100.39 16.5732 100.494 16.6192 100.574 16.7112C100.666 16.7917 100.712 16.8952 100.712 17.0216V18.4013C100.712 18.5278 100.666 18.6313 100.574 18.7117C100.494 18.7922 100.39 18.8325 100.264 18.8325H98.453Z" fill="black"/>
<path d="M92.0983 29.1837C91.9408 29.1837 91.8201 29.1435 91.7361 29.063C91.6626 28.971 91.5996 28.8675 91.5471 28.7526L88.5862 20.7504C88.5652 20.7045 88.5547 20.6527 88.5547 20.5952C88.5547 20.4918 88.5862 20.4055 88.6492 20.3365C88.7227 20.2561 88.8067 20.2158 88.9012 20.2158H90.4289C90.5654 20.2158 90.6651 20.2561 90.7281 20.3365C90.8016 20.417 90.8488 20.4918 90.8698 20.5607L92.807 26.2519L94.7442 20.5607C94.7757 20.4918 94.8229 20.417 94.8859 20.3365C94.9594 20.2561 95.0592 20.2158 95.1852 20.2158H96.7129C96.8074 20.2158 96.8861 20.2561 96.9491 20.3365C97.0226 20.4055 97.0594 20.4918 97.0594 20.5952C97.0594 20.6527 97.0541 20.7045 97.0436 20.7504L94.067 28.7526C94.025 28.8675 93.962 28.971 93.878 29.063C93.794 29.1435 93.6732 29.1837 93.5157 29.1837H92.0983Z" fill="black"/>
<path d="M84.0182 29.1837C83.9176 29.1837 83.8322 29.1435 83.7618 29.063C83.6914 28.9825 83.6562 28.879 83.6562 28.7526V20.647C83.6562 20.532 83.6914 20.4343 83.7618 20.3538C83.8322 20.2618 83.9176 20.2158 84.0182 20.2158H85.4959C85.5964 20.2158 85.6819 20.2618 85.7523 20.3538C85.8327 20.4343 85.8729 20.532 85.8729 20.647V21.3368C86.1242 20.9804 86.4308 20.7045 86.7927 20.509C87.1647 20.3135 87.5919 20.2158 88.0745 20.2158H88.7229C88.8234 20.2158 88.9088 20.2561 88.9792 20.3365C89.0496 20.417 89.0848 20.5205 89.0848 20.647V22.1301C89.0848 22.2566 89.0496 22.3601 88.9792 22.4405C88.9088 22.521 88.8234 22.5613 88.7229 22.5613H87.3959C86.9536 22.5613 86.6068 22.705 86.3554 22.9924C86.1041 23.2684 85.9785 23.665 85.9785 24.1824V28.7526C85.9785 28.879 85.9433 28.9825 85.8729 29.063C85.8025 29.1435 85.7121 29.1837 85.6015 29.1837H84.0182Z" fill="black"/>
<path d="M78.0268 29.3529C76.7492 29.3529 75.7326 28.9849 74.9772 28.2491C74.2328 27.5133 73.8384 26.444 73.7939 25.0414C73.7939 24.9494 73.7939 24.8287 73.7939 24.6792C73.7939 24.5182 73.7939 24.3918 73.7939 24.2998C73.8384 23.4145 74.0328 22.6557 74.3772 22.0233C74.7216 21.3795 75.2049 20.8908 75.8271 20.5574C76.4492 20.2125 77.1769 20.04 78.0102 20.04C78.9434 20.04 79.7211 20.2412 80.3432 20.6436C80.9765 21.0346 81.4487 21.5749 81.7598 22.2648C82.0819 22.9431 82.243 23.7249 82.243 24.6102V25.0069C82.243 25.1219 82.1986 25.2196 82.1097 25.3001C82.0319 25.3805 81.9375 25.4208 81.8264 25.4208H76.377C76.377 25.4323 76.377 25.4553 76.377 25.4898C76.377 25.5128 76.377 25.5358 76.377 25.5587C76.3881 25.9267 76.4548 26.2658 76.577 26.5763C76.7103 26.8752 76.8936 27.1166 77.1269 27.3006C77.3713 27.4845 77.6602 27.5765 77.9935 27.5765C78.2712 27.5765 78.499 27.5363 78.6768 27.4558C78.8545 27.3753 78.9989 27.2776 79.11 27.1626C79.2322 27.0476 79.3211 26.9499 79.3767 26.8694C79.4767 26.7545 79.5544 26.6855 79.61 26.6625C79.6766 26.628 79.7766 26.6108 79.91 26.6108H81.6431C81.7542 26.6108 81.8431 26.6452 81.9097 26.7142C81.9875 26.7717 82.0208 26.8579 82.0097 26.9729C81.9986 27.1569 81.9042 27.3868 81.7264 27.6628C81.5598 27.9272 81.3098 28.1916 80.9765 28.4561C80.6432 28.709 80.2266 28.9217 79.7266 29.0942C79.2378 29.2666 78.6712 29.3529 78.0268 29.3529ZM76.377 23.8514H79.6433V23.8169C79.6433 23.403 79.5767 23.0466 79.4433 22.7477C79.3211 22.4372 79.1378 22.1958 78.8934 22.0233C78.649 21.8509 78.3546 21.7646 78.0102 21.7646C77.6658 21.7646 77.3713 21.8509 77.1269 22.0233C76.8825 22.1958 76.6936 22.4372 76.5603 22.7477C76.4381 23.0466 76.377 23.403 76.377 23.8169V23.8514Z" fill="black"/>
<path d="M72.2204 29.1821C71.5075 29.1821 70.8982 29.0672 70.3923 28.8372C69.8864 28.5958 69.5012 28.2279 69.2368 27.7335C68.9839 27.2391 68.8574 26.6182 68.8574 25.8709V22.2493H67.5122C67.3857 22.2493 67.2823 22.209 67.2018 22.1285C67.1213 22.0481 67.0811 21.9446 67.0811 21.8181V20.6454C67.0811 20.5189 67.1213 20.4154 67.2018 20.335C67.2823 20.2545 67.3857 20.2142 67.5122 20.2142H68.8574V17.3686C68.8574 17.2422 68.8976 17.1387 68.9781 17.0582C69.0701 16.9777 69.1736 16.9375 69.2885 16.9375H70.9786C71.1051 16.9375 71.2086 16.9777 71.2891 17.0582C71.3696 17.1387 71.4098 17.2422 71.4098 17.3686V20.2142H73.5655C73.6805 20.2142 73.7782 20.2545 73.8587 20.335C73.9392 20.4154 73.9794 20.5189 73.9794 20.6454V21.8181C73.9794 21.9446 73.9392 22.0481 73.8587 22.1285C73.7782 22.209 73.6805 22.2493 73.5655 22.2493H71.4098V25.664C71.4098 26.1009 71.4845 26.4458 71.634 26.6987C71.795 26.9402 72.0709 27.0609 72.4618 27.0609H73.7208C73.8357 27.0609 73.9335 27.1011 74.0139 27.1816C74.0944 27.2621 74.1347 27.3598 74.1347 27.4748V28.751C74.1347 28.8775 74.0944 28.9809 74.0139 29.0614C73.9335 29.1419 73.8357 29.1821 73.7208 29.1821H72.2204Z" fill="black"/>
<path d="M59.1506 29.1804C59.0505 29.1804 58.9653 29.1402 58.8952 29.0597C58.8251 28.9792 58.79 28.8757 58.79 28.7493V20.6436C58.79 20.5172 58.8251 20.4137 58.8952 20.3332C58.9653 20.2527 59.0505 20.2125 59.1506 20.2125H60.6229C60.7331 20.2125 60.8233 20.2527 60.8934 20.3332C60.9635 20.4137 60.9985 20.5172 60.9985 20.6436V21.3162C61.259 20.9483 61.5945 20.6436 62.0051 20.4022C62.4158 20.1608 62.9166 20.04 63.5075 20.04C64.0984 20.04 64.6143 20.1953 65.055 20.5057C65.5057 20.8046 65.8562 21.2473 66.1066 21.8336C66.367 22.4085 66.4973 23.1098 66.4973 23.9376V28.7493C66.4973 28.8757 66.4572 28.9792 66.3771 29.0597C66.3069 29.1402 66.2218 29.1804 66.1217 29.1804H64.5291C64.419 29.1804 64.3288 29.1402 64.2587 29.0597C64.1886 28.9792 64.1535 28.8757 64.1535 28.7493V24.0411C64.1535 23.4317 64.0233 22.9604 63.7629 22.6269C63.5125 22.282 63.1419 22.1096 62.6512 22.1096C62.1804 22.1096 61.8048 22.282 61.5244 22.6269C61.2439 22.9604 61.1037 23.4317 61.1037 24.0411V28.7493C61.1037 28.8757 61.0686 28.9792 60.9985 29.0597C60.9284 29.1402 60.8433 29.1804 60.7431 29.1804H59.1506Z" fill="black"/>
<path d="M54.4311 29.1825C54.3047 29.1825 54.2012 29.1423 54.1207 29.0618C54.0402 28.9813 54 28.8779 54 28.7514V17.5415C54 17.415 54.0402 17.3116 54.1207 17.2311C54.2012 17.1506 54.3047 17.1104 54.4311 17.1104H56.3799C56.5064 17.1104 56.6099 17.1506 56.6904 17.2311C56.7709 17.3116 56.8111 17.415 56.8111 17.5415V28.7514C56.8111 28.8779 56.7709 28.9813 56.6904 29.0618C56.6099 29.1423 56.5064 29.1825 56.3799 29.1825H54.4311Z" fill="black"/>
</svg>
