<svg width="43" height="46" viewBox="0 0 43 46" fill="none" xmlns="http://www.w3.org/2000/svg">
<rect x="0.309082" y="0.980469" width="42" height="44.1" rx="8" fill="white"/>
<path fill-rule="evenodd" clip-rule="evenodd" d="M19.024 15.2383C19.749 15.026 20.516 14.9121 21.3096 14.9121C25.7934 14.9121 29.4282 18.547 29.4282 23.0308C29.4282 27.5146 25.7934 31.1494 21.3096 31.1494C16.8258 31.1494 13.1909 27.5146 13.1909 23.0308C13.1909 21.8327 13.4504 20.6953 13.9162 19.6717C14.512 20.6996 15.6241 21.3909 16.8977 21.3909C18.7996 21.3909 20.3414 19.8492 20.3414 17.9473C20.3414 16.8478 19.8262 15.8687 19.024 15.2383ZM21.3096 10.6025C14.4457 10.6025 8.88135 16.1668 8.88135 23.0308C8.88135 29.8947 14.4457 35.459 21.3096 35.459C28.1735 35.459 33.7378 29.8947 33.7378 23.0308C33.7378 16.1668 28.1735 10.6025 21.3096 10.6025Z" fill="#5547FF"/>
<path d="M26.4885 26.0167C26.4885 27.1848 25.5415 28.1318 24.3734 28.1318C23.2053 28.1318 22.2583 27.1848 22.2583 26.0167C22.2583 24.8486 23.2053 23.9016 24.3734 23.9016C25.5415 23.9016 26.4885 24.8486 26.4885 26.0167Z" fill="#5547FF" fill-opacity="0.2"/>
</svg>
