<svg xmlns="http://www.w3.org/2000/svg" width="47" height="27" viewBox="0 0 47 27" fill="none">
  <g clip-path="url(#clip0_232_2246)">
    <path d="M26.9275 26.6951L4.95583 26.6951C2.96767 26.6951 1.35596 25.0834 1.35596 23.0952L1.35596 9.19647C1.35596 7.2085 2.96739 5.59686 4.95535 5.5966L16.8209 5.59502C17.3771 5.59495 17.7978 6.09611 17.7388 6.64914C16.7577 15.8429 24.0575 18.6332 29.2867 17.6096C29.8866 17.4922 30.4878 17.9235 30.4925 18.5347L30.5272 23.0676C30.5426 25.0665 28.9264 26.6951 26.9275 26.6951Z" fill="#E6EEFE"/>
    <path fill-rule="evenodd" clip-rule="evenodd" d="M25.5699 0.443086C26.97 0.082343 28.4426 0.11569 29.825 0.539443C31.2073 0.963196 32.4457 1.76086 33.4031 2.84429C34.3605 3.92773 34.9998 5.25476 35.2503 6.67875C35.5008 8.10275 35.3528 9.56828 34.8225 10.9134L42.7104 17.4833C43.1012 17.8134 43.4191 18.2211 43.6441 18.6805C43.8692 19.1399 43.9964 19.641 44.0178 20.1521C44.0392 20.6632 43.9543 21.1732 43.7684 21.6498C43.5825 22.1263 43.2998 22.5592 42.938 22.9208C42.5763 23.2825 42.1434 23.5652 41.6668 23.7509C41.1901 23.9367 40.6801 24.0215 40.169 24C39.658 23.9785 39.1569 23.8512 38.6975 23.626C38.2382 23.4009 37.8306 23.0829 37.5005 22.6921L30.4057 15.3336C29.0604 15.8647 27.5944 16.0135 26.1699 15.7634C24.7453 15.5133 23.4177 14.8741 22.3338 13.9165C21.2498 12.9589 20.4518 11.7202 20.0279 10.3374C19.6041 8.95459 19.5709 7.48148 19.932 6.08095C19.9829 5.88417 20.0859 5.70473 20.2301 5.56151C20.3744 5.4183 20.5546 5.31658 20.7517 5.26707C20.9488 5.21755 21.1557 5.22206 21.3505 5.28013C21.5453 5.33819 21.7208 5.44766 21.8587 5.59704L25.2696 9.30147L27.8427 8.35492L28.7915 5.77851L25.0848 2.37316C24.9346 2.23534 24.8243 2.05948 24.7658 1.86416C24.7073 1.66885 24.7026 1.46135 24.7523 1.2636C24.802 1.06586 24.9042 0.885216 25.0481 0.740782C25.192 0.596348 25.3723 0.49349 25.5699 0.443086Z" fill="#226FFF"/>
  </g>
  <defs>
    <clipPath id="clip0_232_2246">
      <rect width="46.32" height="26.61" fill="white" transform="translate(0.340088 0.195068)"/>
    </clipPath>
  </defs>
</svg>