<svg xmlns="http://www.w3.org/2000/svg" width="16" height="16" viewBox="0 0 16 16" fill="none">
  <path d="M2.22229 4.38889H13.7778M6.55562 7.27778V11.6111M9.44451 7.27778V11.6111M2.94451 4.38889L3.66673 13.0556C3.66673 13.4386 3.81892 13.806 4.0898 14.0769C4.36069 14.3478 4.72809 14.5 5.11118 14.5H10.889C11.272 14.5 11.6394 14.3478 11.9103 14.0769C12.1812 13.806 12.3334 13.4386 12.3334 13.0556L13.0556 4.38889M5.8334 4.38889V2.22222C5.8334 2.03068 5.90949 1.84698 6.04494 1.71153C6.18038 1.57609 6.36408 1.5 6.55562 1.5H9.44451C9.63606 1.5 9.81976 1.57609 9.9552 1.71153C10.0906 1.84698 10.1667 2.03068 10.1667 2.22222V4.38889" stroke="#8C8C8C" stroke-linecap="round" stroke-linejoin="round"/>
</svg>