<svg width="15" height="14" viewBox="0 0 15 14" fill="none" xmlns="http://www.w3.org/2000/svg">
<path d="M3.54617 3.16838C2.18745 4.52686 2.18739 6.72958 3.5461 8.08829C4.90481 9.447 7.10772 9.44713 8.46644 8.08865C9.82516 6.73017 9.82523 4.52745 8.46652 3.16874C7.1078 1.81003 4.90489 1.8099 3.54617 3.16838Z" stroke="#666666"/>
<path d="M3.47852 8.25391L1.43158 10.4388" stroke="#666666"/>
<path d="M5 9.32871C5 9.1601 5.18791 9.05953 5.3282 9.15306C5.73501 9.42427 6.26499 9.42427 6.6718 9.15306C6.81209 9.05953 7 9.1601 7 9.32871V12.5C7 12.7761 6.77614 13 6.5 13H5.5C5.22386 13 5 12.7761 5 12.5V9.32871Z" stroke="#666666"/>
<path d="M4.5 5.5C4.5 5.22386 4.72386 5 5 5H7C7.27614 5 7.5 5.22386 7.5 5.5V8.55678C7.5 8.63903 7.45353 8.71422 7.37997 8.751C6.51126 9.18535 5.48874 9.18535 4.62003 8.751C4.54647 8.71422 4.5 8.63903 4.5 8.55678V5.5Z" stroke="#666666"/>
<rect x="8.5" y="10" width="2" height="3" rx="0.5" stroke="#666666"/>
<rect x="12" y="7" width="2" height="6" rx="0.5" stroke="#666666"/>
</svg>
