<svg width="16" height="14" viewBox="0 0 16 14" fill="none" xmlns="http://www.w3.org/2000/svg">
<path d="M12.0305 10.1908C12.546 9.42075 12.8466 8.49473 12.8466 7.4985C12.8466 4.82204 10.6769 2.65234 8.00045 2.65234C5.32399 2.65234 3.1543 4.82204 3.1543 7.4985C3.1543 8.49473 3.4549 9.42075 3.97036 10.1908" stroke="#666666" stroke-linecap="round"/>
<path d="M13.8996 11.2692C14.5962 10.1812 15 8.88777 15 7.5C15 3.63401 11.866 0.5 8 0.5C4.13401 0.5 1 3.63401 1 7.5C1 8.88777 1.40384 10.1812 2.10042 11.2692" stroke="#666666" stroke-linecap="round"/>
<path d="M8.0002 5.69922C8.9962 5.69922 9.8002 6.50322 9.8002 7.49922C9.8002 8.49522 8.9962 9.29922 8.0002 9.29922C7.0042 9.29922 6.2002 8.49522 6.2002 7.49922C6.2002 6.50322 7.0042 5.69922 8.0002 5.69922Z" stroke="#666666" stroke-linecap="round" stroke-linejoin="round"/>
<path d="M7.9997 10.7305C10.1535 10.7305 11.7689 11.8074 11.7689 12.3459V13.4228H4.23047V12.3459C4.23047 11.8074 5.84585 10.7305 7.9997 10.7305Z" stroke="#666666" stroke-linecap="round" stroke-linejoin="round"/>
</svg>
