<svg width="14" height="13" viewBox="0 0 14 13" fill="none" xmlns="http://www.w3.org/2000/svg">
<path d="M1.76953 5.06641H5.76953" stroke="#666666"/>
<path d="M1.76953 3.06641H6.76953" stroke="#666666"/>
<path d="M2.26953 7.06641H5.26953V10.0664H2.26953V7.06641Z" stroke="#666666"/>
<path d="M0.499531 5.06641V10.9526C0.499531 11.5678 0.998181 12.0664 1.6133 12.0664H8.15577C8.77088 12.0664 9.26953 11.5678 9.26953 10.9526V10.0664" stroke="#666666" stroke-linecap="round"/>
<path d="M9.26953 2.0625V2.0625C9.26953 1.4757 8.79383 1 8.20703 1H1.61669C1.00158 1 0.50293 1.49865 0.50293 2.11376V5.45426" stroke="#666666" stroke-linecap="round"/>
<circle cx="9.36761" cy="6.16448" r="2.5" transform="rotate(-30 9.36761 6.16448)" stroke="#666666"/>
<line x1="10.3676" y1="7.89844" x2="11.8676" y2="10.4965" stroke="#666666"/>
<path d="M8.76953 4.06641V5.56641H10.2695V7.06641" stroke="#666666"/>
</svg>
