<svg width="16" height="16" viewBox="0 0 16 16" fill="none" xmlns="http://www.w3.org/2000/svg">
<path d="M1 1H6.71225V3.11355C6.71225 3.12447 6.72545 3.12994 6.73318 3.12223V3.12223C7.11621 2.74002 7.73635 2.74002 8.11938 3.12223L8.14031 3.14311V3.14311C8.53442 3.53637 8.53442 4.17486 8.14031 4.56812V4.56812L8.11943 4.58912C7.73726 4.97348 7.11531 4.97348 6.73313 4.58912V4.58912C6.72545 4.58139 6.71225 4.58683 6.71225 4.59773V6.61025H4.59933C4.58865 6.61025 4.58335 6.59729 4.59097 6.58981V6.58981C4.97179 6.21579 4.97179 5.60214 4.59097 5.22812L4.57016 5.20769V5.20769C4.17374 4.81835 3.53851 4.81835 3.14209 5.20769V5.20769L3.12128 5.22812C2.74047 5.60214 2.74047 6.21579 3.12128 6.58981V6.58981C3.1289 6.59729 3.1236 6.61025 3.11292 6.61025H1V1Z" stroke="#666666"/>
<path d="M12.333 1L12.333 6.61025L10.2586 6.61025C10.2477 6.61025 10.2421 6.62345 10.2498 6.63127V6.63127C10.6277 7.01601 10.6277 7.63254 10.2498 8.01728L10.2292 8.03831V8.03831C9.84392 8.43056 9.21185 8.43056 8.8266 8.03831V8.03831L8.80595 8.01728C8.42808 7.63254 8.42808 7.01601 8.80595 6.63127V6.63127C8.81363 6.62345 8.80809 6.61025 8.79713 6.61025L6.72276 6.61025L6.72276 4.59933C6.72276 4.58865 6.73572 4.58335 6.7432 4.59097V4.59097C7.11722 4.97179 7.73087 4.97179 8.10488 4.59097L8.12532 4.57016V4.57016C8.51466 4.17374 8.51466 3.53851 8.12532 3.14209V3.14209L8.10488 3.12128C7.73087 2.74047 7.11722 2.74047 6.7432 3.12128V3.12128C6.73572 3.1289 6.72276 3.1236 6.72276 3.11292L6.72276 1L12.333 1Z" stroke="#666666"/>
<path d="M15.4004 15.5H9.68814V13.3865C9.68814 13.3755 9.67494 13.3701 9.66721 13.3778V13.3778C9.28418 13.76 8.66404 13.76 8.28101 13.3778L8.26008 13.3569V13.3569C7.86598 12.9636 7.86598 12.3251 8.26008 11.9319V11.9319L8.28096 11.9109C8.66313 11.5265 9.28508 11.5265 9.66726 11.9109V11.9109C9.67494 11.9186 9.68814 11.9132 9.68814 11.9023V9.88975H11.8011C11.8117 9.88975 11.817 9.90271 11.8094 9.91019V9.91019C11.4286 10.2842 11.4286 10.8979 11.8094 11.2719L11.8302 11.2923V11.2923C12.2266 11.6816 12.8619 11.6816 13.2583 11.2923V11.2923L13.2791 11.2719C13.6599 10.8979 13.6599 10.2842 13.2791 9.91019V9.91019C13.2715 9.90271 13.2768 9.88975 13.2875 9.88975H15.4004V15.5Z" stroke="#666666"/>
<path d="M1 12.2266L1 6.61632L3.07437 6.61632C3.08533 6.61632 3.09087 6.60311 3.08319 6.59529V6.59529C2.70532 6.21055 2.70532 5.59402 3.08319 5.20928L3.10384 5.18825V5.18825C3.48909 4.796 4.12116 4.796 4.5064 5.18825V5.18825L4.52705 5.20928C4.90492 5.59402 4.90492 6.21055 4.52705 6.59529V6.59529C4.51937 6.60311 4.52491 6.61632 4.53587 6.61632L6.61025 6.61632L6.61025 8.62724C6.61025 8.63792 6.59729 8.64321 6.58981 8.63559V8.63559C6.21579 8.25478 5.60214 8.25478 5.22812 8.63559L5.20769 8.65641V8.65641C4.81835 9.05282 4.81835 9.68806 5.20769 10.0845V10.0845L5.22812 10.1053C5.60214 10.4861 6.21579 10.4861 6.58981 10.1053V10.1053C6.59729 10.0977 6.61025 10.103 6.61025 10.1136L6.61025 12.2266L1 12.2266Z" stroke="#666666"/>
</svg>
