<svg width="14" height="15" viewBox="0 0 14 15" fill="none" xmlns="http://www.w3.org/2000/svg">
<path d="M1.05806 6.93896C1.41826 4.41332 3.41742 2.4143 5.94332 2.05414C6.08345 2.03416 6.26506 2.1504 6.26506 2.39107V5.47594C5.3113 5.54522 4.54949 6.30689 4.48018 7.26068H1.39498C1.1543 7.26068 1.03808 7.07908 1.05806 6.93896Z" stroke="#666666"/>
<path d="M1.05806 9.03369C1.41826 11.5593 3.41742 13.5584 5.94332 13.9185C6.08345 13.9385 6.26506 13.8223 6.26506 13.5816V10.4967C5.3113 10.4274 4.54949 9.66577 4.48018 8.71197H1.39498C1.1543 8.71197 1.03808 8.89358 1.05806 9.03369Z" stroke="#666666"/>
<path d="M8.03422 13.9185C10.5601 13.5584 12.5593 11.5593 12.9195 9.03369C12.9395 8.89358 12.8232 8.71197 12.5826 8.71197L9.49736 8.71197C9.42805 9.66577 8.66623 10.4274 7.71248 10.4967L7.71248 13.5816C7.71248 13.8223 7.89409 13.9385 8.03422 13.9185Z" stroke="#666666"/>
<path d="M11.7708 2.48994L8.9611 4.11202L7.41816 9.00948L6.45756 8.56236" stroke="#666666" stroke-linecap="round" stroke-linejoin="round"/>
<path d="M9.79395 1.08203L12.7486 1.87366L11.9569 4.82807" stroke="#666666" stroke-linecap="round" stroke-linejoin="round"/>
</svg>
