<svg width="12" height="15" viewBox="0 0 12 15" fill="none" xmlns="http://www.w3.org/2000/svg">
<path d="M6 1V1C4.10152 1 2.5625 2.53902 2.5625 4.4375V4.4375" stroke="#666666" stroke-width="0.9"/>
<path d="M2.5625 4.4375V4.4375C2.5625 4.57311 2.45257 4.68304 2.31696 4.68304H1.94375C1.14639 4.68304 0.5 5.32942 0.5 6.12679V6.49345C0.5 7.63616 1.42634 8.5625 2.56905 8.5625H3.42188" stroke="#666666" stroke-width="0.9" stroke-linecap="round"/>
<path d="M6 1V1C7.89848 1 9.4375 2.53902 9.4375 4.4375V4.4375" stroke="#666666" stroke-width="0.9"/>
<path d="M9.4375 4.4375V4.4375C9.4375 4.62815 9.59059 4.78347 9.78121 4.78623L10.0563 4.79022C10.857 4.80182 11.5 5.45424 11.5 6.25504V6.54825C11.5 7.66069 10.5982 8.5625 9.48575 8.5625H8.92188" stroke="#666666" stroke-width="0.9" stroke-linecap="round"/>
<ellipse cx="1.28571" cy="10.6763" rx="0.785714" ry="0.785714" fill="#666666"/>
<path d="M3.97941 6.35045C3.97941 6.75283 3.65322 7.07902 3.25084 7.07902C2.84846 7.07902 2.52227 6.75283 2.52227 6.35045C2.52227 5.94807 2.84846 5.62187 3.25084 5.62187C3.65322 5.62187 3.97941 5.94807 3.97941 6.35045Z" stroke="#666666" stroke-width="0.9"/>
<path d="M3.64202 7.14062L4.42773 7.92634V10.6763H1.67773" stroke="#666666" stroke-width="0.9" stroke-linecap="square" stroke-linejoin="round"/>
<ellipse cx="0.785714" cy="0.785714" rx="0.785714" ry="0.785714" transform="matrix(-1 0 0 1 8.9502 12)" fill="#666666"/>
<ellipse cx="0.785714" cy="0.785714" rx="0.785714" ry="0.785714" transform="matrix(-1 0 0 1 6.39258 13.0312)" fill="#666666"/>
<path d="M7.23544 7.1317C7.23544 7.53408 7.56163 7.86027 7.96401 7.86027C8.36639 7.86027 8.69258 7.53408 8.69258 7.1317C8.69258 6.72932 8.36639 6.40312 7.96401 6.40312C7.56163 6.40312 7.23544 6.72932 7.23544 7.1317Z" stroke="#666666" stroke-width="0.9"/>
<path d="M5.65243 3.67857C5.65243 4.08095 5.97862 4.40714 6.381 4.40714C6.78338 4.40714 7.10957 4.08095 7.10957 3.67857C7.10957 3.27619 6.78338 2.95 6.381 2.95C5.97862 2.95 5.65243 3.27619 5.65243 3.67857Z" stroke="#666666" stroke-width="0.9"/>
<path d="M7.57185 7.92188L6.78613 8.70759V10.4576H8.16113V12" stroke="#666666" stroke-width="0.9" stroke-linecap="square" stroke-linejoin="round"/>
<path d="M5.60742 13.4241V7.13839L6.39314 5.56696V4.78125" stroke="#666666" stroke-width="0.9" stroke-linecap="round" stroke-linejoin="round"/>
</svg>
