<svg width="14" height="13" viewBox="0 0 14 13" fill="none" xmlns="http://www.w3.org/2000/svg">
<path d="M5.34189 9.17035C5.34189 9.81655 4.81781 10.3407 4.17095 10.3407C3.52408 10.3407 3 9.81655 3 9.17035C3 8.52415 3.52408 8 4.17095 8C4.81781 8 5.34189 8.52415 5.34189 9.17035Z" stroke="#666666"/>
<path d="M6.91709 4.17035C6.91709 4.81655 6.39301 5.3407 5.74614 5.3407C5.09928 5.3407 4.5752 4.81655 4.5752 4.17035C4.5752 3.52415 5.09928 3 5.74614 3C6.39301 3 6.91709 3.52415 6.91709 4.17035Z" stroke="#666666"/>
<path d="M5 5.5L4.5 8" stroke="#666666" stroke-linecap="round" stroke-linejoin="round"/>
<path d="M7.23248 4.05734L6.78982 3.82485L6.32485 4.71018L6.76752 4.94266L7.23248 4.05734ZM9.41244 6.33176C9.65691 6.46016 9.95919 6.36606 10.0876 6.12158C10.216 5.87711 10.1219 5.57483 9.87741 5.44643L9.41244 6.33176ZM6.76752 4.94266L9.41244 6.33176L9.87741 5.44643L7.23248 4.05734L6.76752 4.94266Z" fill="#666666"/>
<path d="M1.23 5.5V11.3862C1.23 12.0014 1.72865 12.5 2.34376 12.5H8.88623C9.50135 12.5 10 12.0014 10 11.3862V10.5" stroke="#666666" stroke-linecap="round"/>
<path d="M10 2.5V2.5C10 1.9132 9.5243 1.4375 8.9375 1.4375H2.34716C1.73205 1.4375 1.2334 1.93615 1.2334 2.55126V5.89176" stroke="#666666" stroke-linecap="round"/>
<circle cx="10.0981" cy="6.59808" r="2.5" transform="rotate(-30 10.0981 6.59808)" stroke="#666666"/>
<line x1="11.0981" y1="8.32813" x2="12.5981" y2="10.9262" stroke="#666666"/>
</svg>
