<svg width="14" height="16" viewBox="0 0 14 16" fill="none" xmlns="http://www.w3.org/2000/svg">
<path d="M10.3012 4.41116C10.3012 5.05364 9.78019 5.57467 9.13723 5.57467C8.49426 5.57467 7.97324 5.05364 7.97324 4.41116C7.97324 3.76869 8.49426 3.24766 9.13723 3.24766C9.78019 3.24766 10.3012 3.76869 10.3012 4.41116Z" stroke="#666666" stroke-width="0.8"/>
<path d="M6.3454 6.10319L6.3093 6.50152L6.3454 6.10319L5.97044 6.06916C5.6634 6.04129 5.51518 5.67902 5.71468 5.44403L5.95832 5.15707C6.32978 4.71954 6.3326 4.07822 5.96499 3.63734L5.72392 3.34821C5.52651 3.11145 5.67785 2.75057 5.98509 2.72544L6.36093 2.6947C6.93292 2.64792 7.38833 2.19662 7.44023 1.62516L7.47432 1.24973L7.07593 1.2135L7.47432 1.24973C7.5022 0.942802 7.86441 0.794701 8.09945 0.994129L8.38695 1.23807C8.82456 1.60938 9.4658 1.61227 9.90663 1.24493L10.1963 1.00356C10.4331 0.806243 10.794 0.957661 10.8192 1.26486L10.8499 1.64C10.8967 2.21205 11.3483 2.66758 11.92 2.71947L12.2949 2.7535C12.602 2.78137 12.7502 3.14364 12.5507 3.37862L12.307 3.66559C11.9356 4.10312 11.9328 4.74444 12.3004 5.18532L12.5414 5.47444C12.7389 5.71121 12.5875 6.07209 12.2803 6.09722L11.9044 6.12796L11.9371 6.52659L11.9044 6.12796C11.3324 6.17474 10.877 6.62603 10.8251 7.19749L10.791 7.57293C10.7632 7.87986 10.401 8.02796 10.1659 7.82853L9.87841 7.58459C9.4408 7.21328 8.79956 7.21039 8.35873 7.57773L8.06907 7.8191C7.83227 8.01641 7.47133 7.865 7.44619 7.55779L7.41549 7.18266C7.36867 6.61061 6.9171 6.15508 6.3454 6.10319Z" stroke="#666666" stroke-width="0.8"/>
<path d="M10.7436 8.87407V14.252C10.7436 14.6015 10.4603 14.8849 10.1108 14.8849H1.88281C1.53332 14.8849 1.25 14.6015 1.25 14.252V3.49609C1.25 3.1466 1.53332 2.86328 1.88281 2.86328H4.73099" stroke="#666666"/>
<line x1="2.51562" y1="4.89062" x2="4.41435" y2="4.89062" stroke="#666666"/>
<line x1="2.51562" y1="6.78516" x2="5.01562" y2="6.78516" stroke="#666666"/>
<line x1="5.67969" y1="12.4844" x2="9.47714" y2="12.4844" stroke="#666666"/>
<line x1="2.51562" y1="8.68359" x2="6.94598" y2="8.68359" stroke="#666666"/>
<line x1="2.51562" y1="10.582" x2="9.47761" y2="10.582" stroke="#666666"/>
</svg>
