<svg width="14" height="14" viewBox="0 0 14 14" fill="none" xmlns="http://www.w3.org/2000/svg">
<path d="M6.99911 1.21094C6.36812 1.21079 5.74879 1.38123 5.20673 1.70421C4.66467 2.0272 4.22007 2.49069 3.92 3.04561C3.61994 3.60052 3.4756 4.22619 3.50226 4.85634C3.52893 5.48649 3.72561 6.09766 4.07147 6.62511C4.62748 7.47132 4.90491 7.89443 4.94163 7.95738C5.26216 8.51977 5.20332 8.32162 5.24339 8.96794C5.24804 9.04021 5.24801 9.15036 5.24796 9.37007C5.24792 9.52464 5.30931 9.67288 5.41863 9.78217C5.52794 9.89147 5.67623 9.95287 5.83086 9.95287H8.16304C8.31767 9.95287 8.46599 9.89147 8.57536 9.78217C8.68472 9.67288 8.74619 9.52464 8.74623 9.37007C8.74628 9.15036 8.74631 9.04021 8.75099 8.96794C8.79196 8.32104 8.73186 8.51977 9.05326 7.95738C9.08942 7.89443 9.36822 7.47132 9.92407 6.62452C10.27 6.09708 10.4669 5.48598 10.4938 4.85591C10.5207 4.22585 10.3766 3.60029 10.0769 3.04547C9.77708 2.49065 9.33277 2.02722 8.79096 1.70427C8.24915 1.38132 7.63001 1.21086 6.99911 1.21094Z" stroke="#666666" stroke-linecap="round" stroke-linejoin="round"/>
<path d="M5.5 11.3008H8.5" stroke="#666666" stroke-linecap="round"/>
<path d="M5.75 12.6484H8.25" stroke="#666666" stroke-linecap="round"/>
<path d="M11.75 3.16506C12.7066 2.61278 13.2022 1.6804 12.8571 1.08253C12.5119 0.484666 11.4566 0.447715 10.5 1" stroke="#666666" stroke-linecap="round"/>
<path d="M2.23242 3.16506C1.27584 2.61278 0.780193 1.6804 1.12537 1.08253C1.47055 0.484666 2.52584 0.447715 3.48242 1" stroke="#666666" stroke-linecap="round"/>
<path d="M11.75 6.999C12.7066 7.55128 13.2022 8.48366 12.8571 9.08153C12.5119 9.6794 11.4566 9.71635 10.5 9.16406" stroke="#666666" stroke-linecap="round"/>
<path d="M2.23242 6.999C1.27584 7.55128 0.780193 8.48366 1.12537 9.08153C1.47055 9.6794 2.52584 9.71635 3.48242 9.16406" stroke="#666666" stroke-linecap="round"/>
<circle cx="7" cy="5" r="1.5" stroke="#666666"/>
<line x1="7" y1="4" x2="7" y2="1" stroke="#666666"/>
<line x1="9.36031" y1="7.76762" x2="7.9461" y2="6.3534" stroke="#666666"/>
<line y1="-0.5" x2="2" y2="-0.5" transform="matrix(0.707107 -0.707107 -0.707107 -0.707107 4.2998 7.41406)" stroke="#666666"/>
</svg>
