<svg width="13" height="14" viewBox="0 0 13 14" fill="none" xmlns="http://www.w3.org/2000/svg">
<path d="M10.5 8L10.4944 12.4638C10.494 12.813 10.2108 13.0958 9.8616 13.0958H1.63281C1.28332 13.0958 1 12.8125 1 12.463V1.70703C1 1.35754 1.28332 1.07422 1.63281 1.07422H4.48099" stroke="#666666"/>
<line x1="2.26562" y1="8" x2="4.16435" y2="8" stroke="#666666"/>
<line x1="2.26562" y1="10.5" x2="4.16435" y2="10.5" stroke="#666666"/>
<path d="M2.26562 5.5H5.16435" stroke="#666666"/>
<path d="M2.26562 3.5H4.69598" stroke="#666666"/>
<path d="M5.5 7.5H8.5V10.5H5.5V7.5Z" stroke="#666666"/>
<path d="M10.0879 0.499186L11.2426 0.499186L8.1547 5.84766L7 5.84766L10.0879 0.499186Z" fill="#666666"/>
<circle cx="11" cy="4.80078" r="1" stroke="#666666"/>
<circle cx="7" cy="2" r="1" stroke="#666666"/>
</svg>
