<svg width="14" height="12" viewBox="0 0 14 12" fill="none" xmlns="http://www.w3.org/2000/svg">
<path d="M4.85742 2.71484V5.71484H6.5M10.0003 10.4291V5.71484H9.8" stroke="#666666" stroke-linecap="round" stroke-linejoin="round"/>
<path d="M8.28516 2.5V8.28683H4.85658V10.4297" stroke="#666666" stroke-linecap="round" stroke-linejoin="round"/>
<path d="M3.57129 9.57031L4.857 10.856L6.14272 9.57031" stroke="#666666" stroke-linecap="round" stroke-linejoin="round"/>
<path d="M8.71387 9.57031L9.99958 10.856L11.2853 9.57031" stroke="#666666" stroke-linecap="round" stroke-linejoin="round"/>
<path d="M3.57143 7C3.31117 7 3.0131 7 2.71429 7C1.76751 7 1 6.23249 1 5.28571V2.71429C1 1.76751 1.76751 1 2.71429 1H11.2857C12.2325 1 13 1.76751 13 2.71429V5.28571C13 6.23249 12.2325 7 11.2857 7V7" stroke="#666666" stroke-linecap="round"/>
</svg>
