<svg width="12" height="13" viewBox="0 0 12 13" fill="none" xmlns="http://www.w3.org/2000/svg">
<path d="M11.3405 5.83363C11.1774 4.66052 10.6332 3.57358 9.79159 2.7402C8.95002 1.90682 7.8578 1.37323 6.68316 1.22163C5.63419 1.08556 4.56835 1.26056 3.61796 1.72491C2.66758 2.18926 1.87449 2.92251 1.33716 3.83363M0.673828 7.16696C0.828058 8.27703 1.32386 9.31162 2.09248 10.1273C2.8611 10.9429 3.86445 11.4992 4.96342 11.719C6.0624 11.9388 7.20253 11.8112 8.22573 11.3539C9.24893 10.8966 10.1045 10.1323 10.6738 9.16696" stroke="black" stroke-opacity="0.6" stroke-width="1.2" stroke-linecap="round" stroke-linejoin="round"/>
<path d="M10.0072 9.16602C10.0072 9.34283 10.0774 9.5124 10.2024 9.63742C10.3274 9.76245 10.497 9.83268 10.6738 9.83268C10.8506 9.83268 11.0202 9.76245 11.1452 9.63742C11.2703 9.5124 11.3405 9.34283 11.3405 9.16602C11.3405 8.9892 11.2703 8.81964 11.1452 8.69461C11.0202 8.56959 10.8506 8.49935 10.6738 8.49935C10.497 8.49935 10.3274 8.56959 10.2024 8.69461C10.0774 8.81964 10.0072 8.9892 10.0072 9.16602ZM0.673828 3.83268C0.673828 4.00949 0.744066 4.17906 0.86909 4.30409C0.994115 4.42911 1.16368 4.49935 1.34049 4.49935C1.51731 4.49935 1.68687 4.42911 1.8119 4.30409C1.93692 4.17906 2.00716 4.00949 2.00716 3.83268C2.00716 3.65587 1.93692 3.4863 1.8119 3.36128C1.68687 3.23625 1.51731 3.16602 1.34049 3.16602C1.16368 3.16602 0.994115 3.23625 0.86909 3.36128C0.744066 3.4863 0.673828 3.65587 0.673828 3.83268ZM4.00716 6.49935C4.00716 7.02978 4.21787 7.53849 4.59295 7.91356C4.96802 8.28864 5.47673 8.49935 6.00716 8.49935C6.53759 8.49935 7.0463 8.28864 7.42137 7.91356C7.79645 7.53849 8.00716 7.02978 8.00716 6.49935C8.00716 5.96892 7.79645 5.46021 7.42137 5.08514C7.0463 4.71006 6.53759 4.49935 6.00716 4.49935C5.47673 4.49935 4.96802 4.71006 4.59295 5.08514C4.21787 5.46021 4.00716 5.96892 4.00716 6.49935Z" stroke="#666666" stroke-width="1.2" stroke-linecap="round" stroke-linejoin="round"/>
</svg>
