<svg width="16" height="17" viewBox="0 0 16 17" fill="none" xmlns="http://www.w3.org/2000/svg">
<path d="M10.1224 5.29883C10.283 5.29883 10.4318 5.38364 10.5136 5.5219L11.4911 7.17395H11.5341L12.5169 5.52107C12.5988 5.38328 12.7473 5.29883 12.9076 5.29883H13.5577C13.7352 5.29883 13.8442 5.49306 13.7517 5.64451L12.2836 8.04972L13.7834 10.453C13.8779 10.6044 13.769 10.8006 13.5906 10.8006H12.9196C12.76 10.8006 12.6122 10.717 12.53 10.5802L11.5341 8.92281H11.4911L10.4952 10.5802C10.4131 10.717 10.2652 10.8006 10.1056 10.8006H9.44068C9.2621 10.8006 9.15328 10.6041 9.24804 10.4527L10.7523 8.04972L9.2752 5.64506C9.18218 5.49363 9.29113 5.29883 9.46885 5.29883H10.1224Z" fill="#666666"/>
<path d="M7.1709 5.88046C7.1709 5.55923 7.43131 5.29883 7.75253 5.29883C8.07376 5.29883 8.33416 5.55923 8.33416 5.88046V8.87177C8.33416 9.27294 8.23834 9.62396 8.04671 9.92484C7.85686 10.2257 7.59089 10.4603 7.24881 10.6287C6.90673 10.7952 6.50823 10.8785 6.05331 10.8785C5.5966 10.8785 5.19721 10.7952 4.85513 10.6287C4.51304 10.4603 4.24708 10.2257 4.05723 9.92484C3.86738 9.62396 3.77246 9.27294 3.77246 8.87177V5.88046C3.77246 5.55923 4.03287 5.29883 4.35409 5.29883C4.67532 5.29883 4.93572 5.55923 4.93572 5.88046V8.77237C4.93572 8.98191 4.98139 9.16817 5.07273 9.33114C5.16587 9.49412 5.29661 9.62217 5.46497 9.7153C5.63332 9.80843 5.82944 9.855 6.05331 9.855C6.27898 9.855 6.47509 9.80843 6.64166 9.7153C6.81001 9.62217 6.93986 9.49412 7.0312 9.33114C7.12434 9.16817 7.1709 8.98191 7.1709 8.77237V5.88046Z" fill="#666666"/>
<path fill-rule="evenodd" clip-rule="evenodd" d="M3.35496 4.26004C3.01347 4.26004 2.73664 4.53686 2.73664 4.87834V13.069C2.73664 13.4105 3.01347 13.6827 3.35496 13.6827H10.7748C11.1163 13.6827 11.3931 13.4105 11.3931 13.069V11.8304H12.6298V13.069C12.6298 14.0935 11.7993 14.9213 10.7748 14.9213H3.35496C2.3305 14.9213 1.5 14.0935 1.5 13.069V4.87834C1.5 3.85391 2.3305 3.02344 3.35496 3.02344H5.72798V4.26004H3.35496Z" fill="#666666"/>
</svg>
