<svg width="12" height="13" viewBox="0 0 12 13" fill="none" xmlns="http://www.w3.org/2000/svg">
<path d="M7.90616 12.2137L4.09663 10.8804L1.14425 12.0233C0.932612 12.1079 0.736845 12.0842 0.556951 11.9521C0.377056 11.8201 0.287109 11.6427 0.287109 11.4201V2.53119C0.287109 2.39362 0.326898 2.27193 0.406474 2.16611C0.486051 2.06029 0.594411 1.98092 0.731554 1.92801L4.09663 0.785156L7.90616 2.11849L10.8585 0.975632C11.0702 0.890976 11.2659 0.914892 11.4458 1.04738C11.6257 1.17987 11.7157 1.35701 11.7157 1.57881V10.4677C11.7157 10.6053 11.6761 10.727 11.597 10.8328C11.5178 10.9386 11.4092 11.018 11.2712 11.0709L7.90616 12.2137ZM7.27124 10.6582V3.2296L4.73155 2.34071V9.76928L7.27124 10.6582ZM8.54108 10.6582L10.4458 10.0233V2.49944L8.54108 3.2296V10.6582ZM1.55695 10.4994L3.46171 9.76928V2.34071L1.55695 2.97563V10.4994Z" fill="black" fill-opacity="0.6"/>
</svg>
