<svg width="16" height="17" viewBox="0 0 16 17" fill="none" xmlns="http://www.w3.org/2000/svg">
<path d="M10.4617 7.82105H12.0936M10.7337 9.20199H11.8216M10.4617 6.44366C10.462 5.89967 10.326 5.76367 10.0537 5.49167C9.78145 5.21967 9.65252 4.94414 9.64572 4.53968C9.63294 3.71008 10.1897 3.17969 11.2777 3.17969C12.3659 3.17969 12.9229 3.71008 12.9096 4.53968C12.9034 4.94414 12.7736 5.21967 12.5016 5.49167C12.2299 5.76367 12.0939 5.89967 12.0936 6.44366" stroke="#666666" stroke-linecap="round" stroke-linejoin="round"/>
<path d="M6.8334 11.5743C6.5656 11.5743 5.83719 11.5743 5.06592 11.5743C4.29466 11.5743 4.20887 10.9315 4.26238 10.6102V9.00354C3.67322 9.11066 2.62345 9.06781 3.13762 8.03943C3.6518 7.01106 4.42316 5.25425 4.74456 4.50439C5.07697 3.8728 5.97464 2.96064 7.49902 2.636C7.85208 2.56081 8.57581 2.5 9.11979 2.5M6.8334 11.5743C7.26188 11.5743 8.21524 11.51 8.60087 11.2529M6.8334 11.5743V14.9871" stroke="#666666" stroke-linecap="round"/>
<path d="M12.1152 15.0402V13.2017V11.2735C12.6726 11.0505 14.2354 8.43016 13.5843 6.36328" stroke="#666666" stroke-linecap="round"/>
</svg>
