<svg width="14" height="15" viewBox="0 0 14 15" fill="none" xmlns="http://www.w3.org/2000/svg">
<path d="M12.9996 8.20167V8.31701M12.9996 8.31701C12.9976 8.0326 12.8946 7.75818 12.709 7.54267C12.5234 7.32716 12.2673 7.18458 11.9863 7.14034L11.1816 7.00834V7.60501M12.9996 8.31701V9.79234C12.9996 11.0883 12.9996 11.7363 12.799 12.2523C12.6459 12.6442 12.4121 12.9995 12.1128 13.2951C11.8135 13.5907 11.4554 13.8201 11.0616 13.9683C10.539 14.1663 9.88164 14.1663 8.56898 14.1663C7.88031 14.1663 7.53564 14.1663 7.21564 14.097C6.72771 13.9914 6.27338 13.767 5.89298 13.4437C5.64431 13.2323 5.43764 12.9603 5.02498 12.417L3.20431 10.0197C3.06853 9.8413 2.99662 9.62248 3.00012 9.39833C3.00363 9.17418 3.08235 8.95771 3.22364 8.78367C3.31435 8.67264 3.42721 8.58175 3.55502 8.51678C3.68282 8.45182 3.82277 8.41422 3.96593 8.40637C4.10908 8.39853 4.2523 8.42062 4.38644 8.47124C4.52058 8.52186 4.64269 8.59988 4.74498 8.70034L5.66631 9.67034V3.83301C5.66631 3.56779 5.77167 3.31344 5.9592 3.1259C6.14674 2.93836 6.40109 2.83301 6.66631 2.83301C6.93153 2.83301 7.18588 2.93836 7.37342 3.1259C7.56095 3.31344 7.66631 3.56779 7.66631 3.83301V5.81567H8.15098C8.82031 5.81567 9.36364 6.34901 9.36364 7.00901M7.66631 5.81501V7.60434M9.36364 7.60434V7.00767V6.41101H9.96964C10.639 6.41101 11.1816 6.94567 11.1816 7.60434V8.20101" stroke="black" stroke-opacity="0.6" stroke-width="1.2" stroke-linecap="round" stroke-linejoin="round"/>
<path d="M3.66667 4.83301H3.11733C2.12 4.83301 1.62 4.83301 1.31067 4.53967C1 4.24767 1 3.77634 1 2.83301C1 1.88967 1 1.41901 1.31 1.12634C1.62 0.833675 2.12 0.833008 3.11733 0.833008H10.882C11.8807 0.833008 12.38 0.833008 12.69 1.12634C13 1.41834 13 1.88967 13 2.83301C13 3.77634 13 4.24701 12.69 4.53967C12.38 4.83234 11.88 4.83301 10.882 4.83301H10" stroke="black" stroke-opacity="0.6" stroke-width="1.2" stroke-linecap="round" stroke-linejoin="round"/>
</svg>
