<svg width="13" height="13" viewBox="0 0 13 13" fill="none" xmlns="http://www.w3.org/2000/svg">
<path fill-rule="evenodd" clip-rule="evenodd" d="M5.25 0.750313C5.38808 0.750313 5.5 0.862234 5.5 1.00031V5.75031C5.5 5.88837 5.38808 6.00031 5.25 6.00031H0.5C0.361922 6.00031 0.25 5.88837 0.25 5.75031V1.00031C0.25 0.862234 0.361922 0.750313 0.5 0.750313H5.25ZM4.4375 1.81281H1.3125V4.93781H4.4375V1.81281ZM12.1458 3.18291C12.2435 3.28053 12.2435 3.43883 12.1458 3.53645L9.31739 6.36489C9.21976 6.46252 9.06148 6.46252 8.96384 6.36489L6.13542 3.53645C6.0378 3.43883 6.0378 3.28053 6.13542 3.18291L8.96386 0.354469C9.06148 0.256844 9.21977 0.256844 9.31741 0.354469L12.1458 3.18291ZM10.82 3.35967L9.14062 1.68031L7.46125 3.35969L9.14062 5.03906L10.82 3.35967ZM5.25 7.00031C5.38808 7.00031 5.5 7.11225 5.5 7.25031V12.0003C5.5 12.1384 5.38808 12.2503 5.25 12.2503H0.5C0.361922 12.2503 0.25 12.1384 0.25 12.0003V7.25031C0.25 7.11225 0.361922 7.00031 0.5 7.00031H5.25ZM4.4375 8.06281H1.3125V11.1878H4.4375V8.06281ZM11.5 7.00031C11.6381 7.00031 11.75 7.11225 11.75 7.25031V12.0003C11.75 12.1384 11.6381 12.2503 11.5 12.2503H6.75C6.61192 12.2503 6.5 12.1384 6.5 12.0003V7.25031C6.5 7.11225 6.61192 7.00031 6.75 7.00031H11.5ZM10.6875 8.06281H7.5625V11.1878H10.6875V8.06281Z" fill="black" fill-opacity="0.6"/>
</svg>
