<svg width="16" height="17" viewBox="0 0 16 17" fill="none" xmlns="http://www.w3.org/2000/svg">
<path d="M9.4127 10.5738C9.6805 10.5738 10.4089 10.5738 11.1802 10.5738C11.9514 10.5738 12.0372 9.93106 11.9837 9.60969V8.00305C12.5729 8.11017 13.6226 8.06733 13.1085 7.03895C12.8943 6.61056 12.6355 6.05576 12.3831 5.5M9.4127 10.5738C8.98422 10.5738 8.03085 10.5095 7.64522 10.2524M9.4127 10.5738V13.9866" stroke="#666666" stroke-linecap="round"/>
<path d="M5.13086 14.0402V12.2017V10.2735C4.58571 10.0554 2.88955 8.5 3.00586 6.5" stroke="#666666" stroke-linecap="round"/>
<path d="M10.3086 1.26908L11.4519 2.41233L11.7945 2.75481C11.9632 2.92353 11.9632 3.19708 11.7945 3.3658L11.4519 3.70828L10.3086 4.85153C10.1725 4.98759 9.93984 4.89122 9.93984 4.69878V3.70828H7.77966C7.54107 3.70828 7.34766 3.51486 7.34766 3.27627V2.84434C7.34766 2.60575 7.54107 2.41233 7.77966 2.41233H9.93984V1.42183C9.93984 1.2294 10.1725 1.13302 10.3086 1.26908Z" fill="#666666"/>
<path d="M5.79104 3.64213L4.64767 4.78538L4.30515 5.12786C4.13642 5.29657 4.13642 5.57013 4.30515 5.73884L4.64767 6.08133L5.79104 7.22458C5.92712 7.36064 6.15977 7.26426 6.15977 7.07183V6.08133H8.31995C8.55854 6.08133 8.75195 5.88791 8.75195 5.64932V5.21738C8.75195 4.97879 8.55854 4.78538 8.31995 4.78538H6.15977V3.79488C6.15977 3.60244 5.92712 3.50607 5.79104 3.64213Z" fill="#666666"/>
</svg>
