<svg width="14" height="15" viewBox="0 0 14 15" fill="none" xmlns="http://www.w3.org/2000/svg">
<path d="M5 1.2075L4.293 0.5L2.5 2.2935L0.707 0.5L0 1.2075L1.793 3L0 4.793L0.707 5.5L2.5 3.707L4.293 5.5L5 4.793L3.207 3L5 1.2075ZM11.5 0.5L9 3L9.7045 3.7095L11 2.397V7H3C2.4485 7 2 7.449 2 8V9.5505C0.86 9.7825 0 10.7925 0 12C0 13.3785 1.1215 14.5 2.5 14.5C3.8785 14.5 5 13.3785 5 12C4.99906 11.424 4.79966 10.8659 4.43537 10.4198C4.07108 9.97361 3.56417 9.66662 3 9.5505V8H11C11.5515 8 12 7.5515 12 7V2.4235L13.2955 3.7095L14 3L11.5 0.5ZM4 12C4 12.827 3.327 13.5 2.5 13.5C1.673 13.5 1 12.827 1 12C1 11.173 1.673 10.5 2.5 10.5C3.327 10.5 4 11.173 4 12Z" fill="black" fill-opacity="0.6"/>
<path d="M14 10.2075L13.293 9.5L11.5 11.2935L9.707 9.5L9 10.2075L10.793 12L9 13.793L9.707 14.5L11.5 12.707L13.293 14.5L14 13.793L12.207 12L14 10.2075Z" fill="black" fill-opacity="0.6"/>
</svg>
