<svg width="12" height="16" viewBox="0 0 12 16" fill="none" xmlns="http://www.w3.org/2000/svg">
<path d="M7.81102 9.75217L8.48475 9.1164C8.54851 9.05622 8.64364 9.04361 8.72088 9.0851L9.85555 9.69454C9.92162 9.73003 9.96284 9.79896 9.96284 9.87395V10.5666C9.96284 12.9279 7.95644 14.8422 5.48142 14.8422C3.03605 14.8422 1.04814 12.9735 1.00086 10.6512C0.999762 10.5972 1.02147 10.5451 1.05968 10.5069L1.75516 9.81178C1.79335 9.77361 1.84513 9.75217 1.89913 9.75217H2.54528C2.59928 9.75217 2.65106 9.73073 2.68925 9.69256L2.83331 9.54857L2.93516 9.44677" stroke="#666666" stroke-linecap="round" stroke-linejoin="round"/>
<path d="M7.02378 2.87085C6.59793 2.75668 6.14911 2.75975 5.72487 2.87975C5.30062 2.99975 4.91675 3.2322 4.61391 3.55249C4.31107 3.87277 4.10054 4.26897 4.00462 4.6991C3.9087 5.12923 3.93096 5.57728 4.06904 5.9958C4.29133 6.66746 4.40209 7.00318 4.41549 7.0523C4.53016 7.48983 4.52627 7.34545 4.43647 7.78892C4.42654 7.83853 4.40661 7.91287 4.36686 8.06115C4.33889 8.16547 4.35353 8.27662 4.40755 8.37015C4.46157 8.46367 4.55055 8.53192 4.65492 8.55988L6.22899 8.98149C6.33335 9.00944 6.44456 8.99481 6.53813 8.94082C6.63171 8.88682 6.69999 8.79789 6.72796 8.69357C6.76771 8.54529 6.78765 8.47095 6.80387 8.42302C6.94847 7.99381 6.87198 8.11708 7.19057 7.7956C7.22636 7.75966 7.49102 7.52449 8.01927 7.05344C8.34812 6.76 8.59146 6.38313 8.72352 5.96274C8.85557 5.54235 8.87143 5.09409 8.7694 4.66543C8.66738 4.23677 8.45127 3.84367 8.14397 3.52775C7.83667 3.21183 7.44961 2.98485 7.02378 2.87085Z" stroke="#666666" stroke-linecap="round" stroke-linejoin="round"/>
<path d="M5.48142 14.8439C7.95644 14.8439 9.96284 12.9297 9.96284 10.5683V10.5384C9.96284 10.2117 9.59232 10.0227 9.32785 10.2146L7.35796 11.6439C7.19878 11.7594 6.97925 11.7421 6.84017 11.603L5.71327 10.4763C5.57845 10.3415 5.36724 10.3206 5.20858 10.4263L3.35315 11.6626C3.19451 11.7683 2.98332 11.7474 2.8485 11.6126L2.3433 11.1076C2.30167 11.066 2.26974 11.0157 2.24978 10.9604L2.02844 10.3465C1.92903 10.0707 1.57661 9.99198 1.36929 10.1992L1.11724 10.4511C1.04218 10.5262 0.999072 10.6282 1.00331 10.7343C1.0947 13.0187 3.06465 14.8439 5.48142 14.8439Z" stroke="#666666" stroke-linejoin="round"/>
<path d="M7.72559 0.5L7.54913 1.15835" stroke="#666666" stroke-linecap="round"/>
<path d="M11.0996 6.34375L10.4411 6.16735" stroke="#666666" stroke-linecap="round"/>
<path d="M2.54004 4.05078L1.88149 3.87438" stroke="#666666" stroke-linecap="round"/>
<path d="M4.41895 1.53125L4.07805 0.940989" stroke="#666666" stroke-linecap="round"/>
<path d="M9.88281 2.98828L10.4733 2.64749" stroke="#666666" stroke-linecap="round"/>
</svg>
