<svg width="34" height="34" viewBox="0 0 34 34" fill="none" xmlns="http://www.w3.org/2000/svg">
<path d="M5.25 25.8984H10.639" stroke="black" stroke-linecap="round"/>
<path d="M5.25 29.0391H10.639" stroke="black" stroke-linecap="round"/>
<path d="M16.2183 13.8902L16.6893 14.058L16.7635 13.8495L16.6592 13.6544L16.2183 13.8902ZM14.8984 17.5964L14.4274 17.4287L14.136 18.2471L14.99 18.088L14.8984 17.5964ZM18.8232 16.8652L19.1163 16.4601L18.9425 16.3344L18.7316 16.3736L18.8232 16.8652ZM32.4945 9.85248C32.4945 14.3781 28.7464 18.0643 24.101 18.0643V19.0643C29.2791 19.0643 33.4945 14.9497 33.4945 9.85248H32.4945ZM24.101 1.64062C28.7464 1.64062 32.4945 5.32688 32.4945 9.85248H33.4945C33.4945 4.75523 29.2791 0.640625 24.101 0.640625V1.64062ZM15.7074 9.85248C15.7074 5.32688 19.4556 1.64062 24.101 1.64062V0.640625C18.9228 0.640625 14.7074 4.75523 14.7074 9.85248H15.7074ZM16.6592 13.6544C16.0512 12.5179 15.7074 11.225 15.7074 9.85248H14.7074C14.7074 11.3942 15.0941 12.8486 15.7774 14.1261L16.6592 13.6544ZM15.3695 17.7642L16.6893 14.058L15.7473 13.7225L14.4274 17.4287L15.3695 17.7642ZM18.7316 16.3736L14.8069 17.1049L14.99 18.088L18.9148 17.3567L18.7316 16.3736ZM24.101 18.0643C22.2329 18.0643 20.5095 17.4679 19.1163 16.4601L18.5302 17.2703C20.0895 18.3983 22.017 19.0643 24.101 19.0643V18.0643Z" fill="black"/>
<ellipse cx="19.8481" cy="10.1388" rx="1.26221" ry="1.23642" fill="#0453F4"/>
<ellipse cx="23.9497" cy="10.1388" rx="1.26221" ry="1.23642" fill="#0453F4"/>
<ellipse cx="28.0513" cy="10.1388" rx="1.26221" ry="1.23642" fill="#0453F4"/>
<path d="M1 18.3594C1 17.2548 1.89543 16.3594 3 16.3594H6.54863C7.6532 16.3594 8.54863 17.2548 8.54863 18.3594V20.5797C8.54863 21.6842 9.44406 22.5797 10.5486 22.5797H12.8987C14.0032 22.5797 14.8987 23.4751 14.8987 24.5797V31.1402C14.8987 32.2448 14.0032 33.1402 12.8987 33.1402H3C1.89543 33.1402 1 32.2448 1 31.1402V18.3594Z" stroke="black"/>
<path d="M7.95312 16.3594L14.9013 23.1404" stroke="black" stroke-linecap="round"/>
</svg>
