<svg width="21" height="21" viewBox="0 0 21 21" fill="none" xmlns="http://www.w3.org/2000/svg">
<path d="M15.0674 13.3651H14.1407L13.8122 13.0486C15.22 11.4077 15.9473 9.16911 15.5484 6.78983C14.9971 3.53149 12.2753 0.929517 8.99053 0.531016C4.02811 -0.078456 -0.148303 4.09408 0.461735 9.0519C0.860606 12.3337 3.465 15.0529 6.72635 15.6037C9.10785 16.0022 11.3486 15.2756 12.991 13.8691L13.3077 14.1973V15.1232L18.2936 20.1044C18.7746 20.585 19.5606 20.585 20.0416 20.1044C20.5226 19.6239 20.5226 18.8386 20.0416 18.3581L15.0674 13.3651ZM8.02855 13.3651C5.10741 13.3651 2.74938 11.0092 2.74938 8.09081C2.74938 5.17238 5.10741 2.81654 8.02855 2.81654C10.9497 2.81654 13.3077 5.17238 13.3077 8.09081C13.3077 11.0092 10.9497 13.3651 8.02855 13.3651Z" fill="white"/>
</svg>
