<svg width="40" height="41" viewBox="0 0 40 41" fill="none" xmlns="http://www.w3.org/2000/svg">
<path d="M23.5803 26.6794C23.7919 26.6794 23.9948 26.5954 24.1444 26.4458C24.294 26.2962 24.3781 26.0933 24.3781 25.8817C24.3781 25.6701 24.294 25.4672 24.1444 25.3176C23.9948 25.168 23.7919 25.084 23.5803 25.084C23.3687 25.084 23.1658 25.168 23.0162 25.3176C22.8666 25.4672 22.7826 25.6701 22.7826 25.8817C22.7826 26.0933 22.8666 26.2962 23.0162 26.4458C23.1658 26.5954 23.3687 26.6794 23.5803 26.6794ZM18.2621 26.6794C18.4737 26.6794 18.6766 26.5954 18.8262 26.4458C18.9758 26.2962 19.0598 26.0933 19.0598 25.8817C19.0598 25.6701 18.9758 25.4672 18.8262 25.3176C18.6766 25.168 18.4737 25.084 18.2621 25.084C18.0505 25.084 17.8476 25.168 17.698 25.3176C17.5484 25.4672 17.4644 25.6701 17.4644 25.8817C17.4644 26.0933 17.5484 26.2962 17.698 26.4458C17.8476 26.5954 18.0505 26.6794 18.2621 26.6794Z" fill="#434343" stroke="#434343" stroke-width="1.06364" stroke-linecap="round" stroke-linejoin="round"/>
<path d="M21.9849 17.1066H24.9099L23.8463 22.9566M21.9849 17.1066L21.453 22.9566M21.9849 17.1066H18.9269M23.8463 22.9566H21.453M23.8463 22.9566H16.7003C15.7516 22.9566 15.2484 23.3719 15.2484 24.0202C15.2484 24.6685 15.6916 25.0839 16.7003 25.0839H23.5803M21.453 22.9566H19.3258M18.9269 17.1066H15.8689M18.9269 17.1066L19.3258 22.9566M19.3258 22.9566H16.9326L15.8689 17.1066M15.8689 17.1066C15.7801 16.7519 15.3371 16.043 14.2734 16.043" stroke="#434343" stroke-width="1.06364" stroke-linecap="round" stroke-linejoin="round"/>
<path d="M32.2726 20.9503C32.2726 27.7283 26.7778 33.223 19.9997 33.223C13.2216 33.223 7.72688 27.7283 7.72688 20.9503C7.72688 14.1722 13.2216 8.67756 19.9997 8.67756C26.7778 8.67756 32.2726 14.1722 32.2726 20.9503Z" stroke="#434343" stroke-width="1.63637"/>
<path d="M17.6385 4.58984C17.3741 4.62767 17.1116 4.67176 16.8513 4.72196C9.98646 6.04583 4.63407 11.6165 3.63623 18.5919" stroke="#434343" stroke-width="1.57441" stroke-linecap="round"/>
<path d="M22.3615 4.58984C22.6259 4.62767 22.8884 4.67176 23.1487 4.72196C30.0135 6.04583 35.3659 11.6165 36.3638 18.5919" stroke="#434343" stroke-width="1.57441" stroke-linecap="round"/>
<path d="M17.6385 37.3145C17.3741 37.2766 17.1116 37.2325 16.8513 37.1823C9.98646 35.8585 4.63407 30.2878 3.63623 23.3124" stroke="#434343" stroke-width="1.57441" stroke-linecap="round"/>
<path d="M22.3615 37.3145C22.6259 37.2766 22.8884 37.2325 23.1487 37.1823C30.0135 35.8585 35.3659 30.2878 36.3638 23.3124" stroke="#434343" stroke-width="1.57441" stroke-linecap="round"/>
<path d="M2 20.9512L11.8183 20.9512" stroke="#434343" stroke-width="1.63637" stroke-linecap="round"/>
<path d="M20 2.95117L20 12.7693" stroke="#434343" stroke-width="1.63637" stroke-linecap="round"/>
<path d="M28.1816 20.9512H37.9999" stroke="#434343" stroke-width="1.63637" stroke-linecap="round"/>
<path d="M20 29.1348L20 38.9529" stroke="#434343" stroke-width="1.63637" stroke-linecap="round"/>
</svg>
