<svg width="40" height="41" viewBox="0 0 40 41" fill="none" xmlns="http://www.w3.org/2000/svg">
<g clip-path="url(#clip0_3067_5114)">
<path d="M19.4662 24.9593C19.8746 24.0796 21.1254 24.0796 21.5338 24.9593C22.1115 26.204 23.5466 26.7984 24.8352 26.3268C25.7461 25.9935 26.6305 26.8779 26.2972 27.7888C25.8256 29.0775 26.42 30.5125 27.6647 31.0903C28.5445 31.4987 28.5445 32.7494 27.6647 33.1578C26.42 33.7356 25.8256 35.1706 26.2972 36.4592C26.6305 37.3701 25.7461 38.2545 24.8352 37.9212C23.5466 37.4497 22.1115 38.0441 21.5338 39.2887C21.1254 40.1685 19.8746 40.1685 19.4662 39.2887C18.8885 38.0441 17.4534 37.4497 16.1648 37.9212C15.2539 38.2545 14.3695 37.3701 14.7028 36.4592C15.1744 35.1706 14.58 33.7356 13.3353 33.1578C12.4555 32.7494 12.4555 31.4987 13.3353 31.0903C14.58 30.5125 15.1744 29.0775 14.7028 27.7888C14.3695 26.8779 15.2539 25.9935 16.1648 26.3268C17.4534 26.7984 18.8885 26.204 19.4662 24.9593Z" stroke="#434343" stroke-width="1.5"/>
<circle cx="20.4997" cy="32.1247" r="3.4235" stroke="#434343" stroke-width="1.5"/>
<path d="M19.25 31.9387L20.2625 32.9512L21.95 31.2637" stroke="#434343" stroke-linecap="round" stroke-linejoin="round"/>
<path d="M31 30.3428C32.8703 29.561 33 29.5737 33 28.5666C33 20.561 27.4036 18.9512 20.5 18.9512C13.5964 18.9512 8 20.561 8 28.5666C8 29.5737 8.12967 29.561 10 30.3428" stroke="#434343" stroke-width="2" stroke-linecap="round"/>
<circle cx="20.5" cy="10.4512" r="5.5" stroke="#434343" stroke-width="2"/>
</g>
<defs>
<clipPath id="clip0_3067_5114">
<rect width="40" height="40" fill="white" transform="translate(0 0.951172)"/>
</clipPath>
</defs>
</svg>
