<svg width="40" height="41" viewBox="0 0 40 41" fill="none" xmlns="http://www.w3.org/2000/svg">
<path d="M38 37.9512L28.5769 28.5281M17.8077 32.5666C21.7349 32.5666 25.5013 31.0065 28.2783 28.2295C31.0553 25.4525 32.6154 21.6861 32.6154 17.7589C32.6154 13.8316 31.0553 10.0652 28.2783 7.28824C25.5013 4.51126 21.7349 2.95117 17.8077 2.95117C13.8804 2.95117 10.1141 4.51126 7.33707 7.28824C4.56009 10.0652 3 13.8316 3 17.7589C3 21.6861 4.56009 25.4525 7.33707 28.2295C10.1141 31.0065 13.8804 32.5666 17.8077 32.5666Z" stroke="#434343" stroke-width="2" stroke-linecap="round" stroke-linejoin="round"/>
<path d="M17.4727 22.274H17.1889L16.9762 22.4618L13.4199 25.6025V23.024V22.274H12.6699H11.634C11.2941 22.274 11.0186 21.9984 11.0186 21.6585V12.1037C11.0186 11.7638 11.2941 11.4883 11.634 11.4883H24.1589C24.4989 11.4883 24.7744 11.7638 24.7744 12.1037V21.6585C24.7744 21.9984 24.4989 22.274 24.1589 22.274H19.8741H17.4727Z" stroke="#434343" stroke-width="1.5"/>
<path d="M15.1746 14.9132C15.2481 14.7652 15.4592 14.7652 15.5328 14.9132L16.0574 15.9692C16.0866 16.0278 16.1425 16.0685 16.2073 16.078L17.3737 16.2507C17.5372 16.2749 17.6024 16.4757 17.4844 16.5914L16.6422 17.4167C16.5955 17.4625 16.5741 17.5283 16.585 17.5928L16.7812 18.7555C16.8087 18.9185 16.6379 19.0426 16.4914 18.9661L15.4463 18.4201C15.3883 18.3898 15.3191 18.3898 15.2611 18.4201L14.2159 18.9661C14.0694 19.0426 13.8986 18.9185 13.9261 18.7555L14.1224 17.5928C14.1333 17.5283 14.1119 17.4625 14.0651 17.4167L13.223 16.5914C13.1049 16.4757 13.1702 16.2749 13.3337 16.2507L14.5001 16.078C14.5648 16.0685 14.6208 16.0278 14.6499 15.9692L15.1746 14.9132Z" fill="#434343"/>
<path d="M20.26 14.9132C20.3336 14.7652 20.5447 14.7652 20.6182 14.9132L21.1429 15.9692C21.172 16.0278 21.228 16.0685 21.2927 16.078L22.4591 16.2507C22.6226 16.2749 22.6879 16.4757 22.5698 16.5914L21.7277 17.4167C21.6809 17.4625 21.6596 17.5283 21.6704 17.5928L21.8667 18.7555C21.8942 18.9185 21.7234 19.0426 21.5769 18.9661L20.5317 18.4201C20.4737 18.3898 20.4045 18.3898 20.3465 18.4201L19.3014 18.9661C19.1549 19.0426 18.9841 18.9185 19.0116 18.7555L19.2078 17.5928C19.2187 17.5283 19.1973 17.4625 19.1506 17.4167L18.3084 16.5914C18.1904 16.4757 18.2556 16.2749 18.4191 16.2507L19.5855 16.078C19.6503 16.0685 19.7062 16.0278 19.7354 15.9692L20.26 14.9132Z" fill="#434343"/>
</svg>
