<svg width="40" height="41" viewBox="0 0 40 41" fill="none" xmlns="http://www.w3.org/2000/svg">
<path d="M14 13.9512V4.95117C14 3.8466 14.8954 2.95117 16 2.95117H26H27.5858C27.851 2.95117 28.1054 3.05653 28.2929 3.24407L33 7.95117L37.7071 12.6583C37.8946 12.8458 38 13.1002 38 13.3654V20.9512V36.9512C38 38.0557 37.1046 38.9512 36 38.9512H16C14.8954 38.9512 14 38.0557 14 36.9512V34.9512" stroke="#434343" stroke-width="2" stroke-linecap="round"/>
<path d="M28 12.9512H38L28 2.95117V12.9512Z" stroke="#434343" stroke-width="2" stroke-linecap="round" stroke-linejoin="round"/>
<path d="M31.5853 23.7025C31.2849 23.7025 31.0365 23.4819 30.9284 23.2015C30.553 22.2276 29.6304 21.6791 28.5103 21.6791C26.7528 21.6791 25.527 23.0231 25.527 25.4452C25.527 27.8969 26.7676 29.2113 28.5103 29.2113C29.6064 29.2113 30.5265 28.6834 30.9194 27.732C31.032 27.4595 31.2776 27.247 31.5724 27.247C32.3257 27.247 32.9149 27.9317 32.5725 28.6026C31.8712 29.9765 30.4276 30.9393 28.4808 30.9393C25.6599 30.9393 23.5923 28.8864 23.5923 25.4452C23.5923 21.9893 25.6895 19.9512 28.4808 19.9512C30.3506 19.9512 31.8875 20.8112 32.6086 22.3482C32.9264 23.0256 32.3336 23.7025 31.5853 23.7025Z" fill="#434343"/>
<path d="M22.145 25.4452C22.145 28.9011 20.0478 30.9393 17.2417 30.9393C14.4356 30.9393 12.3384 28.8864 12.3384 25.4452C12.3384 21.9893 14.4356 19.9512 17.2417 19.9512C20.0478 19.9512 22.145 21.9893 22.145 25.4452ZM20.2102 25.4452C20.2102 23.0083 18.9844 21.6791 17.2417 21.6791C15.4989 21.6791 14.2731 23.0083 14.2731 25.4452C14.2731 27.8821 15.4989 29.2113 17.2417 29.2113C18.9844 29.2113 20.2102 27.8821 20.2102 25.4452Z" fill="#434343"/>
<path d="M3.39654 20.0996C3.82347 20.0996 4.20218 20.3736 4.33569 20.7791L6.88852 28.5327H7.00667L9.57363 20.7775C9.70757 20.3728 10.0858 20.0996 10.512 20.0996C11.1942 20.0996 11.6714 20.7744 11.4439 21.4176L8.52273 29.6791C8.28682 30.3463 7.65601 30.7923 6.94836 30.7923C6.23996 30.7923 5.60865 30.3454 5.37332 29.6772L2.46394 21.4168C2.2374 20.7736 2.71461 20.0996 3.39654 20.0996Z" fill="#434343"/>
</svg>
