<svg width="34" height="39" viewBox="0 0 34 39" fill="none" xmlns="http://www.w3.org/2000/svg">
<path fill-rule="evenodd" clip-rule="evenodd" d="M31.6279 9.18468L27 7.32422V9.18468H1.86047V37.0917H29.7674C30.795 37.0917 31.6279 36.2587 31.6279 35.2312V9.18468ZM0 7.32422V38.9521H29.7674C31.8225 38.9521 33.4884 37.2862 33.4884 35.2312V7.32422H31.6279V9.18468L27 7.32422H0Z" fill="#434343"/>
<path d="M16.8139 16.597C14.2161 16.597 11.9513 18.6604 11.9513 21.1755C11.9513 22.3769 12.4174 23.1595 13.0331 23.9885L13.2683 24.2974C13.5135 24.6198 13.785 24.9763 14.0082 25.3328C14.3204 25.8346 14.5986 26.4267 14.6909 27.152C14.7129 27.3876 14.6519 27.6235 14.5206 27.8101C14.3893 27.9968 14.198 28.1197 13.9869 28.153C13.7757 28.1864 13.5611 28.1276 13.3882 27.9889C13.2153 27.8503 13.0974 27.6426 13.0595 27.4096C13.0155 27.0653 12.8803 26.7417 12.6527 26.3755C12.4662 26.0882 12.2674 25.8111 12.0568 25.5452L11.7622 25.1545C11.0729 24.2278 10.3022 23.0264 10.3022 21.1755C10.3022 17.586 13.3652 14.7656 16.8139 14.7656C20.2626 14.7656 23.3255 17.586 23.3255 21.1755C23.3255 23.0264 22.5548 24.2278 21.8655 25.1545C21.7615 25.2945 21.6633 25.4243 21.5709 25.544C21.3433 25.8431 21.1499 26.0971 20.9762 26.3755C20.7475 26.7417 20.6134 27.0653 20.5694 27.4096C20.5289 27.6403 20.41 27.845 20.2375 27.9812C20.065 28.1175 19.8519 28.1749 19.6424 28.1417C19.4328 28.1085 19.2427 27.9871 19.1114 27.8027C18.9801 27.6183 18.9176 27.3849 18.9368 27.1507C19.0292 26.4267 19.3073 25.8346 19.6195 25.3328C19.8427 24.9763 20.1143 24.6198 20.3594 24.2974L20.5936 23.9885C21.2103 23.1595 21.6765 22.3769 21.6765 21.1755C21.6765 18.6604 19.4117 16.597 16.8139 16.597ZM13.8752 29.4168H19.7526C19.9712 29.4168 20.181 29.5133 20.3356 29.685C20.4902 29.8567 20.5771 30.0896 20.5771 30.3325C20.5771 30.5753 20.4902 30.8083 20.3356 30.98C20.181 31.1517 19.9712 31.2482 19.7526 31.2482H13.8752C13.6565 31.2482 13.4468 31.1517 13.2922 30.98C13.1375 30.8083 13.0507 30.5753 13.0507 30.3325C13.0507 30.0896 13.1375 29.8567 13.2922 29.685C13.4468 29.5133 13.6565 29.4168 13.8752 29.4168ZM14.15 33.3848C14.15 33.142 14.2369 32.909 14.3915 32.7373C14.5462 32.5656 14.7559 32.4691 14.9746 32.4691H18.6532C18.8719 32.4691 19.0816 32.5656 19.2362 32.7373C19.3909 32.909 19.4777 33.142 19.4777 33.3848C19.4777 33.6277 19.3909 33.8606 19.2362 34.0323C19.0816 34.204 18.8719 34.3005 18.6532 34.3005H14.9746C14.7559 34.3005 14.5462 34.204 14.3915 34.0323C14.2369 33.8606 14.15 33.6277 14.15 33.3848Z" fill="#434343"/>
<path d="M26.0464 5.11636L26.2732 4.79852C27.7571 2.71869 30.8475 2.71869 32.3313 4.79852L33.0886 4.25825L32.3313 4.79852L32.5581 5.11636L32.5581 32.3976C30.8011 30.5342 27.8034 30.5342 26.0464 32.3976V5.11636Z" stroke="#434343" stroke-width="1.86047"/>
<path d="M14.9531 21.7427L16.3485 23.1381L18.6741 20.8125" stroke="#434343" stroke-width="1.86047" stroke-linecap="round" stroke-linejoin="round"/>
<path fill-rule="evenodd" clip-rule="evenodd" d="M23.3255 13.37H10.3022V11.9746H23.3255V13.37Z" fill="#434343"/>
<path fill-rule="evenodd" clip-rule="evenodd" d="M21.9303 14.3007L21.9303 11.0449L23.3257 11.0449L23.3257 14.3007L21.9303 14.3007Z" fill="#434343"/>
<path fill-rule="evenodd" clip-rule="evenodd" d="M9.83707 14.3007L9.83707 11.0449L11.2324 11.0449L11.2324 14.3007L9.83707 14.3007Z" fill="#434343"/>
<path fill-rule="evenodd" clip-rule="evenodd" d="M6.51188 34.2994L6.51188 16.625L7.90723 16.625L7.90723 34.2994L6.51188 34.2994Z" fill="#434343"/>
<path fill-rule="evenodd" clip-rule="evenodd" d="M5.5811 33.3703L8.83691 33.3703L8.83691 34.7656L5.5811 34.7656L5.5811 33.3703Z" fill="#434343"/>
<path fill-rule="evenodd" clip-rule="evenodd" d="M5.5811 15.6945L8.83691 15.6945L8.83691 17.0898L5.5811 17.0898L5.5811 15.6945Z" fill="#434343"/>
</svg>
