<svg width="40" height="41" viewBox="0 0 40 41" fill="none" xmlns="http://www.w3.org/2000/svg">
<g clip-path="url(#clip0_3067_5039)">
<path d="M28 25.3364C27.8985 25.6948 27.7752 26.0442 27.6318 26.3831C26.2475 29.6535 22.9799 31.9512 19.1694 31.9512C14.1053 31.9512 10 27.893 10 22.8869C10 18.4021 13.2949 14.6781 17.6223 13.9512" stroke="#434343" stroke-width="2" stroke-linecap="round"/>
<rect x="3" y="3.95117" width="34" height="34" rx="2.6" stroke="#434343" stroke-width="2"/>
<path d="M21 12.2204C21 11.5194 21.5683 10.9512 22.2692 10.9512V10.9512C27.6434 10.9512 32 15.3078 32 20.6819V20.6819C32 21.3829 31.4317 21.9512 30.7308 21.9512H23C21.8954 21.9512 21 21.0557 21 19.9512V12.2204Z" stroke="#434343" stroke-width="2"/>
</g>
<defs>
<clipPath id="clip0_3067_5039">
<rect width="40" height="40" fill="white" transform="translate(0 0.951172)"/>
</clipPath>
</defs>
</svg>
