<svg width="40" height="41" viewBox="0 0 40 41" fill="none" xmlns="http://www.w3.org/2000/svg">
<g clip-path="url(#clip0_3067_5091)">
<path d="M6 20.8555L19.8846 25.6055V39.4901L6 33.6439L6 20.8555Z" stroke="#434343" stroke-width="1.5" stroke-linejoin="round"/>
<path d="M23.1734 38.0285L19.8849 39.4901V25.6055L33.7695 20.8555V28.2497" stroke="#434343" stroke-width="1.5" stroke-linecap="round" stroke-linejoin="round"/>
<path d="M25.0913 17.502L33.7692 20.7856L19.8846 25.901L6 20.7856L14.6779 17.502" stroke="#434343" stroke-width="1.5" stroke-linecap="round" stroke-linejoin="round"/>
<path d="M19.5279 7.35035C17.4352 7.35035 15.6107 9.01257 15.6107 11.0387C15.6107 12.0065 15.9862 12.637 16.4821 13.3048L16.6717 13.5537C16.8692 13.8133 17.0879 14.1005 17.2677 14.3877C17.5192 14.792 17.7433 15.269 17.8177 15.8533C17.8354 16.0431 17.7862 16.2331 17.6805 16.3835C17.5747 16.5338 17.4206 16.6329 17.2505 16.6597C17.0804 16.6866 16.9075 16.6392 16.7682 16.5275C16.6289 16.4158 16.534 16.2485 16.5034 16.0608C16.468 15.7834 16.359 15.5228 16.1757 15.2277C16.0255 14.9963 15.8653 14.7731 15.6957 14.5589L15.4583 14.2441C14.9031 13.4976 14.2822 12.5298 14.2822 11.0387C14.2822 8.14703 16.7497 5.875 19.5279 5.875C22.3061 5.875 24.7736 8.14703 24.7736 11.0387C24.7736 12.5298 24.1528 13.4976 23.5975 14.2441C23.5136 14.3569 23.4345 14.4615 23.3601 14.5579C23.1768 14.7989 23.0209 15.0035 22.881 15.2277C22.6968 15.5228 22.5887 15.7834 22.5533 16.0608C22.5206 16.2467 22.4249 16.4115 22.2859 16.5213C22.147 16.6311 21.9753 16.6774 21.8065 16.6506C21.6377 16.6238 21.4845 16.5261 21.3788 16.3775C21.273 16.2289 21.2226 16.0409 21.2381 15.8523C21.3125 15.269 21.5366 14.792 21.7881 14.3877C21.9679 14.1005 22.1866 13.8133 22.3841 13.5537L22.5728 13.3048C23.0696 12.637 23.4451 12.0065 23.4451 11.0387C23.4451 9.01257 21.6207 7.35035 19.5279 7.35035ZM17.1605 17.6778H21.8953C22.0714 17.6778 22.2404 17.7555 22.3649 17.8938C22.4895 18.0322 22.5595 18.2198 22.5595 18.4154C22.5595 18.6111 22.4895 18.7987 22.3649 18.9371C22.2404 19.0754 22.0714 19.1531 21.8953 19.1531H17.1605C16.9844 19.1531 16.8154 19.0754 16.6909 18.9371C16.5663 18.7987 16.4963 18.6111 16.4963 18.4154C16.4963 18.2198 16.5663 18.0322 16.6909 17.8938C16.8154 17.7555 16.9844 17.6778 17.1605 17.6778ZM17.3819 20.8744C17.3819 20.6787 17.4519 20.4911 17.5765 20.3527C17.7011 20.2144 17.87 20.1367 18.0462 20.1367H21.0096C21.1858 20.1367 21.3547 20.2144 21.4793 20.3527C21.6039 20.4911 21.6739 20.6787 21.6739 20.8744C21.6739 21.07 21.6039 21.2576 21.4793 21.396C21.3547 21.5343 21.1858 21.612 21.0096 21.612H18.0462C17.87 21.612 17.7011 21.5343 17.5765 21.396C17.4519 21.2576 17.3819 21.07 17.3819 20.8744Z" fill="#434343"/>
<path d="M27.664 28.6126C27.8843 28.0415 28.6923 28.0415 28.9126 28.6126C29.256 29.5025 30.2741 29.9242 31.1462 29.5377C31.7058 29.2897 32.2771 29.8611 32.0291 30.4207C31.6426 31.2928 32.0643 32.3108 32.9543 32.6542C33.5254 32.8746 33.5254 33.6825 32.9543 33.9029C32.0643 34.2462 31.6426 35.2643 32.0291 36.1364C32.2771 36.696 31.7058 37.2674 31.1462 37.0194C30.2741 36.6329 29.256 37.0546 28.9126 37.9445C28.6923 38.5156 27.8843 38.5156 27.664 37.9445C27.3206 37.0546 26.3025 36.6329 25.4304 37.0194C24.8708 37.2674 24.2995 36.696 24.5475 36.1364C24.934 35.2643 24.5123 34.2462 23.6223 33.9029C23.0513 33.6825 23.0513 32.8746 23.6223 32.6542C24.5123 32.3108 24.934 31.2928 24.5475 30.4207C24.2995 29.8611 24.8708 29.2897 25.4304 29.5377C26.3025 29.9242 27.3206 29.5025 27.664 28.6126Z" stroke="#434343"/>
<circle cx="28.2882" cy="33.2784" r="2.05769" stroke="#434343"/>
<path d="M19.5195 4.41211L19.5195 2.95057" stroke="#434343" stroke-width="1.5" stroke-linecap="round"/>
<path d="M26.4614 10.9902H27.923" stroke="#434343" stroke-width="1.5" stroke-linecap="round"/>
<path d="M25 6.60547L26.0335 5.57201" stroke="#434343" stroke-width="1.5" stroke-linecap="round"/>
<path d="M13.6104 6.60547L12.5769 5.57201" stroke="#434343" stroke-width="1.5" stroke-linecap="round"/>
<path d="M11.1152 10.9902H12.5768" stroke="#434343" stroke-width="1.5" stroke-linecap="round"/>
</g>
<defs>
<clipPath id="clip0_3067_5091">
<rect width="40" height="40" fill="white" transform="translate(0 0.951172)"/>
</clipPath>
</defs>
</svg>
