<svg width="40" height="41" viewBox="0 0 40 41" fill="none" xmlns="http://www.w3.org/2000/svg">
<path d="M38 38.9512L28.5769 29.5281M17.8077 33.5666C21.7349 33.5666 25.5013 32.0065 28.2783 29.2295C31.0553 26.4525 32.6154 22.6861 32.6154 18.7589C32.6154 14.8316 31.0553 11.0652 28.2783 8.28824C25.5013 5.51126 21.7349 3.95117 17.8077 3.95117C13.8804 3.95117 10.1141 5.51126 7.33707 8.28824C4.56009 11.0652 3 14.8316 3 18.7589C3 22.6861 4.56009 26.4525 7.33707 29.2295C10.1141 32.0065 13.8804 33.5666 17.8077 33.5666Z" stroke="#434343" stroke-width="2" stroke-linecap="round" stroke-linejoin="round"/>
<path d="M14.9824 24.9512V18.9806H10.1974V24.9512H14.9824ZM14.9824 24.9512H19.7674M14.9824 24.9512V14.7159H19.7674V24.9512M9.3999 24.9512H25.3499M19.7674 24.9512H24.5524V10.4512H19.7674V24.9512Z" stroke="#434343" stroke-width="1.5" stroke-linecap="round" stroke-linejoin="round"/>
</svg>
